 <svg width="151" height="142" viewBox="0 0 151 142" fill="none" xmlns="http://www.w3.org/2000/svg">
                    <path d="M35 84C35 60.2518 54.2518 41 78 41V41C101.748 41 121 60.2518 121 84V128H35V84Z"
                        fill="#F44236" />
                    <path d="M35 84C35 60.2518 54.2518 41 78 41V41V128H35V84Z" fill="#D43A32" />
                    <rect x="9" y="109" width="138" height="33" rx="8" fill="#607D8B" />
                    <rect x="72" width="12" height="30" rx="6" fill="#FCC101" />
                    <rect x="126.398" y="16.3789" width="10.3888" height="25.9721" rx="5.19441"
                        transform="rotate(46.7914 126.398 16.3789)" fill="#FCC101" />
                    <rect width="10.3888" height="25.9721" rx="5.19441"
                        transform="matrix(-0.684656 0.728866 0.728866 0.684656 24.4061 17)" fill="#E1AE15" />
                    <rect x="150.69" y="66.0566" width="10.3888" height="20.6917" rx="5.19441"
                        transform="rotate(89.3728 150.69 66.0566)" fill="#FCC101" />
                    <rect width="10.3888" height="20.6917" rx="5.19441"
                        transform="matrix(-0.0109457 0.99994 0.99994 0.0109457 0.113708 66.6777)" fill="#E1AE15" />
                    <path d="M72 6C72 2.68629 74.6863 0 78 0V0V30V30C74.6863 30 72 27.3137 72 24V6Z" fill="#E1AE15" />
                    <path d="M9 117C9 112.582 12.5817 109 17 109H78V142H17C12.5817 142 9 138.418 9 134V117Z"
                        fill="#556D79" />
                    <rect x="46.0197" y="78.3369" width="30.8617" height="9.42997" rx="4.71499"
                        transform="rotate(-46.6044 46.0197 78.3369)" fill="white" />
                </svg>