<svg width="74" height="92" viewBox="0 0 74 92" fill="none" xmlns="http://www.w3.org/2000/svg">
<path d="M1 13.004C1 6.52933 6.24845 1.28088 12.7231 1.28088H32.2621C38.7368 1.28088 43.9852 6.52933 43.9852 13.004V66.7347C43.9852 73.2094 38.7368 78.4578 32.2621 78.4578H12.7231C6.24845 78.4578 1 73.2094 1 66.7347V13.004Z" fill="url(#paint0_linear)"/>
<path d="M1 13.004C1 6.52933 6.24845 1.28088 12.7231 1.28088H32.2621C38.7368 1.28088 43.9852 6.52933 43.9852 13.004V66.7347C43.9852 73.2094 38.7368 78.4578 32.2621 78.4578H12.7231C6.24845 78.4578 1 73.2094 1 66.7347V13.004Z" stroke="white" stroke-opacity="0.01" stroke-width="1.68"/>
<rect x="13.1891" y="70.1138" width="19.3593" height="2.15103" rx="1.07552" fill="white" fill-opacity="0.4"/>
<path d="M30.0148 25.509C30.0148 19.0343 35.2632 13.7859 41.7379 13.7859H61.2769C67.7516 13.7859 73 19.0343 73 25.509V79.2397C73 85.7144 67.7516 90.9628 61.2769 90.9628H41.7379C35.2632 90.9628 30.0148 85.7144 30.0148 79.2397V25.509Z" fill="url(#paint1_linear)"/>
<path d="M30.0148 25.509C30.0148 19.0343 35.2632 13.7859 41.7379 13.7859H61.2769C67.7516 13.7859 73 19.0343 73 25.509V79.2397C73 85.7144 67.7516 90.9628 61.2769 90.9628H41.7379C35.2632 90.9628 30.0148 85.7144 30.0148 79.2397V25.509Z" stroke="white" stroke-opacity="0.01" stroke-width="1.68"/>
<path d="M43.7224 36.4972L43.7319 36.5771L43.7372 36.7002L43.7335 36.8031L43.71 36.9748L43.6702 37.1271L43.611 37.2791L43.5404 37.4124L43.4411 37.5557L43.3424 37.6673L35.9275 45.1897C35.401 45.7238 34.5474 45.7238 34.0209 45.1897C33.5349 44.6966 33.4976 43.9209 33.9087 43.3843L34.0209 43.2555L39.1333 38.0679H18.1222C17.3776 38.0679 16.774 37.4556 16.774 36.7002C16.774 35.9988 17.2944 35.4207 17.965 35.3417L18.1222 35.3325H39.1333L34.0209 30.145C33.5349 29.652 33.4976 28.8762 33.9087 28.3396L34.0209 28.2108C34.5069 27.7177 35.2716 27.6798 35.8005 28.097L35.9275 28.2108L43.3424 35.7331C43.3901 35.7815 43.4335 35.8327 43.4726 35.886L43.5692 36.0382L43.6412 36.1923L43.6889 36.3364L43.7224 36.4972ZM43.7372 51.7449C43.7372 52.4463 43.2168 53.0244 42.5463 53.1035L42.3891 53.1126H21.378L26.4904 58.3002L26.6025 58.429C27.0137 58.9656 26.9764 59.7413 26.4904 60.2344C26.0043 60.7274 25.2397 60.7653 24.7108 60.3482L24.5838 60.2344L17.1689 52.712L17.1131 52.6518L17.0387 52.5591L16.9421 52.407L16.87 52.2528L16.8223 52.1087L16.7889 51.948L16.7763 51.826V51.6637L16.7833 51.5834L16.811 51.4256L16.8548 51.2776L16.9003 51.1661L16.9709 51.0328L17.0609 50.9013C17.0945 50.858 17.1305 50.8168 17.1689 50.7778L24.5838 43.2555L24.7108 43.1417C25.1956 42.7593 25.8786 42.7593 26.3634 43.1417L26.4904 43.2555L26.6025 43.3843C26.9795 43.8761 26.9795 44.569 26.6025 45.0608L26.4904 45.1897L21.378 50.3772H42.3891L42.5463 50.3864C43.2168 50.4654 43.7372 51.0436 43.7372 51.7449Z" fill="white"/>
<rect x="41.8695" y="82.303" width="19.3593" height="2.15103" rx="1.07552" fill="white" fill-opacity="0.4"/>
<defs>
<linearGradient id="paint0_linear" x1="22.4926" y1="1.28088" x2="22.4926" y2="78.4578" gradientUnits="userSpaceOnUse">
<stop stop-color="#176FC1"/>
<stop offset="1" stop-color="#01529E"/>
</linearGradient>
<linearGradient id="paint1_linear" x1="23.1371" y1="18.9007" x2="69.5343" y2="44.7426" gradientUnits="userSpaceOnUse">
<stop stop-color="#F89C30"/>
<stop offset="1" stop-color="#FF6B00"/>
</linearGradient>
</defs>
</svg>
