<svg width="623" height="115" fill="none" xmlns="http://www.w3.org/2000/svg">
  <path d="M39.53 113.37c-6.65 0-13.23-3.37-17.51-8.47a22.98 22.98 0 01-5.6-15.17v-28c0-4.8.88-9.67 3.5-13.68.45-.69.9-1.3 1.4-1.87 4.29-4.95 11.26-6.47 17.8-6.47H96.6c6.25 0 12.83 1.4 17.17 5.88.87.9 1.55 1.83 2.22 3 2.14 3.71 2.84 8.07 2.84 12.36v29.07c0 5.6-1.87 11.63-5.42 15.96-4.4 5.38-11.1 7.4-18.04 7.4H39.53zM13.65 63.75v23.7a11.85 11.85 0 110-23.7zM67.8 25.33c-6.56 0-11.86 5.3-11.86 11.85h23.7c0-6.55-5.3-11.85-11.85-11.85zM133.45 75.6c0 6.55-5.3 11.85-11.85 11.85v-23.7c6.54 0 11.85 5.3 11.85 11.85zM67.79 12.97a5.49 5.49 0 100-10.97 5.49 5.49 0 000 10.97z" fill="#fff"/>
  <path d="M45.98 63.52a6.7 6.7 0 00-6.67 6.67c0 3.67 3 6.67 6.67 6.67s6.68-3 6.68-6.67-3-6.67-6.67-6.67zM89.26 76.86a6.67 6.67 0 100-13.34 6.67 6.67 0 000 13.34zM73.15 84.5c-.08.1-2 2.52-5.53 2.52a7.06 7.06 0 01-5.51-2.49 1.55 1.55 0 00-2.51 1.83 10.44 10.44 0 0016.02.03 1.55 1.55 0 00-2.47-1.89z" fill="#3A2BAB"/>
  <path fill="#fff" d="M67 8h1.8v17.97H67z"/>
  <path d="M206.5 35h10.96v56H206.5V67.8h-20.8V91h-11.04V35h11.04v22.24h20.8V35zm26 11.2a6.27 6.27 0 01-6.32-6.32c0-1.7.62-3.2 1.84-4.48a6.14 6.14 0 014.48-1.92c1.76 0 3.26.64 4.48 1.92a6.14 6.14 0 011.92 4.48c0 1.7-.64 3.2-1.92 4.48a6.1 6.1 0 01-4.48 1.84zM227.38 91V51h10.32v40h-10.32zm21.69-18.8L246.91 51V35h12.4v16l-2.08 21.2h-8.16zm8.88 17.84a6.55 6.55 0 01-4.8 2 6.55 6.55 0 01-4.8-2 6.54 6.54 0 01-2-4.8c0-1.87.67-3.47 2-4.8a6.55 6.55 0 014.8-2c1.87 0 3.47.67 4.8 2a6.55 6.55 0 012 4.8c0 1.87-.67 3.47-2 4.8zM289.04 35h11.04v56h-11.04V35zm71.32 16h10.32v40h-10.32v-4.72c-3.1 3.9-7.44 5.84-13.04 5.84-5.33 0-9.92-2.03-13.76-6.08-3.78-4.1-5.68-9.12-5.68-15.04s1.9-10.9 5.68-14.96c3.84-4.1 8.43-6.16 13.76-6.16 5.6 0 9.95 1.95 13.04 5.84V51zm-19.04 28.16a10.73 10.73 0 007.92 3.12c3.2 0 5.84-1.04 7.92-3.12a11.05 11.05 0 003.2-8.16c0-3.3-1.06-6-3.2-8.08a10.59 10.59 0 00-7.92-3.2c-3.2 0-5.84 1.07-7.92 3.2-2.08 2.08-3.12 4.77-3.12 8.08 0 3.3 1.04 6.03 3.12 8.16zm82.96-29.28c4.59 0 8.24 1.5 10.96 4.48 2.77 2.99 4.16 6.99 4.16 12V91h-10.32V67.08c0-2.4-.59-4.27-1.76-5.6s-2.83-2-4.96-2c-2.35 0-4.19.77-5.52 2.32-1.28 1.55-1.92 3.79-1.92 6.72V91H404.6V67.08c0-2.4-.59-4.27-1.76-5.6s-2.83-2-4.96-2c-2.3 0-4.13.77-5.52 2.32-1.33 1.55-2 3.79-2 6.72V91h-10.32V51h10.32v4.24c2.4-3.57 6.1-5.36 11.12-5.36 4.9 0 8.53 1.92 10.88 5.76 2.67-3.84 6.64-5.76 11.92-5.76zm63.49 42.24c-5.55 0-10.22-1.23-14-3.68a20.1 20.1 0 01-8-10.16l9.44-5.52c2.18 5.7 6.48 8.56 12.88 8.56 3.09 0 5.36-.56 6.8-1.68a5.16 5.16 0 002.16-4.24c0-1.97-.88-3.5-2.65-4.56-1.75-1.12-4.9-2.32-9.44-3.6-2.5-.75-4.63-1.5-6.4-2.24a30.6 30.6 0 01-5.2-2.96 12.7 12.7 0 01-3.92-4.8 15.6 15.6 0 01-1.36-6.72c0-5.07 1.8-9.1 5.37-12.08 3.62-3.04 7.97-4.56 13.04-4.56 4.53 0 8.5 1.12 11.91 3.36a21.93 21.93 0 018.09 9.2l-9.29 5.36c-2.24-4.8-5.8-7.2-10.71-7.2-2.3 0-4.11.53-5.44 1.6a4.85 4.85 0 00-1.93 4c0 1.76.73 3.2 2.17 4.32 1.49 1.07 4.31 2.24 8.47 3.52 1.71.53 3 .96 3.85 1.28.9.27 2.1.72 3.6 1.36 1.54.59 2.72 1.15 3.52 1.68.85.53 1.8 1.25 2.88 2.16 1.06.9 1.86 1.84 2.4 2.8.58.96 1.06 2.13 1.44 3.52.42 1.33.63 2.8.63 4.4 0 5.17-1.89 9.28-5.68 12.32-3.73 3.04-8.6 4.56-14.63 4.56zM514.9 35h11.03v56H514.9V35zm57.4 56l-3.36-10.08h-22.32L543.26 91h-11.92l19.6-56h13.68l19.68 56h-12zm-22.16-20.4h15.36l-7.68-22.88-7.68 22.88z" fill="#F6F5FF"/>
</svg>
