<svg width="827" height="300" viewBox="0 0 827 300" fill="none" xmlns="http://www.w3.org/2000/svg">
<path d="M361.433 284.646H398.009C429.977 284.646 448.553 265.494 448.553 234.246C448.553 204.87 429.977 183.845 398.009 183.845H361.433V193.781H370.937V274.71H361.433V284.646ZM382.601 274.278V194.357H398.009C422.201 194.357 436.601 209.91 436.601 234.246C436.601 259.59 421.913 274.278 398.009 274.278H382.601Z" fill="#01B87A"/>
<path d="M500.012 286.518C517.292 286.518 529.676 276.582 533.852 262.614L522.764 260.022C520.316 270.39 510.668 276.438 500.156 276.438C484.604 276.438 474.812 267.078 474.668 250.374H534.86V246.198C534.86 223.734 521.9 207.893 499.292 207.893C479.42 207.893 463.004 223.59 463.004 247.494C463.004 270.534 477.26 286.518 500.012 286.518ZM474.956 241.158C475.82 227.046 487.052 218.118 499.292 218.118C511.676 218.118 522.476 225.606 523.196 241.158H474.956Z" fill="#01B87A"/>
<path d="M579.735 286.518C597.159 286.518 608.823 277.014 608.823 262.902C608.823 231.942 563.895 247.782 563.895 228.774C563.895 222.294 569.943 217.686 579.303 217.686C589.095 217.686 596.295 223.014 597.303 231.798L607.239 228.918C605.511 215.382 592.983 207.893 580.023 207.893C564.327 207.893 552.951 216.102 552.951 228.774C552.951 258.438 597.735 242.454 597.735 263.478C597.735 271.11 591.543 276.582 580.311 276.582C568.935 276.582 561.879 271.398 561.015 261.318L550.647 263.91C552.375 277.302 562.887 286.518 579.735 286.518Z" fill="#01B87A"/>
<path d="M631.186 284.646H642.562V249.078H656.098L678.274 284.646H691.81L665.314 243.75V242.886L689.938 209.765H676.834L655.666 238.71H642.562V176.645H631.186V284.646Z" fill="#01B87A"/>
<path d="M414.32 136.24C427.44 136.24 438.96 132.56 448.72 125.36C458.48 118.16 465.36 108.08 469.04 94.96H443.6C441.04 100.88 437.2 105.36 431.92 108.4C426.64 111.44 420.72 113.04 414.32 113.04C404.72 113.04 396.72 109.68 390.48 103.12C384.24 96.56 381.04 88.08 381.04 78C381.04 67.92 384.24 59.6 390.48 52.88C396.72 46.32 404.72 42.96 414.32 42.96C420.88 42.96 426.8 44.56 432.08 47.76C437.36 50.96 441.2 55.44 443.6 61.2H469.04C465.36 48.08 458.48 37.84 448.72 30.64C438.96 23.44 427.44 19.92 414.32 19.92C397.36 19.92 383.44 25.52 372.72 36.56C361.84 47.6 356.4 61.52 356.4 78C356.4 94.64 361.84 108.56 372.72 119.6C383.44 130.64 397.36 136.24 414.32 136.24Z" fill="#2D2C2C"/>
<path d="M515.647 136.08C528.607 136.08 539.327 131.92 547.807 123.44C556.287 114.96 560.447 104.56 560.447 91.92C560.447 79.28 556.287 68.72 547.807 60.24C539.327 51.76 528.607 47.6 515.647 47.6C502.687 47.6 491.967 51.76 483.487 60.24C475.007 68.72 470.687 79.28 470.687 91.92C470.687 104.56 474.847 114.96 483.327 123.44C491.807 131.92 502.527 136.08 515.647 136.08ZM500.447 107.6C496.447 103.44 494.367 98.16 494.367 91.92C494.367 85.52 496.447 80.24 500.447 76.08C504.447 71.92 509.407 69.84 515.647 69.84C521.887 69.84 526.847 71.92 530.847 76.08C534.847 80.24 536.767 85.52 536.767 91.92C536.767 98.16 534.847 103.44 530.847 107.6C526.847 111.76 521.887 113.84 515.647 113.84C509.407 113.84 504.447 111.76 500.447 107.6Z" fill="#2D2C2C"/>
<path d="M621.065 170.8C629.865 170.8 636.905 168.72 641.865 164.4C646.825 160.08 649.225 153.52 649.225 144.72V49.68H626.025V58.32H624.265C622.345 56.24 620.585 54.64 618.985 53.2C617.225 51.92 614.825 50.64 611.465 49.36C608.105 48.24 604.425 47.6 600.265 47.6C589.385 47.6 580.265 51.92 573.065 60.4C565.705 68.88 562.025 79.44 562.025 91.76C562.025 104.4 565.865 114.8 573.545 123.28C581.065 131.76 590.345 136.08 601.385 136.08C611.145 136.08 618.665 132.72 624.105 126.16H625.865V143.6C625.865 147.44 624.105 149.36 620.585 149.36H582.985V170.8H621.065ZM606.025 114C600.425 114 595.625 111.92 591.785 107.76C587.785 103.6 585.865 98.32 585.865 91.76C585.865 85.36 587.785 80.08 591.785 75.92C595.625 71.92 600.425 69.84 606.025 69.84C611.785 69.84 616.585 71.76 620.425 75.76C624.265 79.76 626.185 85.2 626.185 91.76C626.185 98 624.265 103.28 620.585 107.6C616.745 111.92 611.945 114 606.025 114Z" fill="#2D2C2C"/>
<path d="M680.566 134V85.04C680.566 80.72 682.006 77.2 684.726 74.32C687.446 71.6 690.806 70.16 694.966 70.16C698.966 70.16 702.326 71.6 705.046 74.32C707.606 77.04 708.886 80.56 708.886 84.88V134H732.246V77.36C732.246 68.88 729.526 61.84 724.086 56.08C718.486 50.48 711.446 47.6 702.646 47.6C693.526 47.6 686.806 50.8 682.166 57.36H680.566V49.68H657.206V134H680.566Z" fill="#2D2C2C"/>
<path d="M781.222 136.08C794.182 136.08 804.902 131.92 813.382 123.44C821.862 114.96 826.022 104.56 826.022 91.92C826.022 79.28 821.862 68.72 813.382 60.24C804.902 51.76 794.182 47.6 781.222 47.6C768.262 47.6 757.542 51.76 749.062 60.24C740.582 68.72 736.262 79.28 736.262 91.92C736.262 104.56 740.422 114.96 748.902 123.44C757.382 131.92 768.102 136.08 781.222 136.08ZM766.022 107.6C762.022 103.44 759.942 98.16 759.942 91.92C759.942 85.52 762.022 80.24 766.022 76.08C770.022 71.92 774.982 69.84 781.222 69.84C787.462 69.84 792.422 71.92 796.422 76.08C800.422 80.24 802.342 85.52 802.342 91.92C802.342 98.16 800.422 103.44 796.422 107.6C792.422 111.76 787.462 113.84 781.222 113.84C774.982 113.84 770.022 111.76 766.022 107.6Z" fill="#2D2C2C"/>
<path d="M0 53.36C0 23.892 23.892 0 53.36 0H246.64C276.108 0 300 23.892 300 53.36V246.64C300 276.108 276.108 300 246.64 300H53.36C23.892 300 0 276.108 0 246.64V53.36Z" fill="url(#paint0_linear)"/>
<path d="M164.788 77.2455H135.038C131.517 77.2455 128.663 80.066 128.663 83.5454C128.663 87.0249 131.517 89.8454 135.038 89.8454H164.788C168.309 89.8454 171.163 87.0249 171.163 83.5454C171.163 80.066 168.309 77.2455 164.788 77.2455ZM164.788 64.6455C174.47 64.6455 182.472 71.7558 183.738 80.9809L183.854 82.1175L183.796 81.4407L198.788 81.4455C209.35 81.4455 217.913 89.9071 217.913 100.345V213.746C217.913 224.184 209.35 232.646 198.788 232.646H101.038C90.4757 232.646 81.9131 224.184 81.9131 213.746V100.345C81.9131 89.9071 90.4757 81.4455 101.038 81.4455L116.03 81.4407L115.964 82.1175L116.088 80.9809C117.354 71.7558 125.356 64.6455 135.038 64.6455H164.788ZM166.913 190.646H115.913C112.392 190.646 109.538 193.466 109.538 196.946C109.538 200.425 112.392 203.246 115.913 203.246H166.913C170.434 203.246 173.288 200.425 173.288 196.946C173.288 193.466 170.434 190.646 166.913 190.646ZM149.913 157.046H115.913C112.392 157.046 109.538 159.866 109.538 163.346C109.538 166.825 112.392 169.645 115.913 169.645H149.913C153.434 169.645 156.288 166.825 156.288 163.346C156.288 159.866 153.434 157.046 149.913 157.046ZM183.913 123.445H115.913C112.392 123.445 109.538 126.266 109.538 129.745C109.538 133.225 112.392 136.045 115.913 136.045H183.913C187.434 136.045 190.288 133.225 190.288 129.745C190.288 126.266 187.434 123.445 183.913 123.445Z" fill="white"/>
<defs>
<linearGradient id="paint0_linear" x1="-42.0837" y1="19.6239" x2="187.73" y2="212.46" gradientUnits="userSpaceOnUse">
<stop stop-color="#DDFF0A"/>
<stop offset="1" stop-color="#00B87A"/>
<stop offset="1" stop-color="#00B87A"/>
</linearGradient>
</defs>
</svg>
