<svg width="512" height="512" viewBox="0 0 512 512" fill="none" xmlns="http://www.w3.org/2000/svg">
<path d="M0 91.0677C0 40.7757 40.7757 0 91.0677 0H420.932C471.224 0 512 40.7757 512 91.0677V420.932C512 471.224 471.224 512 420.932 512H91.0677C40.7757 512 0 471.224 0 420.932V91.0677Z" fill="url(#paint0_linear)"/>
<path d="M281.238 131.832H230.465C224.456 131.832 219.585 136.646 219.585 142.584C219.585 148.522 224.456 153.336 230.465 153.336H281.238C287.247 153.336 292.118 148.522 292.118 142.584C292.118 136.646 287.247 131.832 281.238 131.832ZM281.238 110.328C297.763 110.328 311.419 122.463 313.58 138.207L313.777 140.147L313.678 138.992L339.265 139C357.291 139 371.905 153.442 371.905 171.256V364.793C371.905 382.607 357.291 397.048 339.265 397.048H172.438C154.412 397.048 139.798 382.607 139.798 364.793V171.256C139.798 153.442 154.412 139 172.438 139L198.025 138.992L197.912 140.147L198.123 138.207C200.284 122.463 213.941 110.328 230.465 110.328H281.238ZM284.865 325.368H197.825C191.816 325.368 186.945 330.182 186.945 336.12C186.945 342.059 191.816 346.872 197.825 346.872H284.865C290.874 346.872 295.745 342.059 295.745 336.12C295.745 330.182 290.874 325.368 284.865 325.368ZM255.851 268.024H197.825C191.816 268.024 186.945 272.838 186.945 278.776C186.945 284.715 191.816 289.528 197.825 289.528H255.851C261.861 289.528 266.731 284.715 266.731 278.776C266.731 272.838 261.861 268.024 255.851 268.024ZM313.878 210.68H197.825C191.816 210.68 186.945 215.494 186.945 221.432C186.945 227.37 191.816 232.184 197.825 232.184H313.878C319.887 232.184 324.758 227.37 324.758 221.432C324.758 215.494 319.887 210.68 313.878 210.68Z" fill="white"/>
<defs>
<linearGradient id="paint0_linear" x1="-71.8228" y1="33.4915" x2="320.392" y2="362.599" gradientUnits="userSpaceOnUse">
<stop stop-color="#DDFF0A"/>
<stop offset="1" stop-color="#00B87A"/>
<stop offset="1" stop-color="#00B87A"/>
</linearGradient>
</defs>
</svg>
