<svg width="51" height="51" viewBox="0 0 51 51" fill="none" xmlns="http://www.w3.org/2000/svg">
<g clip-path="url(#clip0)">
<path d="M25.5 51C39.5833 51 51 39.5833 51 25.5C51 11.4167 39.5833 0 25.5 0C11.4167 0 0 11.4167 0 25.5C0 39.5833 11.4167 51 25.5 51Z" fill="#FFD93B"/>
<path d="M40.6088 35.1468C38.1656 41.0947 32.3245 45.2751 25.5016 45.2751C18.6788 45.2751 12.8377 41.0947 10.3785 35.1468C10.1474 34.5938 10.5315 33.9483 11.1308 33.8256C20.706 32.0422 30.2956 32.0422 39.8549 33.8256C40.4542 33.9483 40.8383 34.5938 40.6088 35.1468Z" fill="#3E4347"/>
<path d="M51 25.5001C51 39.5888 39.5808 51.0001 25.5 51.0001C17.4834 51.0001 10.3275 47.3026 5.64984 41.5093C10.0247 45.0474 15.5948 47.1591 21.6591 47.1591C35.7398 47.1591 47.159 35.7479 47.159 21.6591C47.159 15.5949 45.0473 10.0247 41.5092 5.6499C47.2945 10.3276 51 17.4835 51 25.5001Z" fill="#F4C534"/>
<path d="M11.4814 33.7684C13.2951 36.7201 18.9704 37.0372 25.7423 37.0372C32.4249 37.0372 38.1129 36.7201 40.0031 33.8911C39.9521 33.872 39.9107 33.837 39.8565 33.8258C30.4119 32.0631 20.9403 32.0504 11.4814 33.7684Z" fill="white"/>
<path d="M35.5008 24.8513C37.9319 24.8513 39.9027 22.879 39.9027 20.4461C39.9027 18.0133 37.9319 16.041 35.5008 16.041C33.0696 16.041 31.0988 18.0133 31.0988 20.4461C31.0988 22.879 33.0696 24.8513 35.5008 24.8513Z" fill="#3E4347"/>
<path d="M37.954 18.1649C37.489 17.6998 36.8578 17.5771 36.5441 17.8908C36.2303 18.2045 36.3529 18.8358 36.8179 19.3008C37.2829 19.7658 37.9141 19.8885 38.2278 19.5748C38.5416 19.2612 38.419 18.6299 37.954 18.1649Z" fill="white"/>
<path d="M15.4976 24.8513C17.9287 24.8513 19.8995 22.879 19.8995 20.4461C19.8995 18.0133 17.9287 16.041 15.4976 16.041C13.0665 16.041 11.0956 18.0133 11.0956 20.4461C11.0956 22.879 13.0665 24.8513 15.4976 24.8513Z" fill="#3E4347"/>
<path d="M17.9516 18.1622C17.4866 17.6971 16.8553 17.5744 16.5416 17.8881C16.2279 18.2018 16.3505 18.8331 16.8155 19.2981C17.2804 19.7632 17.9117 19.8858 18.2254 19.5722C18.5391 19.2585 18.4165 18.6272 17.9516 18.1622Z" fill="white"/>
</g>
<defs>
<clipPath id="clip0">
<rect width="51" height="51" fill="white"/>
</clipPath>
</defs>
</svg>
