<svg width="54" height="232" viewBox="0 0 54 232" fill="none" xmlns="http://www.w3.org/2000/svg">
<rect width="53.6029" height="232" rx="5" fill="white"/>
<rect x="0.5" y="42.5" width="53" height="189" rx="4.5" fill="white" stroke="#DEDEDE"/>
<path d="M31.8268 69.9638C31.6311 69.9642 31.4414 69.8961 31.2907 69.7712L26.8015 66.019L22.3039 69.6372C22.2182 69.7068 22.1196 69.7587 22.0138 69.7901C21.908 69.8214 21.797 69.8316 21.6873 69.8199C21.5775 69.8082 21.4712 69.775 21.3743 69.722C21.2775 69.6691 21.192 69.5976 21.1229 69.5116C21.0534 69.4259 21.0014 69.3273 20.9701 69.2215C20.9387 69.1157 20.9286 69.0047 20.9402 68.895C20.9519 68.7852 20.9852 68.6789 21.0381 68.582C21.091 68.4852 21.1625 68.3997 21.2486 68.3306L26.2738 64.2853C26.4237 64.1621 26.6117 64.0948 26.8057 64.0948C26.9997 64.0948 27.1876 64.1621 27.3375 64.2853L32.3628 68.473C32.4476 68.5433 32.5177 68.6297 32.5691 68.7271C32.6205 68.8246 32.6521 68.9312 32.6622 69.0409C32.6724 69.1506 32.6607 69.2612 32.628 69.3664C32.5953 69.4716 32.5422 69.5693 32.4717 69.654C32.3937 69.75 32.2955 69.8276 32.184 69.8812C32.0725 69.9348 31.9505 69.963 31.8268 69.9638Z" fill="#0254D7"/>
<path d="M26.0508 144C21.6394 144 18.0508 147.589 18.0508 152C18.0508 156.411 21.6394 160 26.0508 160C30.4622 160 34.0508 156.411 34.0508 152C34.0508 147.589 30.4622 144 26.0508 144ZM26.0508 156.667C25.6827 156.667 25.3842 156.368 25.3842 156C25.3842 155.632 25.6827 155.333 26.0508 155.333C26.4188 155.333 26.7174 155.632 26.7174 156C26.7174 156.368 26.4188 156.667 26.0508 156.667ZM27.1061 152.428C26.8701 152.537 26.7174 152.775 26.7174 153.034V153.333C26.7174 153.701 26.4194 154 26.0508 154C25.6821 154 25.3842 153.701 25.3842 153.333V153.034C25.3842 152.256 25.8414 151.543 26.5475 151.217C27.2268 150.904 27.7174 150.074 27.7174 149.667C27.7174 148.748 26.9701 148 26.0508 148C25.1315 148 24.3842 148.748 24.3842 149.667C24.3842 150.035 24.0861 150.333 23.7174 150.333C23.3488 150.333 23.0508 150.035 23.0508 149.667C23.0508 148.013 24.3967 146.667 26.0508 146.667C27.7048 146.667 29.0508 148.013 29.0508 149.667C29.0508 150.567 28.2694 151.891 27.1061 152.428Z" fill="#0254D7"/>
<line x1="8" y1="186.052" x2="44.852" y2="186.052" stroke="#E6E6E6"/>
<path d="M26.426 204.001C24.9076 204.001 23.4232 204.452 22.1606 205.295C20.8981 206.139 19.914 207.338 19.333 208.741C18.7519 210.144 18.5998 211.687 18.8961 213.177C19.1923 214.666 19.9235 216.034 20.9972 217.108C22.0709 218.181 23.4389 218.912 24.9282 219.209C26.4175 219.505 27.9612 219.353 29.3641 218.772C30.767 218.191 31.966 217.207 32.8096 215.944C33.6533 214.682 34.1035 213.197 34.1035 211.679C34.1035 210.671 33.9049 209.672 33.5191 208.741C33.1333 207.809 32.5678 206.963 31.8548 206.25C31.1419 205.537 30.2956 204.971 29.3641 204.586C28.4326 204.2 27.4343 204.001 26.426 204.001ZM28.5066 212.669C28.5786 212.741 28.6357 212.825 28.6747 212.919C28.7137 213.013 28.7337 213.113 28.7337 213.214C28.7337 213.316 28.7137 213.416 28.6747 213.51C28.6357 213.603 28.5786 213.688 28.5066 213.759C28.4353 213.831 28.3504 213.888 28.2568 213.927C28.1632 213.966 28.0629 213.986 27.9615 213.986C27.8602 213.986 27.7598 213.966 27.6663 213.927C27.5727 213.888 27.4878 213.831 27.4164 213.759L26.426 212.761L25.4356 213.759C25.3643 213.831 25.2794 213.888 25.1858 213.927C25.0922 213.966 24.9919 213.986 24.8905 213.986C24.7892 213.986 24.6888 213.966 24.5953 213.927C24.5017 213.888 24.4168 213.831 24.3454 213.759C24.2735 213.688 24.2164 213.603 24.1774 213.51C24.1384 213.416 24.1183 213.316 24.1183 213.214C24.1183 213.113 24.1384 213.013 24.1774 212.919C24.2164 212.825 24.2735 212.741 24.3454 212.669L25.3435 211.679L24.3454 210.688C24.2009 210.544 24.1196 210.348 24.1196 210.143C24.1196 209.939 24.2009 209.743 24.3454 209.598C24.49 209.454 24.6861 209.372 24.8905 209.372C25.095 209.372 25.2911 209.454 25.4356 209.598L26.426 210.596L27.4164 209.598C27.561 209.454 27.7571 209.372 27.9615 209.372C28.166 209.372 28.3621 209.454 28.5066 209.598C28.6512 209.743 28.7324 209.939 28.7324 210.143C28.7324 210.348 28.6512 210.544 28.5066 210.688L27.5086 211.679L28.5066 212.669Z" fill="#0254D7"/>
<g clip-path="url(#clip0)">
<path d="M31.6555 100.344C28.5307 97.219 23.4731 97.2185 20.3478 100.344C17.835 102.857 17.3602 106.593 18.8458 109.568L18.0222 113.191C17.9151 113.662 18.3371 114.084 18.8082 113.977L22.4309 113.154C27.6984 115.783 33.9975 111.976 33.9975 105.998C33.9975 103.862 33.1658 101.854 31.6555 100.344ZM27.6696 107.989H22.6658C22.303 107.989 22.009 107.695 22.009 107.332C22.009 106.969 22.303 106.675 22.6658 106.675H27.6696C28.0323 106.675 28.3264 106.969 28.3264 107.332C28.3264 107.695 28.0323 107.989 27.6696 107.989ZM29.3376 105.32H22.6658C22.303 105.32 22.009 105.026 22.009 104.663C22.009 104.301 22.303 104.007 22.6658 104.007H29.3376C29.7003 104.007 29.9943 104.301 29.9943 104.663C29.9943 105.026 29.7003 105.32 29.3376 105.32Z" fill="#0254D7"/>
</g>
<defs>
<clipPath id="clip0">
<rect width="16" height="16" fill="white" transform="translate(18 98)"/>
</clipPath>
</defs>
</svg>
