<svg width="75" height="75" viewBox="0 0 75 75" fill="none" xmlns="http://www.w3.org/2000/svg">
<path d="M0 13.34C0 5.973 5.973 0 13.34 0H61.66C69.027 0 75 5.973 75 13.34V61.66C75 69.027 69.027 75 61.66 75H13.34C5.973 75 0 69.027 0 61.66V13.34Z" fill="url(#paint0_linear)"/>
<path d="M41.7917 18.021H34.2084C33.311 18.021 32.5834 18.7905 32.5834 19.7397C32.5834 20.689 33.311 21.4585 34.2084 21.4585H41.7917C42.6892 21.4585 43.4167 20.689 43.4167 19.7397C43.4167 18.7905 42.6892 18.021 41.7917 18.021ZM41.7917 14.5835C44.2598 14.5835 46.2994 16.5233 46.6222 19.0401L46.6516 19.3502L46.6369 19.1655L50.4584 19.1668C53.1508 19.1668 55.3334 21.4754 55.3334 24.3231V55.2606C55.3334 58.1083 53.1508 60.4168 50.4584 60.4168H25.5417C22.8494 60.4168 20.6667 58.1083 20.6667 55.2606V24.3231C20.6667 21.4754 22.8494 19.1668 25.5417 19.1668L29.3633 19.1655L29.3464 19.3502L29.3779 19.0401C29.7007 16.5233 31.7404 14.5835 34.2084 14.5835H41.7917ZM42.3334 48.9585H29.3334C28.436 48.9585 27.7084 49.728 27.7084 50.6772C27.7084 51.6265 28.436 52.396 29.3334 52.396H42.3334C43.2309 52.396 43.9584 51.6265 43.9584 50.6772C43.9584 49.728 43.2309 48.9585 42.3334 48.9585ZM38.0001 39.7918H29.3334C28.436 39.7918 27.7084 40.5613 27.7084 41.5106C27.7084 42.4598 28.436 43.2293 29.3334 43.2293H38.0001C38.8975 43.2293 39.6251 42.4598 39.6251 41.5106C39.6251 40.5613 38.8975 39.7918 38.0001 39.7918ZM46.6667 30.6252H29.3334C28.436 30.6252 27.7084 31.3947 27.7084 32.3439C27.7084 33.2932 28.436 34.0627 29.3334 34.0627H46.6667C47.5642 34.0627 48.2917 33.2932 48.2917 32.3439C48.2917 31.3947 47.5642 30.6252 46.6667 30.6252Z" fill="white"/>
<defs>
<linearGradient id="paint0_linear" x1="37.5" y1="0" x2="37.5" y2="75" gradientUnits="userSpaceOnUse">
<stop stop-color="#BBBBBB"/>
<stop offset="1" stop-color="#767575"/>
</linearGradient>
</defs>
</svg>
