<svg width="133" height="110" viewBox="0 0 133 110" fill="none" xmlns="http://www.w3.org/2000/svg">
<path opacity="0.3" d="M0.602051 109V98.4971H2.33057L7.31104 106.268H7.39893V98.4971H8.97363V109H7.23047L2.28662 101.229H2.19141V109H0.602051ZM11.0024 105.082C11.0024 104.305 11.1782 103.602 11.5298 102.972C11.8862 102.342 12.3818 101.849 13.0166 101.493C13.6514 101.136 14.3643 100.958 15.1553 100.958C15.9463 100.958 16.6567 101.139 17.2866 101.5C17.9214 101.861 18.4121 102.357 18.7588 102.987C19.1104 103.612 19.2861 104.31 19.2861 105.082C19.2861 105.853 19.1079 106.554 18.7515 107.184C18.3999 107.809 17.9067 108.302 17.272 108.663C16.6372 109.02 15.9268 109.198 15.1406 109.198C13.9395 109.198 12.9482 108.81 12.167 108.033C11.3906 107.252 11.0024 106.268 11.0024 105.082ZM12.6064 105.082C12.6064 105.863 12.8433 106.507 13.3169 107.015C13.7954 107.518 14.4033 107.77 15.1406 107.77C15.8828 107.77 16.4907 107.516 16.9644 107.008C17.4429 106.5 17.6821 105.858 17.6821 105.082C17.6821 104.3 17.4429 103.658 16.9644 103.155C16.4907 102.652 15.8828 102.401 15.1406 102.401C14.3984 102.401 13.7905 102.655 13.3169 103.163C12.8433 103.666 12.6064 104.305 12.6064 105.082ZM25.3726 109V98.4971H28.7051C29.7988 98.4971 30.7485 98.7217 31.5542 99.1709C32.3647 99.6201 32.9775 100.238 33.3926 101.024C33.8076 101.805 34.0151 102.708 34.0151 103.734C34.0151 105.37 33.5464 106.656 32.6089 107.594C31.6714 108.531 30.3701 109 28.7051 109H25.3726ZM26.9912 107.586H28.6758C29.7891 107.586 30.6826 107.254 31.3564 106.59C32.0303 105.926 32.3672 104.974 32.3672 103.734C32.3672 102.533 32.0303 101.598 31.3564 100.929C30.6875 100.26 29.7939 99.9253 28.6758 99.9253H26.9912V107.586ZM36.4468 108.062C35.7437 107.306 35.3921 106.319 35.3921 105.104C35.3921 103.888 35.7412 102.894 36.4395 102.123C37.1377 101.346 38.0337 100.958 39.1274 100.958C39.479 100.958 39.8086 101.007 40.1162 101.104C40.4238 101.202 40.6802 101.329 40.8853 101.485C41.0952 101.642 41.2612 101.786 41.3833 101.917C41.5054 102.044 41.6079 102.171 41.6909 102.298H41.8008V101.156H43.3755V109H41.8301V107.887H41.7349C41.1147 108.761 40.27 109.198 39.2007 109.198C38.0728 109.198 37.1548 108.819 36.4468 108.062ZM36.9961 105.082C36.9961 105.892 37.2183 106.544 37.6626 107.037C38.1118 107.525 38.7002 107.77 39.4277 107.77C40.1602 107.77 40.7461 107.513 41.1855 107C41.625 106.488 41.8447 105.848 41.8447 105.082C41.8447 104.256 41.6152 103.604 41.1562 103.126C40.7021 102.643 40.1211 102.401 39.4131 102.401C38.7002 102.401 38.1191 102.652 37.6699 103.155C37.2207 103.653 36.9961 104.295 36.9961 105.082ZM45.0015 102.445V101.17H46.0342C46.1709 101.17 46.2832 101.124 46.3711 101.031C46.459 100.938 46.5029 100.814 46.5029 100.658V98.9365H47.9824V101.156H50.2676V102.445H47.9824V106.466C47.9824 107.267 48.3633 107.667 49.125 107.667H50.187V109H48.8833C48.1021 109 47.4941 108.788 47.0596 108.363C46.625 107.933 46.4077 107.315 46.4077 106.51V102.445H45.0015ZM52.6333 108.062C51.9302 107.306 51.5786 106.319 51.5786 105.104C51.5786 103.888 51.9277 102.894 52.626 102.123C53.3242 101.346 54.2202 100.958 55.314 100.958C55.6655 100.958 55.9951 101.007 56.3027 101.104C56.6104 101.202 56.8667 101.329 57.0718 101.485C57.2817 101.642 57.4478 101.786 57.5698 101.917C57.6919 102.044 57.7944 102.171 57.8774 102.298H57.9873V101.156H59.562V109H58.0166V107.887H57.9214C57.3013 108.761 56.4565 109.198 55.3872 109.198C54.2593 109.198 53.3413 108.819 52.6333 108.062ZM53.1826 105.082C53.1826 105.892 53.4048 106.544 53.8491 107.037C54.2983 107.525 54.8867 107.77 55.6143 107.77C56.3467 107.77 56.9326 107.513 57.3721 107C57.8115 106.488 58.0312 105.848 58.0312 105.082C58.0312 104.256 57.8018 103.604 57.3428 103.126C56.8887 102.643 56.3076 102.401 55.5996 102.401C54.8867 102.401 54.3057 102.652 53.8564 103.155C53.4072 103.653 53.1826 104.295 53.1826 105.082ZM64.96 109L68.8418 98.4971H70.812L74.7085 109H73.002L72.1743 106.722H67.4502L66.6226 109H64.96ZM67.9556 105.265H71.6616L69.8672 100.313H69.7573L67.9556 105.265ZM74.6572 101.156H76.3271L78.4365 107.096H78.5464L80.6411 101.156H82.3403L79.3521 109H77.6455L74.6572 101.156ZM84.0981 108.062C83.395 107.306 83.0435 106.319 83.0435 105.104C83.0435 103.888 83.3926 102.894 84.0908 102.123C84.7891 101.346 85.6851 100.958 86.7788 100.958C87.1304 100.958 87.46 101.007 87.7676 101.104C88.0752 101.202 88.3315 101.329 88.5366 101.485C88.7466 101.642 88.9126 101.786 89.0347 101.917C89.1567 102.044 89.2593 102.171 89.3423 102.298H89.4521V101.156H91.0269V109H89.4814V107.887H89.3862C88.7661 108.761 87.9214 109.198 86.8521 109.198C85.7241 109.198 84.8062 108.819 84.0981 108.062ZM84.6475 105.082C84.6475 105.892 84.8696 106.544 85.314 107.037C85.7632 107.525 86.3516 107.77 87.0791 107.77C87.8115 107.77 88.3975 107.513 88.8369 107C89.2764 106.488 89.4961 105.848 89.4961 105.082C89.4961 104.256 89.2666 103.604 88.8076 103.126C88.3535 102.643 87.7725 102.401 87.0645 102.401C86.3516 102.401 85.7705 102.652 85.3213 103.155C84.8721 103.653 84.6475 104.295 84.6475 105.082ZM93.0557 98.9219C93.0557 98.6338 93.1533 98.397 93.3486 98.2114C93.5439 98.0259 93.7905 97.9331 94.0884 97.9331C94.396 97.9331 94.6475 98.0259 94.8428 98.2114C95.043 98.397 95.1431 98.6338 95.1431 98.9219C95.1431 99.2197 95.043 99.4614 94.8428 99.647C94.6475 99.8325 94.396 99.9253 94.0884 99.9253C93.7856 99.9253 93.5366 99.8325 93.3413 99.647C93.1509 99.4614 93.0557 99.2197 93.0557 98.9219ZM93.2974 109V101.156H94.8721V109H93.2974ZM97.1353 107.052V97.75H98.71V106.957C98.71 107.167 98.7612 107.328 98.8638 107.44C98.9663 107.552 99.1152 107.608 99.3105 107.608H99.6401V109H98.9956C98.4048 109 97.9458 108.829 97.6187 108.487C97.2964 108.146 97.1353 107.667 97.1353 107.052ZM101.881 108.062C101.178 107.306 100.827 106.319 100.827 105.104C100.827 103.888 101.176 102.894 101.874 102.123C102.572 101.346 103.468 100.958 104.562 100.958C104.914 100.958 105.243 101.007 105.551 101.104C105.858 101.202 106.115 101.329 106.32 101.485C106.53 101.642 106.696 101.786 106.818 101.917C106.94 102.044 107.042 102.171 107.125 102.298H107.235V101.156H108.81V109H107.265V107.887H107.169C106.549 108.761 105.705 109.198 104.635 109.198C103.507 109.198 102.589 108.819 101.881 108.062ZM102.431 105.082C102.431 105.892 102.653 106.544 103.097 107.037C103.546 107.525 104.135 107.77 104.862 107.77C105.595 107.77 106.181 107.513 106.62 107C107.06 106.488 107.279 105.848 107.279 105.082C107.279 104.256 107.05 103.604 106.591 103.126C106.137 102.643 105.556 102.401 104.848 102.401C104.135 102.401 103.554 102.652 103.104 103.155C102.655 103.653 102.431 104.295 102.431 105.082ZM111.081 109V97.75H112.655V102.298H112.743C112.821 102.171 112.924 102.042 113.051 101.91C113.183 101.778 113.351 101.637 113.556 101.485C113.766 101.329 114.025 101.202 114.333 101.104C114.645 101.007 114.977 100.958 115.329 100.958C116.417 100.958 117.309 101.346 118.002 102.123C118.695 102.894 119.042 103.888 119.042 105.104C119.042 106.319 118.69 107.306 117.987 108.062C117.284 108.819 116.366 109.198 115.233 109.198C114.174 109.198 113.334 108.761 112.714 107.887H112.611V109H111.081ZM112.611 105.082C112.611 105.848 112.829 106.488 113.263 107C113.698 107.513 114.281 107.77 115.014 107.77C115.746 107.77 116.332 107.525 116.771 107.037C117.216 106.549 117.438 105.897 117.438 105.082C117.438 104.291 117.216 103.646 116.771 103.148C116.332 102.65 115.756 102.401 115.043 102.401C114.335 102.401 113.751 102.643 113.292 103.126C112.838 103.604 112.611 104.256 112.611 105.082ZM120.602 107.052V97.75H122.177V106.957C122.177 107.167 122.228 107.328 122.331 107.44C122.433 107.552 122.582 107.608 122.777 107.608H123.107V109H122.462C121.872 109 121.413 108.829 121.085 108.487C120.763 108.146 120.602 107.667 120.602 107.052ZM124.293 105.104C124.293 104.288 124.464 103.565 124.806 102.936C125.148 102.301 125.614 101.812 126.205 101.471C126.801 101.129 127.47 100.958 128.212 100.958C128.808 100.958 129.35 101.063 129.838 101.273C130.326 101.483 130.729 101.771 131.046 102.137C131.369 102.503 131.615 102.931 131.786 103.419C131.962 103.907 132.05 104.432 132.05 104.994V105.58H125.868C125.897 106.268 126.129 106.822 126.564 107.242C126.999 107.662 127.572 107.872 128.285 107.872C128.783 107.872 129.228 107.76 129.618 107.535C130.014 107.311 130.29 107.008 130.446 106.627H131.977C131.771 107.398 131.334 108.021 130.666 108.495C130.001 108.963 129.193 109.198 128.241 109.198C127.074 109.198 126.125 108.814 125.392 108.048C124.66 107.276 124.293 106.295 124.293 105.104ZM125.897 104.364H130.49C130.441 103.719 130.204 103.211 129.779 102.84C129.354 102.464 128.832 102.276 128.212 102.276C127.606 102.276 127.084 102.472 126.645 102.862C126.205 103.253 125.956 103.753 125.897 104.364Z" fill="#909090"/>
<g opacity="0.05" clip-path="url(#clip0)">
<path d="M102.496 67.9766H98.5859V51.4588C98.5859 50.6282 97.9127 49.9549 97.082 49.9549C96.2514 49.9549 95.5781 50.6282 95.5781 51.4588V67.9766H87.7578V21.4054H95.5781V37.9231C95.5781 38.7538 96.2514 39.427 97.082 39.427C97.9127 39.427 98.5859 38.7538 98.5859 37.9231V19.9015C98.5859 19.0708 97.9127 18.3976 97.082 18.3976H86.2539C85.4232 18.3976 84.75 19.0708 84.75 19.9015V67.9766H81.1406V31.2313C81.1406 30.4006 80.4674 29.7274 79.6367 29.7274H68.8086C67.9779 29.7274 67.3047 30.4006 67.3047 31.2313V67.9766H63.6454V49.1777C63.6454 48.3471 62.9721 47.6738 62.1415 47.6738H51.3133C50.4827 47.6738 49.8094 48.3471 49.8094 49.1777V67.9766H46.25V58.6523C46.25 57.8217 45.5768 57.1484 44.7461 57.1484H33.918C33.0873 57.1484 32.4141 57.8217 32.4141 58.6523V67.9766H28.5039C27.6732 67.9766 27 68.6498 27 69.4805V75.4961C27 76.3268 27.6732 77 28.5039 77H102.496C103.327 77 104 76.3268 104 75.4961V69.4805C104 68.6498 103.327 67.9766 102.496 67.9766ZM70.3125 32.7352H78.1328V67.9766H70.3125V32.7352ZM52.8173 50.6816H60.6376V67.9766H52.8173V50.6816ZM35.4219 60.1562H43.2422V67.9766H35.4219V60.1562ZM100.992 73.9922H30.0078V70.9844H100.992V73.9922Z" fill="black"/>
<path d="M33.918 27.0944H40.3953C46.3881 27.0944 52.3896 26.4206 58.2331 25.0917C72.3158 21.8895 85.2082 14.9927 95.6721 5.09213V5.9463C95.6721 6.77698 96.3454 7.45021 97.176 7.45021C98.0067 7.45021 98.6799 6.77698 98.6799 5.9463V1.50391C98.6799 0.673233 98.0067 0 97.176 0H92.7336C91.903 0 91.2297 0.673233 91.2297 1.50391C91.2297 2.33458 91.903 3.00781 92.7336 3.00781H93.4997C83.4452 12.4842 71.0744 19.0873 57.5663 22.1591C51.9413 23.438 46.1642 24.0866 40.3953 24.0866H33.918C33.0873 24.0866 32.4141 24.7598 32.4141 25.5905C32.4141 26.4212 33.0873 27.0944 33.918 27.0944Z" fill="black"/>
<path d="M97.082 43.188C96.6867 43.188 96.2984 43.3472 96.0187 43.6286C95.7391 43.9082 95.5781 44.2947 95.5781 44.6919C95.5781 45.0872 95.7391 45.475 96.0187 45.7546C96.2984 46.0348 96.6867 46.1958 97.082 46.1958C97.4774 46.1958 97.8657 46.0348 98.1453 45.7546C98.425 45.475 98.5859 45.0872 98.5859 44.6919C98.5859 44.2947 98.425 43.9082 98.1453 43.6286C97.8657 43.3472 97.4774 43.188 97.082 43.188Z" fill="black"/>
</g>
<defs>
<clipPath id="clip0">
<rect width="77" height="77" fill="white" transform="translate(27)"/>
</clipPath>
</defs>
</svg>
