<svg width="52" height="52" viewBox="0 0 52 52" fill="none" xmlns="http://www.w3.org/2000/svg">
<rect width="52" height="52" rx="8" fill="url(#paint0_linear)"/>
<path d="M39.9231 14.4796L38.52 13.0761C38.4671 13.0232 38.4009 13 38.3314 13C38.2619 13 38.1958 13.0265 38.1428 13.0761L35.6246 15.5951C34.5299 14.8531 33.2375 14.4576 31.9152 14.4597C30.221 14.4597 28.5268 15.1052 27.2329 16.3994L23.861 19.7723C23.8118 19.8221 23.7841 19.8893 23.7841 19.9594C23.7841 20.0294 23.8118 20.0966 23.861 20.1464L32.8517 29.1398C32.9046 29.1927 32.9708 29.2159 33.0403 29.2159C33.1065 29.2159 33.176 29.1894 33.2289 29.1398L36.6008 25.7668C38.8807 23.4829 39.1487 19.9511 37.4049 17.3759L39.9231 14.8569C40.0256 14.751 40.0256 14.5822 39.9231 14.4796V14.4796ZM28.7121 27.6502C28.6623 27.601 28.5951 27.5733 28.5251 27.5733C28.4551 27.5733 28.3879 27.601 28.3381 27.6502L26.1343 29.8547L23.1463 26.8658L25.3534 24.658C25.456 24.5554 25.456 24.3865 25.3534 24.2839L24.1489 23.0791C24.0992 23.0298 24.032 23.0021 23.962 23.0021C23.8919 23.0021 23.8248 23.0298 23.775 23.0791L21.5679 25.2869L20.145 23.8636C20.1203 23.8388 20.0909 23.8193 20.0584 23.8063C20.026 23.7932 19.9913 23.7868 19.9564 23.7874C19.8902 23.7874 19.8207 23.8139 19.7678 23.8636L16.3992 27.2365C14.1192 29.5171 13.8512 33.0522 15.5951 35.6274L13.0769 38.1464C13.0276 38.1961 13 38.2634 13 38.3334C13 38.4034 13.0276 38.4706 13.0769 38.5204L14.4799 39.9239C14.5329 39.9768 14.5991 40 14.6685 40C14.738 40 14.8042 39.9735 14.8572 39.9239L17.3753 37.4049C18.4905 38.1629 19.7876 38.5403 21.0848 38.5403C22.779 38.5403 24.4732 37.8948 25.767 36.6006L29.1389 33.2277C29.2415 33.125 29.2415 32.9562 29.1389 32.8536L27.7161 31.4303L29.9232 29.2225C30.0258 29.1199 30.0258 28.9511 29.9232 28.8485L28.7121 27.6502V27.6502Z" fill="white"/>
<defs>
<linearGradient id="paint0_linear" x1="28.5" y1="24" x2="0" y2="0" gradientUnits="userSpaceOnUse">
<stop stop-color="#3A64F5"/>
<stop offset="1" stop-color="#76D9E5"/>
</linearGradient>
</defs>
</svg>
