<svg width="20" height="20" viewBox="0 0 20 20" fill="none" xmlns="http://www.w3.org/2000/svg">
<path d="M10 16C13.3137 16 16 13.3137 16 10C16 6.68629 13.3137 4 10 4C6.68629 4 4 6.68629 4 10C4 13.3137 6.68629 16 10 16Z" fill="#212121"/>
<path d="M10 0C4.47715 0 0 4.47715 0 10C0 15.5228 4.47715 20 10 20C15.5228 20 20 15.5228 20 10C20 4.47715 15.5228 0 10 0ZM1.5 10C1.5 5.30558 5.30558 1.5 10 1.5C14.6944 1.5 18.5 5.30558 18.5 10C18.5 14.6944 14.6944 18.5 10 18.5C5.30558 18.5 1.5 14.6944 1.5 10Z" fill="#212121"/>
</svg>
