<svg width="37" height="38" viewBox="0 0 37 38" fill="none" xmlns="http://www.w3.org/2000/svg">
    <path fill-rule="evenodd" clip-rule="evenodd" d="M6.18925 30.1585C3.65378 29.0783 0.342596 27.6675 0.342651 23.6203V7.59092C0.342651 4.04765 3.54511 0.721194 6.95627 0.721191H31.1018C34.4086 0.721191 36.7176 3.92707 36.7176 7.59092V23.6203C36.7176 25.9102 35.8358 30.49 32.3086 30.49H14.6722L9.16088 35.0698C4.11986 39.0836 4.93145 36.6295 6.42607 32.1099C6.59648 31.5946 6.77577 31.0525 6.95628 30.49C6.7123 30.3814 6.45509 30.2718 6.18937 30.1586L6.1893 30.1585L6.18925 30.1585ZM9.16077 19.0403C10.3783 19.0403 11.3653 18.0151 11.3653 16.7504C11.3653 15.4857 10.3783 14.4605 9.16077 14.4605C7.94324 14.4605 6.95623 15.4857 6.95623 16.7504C6.95623 18.0151 7.94324 19.0403 9.16077 19.0403ZM29.0017 16.7504C29.0017 18.0151 28.0147 19.0403 26.7972 19.0403C25.5797 19.0403 24.5926 18.0151 24.5926 16.7504C24.5926 15.4857 25.5797 14.4605 26.7972 14.4605C28.0147 14.4605 29.0017 15.4857 29.0017 16.7504ZM17.979 19.0403C19.1965 19.0403 20.1835 18.0151 20.1835 16.7504C20.1835 15.4857 19.1965 14.4605 17.979 14.4605C16.7614 14.4605 15.7744 15.4857 15.7744 16.7504C15.7744 18.0151 16.7614 19.0403 17.979 19.0403Z" fill="#0254D7">
    </path>
</svg>
