<svg width="366" height="332" viewBox="0 0 366 332" fill="none" xmlns="http://www.w3.org/2000/svg">
<path fill-rule="evenodd" clip-rule="evenodd" d="M253.118 39.437C253.244 39.0166 253.63 38.7279 254.069 38.7257C254.071 38.7256 254.074 38.7256 254.076 38.7257C254.476 38.7277 254.798 39.0529 254.795 39.4521C254.795 39.5972 254.794 39.6819 254.794 39.7062C254.794 39.7077 254.794 39.7094 254.794 39.7114C254.794 40.1847 254.415 40.5709 253.942 40.5799L253.814 40.5824C253.775 40.5831 253.736 40.5809 253.698 40.5757C253.279 40.5192 252.985 40.134 253.041 39.7152C253.045 39.6854 253.071 39.5926 253.118 39.437ZM256.517 55.7519C256.643 55.3315 257.029 55.0429 257.468 55.0406C257.47 55.0406 257.473 55.0406 257.475 55.0406C257.875 55.0427 258.196 55.3679 258.194 55.7671C258.194 55.9122 258.193 55.9969 258.193 56.0211C258.193 56.0227 258.193 56.0244 258.193 56.0264C258.193 56.4997 257.814 56.8859 257.341 56.8949L257.213 56.8973C257.174 56.8981 257.135 56.8958 257.096 56.8906C256.678 56.8342 256.384 56.449 256.44 56.0302C256.444 56.0003 256.47 55.9076 256.517 55.7519ZM155.595 43.8668C155.658 44.0095 155.693 44.0951 155.7 44.1236C155.807 44.5366 155.558 44.9579 155.145 45.0645C155.109 45.0738 155.073 45.0805 155.036 45.0845L154.891 45.1003C154.418 45.1518 153.992 44.8127 153.936 44.3402C153.933 44.3166 153.923 44.2354 153.906 44.0965C153.856 43.6907 154.145 43.3213 154.551 43.2715C154.992 43.2172 155.417 43.4593 155.595 43.8668ZM154.513 58.5992C154.585 58.7623 154.624 58.8601 154.633 58.8927C154.755 59.3647 154.471 59.8461 153.999 59.968C153.958 59.9786 153.916 59.9862 153.874 59.9908L153.709 60.0088C153.168 60.0677 152.681 59.6802 152.617 59.1402C152.614 59.1133 152.602 59.0204 152.583 58.8617C152.526 58.3979 152.856 57.9757 153.32 57.9187C153.824 57.8568 154.309 58.1335 154.513 58.5992ZM189.248 8.89712C189.467 8.16362 190.142 7.66092 190.907 7.66092C191.611 7.66092 192.181 8.23142 192.181 8.93519C192.181 9.17758 192.181 9.31931 192.182 9.3604C192.185 10.1805 191.527 10.8502 190.707 10.8615L190.461 10.8648C190.397 10.8657 190.333 10.862 190.27 10.8537C189.541 10.7581 189.027 10.0895 189.123 9.3604C189.129 9.30993 189.171 9.15551 189.248 8.89712Z" fill="#EFEFEF"/>
<path fill-rule="evenodd" clip-rule="evenodd" d="M172.479 140.694C173.265 146.832 173.888 150.344 174.349 151.231C175.04 152.561 178.597 153.78 179.277 153.78C179.73 153.78 196.499 155.196 229.582 158.029C232.074 158.029 234.227 157.292 236.04 155.82C236.771 155.226 236.697 154.376 237.059 153.1C237.417 151.842 237.757 149.179 238.079 145.113L229.582 140.694H172.479Z" fill="white"/>
<path d="M154.653 43.1139C154.107 43.1809 153.719 43.6775 153.786 44.223C153.803 44.3614 153.813 44.4427 153.816 44.4658C153.888 45.0771 154.44 45.5158 155.052 45.4492L155.196 45.4334C155.245 45.4281 155.294 45.4192 155.342 45.4068C155.891 45.265 156.221 44.7047 156.08 44.1554C156.067 44.1074 156.032 44.0201 155.962 43.8601C155.738 43.3494 155.206 43.046 154.653 43.1139ZM155.495 44.0645C155.549 44.1899 155.584 44.2738 155.586 44.2829C155.657 44.5595 155.491 44.8417 155.214 44.9132C155.19 44.9194 155.166 44.9239 155.141 44.9266L154.996 44.9423C154.662 44.9787 154.362 44.7393 154.322 44.4056C154.319 44.3816 154.309 44.3003 154.292 44.1609C154.259 43.8948 154.449 43.6526 154.715 43.6199C155.044 43.5795 155.361 43.7602 155.495 44.0645ZM153.421 57.7612C152.818 57.8353 152.389 58.3846 152.463 58.9882C152.482 59.1464 152.493 59.2393 152.497 59.2658C152.577 59.9446 153.19 60.4317 153.869 60.3577L154.034 60.3397C154.089 60.3338 154.143 60.3239 154.196 60.3103C154.804 60.1532 155.17 59.5327 155.013 58.9244C154.999 58.8723 154.959 58.7728 154.88 58.5925C154.631 58.0235 154.038 57.6855 153.421 57.7612ZM154.413 58.7968C154.476 58.9426 154.516 59.0388 154.519 59.0519C154.606 59.3876 154.404 59.7299 154.068 59.8166C154.039 59.8242 154.009 59.8296 153.979 59.8329L153.814 59.8509C153.412 59.8946 153.05 59.6067 153.003 59.2056C153 59.1782 152.988 59.0853 152.969 58.9261C152.929 58.602 153.159 58.307 153.483 58.2672C153.876 58.219 154.254 58.4344 154.413 58.7968ZM254.076 38.3456C253.525 38.3484 253.04 38.7107 252.882 39.2384C252.829 39.4122 252.804 39.5064 252.797 39.556C252.722 40.1143 253.113 40.6279 253.672 40.7031C253.723 40.7101 253.775 40.7131 253.827 40.7121L253.955 40.7096C254.567 40.698 255.057 40.1985 255.057 39.5862L255.057 39.5813C255.058 39.5575 255.058 39.4728 255.059 39.3282C255.061 38.7883 254.626 38.3483 254.086 38.3456C254.081 38.3456 254.081 38.3456 254.076 38.3456ZM253.302 39.6241C253.304 39.614 253.329 39.5226 253.37 39.3852C253.464 39.0721 253.752 38.8571 254.079 38.8554C254.081 38.8554 254.081 38.8554 254.083 38.8554C254.342 38.8567 254.55 39.0672 254.549 39.3256C254.548 39.4713 254.548 39.5559 254.548 39.5807L254.548 39.5862C254.548 39.9207 254.28 40.1935 253.945 40.1999L253.818 40.2023C253.792 40.2028 253.766 40.2013 253.74 40.1978C253.461 40.1602 253.265 39.9033 253.302 39.6241ZM257.475 54.6605C256.924 54.6634 256.439 55.0257 256.281 55.5534C256.228 55.7272 256.203 55.8213 256.196 55.871C256.121 56.4293 256.512 56.9429 257.071 57.0181C257.122 57.025 257.174 57.028 257.226 57.027L257.354 57.0246C257.966 57.013 258.456 56.5134 258.456 55.9012L258.456 55.8963C258.456 55.8725 258.457 55.7878 258.458 55.6432C258.46 55.1032 258.025 54.6633 257.485 54.6605C257.48 54.6605 257.48 54.6605 257.475 54.6605ZM256.701 55.939C256.703 55.929 256.728 55.8376 256.769 55.7001C256.863 55.387 257.151 55.1721 257.477 55.1704C257.48 55.1704 257.48 55.1704 257.482 55.1704C257.741 55.1717 257.949 55.3822 257.948 55.6406C257.947 55.7862 257.947 55.8709 257.947 55.8956L257.947 55.9012C257.947 56.2356 257.679 56.5085 257.344 56.5149L257.217 56.5173C257.191 56.5178 257.165 56.5163 257.139 56.5128C256.86 56.4752 256.664 56.2183 256.701 55.939ZM188.858 9.39402C188.744 10.2628 189.356 11.0593 190.225 11.1732C190.3 11.1831 190.376 11.1876 190.453 11.1865L190.698 11.1831C191.658 11.17 192.428 10.3861 192.424 9.42616C192.424 9.38556 192.424 9.24383 192.424 9.00194C192.424 8.15738 191.74 7.47276 190.895 7.47276C190.017 7.47276 189.243 8.04948 188.992 8.891C188.909 9.16749 188.867 9.32362 188.858 9.39402ZM190.895 7.9826C191.458 7.9826 191.914 8.43898 191.914 9.00197C191.914 9.24485 191.914 9.38658 191.915 9.42815C191.917 10.1085 191.371 10.664 190.691 10.6733L190.445 10.6767C190.394 10.6774 190.342 10.6744 190.291 10.6677C189.701 10.5904 189.286 10.0498 189.363 9.46029C189.367 9.42976 189.409 9.27704 189.48 9.03676C189.667 8.41127 190.242 7.9826 190.895 7.9826Z" fill="black"/>
<path d="M173.899 54.7819L171.747 59.2892L154.703 58.7782L154.687 59.2878L172.064 59.8088L174.471 54.7683L184.591 54.5281L184.578 54.0184L174.175 54.2654L172.408 47.3193L155.689 44.2207L155.596 44.722L171.995 47.7612L173.781 54.7847L173.899 54.7819Z" fill="black"/>
<path fill-rule="evenodd" clip-rule="evenodd" d="M210.718 76.624L235.36 71.8654L224.313 101.606H214.796L210.718 76.624Z" fill="black"/>
<path fill-rule="evenodd" clip-rule="evenodd" d="M179.957 106.875L140.594 97.5225C135.162 96.2319 129.438 97.3914 124.936 100.694L97.5917 120.754C93.1297 124.027 90.3132 129.08 89.876 134.597L86.146 181.652H94.9833L100.187 137.936C100.663 133.94 102.73 130.304 105.92 127.85L130.772 108.732C132.875 107.115 135.558 106.448 138.174 106.894L178.937 113.842L179.957 106.875Z" fill="white"/>
<path d="M180.243 106.681L140.653 97.2745C135.148 95.9666 129.347 97.1416 124.785 100.488L97.4409 120.548C92.9192 123.865 90.065 128.986 89.6218 134.577L85.8701 181.906H95.2096L100.441 137.966C100.908 134.038 102.939 130.464 106.075 128.052L130.928 108.935C132.974 107.36 135.586 106.712 138.131 107.146L179.152 114.138L180.243 106.681ZM178.723 113.547L138.217 106.643C135.531 106.185 132.776 106.869 130.617 108.53L105.764 127.648C102.52 130.144 100.418 133.841 99.9344 137.906L94.7569 181.397H86.4219L90.1301 134.617C90.5615 129.174 93.3403 124.189 97.7425 120.959L125.086 100.899C129.528 97.6411 135.176 96.4972 140.535 97.7705L179.671 107.069L178.723 113.547Z" fill="black"/>
<path fill-rule="evenodd" clip-rule="evenodd" d="M179.127 153.518L176.558 143.243L224.993 146.472L225.547 147.908L229.58 157.767C232.492 157.643 234.482 157.147 235.541 156.3C236.483 155.546 237.213 152.715 237.676 147.868L230.262 142.29L234 102.286L241.988 116.562L238.333 146.115C238.334 146.127 238.334 146.139 238.333 146.152C237.874 152.24 237.074 155.727 235.859 156.698C234.689 157.634 232.588 158.154 229.547 158.279L229.582 158.369L179.277 154.12L179.256 154.035C176.194 153.926 173.654 151.627 173.245 148.589L172.211 140.926L172.717 140.858L173.75 148.521C174.12 151.263 176.379 153.351 179.127 153.518Z" fill="black"/>
<path d="M170.44 59.9274L172.204 68.7463C173.859 77.02 181.901 82.391 190.177 80.7498L235.19 71.8237L230.19 50.6709C226.676 35.801 212.426 26.0452 197.292 28.1472C195.285 28.4259 193.134 28.7973 190.839 29.2612C176.746 32.1098 167.62 45.8293 170.44 59.9274Z" fill="white"/>
<mask id="mask0" mask-type="alpha" maskUnits="userSpaceOnUse" x="169" y="27" width="67" height="55">
<path d="M170.44 59.9275L172.204 68.7464C173.859 77.0201 181.901 82.3911 190.177 80.7499L235.19 71.8238L230.19 50.671C226.676 35.8011 212.426 26.0453 197.292 28.1473C195.285 28.4261 193.134 28.7974 190.839 29.2613C176.746 32.1099 167.62 45.8295 170.44 59.9275Z" fill="white"/>
</mask>
<g mask="url(#mask0)">
<path fill-rule="evenodd" clip-rule="evenodd" d="M170.1 75.7743L205.749 69.8328C209.231 69.2524 211.69 66.1026 211.407 62.5833L210.71 53.8949C210.379 49.7783 206.774 46.7091 202.658 47.0396C202.37 47.0628 202.083 47.1025 201.8 47.1588L164.662 54.5308L170.1 75.7743Z" fill="#EFEFEF"/>
<path d="M169.911 75.8943L205.791 69.9143C209.404 69.3121 211.955 66.0442 211.662 62.393L210.964 53.7045C210.622 49.4476 206.894 46.2738 202.637 46.6156C202.34 46.6395 202.044 46.6806 201.751 46.7388L164.348 54.1633L169.911 75.8943ZM164.975 54.5585L201.85 47.2389C202.124 47.1846 202.4 47.1461 202.678 47.1238C206.654 46.8045 210.137 49.7691 210.456 53.7453L211.153 62.4338C211.425 65.8211 209.059 68.8527 205.707 69.4114L170.289 75.3144L164.975 54.5585Z" fill="black"/>
</g>
<path d="M191.247 20.492L191.174 10.8543C191.174 10.7135 191.059 10.5993 190.919 10.5993C190.778 10.5993 190.664 10.7135 190.664 10.8543L190.737 20.7469C190.737 20.8877 190.851 21.0018 190.992 21.0018H197.879L193.995 28.4466C193.93 28.5714 193.978 28.7254 194.103 28.7905C194.228 28.8556 194.382 28.8072 194.447 28.6824L198.526 20.8648C198.614 20.6951 198.491 20.492 198.3 20.492H191.247Z" fill="black"/>
<path d="M170.19 59.9774L171.954 68.7963C173.636 77.2079 181.812 82.6684 190.227 80.9998L235.24 72.0738C235.381 72.0457 235.471 71.9056 235.438 71.7651L230.438 50.6122C226.893 35.6144 212.521 25.7746 197.257 27.8947C195.244 28.1742 193.088 28.5464 190.788 29.0113C176.558 31.8878 167.343 45.7415 170.19 59.9774ZM190.128 80.4997C181.989 82.1136 174.081 76.8321 172.454 68.6963L170.69 59.8774C167.898 45.9172 176.935 32.3318 190.889 29.5111C193.179 29.0481 195.325 28.6777 197.327 28.3997C212.331 26.3158 226.458 35.9876 229.942 50.7295L234.881 71.6251L190.128 80.4997Z" fill="black"/>
<path fill-rule="evenodd" clip-rule="evenodd" d="M177.483 101.54L171.909 137.722C171.508 140.32 173.29 142.75 175.887 143.15C176.02 143.171 176.154 143.185 176.288 143.195L225.054 146.518C227.505 146.685 229.681 144.958 230.075 142.533L235.889 106.733C236.31 104.139 234.548 101.694 231.954 101.273C231.82 101.251 231.686 101.235 231.55 101.225L182.545 97.5196C180.067 97.3323 177.862 99.0837 177.483 101.54Z" fill="white"/>
<path d="M177.231 101.501L171.657 137.684C171.235 140.42 173.112 142.98 175.848 143.402C175.988 143.424 176.129 143.439 176.271 143.449L225.037 146.772C227.619 146.948 229.911 145.129 230.326 142.574L236.14 106.773C236.584 104.04 234.728 101.465 231.995 101.021C231.854 100.998 231.712 100.981 231.569 100.971L182.564 97.2654C179.953 97.068 177.63 98.9133 177.231 101.501ZM177.735 101.579C178.093 99.2541 180.18 97.5965 182.526 97.7738L231.531 101.479C231.659 101.489 231.787 101.504 231.913 101.524C234.369 101.923 236.036 104.237 235.637 106.692L229.823 142.492C229.45 144.787 227.391 146.421 225.071 146.263L176.305 142.94C176.178 142.932 176.052 142.917 175.926 142.898C173.468 142.519 171.782 140.219 172.16 137.761L177.735 101.579Z" fill="black"/>
<path fill-rule="evenodd" clip-rule="evenodd" d="M84.0624 181.221C83.9091 184.177 86.1812 186.698 89.1373 186.851C89.2245 186.855 89.3117 186.858 89.3989 186.858L92.3112 186.867C95.3059 186.876 97.7409 184.455 97.7499 181.461C97.75 181.453 97.75 181.444 97.75 181.436C97.7454 178.401 95.3306 175.919 92.2971 175.831L89.9796 175.764C86.8521 175.673 84.2245 178.096 84.0624 181.221Z" fill="white"/>
<path fill-rule="evenodd" clip-rule="evenodd" d="M148.563 245.311L173.499 233.244L141.965 211.052L117.416 220.996" fill="white"/>
<path d="M83.8929 181.382C83.7322 184.479 86.1124 187.12 89.2092 187.28C89.3004 187.285 89.3918 187.288 89.4832 187.288L92.3955 187.297C95.531 187.306 98.0805 184.772 98.0899 181.636L98.0899 181.611C98.0852 178.438 95.5608 175.843 92.3896 175.751L90.0721 175.684C86.8061 175.589 84.0621 178.119 83.8929 181.382ZM84.402 181.409C84.5569 178.422 87.0682 176.106 90.0572 176.193L92.3747 176.261C95.2706 176.345 97.5757 178.714 97.5801 181.611L97.5801 181.635C97.5715 184.489 95.251 186.795 92.397 186.787L89.4847 186.778C89.4016 186.778 89.3186 186.775 89.2356 186.771C86.42 186.625 84.256 184.224 84.402 181.409Z" fill="black"/>
<path fill-rule="evenodd" clip-rule="evenodd" d="M82.4077 245.311L55.7259 256.938C40.1502 240.173 32.3893 231.562 32.4431 231.106C32.4969 230.65 41.674 227.251 59.9746 220.909L82.4077 245.311Z" fill="white"/>
<path fill-rule="evenodd" clip-rule="evenodd" d="M85.1257 278.763L145.288 278.352L148.687 245.382H82.4071L68.6414 251.33L70.3408 265.096L85.1257 278.763Z" fill="white"/>
<path fill-rule="evenodd" clip-rule="evenodd" d="M106.88 245.382V265.096L117.416 258.638L127.273 265.096V245.382H106.88Z" fill="#EFEFEF"/>
<path d="M84.874 278.735L70.1008 265.222L68.25 251.687L55.6595 257.174L32 230.924L60.046 220.782L82.5849 245.056H148.505L172.999 233.204L141.933 211.341L117.586 221.419L117.395 220.947L141.999 210.764L174.001 233.285L148.933 245.415L145.518 278.534L84.8914 278.948L84.874 278.735ZM84.8132 277.988L82.177 245.618L68.7357 251.476L70.5809 264.97L84.8132 277.988ZM82.6842 245.566L85.3612 278.435L145.058 278.027L148.405 245.566H82.6842ZM59.9021 221.377L32.8862 231.146L55.7924 256.56L81.9762 245.149L59.9021 221.377Z" fill="black"/>
<path d="M127.134 265.309C127.303 265.42 127.528 265.298 127.528 265.096V245.382C127.528 245.241 127.414 245.127 127.273 245.127H106.88C106.739 245.127 106.625 245.241 106.625 245.382V265.096C106.625 265.295 106.843 265.417 107.013 265.313L117.412 258.94L127.134 265.309ZM127.018 245.637V264.624L117.556 258.425C117.473 258.371 117.367 258.369 117.283 258.42L107.134 264.641V245.637H127.018Z" fill="black"/>
<path d="M175.452 60.3047C175.291 59.4755 175.833 58.6726 176.662 58.5114C177.491 58.3502 178.294 58.8918 178.455 59.721L179.363 64.3921C179.524 65.2213 178.983 66.0242 178.154 66.1853C177.324 66.3465 176.522 65.805 176.36 64.9758L175.452 60.3047Z" fill="white"/>
<path d="M199.394 57.3048C199.279 56.3732 199.942 55.5253 200.873 55.4109C201.805 55.2965 202.653 55.959 202.767 56.8906L203.347 61.6137C203.462 62.5453 202.799 63.3932 201.868 63.5076C200.936 63.622 200.088 62.9595 199.974 62.0279L199.394 57.3048Z" fill="white"/>
<path d="M201.042 55.3902L200.705 55.4316C199.866 55.5346 199.27 56.2977 199.373 57.1362L199.994 62.1966C200.097 63.035 200.86 63.6313 201.699 63.5283L202.036 63.4869C202.875 63.3839 203.471 62.6208 203.368 61.7824L202.747 56.7219C202.644 55.8835 201.88 55.2873 201.042 55.3902ZM201.104 55.8962C201.663 55.8276 202.172 56.2251 202.24 56.7841L202.862 61.8445C202.93 62.4034 202.533 62.9122 201.974 62.9808L201.637 63.0223C201.078 63.0909 200.569 62.6934 200.5 62.1344L199.879 57.074C199.81 56.5151 200.208 56.0063 200.767 55.9377L201.104 55.8962ZM200.956 56.0856C200.397 56.1543 200 56.663 200.068 57.222L200.648 61.9451C200.717 62.504 201.226 62.9015 201.785 62.8329C202.344 62.7642 202.741 62.2555 202.672 61.6965L202.093 56.9735C202.024 56.4145 201.515 56.017 200.956 56.0856ZM203.278 55.4508C203.418 55.4656 203.543 55.3641 203.558 55.2241C203.573 55.0841 203.472 54.9586 203.332 54.9438L198.624 54.4458C198.484 54.431 198.358 54.5325 198.343 54.6725C198.328 54.8125 198.43 54.938 198.57 54.9528L203.278 55.4508ZM174.61 59.0174L179.029 57.3179C179.16 57.2674 179.226 57.1199 179.175 56.9885C179.125 56.8571 178.977 56.7915 178.846 56.8421L174.427 58.5415C174.296 58.5921 174.23 58.7396 174.281 58.871C174.331 59.0024 174.479 59.0679 174.61 59.0174ZM188.053 65.7322C188.716 64.9132 189.57 64.4515 190.63 64.3402C192.39 64.1551 192.783 64.2033 194.14 64.7925C194.269 64.8486 194.419 64.7893 194.475 64.6602C194.531 64.5311 194.472 64.3809 194.343 64.3248C192.9 63.6982 192.42 63.6394 190.577 63.8331C189.383 63.9586 188.405 64.487 187.656 65.4113C187.568 65.5207 187.585 65.6813 187.694 65.7699C187.803 65.8585 187.964 65.8416 188.053 65.7322ZM176.865 58.3128L176.529 58.366C175.695 58.4981 175.126 59.2816 175.258 60.116L176.056 65.1516C176.188 65.9859 176.971 66.5552 177.806 66.423L178.141 66.3699C178.976 66.2377 179.545 65.4542 179.413 64.6199L178.615 59.5842C178.483 58.7499 177.7 58.1807 176.865 58.3128ZM176.945 58.8164C177.501 58.7283 178.023 59.1078 178.112 59.664L178.909 64.6997C178.997 65.2559 178.618 65.7782 178.062 65.8663L177.726 65.9195C177.17 66.0076 176.647 65.6281 176.559 65.0719L175.762 60.0362C175.674 59.48 176.053 58.9577 176.609 58.8696L176.945 58.8164ZM176.804 59.0108C176.247 59.0989 175.868 59.6212 175.956 60.1775L176.7 64.8774C176.789 65.4336 177.311 65.8131 177.867 65.725C178.423 65.6369 178.803 65.1146 178.715 64.5584L177.97 59.8584C177.882 59.3022 177.36 58.9227 176.804 59.0108Z" fill="black"/>
<path fill-rule="evenodd" clip-rule="evenodd" d="M148.347 245.311H82.4077L59.9746 221.008H117.417L148.347 245.311ZM77.337 260.846C76.1641 261.182 74.668 259.553 73.9953 257.207C73.3227 254.862 73.7282 252.687 74.9011 252.351C76.074 252.015 77.5702 253.644 78.2428 255.989C78.9155 258.335 78.5099 260.51 77.337 260.846Z" fill="black"/>
<path fill-rule="evenodd" clip-rule="evenodd" d="M211.069 154.784L220.315 207.993L217.176 267.645L207.738 276.152C207.18 276.655 207.136 277.515 207.638 278.072C207.896 278.358 208.263 278.522 208.648 278.522H238.419C234.182 246.544 230.754 222.695 228.133 206.974C225.601 191.784 222.131 174.031 217.723 153.713C217.451 152.463 216.345 151.571 215.065 151.571C214.764 151.571 214.475 151.571 214.197 151.571C213.967 151.571 213.716 151.586 213.447 151.616C211.954 151.782 210.879 153.127 211.045 154.619C211.051 154.674 211.059 154.729 211.069 154.784Z" fill="white"/>
<path d="M216.846 267.526L207.486 275.963C206.824 276.56 206.771 277.581 207.368 278.243C207.674 278.583 208.11 278.777 208.567 278.777H238.338C238.492 278.777 238.611 278.641 238.591 278.488C234.354 246.508 230.925 222.656 228.304 206.932C225.771 191.738 222.3 173.981 217.891 153.659C217.594 152.292 216.384 151.316 214.984 151.316H214.116C213.876 151.316 213.616 151.331 213.338 151.362C211.705 151.544 210.529 153.015 210.711 154.647C210.718 154.708 210.726 154.768 210.737 154.828L219.979 208.009L216.846 267.526ZM216.84 267.632L216.924 267.456L216.846 267.526L216.84 267.632ZM238.047 278.267H208.567C208.254 278.267 207.956 278.134 207.747 277.902C207.338 277.449 207.374 276.75 207.828 276.342L217.265 267.834C217.316 267.789 217.346 267.726 217.349 267.658L220.489 208.007L220.486 207.95L211.239 154.74C211.23 154.691 211.223 154.641 211.218 154.591C211.067 153.238 212.042 152.02 213.394 151.869C213.655 151.84 213.896 151.826 214.116 151.826H214.984C216.144 151.826 217.147 152.634 217.393 153.768C221.8 174.081 225.269 191.831 227.801 207.016C230.413 222.686 233.828 246.437 238.047 278.267Z" fill="black"/>
<path fill-rule="evenodd" clip-rule="evenodd" d="M218.059 207.447C217.747 204.822 219.618 202.44 222.243 202.122L223.979 201.911C226.611 201.592 229.017 203.43 229.402 206.053C229.407 206.086 229.412 206.12 229.416 206.153C229.734 208.709 227.92 211.039 225.365 211.358L223.372 211.606C223.363 211.607 223.354 211.608 223.346 211.609C220.737 211.92 218.37 210.056 218.059 207.447ZM221.117 206.985C221.258 208.133 222.301 208.95 223.449 208.811L224.379 208.699C225.489 208.565 226.28 207.557 226.146 206.447C226.144 206.427 226.141 206.407 226.138 206.387C225.965 205.238 224.911 204.433 223.756 204.569L222.94 204.664C221.798 204.798 220.981 205.832 221.115 206.974C221.116 206.978 221.116 206.981 221.117 206.985Z" fill="#EFEFEF"/>
<path d="M217.682 207.598C217.353 204.833 219.324 202.324 222.088 201.989L223.824 201.779C226.593 201.443 229.125 203.377 229.53 206.137C229.535 206.172 229.54 206.207 229.544 206.242C229.88 208.938 227.967 211.395 225.272 211.731L223.279 211.979L223.251 211.983C220.502 212.31 218.009 210.347 217.682 207.598ZM218.188 207.538C218.482 210.007 220.722 211.77 223.191 211.477L223.216 211.474L225.209 211.225C227.625 210.924 229.339 208.721 229.038 206.305C229.034 206.274 229.03 206.242 229.025 206.211C228.661 203.724 226.38 201.983 223.886 202.285L222.149 202.495C219.664 202.797 217.892 205.052 218.188 207.538ZM220.738 207.124C220.587 205.843 221.504 204.682 222.785 204.532L223.602 204.436C224.893 204.284 226.072 205.184 226.266 206.47C226.269 206.492 226.272 206.515 226.275 206.537C226.426 207.787 225.535 208.922 224.285 209.073L223.355 209.185C222.068 209.341 220.897 208.424 220.739 207.137L220.738 207.124ZM223.294 208.679L224.224 208.567C225.194 208.45 225.886 207.568 225.769 206.598C225.767 206.581 225.764 206.563 225.762 206.546C225.609 205.532 224.679 204.823 223.661 204.942L222.845 205.038C221.843 205.156 221.126 206.063 221.244 207.065L221.245 207.075C221.369 208.083 222.286 208.801 223.294 208.679Z" fill="black"/>
<path fill-rule="evenodd" clip-rule="evenodd" d="M197.411 153.655L180.637 207.424L205.419 253.03L203.876 268.881C203.803 269.629 204.35 270.294 205.098 270.366C205.465 270.402 205.831 270.287 206.112 270.047L229.042 250.48L223.604 245.042L188.645 207.743L203.88 154.837C204.271 153.479 203.487 152.062 202.129 151.671C201.899 151.604 201.661 151.571 201.421 151.571C201.182 151.571 200.935 151.556 200.682 151.527C199.222 151.359 197.849 152.252 197.411 153.655Z" fill="white"/>
<path d="M205.314 253.151L205.285 253.005L205.277 253.083L205.314 253.151ZM203.741 268.857C203.655 269.744 204.304 270.534 205.192 270.62C205.628 270.663 206.063 270.526 206.396 270.241L229.326 250.674C229.44 250.578 229.446 250.405 229.341 250.3L223.903 244.862L189.049 207.675L204.244 154.908C204.674 153.415 203.812 151.856 202.319 151.426C202.066 151.353 201.804 151.316 201.54 151.316C201.311 151.316 201.074 151.302 200.83 151.274C199.249 151.091 197.761 152.059 197.287 153.579L180.512 207.348C180.492 207.414 180.499 207.485 180.532 207.546L205.277 253.083L203.741 268.857ZM206.065 269.853C205.837 270.048 205.54 270.142 205.241 270.113C204.634 270.053 204.19 269.513 204.249 268.906L205.792 253.054C205.797 253.004 205.787 252.953 205.762 252.908L181.031 207.397L197.773 153.731C198.175 152.445 199.433 151.626 200.772 151.78C201.034 151.811 201.291 151.826 201.54 151.826C201.756 151.826 201.971 151.856 202.178 151.916C203.4 152.268 204.106 153.544 203.754 154.767L188.519 207.673C188.494 207.759 188.517 207.852 188.578 207.918L223.537 245.216L228.786 250.466L206.065 269.853Z" fill="black"/>
<path fill-rule="evenodd" clip-rule="evenodd" d="M179.365 209.017C178.873 206.457 180.507 203.971 183.051 203.407L184.862 203.006C187.321 202.461 189.766 203.977 190.372 206.422C190.974 208.85 189.495 211.308 187.067 211.913L184.789 212.481C184.711 212.5 184.633 212.518 184.553 212.533C182.15 212.995 179.826 211.42 179.365 209.017ZM182.417 208.498C182.634 209.555 183.667 210.236 184.724 210.018C184.742 210.015 184.759 210.011 184.777 210.007L185.908 209.742C186.926 209.503 187.558 208.484 187.319 207.466C187.315 207.449 187.311 207.433 187.307 207.416C187.029 206.361 185.974 205.708 184.906 205.93L183.979 206.123C182.892 206.348 182.194 207.411 182.417 208.498Z" fill="#EFEFEF"/>
<path d="M179.149 209.17C178.631 206.475 180.351 203.858 183.031 203.264L184.842 202.862C187.436 202.287 190.015 203.886 190.654 206.466C191.29 209.031 189.728 211.626 187.164 212.266L184.886 212.833C184.803 212.854 184.72 212.872 184.636 212.888C182.094 213.377 179.638 211.712 179.149 209.17ZM179.65 209.074C180.085 211.34 182.275 212.823 184.54 212.388C184.615 212.373 184.689 212.357 184.763 212.339L187.04 211.771C189.332 211.2 190.727 208.881 190.16 206.588C189.587 204.278 187.276 202.845 184.952 203.36L183.141 203.762C180.731 204.296 179.184 206.65 179.65 209.074ZM182.202 208.655C181.95 207.43 182.738 206.233 183.962 205.978L184.889 205.786C186.09 205.536 187.276 206.27 187.588 207.457C187.593 207.475 187.598 207.494 187.602 207.513C187.873 208.669 187.156 209.825 186.001 210.095L184.87 210.361C184.85 210.365 184.83 210.369 184.81 210.374C183.615 210.619 182.448 209.85 182.202 208.655ZM182.702 208.552C182.891 209.471 183.789 210.063 184.708 209.874C184.723 209.871 184.738 209.868 184.753 209.864L185.884 209.599C186.766 209.393 187.312 208.511 187.106 207.629C187.103 207.615 187.099 207.601 187.095 207.586C186.852 206.662 185.928 206.091 184.993 206.285L184.066 206.478C183.117 206.675 182.507 207.603 182.702 208.552Z" fill="black"/>
<path fill-rule="evenodd" clip-rule="evenodd" d="M146.299 175.778C146.774 174.174 148.251 173.077 149.924 173.087C151.468 173.096 152.718 174.345 152.727 175.889C152.73 176.393 152.732 176.688 152.733 176.775C152.733 176.777 152.733 176.779 152.733 176.781C152.746 178.545 151.328 179.986 149.564 179.999L148.945 180.004C148.815 180.005 148.685 179.997 148.557 179.981C146.966 179.779 145.841 178.326 146.043 176.736C146.056 176.63 146.142 176.31 146.299 175.778ZM131.004 138.729C131.478 137.125 132.956 136.028 134.628 136.038C136.173 136.047 137.422 137.297 137.432 138.841C137.434 139.344 137.436 139.639 137.437 139.726C137.437 139.728 137.437 139.731 137.437 139.733C137.451 141.496 136.032 142.937 134.269 142.951L133.649 142.956C133.52 142.957 133.39 142.949 133.261 142.933C131.671 142.731 130.546 141.278 130.747 139.688C130.761 139.581 130.846 139.262 131.004 138.729ZM288.715 131.252C289.19 129.648 290.667 128.551 292.34 128.56C293.884 128.569 295.134 129.819 295.143 131.363C295.146 131.867 295.148 132.162 295.149 132.249C295.149 132.251 295.149 132.253 295.149 132.255C295.162 134.019 293.744 135.459 291.98 135.473L291.361 135.478C291.231 135.479 291.101 135.471 290.973 135.455C289.383 135.253 288.257 133.8 288.459 132.21C288.472 132.104 288.558 131.784 288.715 131.252ZM255.406 187.334C255.88 185.73 257.358 184.633 259.03 184.643C260.574 184.652 261.824 185.902 261.833 187.446C261.836 187.949 261.838 188.244 261.839 188.331C261.839 188.333 261.839 188.336 261.839 188.338C261.853 190.101 260.434 191.542 258.671 191.556L258.051 191.561C257.921 191.562 257.792 191.554 257.663 191.538C256.073 191.336 254.947 189.883 255.149 188.293C255.163 188.186 255.248 187.867 255.406 187.334ZM299.252 207.728C299.727 206.124 301.204 205.027 302.876 205.037C304.421 205.046 305.67 206.295 305.68 207.84C305.683 208.343 305.684 208.638 305.685 208.725C305.685 208.727 305.685 208.729 305.685 208.731C305.699 210.495 304.281 211.936 302.517 211.949L301.898 211.954C301.768 211.955 301.638 211.948 301.51 211.931C299.919 211.729 298.794 210.277 298.996 208.686C299.009 208.58 299.095 208.261 299.252 207.728ZM262.543 75.8487C263.018 74.2449 264.495 73.1478 266.168 73.1575C267.712 73.1664 268.962 74.416 268.971 75.9602C268.974 76.4636 268.976 76.7588 268.977 76.8457C268.977 76.8478 268.977 76.85 268.977 76.8522C268.99 78.6157 267.572 80.0564 265.808 80.0701L265.189 80.075C265.059 80.076 264.93 80.0683 264.801 80.0519C263.211 79.8501 262.085 78.3973 262.287 76.807C262.3 76.7008 262.386 76.3813 262.543 75.8487ZM61.6654 162.862C62.1399 161.258 63.6173 160.161 65.2898 160.171C66.834 160.18 68.0838 161.429 68.0929 162.973C68.0959 163.477 68.0978 163.772 68.0986 163.859C68.0987 163.861 68.0987 163.863 68.0987 163.865C68.1124 165.629 66.6939 167.07 64.9303 167.083L64.3108 167.088C64.1811 167.089 64.0515 167.081 63.9228 167.065C62.3325 166.863 61.207 165.41 61.4089 163.82C61.4223 163.714 61.5079 163.394 61.6654 162.862ZM102.453 88.7647C102.927 87.1609 104.405 86.0638 106.077 86.0735C107.621 86.0824 108.871 87.332 108.88 88.8762C108.883 89.3796 108.885 89.6748 108.886 89.7617C108.886 89.7639 108.886 89.766 108.886 89.7682C108.9 91.5317 107.481 92.9725 105.718 92.9862L105.098 92.991C104.969 92.992 104.839 92.9843 104.71 92.968C103.12 92.7661 101.994 91.3133 102.196 89.723C102.21 89.6168 102.295 89.2973 102.453 88.7647Z" fill="#EFEFEF"/>
<path fill-rule="evenodd" clip-rule="evenodd" d="M84.3426 206.073C81.4402 204.183 79.4504 200.979 79.2553 197.256C78.9311 191.07 83.6832 185.792 89.8694 185.468C96.0557 185.143 101.333 189.895 101.658 196.082C101.856 199.874 100.147 203.326 97.3691 205.503L93.1796 200.149C94.274 199.291 94.9474 197.932 94.8691 196.437C94.7413 194 92.6622 192.128 90.2252 192.256C87.7882 192.384 85.9162 194.463 86.0439 196.9C86.1208 198.367 86.9046 199.629 88.048 200.374L84.3426 206.073Z" fill="#EFEFEF"/>
<path d="M84.576 206.533L84.3622 206.394C81.3082 204.405 79.3538 201.085 79.1595 197.376C78.8279 191.049 83.688 185.651 90.0148 185.32C96.3417 184.988 101.739 189.848 102.071 196.175C102.269 199.954 100.608 203.52 97.6851 205.811L97.4843 205.968L92.9806 200.212L93.1811 200.055C94.2422 199.223 94.8451 197.929 94.7732 196.558C94.6529 194.261 92.6937 192.497 90.3973 192.618C88.1009 192.738 86.3368 194.697 86.4572 196.993C86.5278 198.34 87.2369 199.545 88.3458 200.267L88.5593 200.406L84.576 206.533ZM84.4282 205.825L87.8579 200.549C86.7345 199.728 86.0227 198.444 85.948 197.02C85.813 194.443 87.793 192.243 90.3706 192.108C92.9482 191.973 95.1473 193.953 95.2823 196.531C95.3585 197.984 94.7599 199.359 93.6918 200.294L97.5696 205.25C100.239 203.056 101.747 199.726 101.562 196.202C101.245 190.156 96.0871 185.512 90.0415 185.829C83.9959 186.146 79.3518 191.304 79.6686 197.349C79.8498 200.807 81.6313 203.91 84.4282 205.825Z" fill="black"/>
<path fill-rule="evenodd" clip-rule="evenodd" d="M242.995 120.763L307.282 95.5135C308.68 94.9645 310.258 95.6526 310.807 97.0504C310.873 97.2187 310.922 97.3932 310.954 97.5712L323.771 170.099C323.935 171.024 323.318 171.905 322.393 172.069C322.074 172.125 321.745 172.089 321.446 171.965L241.207 138.655V146.812L322.224 182.157C326.354 183.959 331.162 182.072 332.963 177.942C333.585 176.517 333.786 174.943 333.544 173.407L320.674 91.9874C319.825 86.6103 314.777 82.9403 309.399 83.7902C308.602 83.9162 307.824 84.1396 307.081 84.4554L240.031 112.969C238.557 113.596 237.646 115.092 237.765 116.689C237.801 117.16 237.871 117.627 237.978 118.091C237.981 118.106 237.985 118.121 237.988 118.136C238.459 120.147 240.471 121.395 242.481 120.924C242.656 120.883 242.828 120.829 242.995 120.763Z" fill="white"/>
<path d="M243.19 121.001L307.477 95.7508C308.743 95.2533 310.174 95.8768 310.671 97.1436C310.731 97.2961 310.776 97.4542 310.804 97.6156L323.622 170.144C323.76 170.93 323.236 171.679 322.45 171.818C322.179 171.866 321.9 171.835 321.645 171.729L241.053 138.273V146.979L322.224 182.391C326.482 184.249 331.44 182.303 333.298 178.044C333.939 176.574 334.147 174.951 333.897 173.367L321.028 91.9476C320.156 86.4314 314.977 82.6665 309.461 83.5384C308.643 83.6676 307.844 83.8968 307.083 84.2209L240.032 112.735C238.458 113.404 237.485 115.002 237.612 116.708C237.649 117.191 237.721 117.671 237.831 118.148C237.836 118.171 237.836 118.171 237.841 118.194C238.344 120.342 240.493 121.675 242.641 121.172C242.828 121.128 243.011 121.071 243.19 121.001ZM241.563 139.037L321.45 172.2C321.794 172.343 322.172 172.385 322.539 172.32C323.602 172.132 324.311 171.118 324.124 170.055L311.306 97.5269C311.272 97.3321 311.218 97.1413 311.146 96.9572C310.545 95.4283 308.819 94.6758 307.29 95.2762L243.003 120.526C242.848 120.587 242.687 120.637 242.524 120.676C240.651 121.114 238.776 119.951 238.338 118.078C238.333 118.056 238.333 118.056 238.328 118.034C238.224 117.582 238.155 117.128 238.121 116.67C238.01 115.182 238.859 113.788 240.232 113.204L307.282 84.69C308.006 84.3824 308.764 84.1647 309.541 84.042C314.779 83.214 319.696 86.7891 320.524 92.0272L333.393 173.447C333.628 174.935 333.433 176.46 332.831 177.841C331.086 181.841 326.428 183.669 322.428 181.924L241.563 146.645V139.037Z" fill="black"/>
<path fill-rule="evenodd" clip-rule="evenodd" d="M243.693 169.865C240.44 168.677 237.78 166.002 236.752 162.418C235.045 156.463 238.488 150.252 244.443 148.544C250.397 146.837 256.609 150.28 258.316 156.235C259.363 159.886 258.474 163.633 256.257 166.379L250.97 162.105C251.844 161.023 252.194 159.547 251.782 158.109C251.109 155.763 248.662 154.406 246.316 155.079C243.97 155.752 242.614 158.199 243.287 160.544C243.692 161.956 244.739 163.01 246.021 163.478L243.693 169.865Z" fill="#EFEFEF"/>
<path d="M243.833 170.217L243.593 170.129C240.17 168.879 237.519 166.083 236.495 162.513C234.749 156.423 238.27 150.07 244.361 148.324C250.451 146.578 256.803 150.099 258.55 156.189C259.593 159.826 258.776 163.675 256.444 166.564L256.283 166.763L250.6 162.168L250.76 161.969C251.607 160.92 251.904 159.524 251.525 158.203C250.891 155.993 248.585 154.715 246.375 155.349C244.164 155.982 242.886 158.288 243.52 160.499C243.892 161.795 244.854 162.809 246.097 163.263L246.336 163.351L243.833 170.217ZM245.685 163.648C244.406 163.101 243.423 162.01 243.03 160.639C242.319 158.158 243.753 155.57 246.234 154.858C248.715 154.147 251.304 155.582 252.015 158.063C252.416 159.461 252.142 160.936 251.312 162.087L256.205 166.044C258.312 163.306 259.032 159.722 258.06 156.33C256.391 150.51 250.321 147.145 244.501 148.814C238.682 150.483 235.317 156.553 236.986 162.372C237.94 165.701 240.374 168.324 243.53 169.56L245.685 163.648Z" fill="black"/>
<path fill-rule="evenodd" clip-rule="evenodd" d="M245.502 150.347C248.433 149.933 250.474 147.222 250.06 144.291C250.048 144.205 250.034 144.119 250.017 144.033L249.47 141.172C248.908 138.231 246.067 136.303 243.126 136.865C243.118 136.867 243.11 136.868 243.102 136.87C240.123 137.453 238.148 140.297 238.64 143.292L239.016 145.58C239.523 148.667 242.404 150.784 245.502 150.347Z" fill="white"/>
<path d="M245.477 150.522C248.548 150.089 250.686 147.249 250.252 144.178C250.24 144.088 250.225 143.998 250.207 143.908L249.66 141.047C249.071 137.968 246.097 135.949 243.017 136.538L242.992 136.542C239.879 137.152 237.813 140.126 238.328 143.256L238.704 145.544C239.234 148.768 242.242 150.979 245.477 150.522ZM245.406 150.017C242.445 150.435 239.692 148.412 239.207 145.461L238.831 143.173C238.361 140.315 240.247 137.6 243.09 137.043L243.113 137.038C245.916 136.502 248.623 138.34 249.16 141.143L249.707 144.004C249.722 144.085 249.736 144.167 249.747 144.249C250.141 147.041 248.198 149.624 245.406 150.017Z" fill="black"/>
<path fill-rule="evenodd" clip-rule="evenodd" d="M310.137 83.9317C312.307 83.7345 313.95 83.9045 315.065 84.4416C316.181 84.9786 317.597 86.2816 319.314 88.3504L310.477 96.3379C310.024 95.998 309.684 95.7714 309.457 95.6581C309.231 95.5448 308.834 95.4315 308.268 95.3182L310.137 83.9317ZM128.138 99.0527C129.609 98.2919 130.964 97.7835 132.202 97.5275C133.44 97.2715 135.366 97.1016 137.98 97.0177L135.771 106.875L134.581 107.045L133.402 107.431L128.138 99.0527ZM90.0193 133.409C90.4883 131.405 90.9533 129.868 91.4144 128.798C91.8754 127.728 92.7365 126.189 93.9977 124.18L101.781 132.707L101.238 133.779L100.879 134.966L90.0193 133.409ZM333.76 174.514C333.177 177.395 332.441 179.321 331.55 180.292C330.66 181.263 328.904 182.056 326.282 182.671L322.203 172.135C322.824 171.95 323.224 171.769 323.405 171.592C323.586 171.415 323.752 171.086 323.903 170.605L333.76 174.514Z" fill="black"/>
<path d="M234.005 53.5719L237.23 58.5032L256.396 55.6382L256.471 56.1425L236.982 59.0557L233.538 53.7889L221.789 54.9544C221.649 54.9683 221.524 54.866 221.51 54.7259C221.497 54.5858 221.599 54.461 221.739 54.4471L233.528 53.2775L234.56 45.1598L252.957 39.3324C253.092 39.2899 253.235 39.3642 253.277 39.4984C253.32 39.6326 253.246 39.7759 253.111 39.8184L235.024 45.5474L234.005 53.5719Z" fill="black"/>
<path d="M221.084 267.9V267.39V267.9ZM221.084 267.39C221.424 267.39 221.424 267.9 221.084 267.9H217.176C216.836 267.9 216.836 267.39 217.176 267.39H221.084H224.993C225.333 267.39 225.333 267.9 224.993 267.9H221.084C220.744 267.9 220.744 267.39 221.084 267.39ZM208.927 250.591L208.599 250.2L208.927 250.591ZM208.927 250.591L205.783 253.225C205.522 253.443 205.195 253.052 205.455 252.834L208.599 250.2L211.743 247.566C212.004 247.347 212.331 247.738 212.071 247.957L208.927 250.591Z" fill="black"/>
<path d="M192.735 116.213L182.638 118.035C183.106 120.633 183.529 122.975 183.994 125.553L189.269 124.602C190.194 124.435 191.904 124.452 192.161 125.991C192.445 127.565 190.724 128.16 189.976 128.295C188.834 128.501 187.332 128.284 187.108 127.044L184.077 127.591C184.686 130.855 187.316 131.579 190.505 131.004C193.024 130.55 195.803 128.829 195.192 125.444C194.57 121.878 191.746 121.432 188.793 121.964L186.372 122.401L185.989 120.275L193.232 118.969L192.735 116.213ZM198.422 121.244C197.986 118.823 199.165 117.472 200.916 117.156C202.668 116.84 204.16 117.791 204.583 120.133L204.941 122.121C205.378 124.542 204.269 125.941 202.497 126.26C200.726 126.58 199.217 125.653 198.781 123.232L198.422 121.244ZM195.73 123.782C196.511 128.112 199.858 129.541 203.086 128.959C206.314 128.376 208.729 125.766 207.969 121.554L207.61 119.566C206.851 115.354 203.758 113.758 200.412 114.361C197.066 114.965 194.59 117.464 195.368 121.774L195.73 123.782ZM211.662 118.856C211.225 116.435 212.404 115.084 214.156 114.768C215.908 114.452 217.4 115.403 217.822 117.745L218.181 119.733C218.618 122.154 217.508 123.553 215.737 123.872C213.965 124.192 212.457 123.265 212.02 120.844L211.662 118.856ZM208.97 121.394C209.751 125.724 213.097 127.153 216.325 126.571C219.553 125.989 221.968 123.378 221.208 119.166L220.85 117.178C220.09 112.966 216.998 111.37 213.652 111.973C210.306 112.577 207.83 115.076 208.607 119.387L208.97 121.394Z" fill="black"/>
<path d="M11.02 310.02V317.84C11.02 319.94 10.26 321.4 8.14 321.54C5.86 321.64 4.46 320.34 4.46 317.84V310.02H1.36V317.84C1.36 322.36 4.46 324.46 8.12 324.34C11.8 324.22 14.12 322 14.12 317.84V310.02H11.02ZM15.5325 310V324H18.4125V319C18.4125 317.42 19.4125 316.58 20.6125 316.58C21.7525 316.58 22.4925 317.34 22.4925 318.72V324H25.3725V318.7C25.3725 315.18 23.7525 313.96 21.4325 313.96C20.4325 313.96 19.2525 314.28 18.4325 315.34V310H15.5325ZM45.087 317C45.087 312.44 42.007 309.66 37.527 309.66C33.047 309.66 29.967 312.44 29.967 317C29.967 321.56 33.047 324.34 37.527 324.34C42.007 324.34 45.087 321.56 45.087 317ZM42.027 317C42.027 319.6 40.247 321.52 37.527 321.52C34.867 321.52 33.027 319.62 33.027 317C33.027 314.46 34.867 312.46 37.527 312.46C40.247 312.46 42.027 314.44 42.027 317ZM45.9309 310V324H48.8109V319C48.8109 317.42 49.8109 316.58 51.0109 316.58C52.1509 316.58 52.8909 317.34 52.8909 318.72V324H55.7709V318.7C55.7709 315.18 54.1509 313.96 51.8309 313.96C50.8309 313.96 49.6509 314.28 48.8309 315.34V310H45.9309ZM56.8594 322.54C56.8594 324.7 60.1394 324.7 60.1394 322.54C60.1394 320.38 56.8594 320.38 56.8594 322.54ZM65.4389 310V324H75.5589V321.14H68.5589V310H65.4389ZM80.9111 324.22C84.2711 324.22 86.3311 322.06 86.3311 319.08C86.3311 316.1 84.2111 313.9 80.9111 313.9C77.6311 313.9 75.5111 316.1 75.5111 319.08C75.5111 322.06 77.5711 324.22 80.9111 324.22ZM80.9111 321.66C79.1711 321.66 78.4311 320.32 78.4311 319.08C78.4311 317.84 79.1911 316.48 80.9111 316.48C82.6511 316.48 83.4111 317.84 83.4111 319.08C83.4111 320.38 82.6711 321.66 80.9111 321.66ZM92.0205 324.22C95.3805 324.22 97.4405 322.06 97.4405 319.08C97.4405 316.1 95.3205 313.9 92.0205 313.9C88.7405 313.9 86.6205 316.1 86.6205 319.08C86.6205 322.06 88.6805 324.22 92.0205 324.22ZM92.0205 321.66C90.2805 321.66 89.5405 320.32 89.5405 319.08C89.5405 317.84 90.3005 316.48 92.0205 316.48C93.7605 316.48 94.5205 317.84 94.5205 319.08C94.5205 320.38 93.7805 321.66 92.0205 321.66ZM98.3098 310.02V324H101.19V319.66L104.61 324H108.07V323.78L103.89 318.78L107.51 314.32V314.14H104.11L101.19 318V310.02H98.3098ZM115.731 315.12C114.691 314.22 113.471 313.84 111.951 313.84C109.811 313.84 107.691 314.78 107.691 317.02C107.691 319.34 109.991 320.1 111.831 320.18C113.171 320.22 113.511 320.6 113.511 321.06C113.531 321.58 112.871 321.92 112.031 321.9C110.991 321.88 109.811 321.66 108.591 320.66L107.351 322.7C109.031 324.1 110.531 324.38 111.991 324.38C115.131 324.38 116.331 322.66 116.311 321.06C116.291 318.34 113.951 317.94 112.011 317.88C111.051 317.86 110.551 317.56 110.551 317.02C110.551 316.54 111.031 316.2 111.971 316.2C112.871 316.2 113.571 316.4 114.311 316.92L115.731 315.12ZM120.819 310.02V324H123.679V310.02H120.819ZM128.03 314.1V324H125.15V314.1H128.03ZM124.95 311.5C124.95 313.66 128.23 313.66 128.23 311.5C128.23 309.34 124.95 309.34 124.95 311.5ZM129.462 310.02V324H132.342V319.66L135.762 324H139.222V323.78L135.042 318.78L138.662 314.32V314.14H135.262L132.342 318V310.02H129.462ZM148.512 320C149.132 315.96 146.932 313.86 143.572 313.86C140.352 313.86 138.332 315.96 138.332 318.96C138.332 322.12 140.292 324.22 143.872 324.22C145.352 324.22 147.052 323.8 148.112 322.76L146.492 320.96C145.792 321.56 144.712 321.74 143.932 321.74C142.312 321.74 141.392 320.96 141.252 320H148.512ZM141.252 317.9C141.532 316.92 142.412 316.32 143.572 316.32C144.772 316.32 145.872 316.82 145.932 317.9H141.252ZM160.721 315.26C160.201 314.38 159.041 313.9 157.801 313.9C154.881 313.86 152.621 315.78 152.621 319.06C152.621 322.32 154.761 324.24 157.721 324.22C158.681 324.2 160.101 323.8 160.761 322.76L160.921 324H163.521C163.521 320.72 163.521 317.4 163.521 314.12H160.821L160.721 315.26ZM158.101 316.44C159.821 316.44 160.721 317.74 160.721 319.16C160.721 320.4 159.721 321.66 158.101 321.66C156.661 321.66 155.501 320.7 155.501 319.06C155.501 317.42 156.661 316.44 158.101 316.44ZM174.974 324V318.76C174.974 314.92 173.074 313.88 170.854 313.88C169.654 313.86 168.534 314.24 167.654 315.38L167.554 314.12H164.954V324H167.794V318.9C167.794 317.62 168.694 316.46 170.034 316.48C171.414 316.48 172.074 317.26 172.074 318.78V324H174.974ZM183.465 324V310H180.365V324H183.465ZM195.158 324V318.76C195.158 314.92 193.258 313.88 191.038 313.88C189.838 313.86 188.718 314.24 187.838 315.38L187.738 314.12H185.138V324H187.978V318.9C187.978 317.62 188.878 316.46 190.218 316.48C191.598 316.48 192.258 317.26 192.258 318.78V324H195.158ZM197.502 311.74V314.18H195.742V316.58H197.502V320.3C197.502 323.38 199.122 324.32 201.262 324.22C202.042 324.18 202.622 324.06 203.342 323.78L202.682 321.38C202.362 321.54 201.822 321.62 201.482 321.62C200.942 321.62 200.362 321.34 200.362 320.3V316.58H202.882V314.18H200.382V311.42L197.502 311.74ZM213.461 320C214.081 315.96 211.881 313.86 208.521 313.86C205.301 313.86 203.281 315.96 203.281 318.96C203.281 322.12 205.241 324.22 208.821 324.22C210.301 324.22 212.001 323.8 213.061 322.76L211.441 320.96C210.741 321.56 209.661 321.74 208.881 321.74C207.261 321.74 206.341 320.96 206.201 320H213.461ZM206.201 317.9C206.481 316.92 207.361 316.32 208.521 316.32C209.721 316.32 210.821 316.82 210.881 317.9H206.201ZM214.384 314.14V324H217.264V318.86C217.264 317.38 218.324 316.58 219.564 316.58C220.164 316.58 220.664 316.74 221.144 317.08L222.344 314.8C221.644 314.18 220.864 313.9 219.924 313.9C218.824 313.9 217.944 314.3 217.284 315.22L217.064 314.14H214.384ZM232.486 324V318.76C232.486 314.92 230.586 313.88 228.366 313.88C227.166 313.86 226.046 314.24 225.166 315.38L225.066 314.12H222.466V324H225.306V318.9C225.306 317.62 226.206 316.46 227.546 316.48C228.926 316.48 229.586 317.26 229.586 318.78V324H232.486ZM241.33 315.26C240.81 314.38 239.65 313.9 238.41 313.9C235.49 313.86 233.23 315.78 233.23 319.06C233.23 322.32 235.37 324.24 238.33 324.22C239.29 324.2 240.71 323.8 241.37 322.76L241.53 324H244.13C244.13 320.72 244.13 317.4 244.13 314.12H241.43L241.33 315.26ZM238.71 316.44C240.43 316.44 241.33 317.74 241.33 319.16C241.33 320.4 240.33 321.66 238.71 321.66C237.27 321.66 236.11 320.7 236.11 319.06C236.11 317.42 237.27 316.44 238.71 316.44ZM245.604 310.02V324H248.464V310.02H245.604ZM264.261 311.66C262.821 309.98 261.201 309.5 259.041 309.5C256.161 309.5 253.521 310.98 253.501 313.76C253.461 317.06 256.101 317.8 259.061 318.08C260.961 318.24 261.901 318.78 261.881 319.96C261.881 320.96 260.741 321.62 259.081 321.62C257.661 321.62 255.881 321.02 254.801 319.64L252.941 321.58C254.121 323.54 256.641 324.48 259.061 324.46C262.081 324.44 264.961 323.08 264.961 319.96C264.961 316.72 262.341 315.66 259.581 315.42C257.781 315.26 256.561 315.02 256.561 313.74C256.561 312.78 257.681 312.2 259.061 312.2C260.161 312.2 261.521 312.56 262.301 313.38L264.261 311.66ZM275.387 320C276.007 315.96 273.807 313.86 270.447 313.86C267.227 313.86 265.207 315.96 265.207 318.96C265.207 322.12 267.167 324.22 270.747 324.22C272.227 324.22 273.927 323.8 274.987 322.76L273.367 320.96C272.667 321.56 271.587 321.74 270.807 321.74C269.187 321.74 268.267 320.96 268.127 320H275.387ZM268.127 317.9C268.407 316.92 269.287 316.32 270.447 316.32C271.647 316.32 272.747 316.82 272.807 317.9H268.127ZM276.31 314.14V324H279.19V318.86C279.19 317.38 280.25 316.58 281.49 316.58C282.09 316.58 282.59 316.74 283.07 317.08L284.27 314.8C283.57 314.18 282.79 313.9 281.85 313.9C280.75 313.9 279.87 314.3 279.21 315.22L278.99 314.14H276.31ZM287.912 317.74L286.492 314.12H283.252L287.492 324.06H290.652L294.892 314.12H291.652L290.232 317.74L289.072 321L287.912 317.74ZM304.457 320C305.077 315.96 302.877 313.86 299.517 313.86C296.297 313.86 294.277 315.96 294.277 318.96C294.277 322.12 296.237 324.22 299.817 324.22C301.297 324.22 302.997 323.8 304.057 322.76L302.437 320.96C301.737 321.56 300.657 321.74 299.877 321.74C298.257 321.74 297.337 320.96 297.197 320H304.457ZM297.197 317.9C297.477 316.92 298.357 316.32 299.517 316.32C300.717 316.32 301.817 316.82 301.877 317.9H297.197ZM305.38 314.14V324H308.26V318.86C308.26 317.38 309.32 316.58 310.56 316.58C311.16 316.58 311.66 316.74 312.14 317.08L313.34 314.8C312.64 314.18 311.86 313.9 310.92 313.9C309.82 313.9 308.94 314.3 308.28 315.22L308.06 314.14H305.38ZM327.72 321.12H320.12V318.3H327.02V315.56H320.12V312.86H327.44V310H317.06C317.06 314.66 317.06 319.34 317.06 324H327.72V321.12ZM328.708 314.14V324H331.588V318.86C331.588 317.38 332.648 316.58 333.888 316.58C334.488 316.58 334.988 316.74 335.468 317.08L336.668 314.8C335.968 314.18 335.188 313.9 334.248 313.9C333.148 313.9 332.268 314.3 331.608 315.22L331.388 314.14H328.708ZM336.79 314.14V324H339.67V318.86C339.67 317.38 340.73 316.58 341.97 316.58C342.57 316.58 343.07 316.74 343.55 317.08L344.75 314.8C344.05 314.18 343.27 313.9 342.33 313.9C341.23 313.9 340.35 314.3 339.69 315.22L339.47 314.14H336.79ZM349.438 324.22C352.798 324.22 354.858 322.06 354.858 319.08C354.858 316.1 352.738 313.9 349.438 313.9C346.158 313.9 344.038 316.1 344.038 319.08C344.038 322.06 346.098 324.22 349.438 324.22ZM349.438 321.66C347.698 321.66 346.958 320.32 346.958 319.08C346.958 317.84 347.718 316.48 349.438 316.48C351.178 316.48 351.938 317.84 351.938 319.08C351.938 320.38 351.198 321.66 349.438 321.66ZM355.728 314.14V324H358.608V318.86C358.608 317.38 359.668 316.58 360.908 316.58C361.508 316.58 362.008 316.74 362.488 317.08L363.688 314.8C362.988 314.18 362.208 313.9 361.268 313.9C360.168 313.9 359.288 314.3 358.628 315.22L358.408 314.14H355.728ZM362.398 322.54C362.398 324.7 365.678 324.7 365.678 322.54C365.678 320.38 362.398 320.38 362.398 322.54Z" fill="black"/>
</svg>
