<svg width="37" height="38" viewBox="0 0 37 38" fill="none" xmlns="http://www.w3.org/2000/svg">
<path fill-rule="evenodd" clip-rule="evenodd" d="M0 7.28129C0 3.64687 2.94668 0.700195 6.58107 0.700195H30.4189C34.0533 0.700195 37 3.64687 37 7.28129V31.1191C37 34.7535 34.0533 37.7002 30.4189 37.7002H6.58107C2.94668 37.7002 0 34.7535 0 31.1191V7.28129ZM10.8418 23.8858H21.12C23.5037 23.8858 25.4366 25.8187 25.4366 28.2025C25.4366 30.5867 23.5037 32.5191 21.12 32.5191H10.8418C8.45806 32.5191 6.52518 30.5867 6.52518 28.2025C6.52518 25.8187 8.45806 23.8858 10.8418 23.8858ZM8.33865 20.0751C8.74159 20.2283 8.72884 20.7947 8.31945 20.93L7.28055 21.2734L8.23466 22.2479C8.44096 22.4585 8.43497 22.7942 8.22145 22.9977C8.00777 23.201 7.66751 23.1952 7.4612 22.9845L6.44351 21.9451L5.87605 22.8245C5.65761 23.1629 5.13409 23.0767 5.03916 22.6865L4.20702 19.2677C4.12039 18.9117 4.47447 18.606 4.82102 18.7376L8.33865 20.0751ZM19.2282 10.5655H29.5063C31.8901 10.5655 33.8229 12.4984 33.8229 14.8822C33.8229 17.2664 31.8901 19.1988 29.5063 19.1988H19.2282C16.8444 19.1988 14.9115 17.2664 14.9115 14.8822C14.9115 12.4984 16.8444 10.5655 19.2282 10.5655ZM16.725 6.7548C17.1279 6.90796 17.1152 7.4744 16.7058 7.6097L15.6669 7.9531L16.621 8.9276C16.8273 9.1382 16.8213 9.47389 16.6078 9.67739C16.3941 9.88069 16.0538 9.8749 15.8475 9.6642L14.8298 8.62479L14.2624 9.5042C14.0439 9.8426 13.5204 9.7564 13.4255 9.3662L12.5933 5.94736C12.5067 5.59136 12.8608 5.28565 13.2073 5.4173L16.725 6.7548Z" fill="url(#paint0_linear)"/>
<defs>
<linearGradient id="paint0_linear" x1="3.5" y1="2.70019" x2="33.5" y2="37.7002" gradientUnits="userSpaceOnUse">
<stop stop-color="#BE4EFF"/>
<stop offset="1" stop-color="#7033FF"/>
</linearGradient>
</defs>
</svg>
