<svg width="53" height="53" viewBox="0 0 53 53" fill="none" xmlns="http://www.w3.org/2000/svg">
<path d="M0 9.42693C0 4.22092 4.22092 0 9.42693 0H43.5731C48.7791 0 53 4.22092 53 9.42693V43.5731C53 48.7791 48.7791 53 43.5731 53H9.42693C4.22092 53 0 48.7791 0 43.5731V9.42693Z" fill="url(#paint0_linear)"/>
<path fill-rule="evenodd" clip-rule="evenodd" d="M28.6729 36.7466C31.3365 36.7466 33.4959 34.8273 33.4959 32.4595V21.2471C33.4959 18.8793 31.3365 16.96 28.6729 16.96H17.5429C14.8792 16.96 12.7199 18.8793 12.7199 21.2471V32.4595C12.7199 34.8273 14.8792 36.7466 17.5429 36.7466H28.6729ZM42.3999 19.6522C42.3999 19.3392 42.2747 19.0364 42.0466 18.7979C41.5158 18.2428 40.5793 18.1753 39.9548 18.6471L34.9799 22.4052V31.2999L39.9549 35.0592C40.2231 35.2619 40.5637 35.3732 40.9159 35.3732C41.7355 35.3732 42.3999 34.7826 42.3999 34.054V19.6522ZM18.0199 23.32C18.9956 23.32 19.7865 22.529 19.7865 21.5533C19.7865 20.5776 18.9956 19.7866 18.0199 19.7866C17.0442 19.7866 16.2532 20.5776 16.2532 21.5533C16.2532 22.529 17.0442 23.32 18.0199 23.32Z" fill="white"/>
<defs>
<linearGradient id="paint0_linear" x1="0.854839" y1="6.83871" x2="22.7719" y2="28.7557" gradientUnits="userSpaceOnUse">
<stop stop-color="#5AA1FF"/>
<stop offset="1" stop-color="#025CD2"/>
</linearGradient>
</defs>
</svg>
