<svg width="51" height="51" viewBox="0 0 51 51" fill="none" xmlns="http://www.w3.org/2000/svg">
<path d="M25.5 51C39.5833 51 51 39.5833 51 25.5C51 11.4167 39.5833 0 25.5 0C11.4167 0 0 11.4167 0 25.5C0 39.5833 11.4167 51 25.5 51Z" fill="#FFD93B"/>
<path d="M35.3209 40.559C34.0523 41.324 30.6385 37.9198 25.9337 37.8784C21.2975 37.8369 17.8151 41.3256 16.5465 40.559C15.0277 39.9407 17.6255 32.5297 25.9337 32.4851C34.2419 32.5297 36.8397 39.9423 35.3209 40.559Z" fill="#3E4347"/>
<path d="M38.8813 22.0652C38.8813 24.3108 37.0437 26.1483 34.7886 26.1483C32.5318 26.1483 30.6958 24.3108 30.6958 22.0652C30.6958 19.7988 32.5334 17.9724 34.7886 17.9724C37.0453 17.9724 38.8813 19.7988 38.8813 22.0652Z" fill="#3E4347"/>
<path d="M36.6622 19.7564C36.159 19.3196 35.5257 19.2252 35.2475 19.5455C34.9694 19.8659 35.1518 20.4797 35.6549 20.9166C36.158 21.3534 36.7914 21.4478 37.0695 21.1275C37.3477 20.8071 37.1653 20.1933 36.6622 19.7564Z" fill="#5A5F63"/>
<path d="M20.3044 22.0654C20.3044 24.311 18.4668 26.1486 16.2116 26.1486C13.9565 26.1486 12.1189 24.311 12.1189 22.0654C12.1189 19.7991 13.9565 17.9727 16.2116 17.9727C18.4668 17.9727 20.3044 19.7991 20.3044 22.0654Z" fill="#3E4347"/>
<path d="M18.0838 19.7579C17.5807 19.3211 16.9473 19.2266 16.6692 19.547C16.391 19.8674 16.5734 20.4812 17.0765 20.918C17.5797 21.3549 18.213 21.4493 18.4912 21.1289C18.7693 20.8086 18.5869 20.1947 18.0838 19.7579Z" fill="#5A5F63"/>
</svg>
