<svg width="51" height="51" viewBox="0 0 51 51" fill="none" xmlns="http://www.w3.org/2000/svg">
<g clip-path="url(#clip0)">
<path d="M25.5 51C39.5833 51 51 39.5833 51 25.5C51 11.4167 39.5833 0 25.5 0C11.4167 0 0 11.4167 0 25.5C0 39.5833 11.4167 51 25.5 51Z" fill="#FFD93B"/>
<path d="M51 25.5001C51 39.5888 39.5808 51.0001 25.5 51.0001C17.4834 51.0001 10.3275 47.3026 5.64984 41.5093C10.0247 45.0474 15.5948 47.1591 21.6591 47.1591C35.7398 47.1591 47.1591 35.7479 47.1591 21.6591C47.1591 15.5949 45.0473 10.0247 41.5092 5.6499C47.2945 10.3276 51 17.4835 51 25.5001Z" fill="#F4C534"/>
<path d="M34.8808 26.4738C37.091 26.4738 38.8827 24.6821 38.8827 22.4719C38.8827 20.2617 37.091 18.47 34.8808 18.47C32.6706 18.47 30.8789 20.2617 30.8789 22.4719C30.8789 24.6821 32.6706 26.4738 34.8808 26.4738Z" fill="#3E4347"/>
<path d="M36.3339 19.9819C35.7224 19.7107 35.0843 19.8118 34.9088 20.2076C34.7332 20.6035 35.0866 21.1443 35.6981 21.4155C36.3096 21.6866 36.9476 21.5856 37.1232 21.1897C37.2987 20.7939 36.9454 20.2531 36.3339 19.9819Z" fill="#5A5F63"/>
<path d="M16.1192 26.4738C18.3294 26.4738 20.1211 24.6821 20.1211 22.4719C20.1211 20.2617 18.3294 18.47 16.1192 18.47C13.909 18.47 12.1173 20.2617 12.1173 22.4719C12.1173 24.6821 13.909 26.4738 16.1192 26.4738Z" fill="#3E4347"/>
<path d="M17.571 19.9814C16.9596 19.7102 16.3215 19.8113 16.146 20.2072C15.9704 20.603 16.3238 21.1438 16.9353 21.415C17.5468 21.6862 18.1848 21.5851 18.3604 21.1892C18.5359 20.7934 18.1825 20.2526 17.571 19.9814Z" fill="#5A5F63"/>
<path d="M15.0545 35.566C14.5732 35.1134 14.5509 34.3564 15.0035 33.8767C15.4562 33.397 16.2116 33.373 16.6929 33.8257C21.632 38.4746 29.368 38.4746 34.307 33.8257C34.7884 33.373 35.5438 33.397 35.9964 33.8767C36.449 34.358 36.4267 35.1134 35.9454 35.566C30.0884 41.0804 20.9116 41.0804 15.0545 35.566Z" fill="#3E4347"/>
</g>
<defs>
<clipPath id="clip0">
<rect width="51" height="51" fill="white"/>
</clipPath>
</defs>
</svg>
