<svg width="51" height="51" viewBox="0 0 51 51" fill="none" xmlns="http://www.w3.org/2000/svg">
<g clip-path="url(#clip0)">
<path d="M25.5 51C39.5833 51 51 39.5833 51 25.5C51 11.4167 39.5833 0 25.5 0C11.4167 0 0 11.4167 0 25.5C0 39.5833 11.4167 51 25.5 51Z" fill="#FFD93B"/>
<path d="M51.0001 25.5001C51.0001 39.5888 39.5808 51.0001 25.5001 51.0001C17.4835 51.0001 10.3276 47.3026 5.6499 41.5093C10.0247 45.0474 15.5949 47.1591 21.6591 47.1591C35.7399 47.1591 47.1591 35.7479 47.1591 21.6591C47.1591 15.5949 45.0474 10.0247 41.5093 5.6499C47.2946 10.3276 51.0001 17.4835 51.0001 25.5001Z" fill="#F4C534"/>
<path d="M36.9113 34.3055C36.9113 35.0721 36.2913 35.6921 35.5247 35.6921H15.4737C14.7151 35.6921 14.0872 35.0721 14.0872 34.3055C14.0872 33.5389 14.7151 32.9189 15.4737 32.9189H35.5247C36.2929 32.9205 36.9113 33.5389 36.9113 34.3055Z" fill="#3E4347"/>
<path d="M17.383 24.4274C19.4814 24.4274 21.1825 22.7263 21.1825 20.6279C21.1825 18.5295 19.4814 16.8284 17.383 16.8284C15.2846 16.8284 13.5835 18.5295 13.5835 20.6279C13.5835 22.7263 15.2846 24.4274 17.383 24.4274Z" fill="#3E4347"/>
<path d="M19.5104 18.6903C19.1815 18.2483 18.6829 18.0624 18.3969 18.2752C18.1109 18.4881 18.1457 19.019 18.4747 19.461C18.8036 19.9031 19.3022 20.0889 19.5882 19.8761C19.8742 19.6633 19.8394 19.1324 19.5104 18.6903Z" fill="#5A5F63"/>
<path d="M33.6122 24.4274C35.7107 24.4274 37.4118 22.7263 37.4118 20.6279C37.4118 18.5295 35.7107 16.8284 33.6122 16.8284C31.5138 16.8284 29.8127 18.5295 29.8127 20.6279C29.8127 22.7263 31.5138 24.4274 33.6122 24.4274Z" fill="#3E4347"/>
<path d="M35.7383 18.6946C35.4094 18.2526 34.9109 18.0668 34.6249 18.2796C34.3389 18.4924 34.3738 19.0233 34.7027 19.4653C35.0317 19.9073 35.5302 20.0931 35.8161 19.8803C36.1021 19.6675 36.0673 19.1366 35.7383 18.6946Z" fill="#5A5F63"/>
</g>
<defs>
<clipPath id="clip0">
<rect width="51" height="51" fill="white"/>
</clipPath>
</defs>
</svg>
