<svg width="92" height="92" viewBox="0 0 92 92" fill="none" xmlns="http://www.w3.org/2000/svg">
<circle cx="46" cy="46" r="46" fill="url(#paint0_linear)"/>
<path d="M62.3003 51.6665C65.8211 51.6665 68.6753 54.5207 68.6753 58.0415V60.6059C68.6753 63.7046 67.3225 66.649 64.9714 68.6675C60.5359 72.4754 54.1883 74.3364 46 74.3364C37.8131 74.3364 31.4698 72.476 27.0417 68.6689C24.6939 66.6505 23.3434 63.7084 23.3434 60.6122V58.0415C23.3434 54.5207 26.1976 51.6665 29.7184 51.6665H62.3003ZM45.7126 17.6875L46.0009 17.6681C47.0768 17.6681 47.9658 18.4675 48.1066 19.5047L48.1259 19.7931L48.1237 21.9153L58.0417 21.9167C61.5625 21.9167 64.4167 24.7709 64.4167 28.2917V41.0547C64.4167 44.5755 61.5625 47.4297 58.0417 47.4297H33.9583C30.4375 47.4297 27.5833 44.5755 27.5833 41.0547V28.2917C27.5833 24.7709 30.4375 21.9167 33.9583 21.9167L43.8737 21.9153L43.8759 19.7931C43.8759 18.7173 44.6754 17.8282 45.7126 17.6875L46.0009 17.6681L45.7126 17.6875ZM39.623 30.4167C37.6681 30.4167 36.0833 32.0014 36.0833 33.9563C36.0833 35.9112 37.6681 37.496 39.623 37.496C41.5779 37.496 43.1627 35.9112 43.1627 33.9563C43.1627 32.0014 41.5779 30.4167 39.623 30.4167ZM52.3524 30.4167C50.3975 30.4167 48.8128 32.0014 48.8128 33.9563C48.8128 35.9112 50.3975 37.496 52.3524 37.496C54.3073 37.496 55.8921 35.9112 55.8921 33.9563C55.8921 32.0014 54.3073 30.4167 52.3524 30.4167Z" fill="white"/>
<path d="M46 44.2105C47.9766 44.2105 49.5789 42.6082 49.5789 40.6316H42.421C42.421 42.6082 44.0234 44.2105 46 44.2105Z" fill="#43A9F1"/>
<defs>
<linearGradient id="paint0_linear" x1="46" y1="0" x2="46" y2="92" gradientUnits="userSpaceOnUse">
<stop stop-color="#4DD9E8"/>
<stop offset="1" stop-color="#3568FE"/>
</linearGradient>
</defs>
</svg>
