<svg width="216" height="216" viewBox="0 0 216 216" fill="none" xmlns="http://www.w3.org/2000/svg">
<g filter="url(#filter0_d)">
<circle cx="108" cy="104" r="104" fill="url(#paint0_linear)"/>
</g>
<path fill-rule="evenodd" clip-rule="evenodd" d="M164.793 134.455C164.793 125.694 157.69 118.593 148.931 118.593H67.862C59.1017 118.593 52 125.694 52 134.455V140.851C52 148.555 55.3604 155.876 61.2019 160.897C72.2198 170.37 88.0029 175 108.373 175C128.747 175 144.54 170.368 155.576 160.894C161.427 155.871 164.793 148.546 164.793 140.836V134.455ZM108.375 34L107.658 34.0481C105.077 34.3982 103.088 36.6105 103.088 39.2872L103.083 44.5676L78.4118 44.5711C69.6514 44.5711 62.5497 51.6728 62.5497 60.433V92.1894C62.5497 100.95 69.6514 108.051 78.4118 108.051H138.334C147.095 108.051 154.196 100.95 154.196 92.1894V60.433C154.196 51.6728 147.095 44.5711 138.334 44.5711L113.657 44.5676L113.663 39.2872L113.615 38.5697C113.264 35.989 111.052 34 108.375 34ZM83.699 74.5276C83.699 69.6635 87.6421 65.7204 92.5062 65.7204C97.3703 65.7204 101.313 69.6635 101.313 74.5276C101.313 79.3917 97.3703 83.3347 92.5062 83.3347C87.6421 83.3347 83.699 79.3917 83.699 74.5276ZM115.372 74.5276C115.372 69.6635 119.315 65.7204 124.179 65.7204C129.043 65.7204 132.987 69.6635 132.987 74.5276C132.987 79.3917 129.043 83.3347 124.179 83.3347C119.315 83.3347 115.372 79.3917 115.372 74.5276ZM117.278 91.1362C117.278 96.0543 113.291 100.041 108.373 100.041C103.455 100.041 99.4681 96.0543 99.4681 91.1362H117.278Z" fill="white"/>
<defs>
<filter id="filter0_d" x="0" y="0" width="216" height="216" filterUnits="userSpaceOnUse" color-interpolation-filters="sRGB">
<feFlood flood-opacity="0" result="BackgroundImageFix"/>
<feColorMatrix in="SourceAlpha" type="matrix" values="0 0 0 0 0 0 0 0 0 0 0 0 0 0 0 0 0 0 127 0"/>
<feOffset dy="4"/>
<feGaussianBlur stdDeviation="2"/>
<feColorMatrix type="matrix" values="0 0 0 0 0.368627 0 0 0 0 0.313726 0 0 0 0 0.678431 0 0 0 1 0"/>
<feBlend mode="normal" in2="BackgroundImageFix" result="effect1_dropShadow"/>
<feBlend mode="normal" in="SourceGraphic" in2="effect1_dropShadow" result="shape"/>
</filter>
<linearGradient id="paint0_linear" x1="108" y1="0" x2="108" y2="208" gradientUnits="userSpaceOnUse">
<stop stop-color="#0254D7"/>
<stop offset="1" stop-color="#0042AC"/>
</linearGradient>
</defs>
</svg>
