<svg width="134" height="168" viewBox="0 0 134 168" fill="none" xmlns="http://www.w3.org/2000/svg">
<path d="M8 160H10.34V144.34H10.52L17.51 160H20.27L26.66 144.34H26.84V160H29.18V139H26.51L18.98 157.33H18.8L10.67 139H8V160ZM39.6575 160.39C43.0475 160.39 44.6675 158.11 45.0575 157.54H45.2375V160H47.5175V144.4H45.1475V146.92H44.9675C44.4875 146.11 42.7475 144.01 39.4775 144.01C35.0675 144.01 31.8875 147.43 31.8875 152.23C31.8875 157 35.0675 160.39 39.6575 160.39ZM39.8075 158.26C36.5375 158.26 34.3175 155.89 34.3175 152.23C34.3175 148.69 36.5375 146.17 39.7475 146.17C42.8375 146.17 45.2375 148.39 45.2375 152.23C45.2375 155.5 43.1975 158.26 39.8075 158.26ZM50.8285 160H53.1985V150.7C53.1985 148.12 55.1185 146.23 57.5785 146.23C59.7685 146.23 61.5985 147.85 61.5985 150.34V160H63.9685V150.19C63.9685 146.74 61.7785 144.01 58.1485 144.01C55.7185 144.01 54.0385 145.27 53.3785 146.68H53.1985V144.4H50.8285V160ZM73.8505 160.39C77.2405 160.39 78.8605 158.11 79.2505 157.54H79.4305V160H81.7105V144.4H79.3405V146.92H79.1605C78.6805 146.11 76.9405 144.01 73.6705 144.01C69.2605 144.01 66.0805 147.43 66.0805 152.23C66.0805 157 69.2605 160.39 73.8505 160.39ZM74.0005 158.26C70.7305 158.26 68.5105 155.89 68.5105 152.23C68.5105 148.69 70.7305 146.17 73.9405 146.17C77.0305 146.17 79.4305 148.39 79.4305 152.23C79.4305 155.5 77.3905 158.26 74.0005 158.26ZM91.8615 167.29C96.5415 167.29 99.4515 164.59 99.4515 160V144.4H97.0815V146.92H96.9015C96.4215 146.11 94.6815 144.01 91.4115 144.01C87.0015 144.01 83.8215 147.43 83.8215 152.23C83.8215 157 87.0015 160.39 91.5915 160.39C94.9815 160.39 96.6015 158.11 96.9915 157.54H97.1715V160C97.1715 163.18 95.5215 165.22 91.8615 165.22C89.5515 165.22 87.7515 164.26 87.3315 162.43H85.0815C85.5915 165.22 88.0515 167.29 91.8615 167.29ZM91.7415 158.26C88.4715 158.26 86.2515 155.89 86.2515 152.23C86.2515 148.69 88.4715 146.17 91.6815 146.17C94.7715 146.17 97.1715 148.39 97.1715 152.23C97.1715 155.5 95.1315 158.26 91.7415 158.26ZM109.363 160.39C113.023 160.39 115.753 158.32 116.623 155.41H114.163C113.443 157.24 111.463 158.23 109.393 158.23C106.183 158.23 104.173 156.16 104.053 153.04H116.773V151.99C116.773 147.49 113.953 144.01 109.213 144.01C104.953 144.01 101.563 147.22 101.563 152.2C101.563 156.88 104.593 160.39 109.363 160.39ZM104.113 150.94C104.353 148.06 106.603 146.17 109.213 146.17C111.853 146.17 114.043 147.82 114.253 150.94H104.113ZM119.185 160H121.555V151.96C121.555 148.99 123.145 146.77 125.995 146.77H127.285V144.4H125.965C123.685 144.4 122.155 145.99 121.705 147.31H121.525V144.4H119.185V160Z" fill="black"/>
<path d="M1.40137 120.747C1.40137 118.365 1.93685 116.212 3.00781 114.287C4.09017 112.35 5.61686 110.829 7.58789 109.724C9.55892 108.607 11.792 108.049 14.2871 108.049C16.4404 108.049 18.3887 108.476 20.1318 109.331C21.875 110.174 23.2764 111.313 24.3359 112.749C25.3955 114.173 26.1019 115.791 26.4551 117.602H20.4395C20.0977 116.36 19.3685 115.346 18.252 114.56C17.1468 113.763 15.8252 113.364 14.2871 113.364C12.1908 113.364 10.4761 114.064 9.14307 115.466C7.81006 116.867 7.14355 118.627 7.14355 120.747C7.14355 122.9 7.80436 124.672 9.12598 126.062C10.459 127.44 12.1794 128.129 14.2871 128.129C15.8138 128.129 17.1354 127.748 18.252 126.984C19.3799 126.221 20.1774 125.23 20.6445 124.011H26.7114C26.1759 126.757 24.7746 129.018 22.5073 130.795C20.2515 132.573 17.5114 133.461 14.2871 133.461C11.7806 133.461 9.54183 132.909 7.5708 131.804C5.59977 130.687 4.07878 129.166 3.00781 127.241C1.93685 125.315 1.40137 123.151 1.40137 120.747ZM28.2687 133V106.75H33.669V116.542H33.9425C34.3526 115.836 34.9736 115.249 35.8053 114.782C36.6484 114.304 37.651 114.064 38.8131 114.064C40.8297 114.064 42.4304 114.68 43.6153 115.91C44.8002 117.129 45.3927 118.719 45.3927 120.678V133H39.9581V122.353C39.9581 121.396 39.679 120.616 39.1207 120.012C38.5738 119.408 37.839 119.106 36.9161 119.106C35.9819 119.106 35.2128 119.442 34.609 120.114C34.0051 120.775 33.7032 121.595 33.7032 122.575V133H28.2687ZM46.2492 123.857C46.2492 120.952 47.024 118.593 48.5734 116.782C50.1343 114.97 52.1566 114.064 54.6403 114.064C55.9278 114.064 57.0101 114.332 57.8874 114.868C58.7761 115.392 59.4312 115.979 59.8527 116.628H60.1433V114.526H65.5607V133H60.1774V130.898H59.8869C59.7274 131.16 59.5223 131.416 59.2717 131.667C59.021 131.918 58.6906 132.191 58.2805 132.487C57.8817 132.772 57.3747 133.006 56.7595 133.188C56.1556 133.37 55.4948 133.461 54.7771 133.461C52.225 133.461 50.1628 132.584 48.5905 130.83C47.0297 129.075 46.2492 126.751 46.2492 123.857ZM51.7351 123.754C51.7351 125.19 52.1281 126.352 52.9143 127.241C53.7004 128.118 54.7315 128.557 56.0075 128.557C57.2836 128.557 58.309 128.107 59.0837 127.207C59.8584 126.295 60.2458 125.144 60.2458 123.754C60.2458 122.307 59.847 121.151 59.0495 120.285C58.252 119.408 57.2266 118.969 55.9733 118.969C54.7201 118.969 53.7004 119.414 52.9143 120.302C52.1281 121.191 51.7351 122.342 51.7351 123.754ZM66.4344 118.747V114.56H68.1775C68.6561 114.56 69.0263 114.412 69.2884 114.116C69.5504 113.808 69.6814 113.404 69.6814 112.902V109.519H74.8255V114.526H79.6619V118.747H74.8255V126.318C74.8255 127.013 75.0249 127.554 75.4236 127.941C75.8338 128.329 76.4319 128.522 77.2181 128.522H79.5936V133H75.8509C73.8229 133 72.2392 132.442 71.0999 131.325C69.972 130.197 69.408 128.619 69.408 126.591V118.747H66.4344ZM80.997 133V108.493H90.5844C92.9428 108.493 94.7999 109.103 96.1557 110.322C97.5115 111.541 98.1894 113.102 98.1894 115.004C98.1894 116.087 97.9387 117.061 97.4374 117.927C96.9475 118.781 96.2753 119.465 95.4208 119.978V120.183C96.3892 120.627 97.2266 121.322 97.933 122.268C98.6394 123.213 98.9926 124.398 98.9926 125.822C98.9926 127.281 98.628 128.568 97.8988 129.685C97.1811 130.79 96.2468 131.621 95.0961 132.18C93.9454 132.727 92.6864 133 91.3192 133H80.997ZM86.2948 128.352H89.8495C90.8521 128.352 91.6439 128.09 92.225 127.565C92.8174 127.041 93.1137 126.272 93.1137 125.258C93.1137 124.313 92.7947 123.589 92.1566 123.088C91.5186 122.575 90.7268 122.319 89.7812 122.319H86.2948V128.352ZM86.2948 118.337H89.8495C90.7382 118.337 91.4446 118.081 91.9687 117.568C92.4927 117.055 92.7548 116.389 92.7548 115.568C92.7548 114.816 92.4927 114.207 91.9687 113.74C91.4446 113.261 90.7553 113.022 89.9008 113.022H86.2948V118.337ZM99.2852 123.754C99.2852 122.399 99.5244 121.128 100.003 119.943C100.493 118.758 101.165 117.733 102.02 116.867C102.874 116.001 103.922 115.318 105.164 114.816C106.417 114.315 107.779 114.064 109.249 114.064C112.165 114.064 114.552 114.993 116.409 116.85C118.266 118.696 119.195 120.997 119.195 123.754C119.195 125.11 118.95 126.386 118.46 127.583C117.981 128.767 117.309 129.793 116.443 130.659C115.577 131.525 114.518 132.208 113.265 132.709C112.023 133.211 110.673 133.461 109.214 133.461C107.289 133.461 105.563 133.034 104.036 132.18C102.521 131.314 101.347 130.146 100.516 128.676C99.6953 127.207 99.2852 125.566 99.2852 123.754ZM104.771 123.754C104.771 125.167 105.187 126.324 106.019 127.224C106.862 128.112 107.927 128.557 109.214 128.557C110.513 128.557 111.584 128.107 112.427 127.207C113.282 126.306 113.709 125.156 113.709 123.754C113.709 122.353 113.282 121.208 112.427 120.319C111.584 119.419 110.513 118.969 109.214 118.969C107.927 118.969 106.862 119.419 106.019 120.319C105.187 121.208 104.771 122.353 104.771 123.754ZM119.641 118.747V114.56H121.384C121.863 114.56 122.233 114.412 122.495 114.116C122.757 113.808 122.888 113.404 122.888 112.902V109.519H128.032V114.526H132.869V118.747H128.032V126.318C128.032 127.013 128.232 127.554 128.63 127.941C129.041 128.329 129.639 128.522 130.425 128.522H132.8V133H129.058C127.03 133 125.446 132.442 124.307 131.325C123.179 130.197 122.615 128.619 122.615 126.591V118.747H119.641Z" fill="#3C87F8"/>
<circle cx="65" cy="46" r="46" fill="url(#paint0_linear)"/>
<path d="M81.3003 51.6665C84.8211 51.6665 87.6753 54.5207 87.6753 58.0415V60.6059C87.6753 63.7046 86.3225 66.649 83.9714 68.6675C79.5359 72.4754 73.1883 74.3364 65 74.3364C56.8131 74.3364 50.4698 72.476 46.0417 68.6689C43.6939 66.6505 42.3434 63.7084 42.3434 60.6122V58.0415C42.3434 54.5207 45.1976 51.6665 48.7184 51.6665H81.3003ZM64.7126 17.6875L65.0009 17.6681C66.0768 17.6681 66.9658 18.4675 67.1066 19.5047L67.1259 19.7931L67.1237 21.9153L77.0417 21.9167C80.5625 21.9167 83.4167 24.7709 83.4167 28.2917V41.0547C83.4167 44.5755 80.5625 47.4297 77.0417 47.4297H52.9583C49.4375 47.4297 46.5833 44.5755 46.5833 41.0547V28.2917C46.5833 24.7709 49.4375 21.9167 52.9583 21.9167L62.8737 21.9153L62.8759 19.7931C62.8759 18.7173 63.6754 17.8282 64.7126 17.6875L65.0009 17.6681L64.7126 17.6875ZM58.623 30.4167C56.6681 30.4167 55.0833 32.0014 55.0833 33.9563C55.0833 35.9112 56.6681 37.496 58.623 37.496C60.5779 37.496 62.1627 35.9112 62.1627 33.9563C62.1627 32.0014 60.5779 30.4167 58.623 30.4167ZM71.3524 30.4167C69.3975 30.4167 67.8128 32.0014 67.8128 33.9563C67.8128 35.9112 69.3975 37.496 71.3524 37.496C73.3073 37.496 74.8921 35.9112 74.8921 33.9563C74.8921 32.0014 73.3073 30.4167 71.3524 30.4167Z" fill="white"/>
<path d="M65 44.2105C66.9766 44.2105 68.5789 42.6082 68.5789 40.6316H61.421C61.421 42.6082 63.0234 44.2105 65 44.2105Z" fill="#43A9F1"/>
<defs>
<linearGradient id="paint0_linear" x1="65" y1="0" x2="65" y2="92" gradientUnits="userSpaceOnUse">
<stop stop-color="#4DD9E8"/>
<stop offset="1" stop-color="#3568FE"/>
</linearGradient>
</defs>
</svg>
