<svg width="162" height="168" viewBox="0 0 162 168" fill="none" xmlns="http://www.w3.org/2000/svg">
<path d="M22 161H24.34V142.22H24.52L30.61 161H33.97L40.06 142.22H40.24V161H42.58V140H38.41L32.38 158.78H32.2L26.17 140H22V161ZM52.8923 161.39C56.2823 161.39 57.7223 159.17 58.1123 158.54H58.2923V158.69C58.3223 160.04 59.2823 161 60.5723 161H62.1023V158.9H61.3823C60.9023 158.9 60.6023 158.66 60.6023 158.18V145.4H58.2023V147.92H58.0223C57.5723 147.11 55.9523 145.01 52.7123 145.01C48.2723 145.01 45.2723 148.43 45.2723 153.23C45.2723 158 48.4223 161.39 52.8923 161.39ZM53.0123 159.26C50.0123 159.26 47.7023 156.89 47.7023 153.26C47.7023 149.69 49.9223 147.17 52.9823 147.17C55.8923 147.17 58.2923 149.39 58.2923 153.26C58.2923 156.53 56.2823 159.26 53.0123 159.26ZM64.7992 161H67.1692V151.7C67.1692 149.12 69.0892 147.23 71.5492 147.23C73.7392 147.23 75.5692 148.85 75.5692 151.34V161H77.9392V151.19C77.9392 147.74 75.7492 145.01 72.1192 145.01C69.6892 145.01 68.0092 146.27 67.3492 147.68H67.1692V145.4H64.7992V161ZM87.6712 161.39C91.0612 161.39 92.5012 159.17 92.8912 158.54H93.0712V158.69C93.1012 160.04 94.0612 161 95.3512 161H96.8812V158.9H96.1612C95.6812 158.9 95.3812 158.66 95.3812 158.18V145.4H92.9812V147.92H92.8012C92.3512 147.11 90.7312 145.01 87.4912 145.01C83.0512 145.01 80.0512 148.43 80.0512 153.23C80.0512 158 83.2012 161.39 87.6712 161.39ZM87.7912 159.26C84.7912 159.26 82.4812 156.89 82.4812 153.26C82.4812 149.69 84.7012 147.17 87.7612 147.17C90.6712 147.17 93.0712 149.39 93.0712 153.26C93.0712 156.53 91.0612 159.26 87.7912 159.26ZM102.218 167.9H108.968C111.818 167.9 113.708 166.61 113.708 163.46V145.4H111.428V147.86H111.248C110.858 147.29 109.388 145.01 105.998 145.01C101.558 145.01 98.3781 148.4 98.3781 153.17C98.3781 158 101.408 161.39 105.818 161.39C109.088 161.39 110.648 159.44 111.158 158.48H111.338V163.22C111.338 164.9 110.648 165.71 108.998 165.71H102.218V167.9ZM106.088 159.23C103.028 159.23 100.808 156.74 100.808 153.17C100.808 149.51 103.148 147.17 106.148 147.17C109.388 147.17 111.428 149.9 111.428 153.17C111.428 157.01 109.028 159.23 106.088 159.23ZM123.507 161.39C127.107 161.39 129.687 159.32 130.557 156.41L128.247 155.87C127.737 158.03 125.727 159.29 123.537 159.29C120.297 159.29 118.257 157.34 118.227 153.86H130.767V152.99C130.767 148.31 128.067 145.01 123.357 145.01C119.217 145.01 115.797 148.28 115.797 153.26C115.797 158.06 118.767 161.39 123.507 161.39ZM118.287 151.94C118.467 149 120.807 147.14 123.357 147.14C125.937 147.14 128.187 148.7 128.337 151.94H118.287ZM133.156 161H135.526V152.66C135.526 149.69 136.696 147.38 139.546 147.38H140.956V145.01H139.936C137.656 145.01 136.126 146.69 135.676 148.01H135.496V145.4H133.156V161Z" fill="black"/>
<path d="M14.07 134.49C16.94 134.49 19.46 133.685 21.595 132.11C23.73 130.535 25.235 128.33 26.04 125.46H20.475C19.915 126.755 19.075 127.735 17.92 128.4C16.765 129.065 15.47 129.415 14.07 129.415C11.97 129.415 10.22 128.68 8.855 127.245C7.49 125.81 6.79 123.955 6.79 121.75C6.79 119.545 7.49 117.725 8.855 116.255C10.22 114.82 11.97 114.085 14.07 114.085C15.505 114.085 16.8 114.435 17.955 115.135C19.11 115.835 19.95 116.815 20.475 118.075H26.04C25.235 115.205 23.73 112.965 21.595 111.39C19.46 109.815 16.94 109.045 14.07 109.045C10.36 109.045 7.315 110.27 4.97 112.685C2.59 115.1 1.4 118.145 1.4 121.75C1.4 125.39 2.59 128.435 4.97 130.85C7.315 133.265 10.36 134.49 14.07 134.49ZM36.2354 134.455C39.0704 134.455 41.4154 133.545 43.2704 131.69C45.1254 129.835 46.0354 127.56 46.0354 124.795C46.0354 122.03 45.1254 119.72 43.2704 117.865C41.4154 116.01 39.0704 115.1 36.2354 115.1C33.4004 115.1 31.0554 116.01 29.2004 117.865C27.3454 119.72 26.4004 122.03 26.4004 124.795C26.4004 127.56 27.3104 129.835 29.1654 131.69C31.0204 133.545 33.3654 134.455 36.2354 134.455ZM32.9104 128.225C32.0354 127.315 31.5804 126.16 31.5804 124.795C31.5804 123.395 32.0354 122.24 32.9104 121.33C33.7854 120.42 34.8704 119.965 36.2354 119.965C37.6004 119.965 38.6854 120.42 39.5604 121.33C40.4354 122.24 40.8554 123.395 40.8554 124.795C40.8554 126.16 40.4354 127.315 39.5604 128.225C38.6854 129.135 37.6004 129.59 36.2354 129.59C34.8704 129.59 33.7854 129.135 32.9104 128.225ZM58.8055 134C60.9755 134 62.8305 133.3 64.3355 131.935C65.8405 130.57 66.6105 128.75 66.6105 126.475C66.6105 125.18 66.2955 124.095 65.6655 123.15C65.0005 122.24 64.1955 121.54 63.2155 121.085V120.875C63.9855 120.42 64.6155 119.79 65.1055 118.985C65.5955 118.18 65.8405 117.34 65.8405 116.395C65.8405 114.365 65.1755 112.72 63.8105 111.425C62.4455 110.13 60.5205 109.5 58.0705 109.5H47.0805V113.98H49.1805V129.52H47.0805V134H58.8055ZM54.2205 114.225H58.0005C58.7355 114.225 59.3655 114.47 59.8905 114.925C60.3805 115.415 60.6255 116.01 60.6255 116.71C60.6255 117.445 60.3805 118.04 59.8905 118.53C59.4005 119.02 58.7705 119.265 58.0005 119.265H54.2205V114.225ZM54.2205 123.395H58.0705C58.9805 123.395 59.7505 123.675 60.3805 124.2C60.9755 124.725 61.2905 125.46 61.2905 126.335C61.2905 127.21 60.9755 127.945 60.3805 128.47C59.7855 129.03 59.0155 129.31 58.1055 129.31H54.2205V123.395ZM72.7207 134V125.355C72.7207 123.675 73.1407 122.38 73.9807 121.505C74.7857 120.63 75.9057 120.175 77.3407 120.175H79.2307V115.1H77.7607C76.7457 115.1 75.8357 115.38 74.9607 115.94C74.0857 116.5 73.4557 117.2 73.0357 118.005H72.6857V115.555H67.6457V134H72.7207ZM89.2371 134.455C92.0721 134.455 94.4171 133.545 96.2721 131.69C98.1271 129.835 99.0371 127.56 99.0371 124.795C99.0371 122.03 98.1271 119.72 96.2721 117.865C94.4171 116.01 92.0721 115.1 89.2371 115.1C86.4021 115.1 84.0571 116.01 82.2021 117.865C80.3471 119.72 79.4021 122.03 79.4021 124.795C79.4021 127.56 80.3121 129.835 82.1671 131.69C84.0221 133.545 86.3671 134.455 89.2371 134.455ZM85.9121 128.225C85.0371 127.315 84.5821 126.16 84.5821 124.795C84.5821 123.395 85.0371 122.24 85.9121 121.33C86.7871 120.42 87.8721 119.965 89.2371 119.965C90.6021 119.965 91.6871 120.42 92.5621 121.33C93.4371 122.24 93.8571 123.395 93.8571 124.795C93.8571 126.16 93.4371 127.315 92.5621 128.225C91.6871 129.135 90.6021 129.59 89.2371 129.59C87.8721 129.59 86.7871 129.135 85.9121 128.225ZM109.812 134L112.542 120.455H112.752L115.482 134H122.587L126.787 115.555H121.362L119.017 129.135H118.632L115.867 115.555H109.427L106.662 129.135H106.277L103.932 115.555H98.5072L102.672 134H109.812ZM134.002 134.455C136.382 134.455 138.272 133.86 139.637 132.705C141.002 131.55 141.702 130.045 141.702 128.19C141.702 127.105 141.457 126.16 141.002 125.39C140.512 124.62 139.917 124.06 139.182 123.71C138.447 123.395 137.677 123.08 136.837 122.835C135.962 122.59 135.192 122.38 134.457 122.275C133.722 122.17 133.127 121.96 132.672 121.68C132.182 121.435 131.937 121.085 131.937 120.63C131.937 120.245 132.147 119.895 132.532 119.65C132.917 119.405 133.407 119.3 134.002 119.3C134.702 119.3 135.297 119.475 135.822 119.825C136.347 120.21 136.697 120.7 136.872 121.365L141.282 120.175C140.897 118.53 140.057 117.27 138.762 116.395C137.467 115.52 135.857 115.1 133.932 115.1C131.902 115.1 130.222 115.66 128.892 116.745C127.562 117.865 126.897 119.23 126.897 120.84C126.897 121.995 127.142 122.94 127.632 123.745C128.087 124.55 128.682 125.11 129.417 125.46C130.117 125.81 130.887 126.125 131.727 126.37C132.567 126.615 133.337 126.825 134.072 126.93C134.772 127.035 135.367 127.245 135.857 127.525C136.312 127.84 136.557 128.225 136.557 128.68C136.557 129.66 135.787 130.15 134.247 130.15C133.302 130.15 132.532 129.94 131.867 129.52C131.202 129.1 130.852 128.47 130.747 127.665L126.267 128.47C126.512 130.43 127.352 131.9 128.787 132.915C130.187 133.93 131.937 134.455 134.002 134.455ZM151.598 134.455C153.558 134.455 155.308 134 156.848 133.055C158.353 132.145 159.438 130.71 160.068 128.785L155.518 127.735C154.853 129.205 153.523 129.94 151.528 129.94C150.303 129.94 149.288 129.59 148.518 128.89C147.713 128.19 147.328 127.245 147.293 126.055H160.663V124.76C160.663 121.96 159.823 119.65 158.143 117.83C156.463 116.01 154.223 115.1 151.458 115.1C148.833 115.1 146.593 116.01 144.773 117.83C142.953 119.65 142.043 121.96 142.043 124.795C142.043 127.595 142.953 129.905 144.738 131.725C146.523 133.545 148.798 134.455 151.598 134.455ZM147.328 122.66C147.468 121.785 147.923 120.98 148.658 120.315C149.393 119.65 150.338 119.335 151.458 119.335C152.543 119.335 153.453 119.65 154.223 120.28C154.958 120.945 155.413 121.715 155.518 122.66H147.328Z" fill="#8039FF"/>
<circle cx="79" cy="46" r="46" fill="url(#paint0_linear)"/>
<path d="M62.8116 53.6495H82.6186C87.2124 53.6495 90.9372 57.3744 90.9372 61.9682C90.9372 66.563 87.2124 70.2869 82.6186 70.2869H62.8116C58.2178 70.2869 54.4929 66.563 54.4929 61.9682C54.4929 57.3744 58.2178 53.6495 62.8116 53.6495Z" fill="white"/>
<path d="M57.9506 47.9541C58.7396 47.6934 58.7641 46.6018 57.9876 46.3067L51.2088 43.7292C50.541 43.4755 49.8586 44.0646 50.0256 44.7507L51.6292 51.3391C51.8121 52.0911 52.821 52.2573 53.242 51.6051L54.3355 49.9104L56.2967 51.9134C56.6943 52.3194 57.35 52.3305 57.7618 51.9387C58.1733 51.5467 58.1848 50.8997 57.7872 50.494L55.9486 48.6159L57.9506 47.9541Z" fill="white"/>
<path d="M78.9737 27.9806H98.7807C103.374 27.9806 107.099 31.7055 107.099 36.2993C107.099 40.894 103.374 44.6179 98.7807 44.6179H78.9737C74.3799 44.6179 70.655 40.894 70.655 36.2993C70.655 31.7055 74.3799 27.9806 78.9737 27.9806Z" fill="white"/>
<path d="M74.1125 22.285C74.9014 22.0243 74.926 20.9328 74.1495 20.6376L67.3707 18.0601C66.7028 17.8064 66.0205 18.3955 66.1874 19.0816L67.791 25.67C67.974 26.4221 68.9829 26.5882 69.4038 25.936L70.4974 24.2413L72.4586 26.2443C72.8561 26.6504 73.5119 26.6615 73.9236 26.2697C74.3351 25.8776 74.3467 25.2307 73.9491 24.8249L72.1104 22.9468L74.1125 22.285Z" fill="white"/>
<defs>
<linearGradient id="paint0_linear" x1="79" y1="0" x2="79" y2="92" gradientUnits="userSpaceOnUse">
<stop stop-color="#BD4EFF"/>
<stop offset="1" stop-color="#7936FF"/>
</linearGradient>
</defs>
</svg>
