<svg width="92" height="92" viewBox="0 0 92 92" fill="none" xmlns="http://www.w3.org/2000/svg">
<circle cx="46" cy="46" r="46" fill="url(#paint0_linear)"/>
<path d="M29.8116 53.6495H49.6186C54.2124 53.6495 57.9372 57.3744 57.9372 61.9682C57.9372 66.563 54.2124 70.2869 49.6186 70.2869H29.8116C25.2178 70.2869 21.4929 66.563 21.4929 61.9682C21.4929 57.3744 25.2178 53.6495 29.8116 53.6495Z" fill="white"/>
<path d="M24.9506 47.9541C25.7396 47.6934 25.7641 46.6018 24.9876 46.3067L18.2088 43.7292C17.541 43.4755 16.8586 44.0646 17.0256 44.7507L18.6292 51.3391C18.8121 52.0911 19.821 52.2573 20.242 51.6051L21.3355 49.9104L23.2967 51.9134C23.6943 52.3194 24.35 52.3305 24.7618 51.9387C25.1733 51.5467 25.1848 50.8997 24.7872 50.494L22.9486 48.6159L24.9506 47.9541Z" fill="white"/>
<path d="M45.9737 27.9806H65.7807C70.3745 27.9806 74.0993 31.7055 74.0993 36.2993C74.0993 40.894 70.3745 44.6179 65.7807 44.6179H45.9737C41.3799 44.6179 37.655 40.894 37.655 36.2993C37.655 31.7055 41.3799 27.9806 45.9737 27.9806Z" fill="white"/>
<path d="M41.1125 22.285C41.9014 22.0243 41.926 20.9328 41.1495 20.6376L34.3707 18.0601C33.7028 17.8064 33.0205 18.3955 33.1874 19.0816L34.791 25.67C34.974 26.4221 35.9829 26.5882 36.4038 25.936L37.4974 24.2413L39.4586 26.2443C39.8561 26.6504 40.5119 26.6615 40.9236 26.2697C41.3351 25.8776 41.3467 25.2307 40.9491 24.8249L39.1104 22.9468L41.1125 22.285Z" fill="white"/>
<defs>
<linearGradient id="paint0_linear" x1="46" y1="0" x2="46" y2="92" gradientUnits="userSpaceOnUse">
<stop stop-color="#BD4EFF"/>
<stop offset="1" stop-color="#7936FF"/>
</linearGradient>
</defs>
</svg>
