
              <svg width="25" height="24" viewBox="0 0 150 150" fill="none" xmlns="http://www.w3.org/2000/svg">
              <path d="M75.0387 149.923C116.439 149.923 150 116.361 150 74.9615C150 33.5615 116.439 0.000183105 75.0387 0.000183105C33.6387 0.000183105 0.0773926 33.5615 0.0773926 74.9615C0.0773926 116.361 33.6387 149.923 75.0387 149.923Z" fill="#1A73E8"/>
              <path d="M102.318 107.341H51.2364C43.9721 107.341 37.6353 101.855 37.6353 94.5904V94.5129V98.7633C37.6353 106.028 43.9721 112.365 51.2361 112.365H102.318C109.66 112.365 115.92 105.951 115.92 98.7633V94.5132C115.92 101.777 109.583 107.341 102.318 107.341ZM37.5579 70.711V64.9148L28.0526 49.2272C27.5116 48.3772 27.2796 47.6043 27.3571 46.8314V53.4773C27.3571 54.0956 27.5887 54.714 27.9751 55.4095L37.5579 70.711Z" fill="#185ABC"/>
              <path d="M102.318 44.2812H30.7572C27.8978 44.2812 26.2751 46.7542 28.2071 49.3816L37.5579 65.6103V94.5903C37.5579 102.009 42.9676 108.191 50.309 108.191H102.241C109.583 108.191 115.842 101.932 115.842 94.5903V57.9598C115.92 50.5407 109.66 44.2812 102.318 44.2812Z" fill="white"/>
              <path d="M101.468 64.7603H52.0862C49.9223 64.7603 47.8359 63.4467 47.8359 61.3599C47.8359 59.2734 49.9226 57.9598 52.0862 57.9598H101.468C103.632 57.9598 105.719 59.2734 105.719 61.3599C105.719 63.4467 103.632 64.7603 101.468 64.7603H101.468ZM101.468 78.3617H52.0862C49.9223 78.3617 47.8359 77.0478 47.8359 74.9614C47.8359 72.8746 49.9226 71.561 52.0862 71.561H101.468C103.632 71.561 105.719 72.8749 105.719 74.9614C105.719 77.0478 103.632 78.3617 101.468 78.3617H101.468ZM87.7899 92.04H52.0091C49.8455 92.04 47.759 90.7264 47.759 88.6399C47.759 86.5534 49.8455 85.2396 52.0091 85.2396H87.7899C89.9535 85.2396 92.04 86.5531 92.04 88.6399C92.04 90.7267 89.9535 92.04 87.7899 92.04Z" fill="#8AB4F8"/>
              <path d="M150 74.5749C149.846 107.419 128.439 135.317 98.9181 145.209C91.4219 147.759 83.3847 149.073 75.0387 149.073C33.7711 149.073 0.309078 115.765 0.0771484 74.5749V75.0385C0.0771484 116.461 33.6166 150 75.0387 150C83.3847 150 91.4219 148.609 98.9181 146.136C128.593 136.167 150 108.114 150 75.0385V74.5749Z" fill="#185ABC"/>
              <path d="M98.8406 3.86438C91.3447 1.31462 83.3075 0.0010376 74.9613 0.0010376C33.5395 0.000743272 0 33.5399 0 74.962V75.4256C0.231635 34.2354 33.6937 0.927874 74.9613 0.927874C83.3075 0.927874 91.3447 2.31886 98.8406 4.7921C128.439 14.6838 149.768 42.5816 149.923 75.4256V74.962C150 41.8861 128.593 13.8338 98.8406 3.86438Z" fill="#8AB4F8"/>
              </svg>
              