<svg width="24" height="24" viewBox="0 0 24 24" fill="none" xmlns="http://www.w3.org/2000/svg">
<g clip-path="url(#clip0_895_14678)">
<path d="M6.5433 15.5458H5.77637V14.1219C5.77683 13.7218 5.93413 13.3382 6.21376 13.0553C6.49338 12.7724 6.87249 12.6133 7.26791 12.6128H10.7637C10.9558 12.6126 11.14 12.5353 11.2758 12.3978C11.4117 12.2603 11.4881 12.0739 11.4883 11.8795V10.9794H12.2552V11.8795C12.2547 12.2797 12.0975 12.6633 11.8178 12.9463C11.5382 13.2293 11.1591 13.3885 10.7637 13.389H7.26791C7.07584 13.3892 6.89169 13.4665 6.75585 13.6039C6.62001 13.7413 6.54357 13.9276 6.5433 14.122V15.5458Z" fill="#88CFFD"/>
<path d="M17.9667 15.5457H17.1998V14.1219C17.1995 13.9276 17.1231 13.7413 16.9874 13.6039C16.8516 13.4665 16.6675 13.3892 16.4755 13.3889H12.9794C12.584 13.3884 12.2049 13.2292 11.9253 12.9462C11.6458 12.6632 11.4886 12.2796 11.4882 11.8794V10.9794H12.2551V11.8794C12.2553 12.0738 12.3317 12.2602 12.4674 12.3976C12.6032 12.5351 12.7873 12.6125 12.9794 12.6128H16.4755C16.8709 12.6132 17.2499 12.7724 17.5295 13.0553C17.8091 13.3382 17.9663 13.7218 17.9667 14.1219L17.9667 15.5457Z" fill="#88CFFD"/>
<path d="M12.2552 10.4561H11.4882V15.5458H12.2552V10.4561Z" fill="#88CFFD"/>
<path d="M6.5433 15.404H5.77637V20.4937H6.5433V15.404Z" fill="#88CFFD"/>
<path d="M17.9663 15.404H17.1993V20.4937H17.9663V15.404Z" fill="#88CFFD"/>
<path d="M12.2552 3.26642H11.4882V10.0157H12.2552V3.26642Z" fill="#88CFFD"/>
<path d="M4.12441 10.8293C3.68098 10.8279 3.25619 10.6487 2.94323 10.3308C2.63026 10.0129 2.45467 9.58244 2.45499 9.13374L2.44825 8.5539C2.44681 7.5245 2.7462 6.51765 3.30877 5.65998C3.87134 4.80231 4.67197 4.1321 5.60996 3.73365C7.59175 2.88823 9.72071 2.4527 11.8714 2.4527C14.0221 2.4527 16.1511 2.88823 18.1328 3.73365C19.0701 4.13168 19.8702 4.80111 20.4327 5.65785C20.9952 6.51459 21.2949 7.52042 21.2942 8.54898L21.2893 9.1364C21.2868 9.58389 21.1099 10.0123 20.7969 10.3285C20.4839 10.6446 20.0602 10.823 19.618 10.8248H19.6161C19.4854 10.8257 19.355 10.8117 19.2274 10.7831L16.3309 10.0429C15.9386 9.94233 15.5909 9.71208 15.3427 9.3887C15.0945 9.06533 14.9602 8.66735 14.961 8.25792L14.9625 7.41734C14.9616 7.39379 14.9537 7.37106 14.9399 7.35208C14.9261 7.33311 14.9069 7.31874 14.885 7.31084C12.9473 6.54175 10.7946 6.53864 8.8548 7.30213C8.83255 7.31127 8.81352 7.32695 8.80017 7.34715C8.78682 7.36735 8.77976 7.39114 8.77991 7.41544L8.78478 8.2526C8.78598 8.66224 8.65187 9.06054 8.40375 9.38423C8.15563 9.70791 7.80773 9.93841 7.41532 10.0391L4.52547 10.7808C4.39438 10.8128 4.26002 10.8291 4.12516 10.8293L4.12441 10.8293Z" fill="#0098FF"/>
<g filter="url(#filter0_d_895_14678)">
<path d="M11.8714 2.84074C13.971 2.84071 16.0494 3.266 17.9841 4.09156C18.8511 4.46097 19.5912 5.08091 20.1119 5.87381C20.6325 6.66672 20.9104 7.59737 20.911 8.54933L20.9059 9.13276C20.9052 9.47835 20.7692 9.80957 20.5277 10.054C20.2863 10.2984 19.959 10.436 19.6175 10.4368L19.6008 10.437C19.5034 10.4369 19.4064 10.4259 19.3114 10.4042L16.425 9.66677C16.1158 9.587 15.8417 9.40522 15.646 9.15017C15.4504 8.89512 15.3443 8.58135 15.3446 8.25846L15.3462 7.41807C15.3451 7.31547 15.3134 7.21562 15.2551 7.13164C15.1969 7.04766 15.1149 6.98349 15.0199 6.94757C12.994 6.14447 10.7438 6.14203 8.71622 6.94075C8.62143 6.97817 8.5401 7.04385 8.48303 7.12909C8.42596 7.21433 8.39582 7.31511 8.39661 7.41807L8.40172 8.25486C8.40201 8.57777 8.29592 8.89157 8.10024 9.14665C7.90456 9.40173 7.63044 9.58354 7.32122 9.66333L4.43144 10.4042C4.33203 10.4287 4.23009 10.441 4.12778 10.441H4.12546C3.95618 10.4407 3.78861 10.4067 3.63233 10.3409C3.47604 10.2751 3.3341 10.1788 3.21461 10.0574C3.09511 9.93611 3.0004 9.79215 2.93589 9.63379C2.87137 9.47542 2.83832 9.30575 2.83861 9.13446L2.83187 8.54932C2.83242 7.59736 3.11039 6.66671 3.631 5.87381C4.15161 5.0809 4.89174 4.46096 5.75878 4.09155C7.69342 3.266 9.7718 2.84071 11.8714 2.84074ZM11.8714 2.06458C9.66922 2.06218 7.48907 2.50832 5.46084 3.37643C4.45399 3.80386 3.59446 4.5229 2.99026 5.44317C2.38605 6.36344 2.06413 7.44389 2.06494 8.54875L2.07173 9.14355C2.07345 9.69355 2.29036 10.2205 2.675 10.6091C3.05964 10.9976 3.58071 11.2163 4.12424 11.2171C4.28875 11.2174 4.45269 11.1977 4.61256 11.1584L7.50956 10.4158C7.98444 10.2937 8.40549 10.0148 8.70602 9.62328C9.00654 9.23172 9.16935 8.74987 9.16865 8.25409L9.16467 7.59921C10.9141 6.95664 12.8316 6.95986 14.579 7.60831L14.5777 8.25693C14.5767 8.75261 14.7393 9.23443 15.0397 9.62604C15.34 10.0176 15.7609 10.2966 16.2356 10.4188L19.1237 11.1567L19.1331 11.1592L19.1426 11.1614C19.293 11.1957 19.4467 11.2131 19.6008 11.2132H19.6058L19.6275 11.213C20.1702 11.2088 20.6894 10.9882 21.0723 10.599C21.4552 10.2099 21.6711 9.68362 21.6729 9.13445L21.6779 8.55612C21.6798 7.45002 21.3584 6.36805 20.7541 5.44635C20.1498 4.52465 19.2895 3.8044 18.2817 3.37622C16.2535 2.50823 14.0735 2.06216 11.8714 2.06458Z" fill="white"/>
</g>
<path d="M10.6891 9.07764H13.054C13.1897 9.07764 13.3197 9.13215 13.4156 9.2292C13.5115 9.32624 13.5654 9.45786 13.5654 9.5951V11.3171C13.5654 11.4544 13.5115 11.586 13.4156 11.683C13.3197 11.7801 13.1897 11.8346 13.054 11.8346H10.6891C10.5535 11.8346 10.4234 11.7801 10.3275 11.683C10.2316 11.586 10.1777 11.4544 10.1777 11.3171V9.5951C10.1777 9.45786 10.2316 9.32624 10.3275 9.2292C10.4234 9.13216 10.5535 9.07764 10.6891 9.07764Z" fill="#AFDEFD"/>
<path d="M4.97727 14.1671H7.34177C7.40893 14.1671 7.47543 14.1805 7.53747 14.2065C7.59951 14.2325 7.65589 14.2706 7.70337 14.3187C7.75086 14.3667 7.78853 14.4238 7.81423 14.4866C7.83993 14.5493 7.85315 14.6166 7.85315 14.6846V16.4066C7.85315 16.5438 7.79927 16.6755 7.70337 16.7725C7.60747 16.8696 7.4774 16.9241 7.34177 16.9241H4.97727C4.84164 16.9241 4.71157 16.8696 4.61566 16.7725C4.51976 16.6755 4.46588 16.5438 4.46588 16.4066V14.6846C4.46588 14.5473 4.51976 14.4157 4.61566 14.3187C4.71157 14.2216 4.84164 14.1671 4.97727 14.1671Z" fill="#AFDEFD"/>
<path d="M4.97727 18.9205H7.34177C7.40893 18.9205 7.47543 18.9339 7.53747 18.9599C7.59951 18.9859 7.65589 19.024 7.70337 19.0721C7.75086 19.1201 7.78853 19.1772 7.81423 19.24C7.83993 19.3028 7.85315 19.37 7.85315 19.438V21.16C7.85315 21.2973 7.79927 21.4289 7.70337 21.5259C7.60747 21.623 7.4774 21.6775 7.34177 21.6775H4.97727C4.84164 21.6775 4.71157 21.623 4.61566 21.5259C4.51976 21.4289 4.46588 21.2973 4.46588 21.16V19.438C4.46588 19.3008 4.51976 19.1691 4.61566 19.0721C4.71157 18.9751 4.84164 18.9205 4.97727 18.9205Z" fill="#AFDEFD"/>
<path d="M13.054 14.1671H10.6891C10.4067 14.1671 10.1777 14.3988 10.1777 14.6846V16.4066C10.1777 16.6924 10.4067 16.9241 10.6891 16.9241H13.054C13.3365 16.9241 13.5654 16.6924 13.5654 16.4066V14.6846C13.5654 14.3988 13.3365 14.1671 13.054 14.1671Z" fill="#AFDEFD"/>
<path d="M16.5051 14.1671H18.8696C19.0052 14.1671 19.1353 14.2216 19.2312 14.3187C19.3271 14.4157 19.381 14.5473 19.381 14.6846V16.4066C19.381 16.5438 19.3271 16.6755 19.2312 16.7725C19.1353 16.8696 19.0052 16.9241 18.8696 16.9241H16.5051C16.3695 16.9241 16.2394 16.8696 16.1435 16.7725C16.0476 16.6755 15.9937 16.5438 15.9937 16.4066V14.6846C15.9937 14.6166 16.0069 14.5493 16.0326 14.4866C16.0583 14.4238 16.096 14.3667 16.1435 14.3187C16.191 14.2706 16.2474 14.2325 16.3094 14.2065C16.3714 14.1805 16.4379 14.1671 16.5051 14.1671Z" fill="#AFDEFD"/>
<path d="M16.5051 18.9205H18.8696C19.0052 18.9205 19.1353 18.9751 19.2312 19.0721C19.3271 19.1691 19.381 19.3008 19.381 19.438V21.16C19.381 21.2973 19.3271 21.4289 19.2312 21.5259C19.1353 21.623 19.0052 21.6775 18.8696 21.6775H16.5051C16.3695 21.6775 16.2394 21.623 16.1435 21.5259C16.0476 21.4289 15.9937 21.2973 15.9937 21.16V19.438C15.9937 19.37 16.0069 19.3028 16.0326 19.24C16.0583 19.1772 16.096 19.1201 16.1435 19.0721C16.191 19.024 16.2474 18.9859 16.3094 18.9599C16.3714 18.9339 16.4379 18.9205 16.5051 18.9205Z" fill="#AFDEFD"/>
</g>
<defs>
<filter id="filter0_d_895_14678" x="1.03268" y="1.29038" width="21.6775" height="11.2171" filterUnits="userSpaceOnUse" color-interpolation-filters="sRGB">
<feFlood flood-opacity="0" result="BackgroundImageFix"/>
<feColorMatrix in="SourceAlpha" type="matrix" values="0 0 0 0 0 0 0 0 0 0 0 0 0 0 0 0 0 0 127 0" result="hardAlpha"/>
<feOffset dy="0.258065"/>
<feGaussianBlur stdDeviation="0.516129"/>
<feComposite in2="hardAlpha" operator="out"/>
<feColorMatrix type="matrix" values="0 0 0 0 0 0 0 0 0 0 0 0 0 0 0 0 0 0 0.25 0"/>
<feBlend mode="normal" in2="BackgroundImageFix" result="effect1_dropShadow_895_14678"/>
<feBlend mode="normal" in="SourceGraphic" in2="effect1_dropShadow_895_14678" result="shape"/>
</filter>
<clipPath id="clip0_895_14678">
<rect width="19.6129" height="19.6129" fill="white" transform="translate(2.06458 2.06451)"/>
</clipPath>
</defs>
</svg>

