<svg width="92" height="92" viewBox="0 0 92 92" fill="none" xmlns="http://www.w3.org/2000/svg">
<circle cx="46" cy="46" r="46" fill="url(#paint0_linear)"/>
<path d="M71.8571 46.25C71.8674 49.705 70.9449 53.1132 69.1647 56.197C67.0539 59.8925 63.809 63.0008 59.7934 65.1737C55.7777 67.3466 51.15 68.4984 46.4286 68.5C42.6335 68.5086 38.8878 67.7633 35.4731 66.3223C35.203 66.2083 34.9065 66.1699 34.6173 66.2183L23.1874 68.1335C22.1402 68.3089 21.2472 67.3707 21.4742 66.3334L23.5683 56.7645C23.6482 56.3994 23.5869 56.0187 23.4091 55.6899C21.8145 52.7415 20.9904 49.5166 21.0001 46.25C21.0019 42.1187 22.3182 38.0695 24.8016 34.5558C27.2849 31.0422 30.8372 28.2029 35.0606 26.356C38.585 24.7983 42.4801 23.9911 46.4286 24.0001H47.9244C54.1599 24.3011 60.0494 26.604 64.4653 30.4679C68.8812 34.3318 71.5131 39.4851 71.8571 44.9412V46.25Z" fill="white"/>
<defs>
<linearGradient id="paint0_linear" x1="46" y1="0" x2="46" y2="92" gradientUnits="userSpaceOnUse">
<stop stop-color="#FFA701"/>
<stop offset="1" stop-color="#FF7901"/>
</linearGradient>
</defs>
</svg>
