<svg width="143" height="168" viewBox="0 0 143 168" fill="none" xmlns="http://www.w3.org/2000/svg">
<circle cx="68" cy="46" r="46" fill="url(#paint0_linear)"/>
<path d="M93.8571 46.25C93.8674 49.705 92.9449 53.1132 91.1647 56.197C89.0539 59.8925 85.809 63.0008 81.7934 65.1737C77.7777 67.3466 73.15 68.4984 68.4286 68.5C64.6335 68.5086 60.8878 67.7633 57.4731 66.3223C57.203 66.2083 56.9065 66.1699 56.6173 66.2183L45.1874 68.1335C44.1402 68.3089 43.2472 67.3707 43.4742 66.3334L45.5683 56.7645C45.6482 56.3994 45.5869 56.0187 45.4091 55.6899C43.8145 52.7415 42.9904 49.5166 43.0001 46.25C43.0019 42.1187 44.3182 38.0695 46.8016 34.5558C49.2849 31.0422 52.8372 28.2029 57.0606 26.356C60.585 24.7983 64.4801 23.9911 68.4286 24.0001H69.9244C76.1599 24.3011 82.0494 26.604 86.4653 30.4679C90.8812 34.3318 93.5131 39.4851 93.8571 44.9412V46.25Z" fill="white"/>
<path d="M12 161H14.34V142.22H14.52L20.61 161H23.97L30.06 142.22H30.24V161H32.58V140H28.41L22.38 158.78H22.2L16.17 140H12V161ZM42.8923 161.39C46.2823 161.39 47.7223 159.17 48.1123 158.54H48.2923V158.69C48.3223 160.04 49.2823 161 50.5723 161H52.1023V158.9H51.3823C50.9023 158.9 50.6023 158.66 50.6023 158.18V145.4H48.2023V147.92H48.0223C47.5723 147.11 45.9523 145.01 42.7123 145.01C38.2723 145.01 35.2723 148.43 35.2723 153.23C35.2723 158 38.4223 161.39 42.8923 161.39ZM43.0123 159.26C40.0123 159.26 37.7023 156.89 37.7023 153.26C37.7023 149.69 39.9223 147.17 42.9823 147.17C45.8923 147.17 48.2923 149.39 48.2923 153.26C48.2923 156.53 46.2823 159.26 43.0123 159.26ZM54.7992 161H57.1692V151.7C57.1692 149.12 59.0892 147.23 61.5492 147.23C63.7392 147.23 65.5692 148.85 65.5692 151.34V161H67.9392V151.19C67.9392 147.74 65.7492 145.01 62.1192 145.01C59.6892 145.01 58.0092 146.27 57.3492 147.68H57.1692V145.4H54.7992V161ZM77.6712 161.39C81.0612 161.39 82.5012 159.17 82.8912 158.54H83.0712V158.69C83.1012 160.04 84.0612 161 85.3512 161H86.8812V158.9H86.1612C85.6812 158.9 85.3812 158.66 85.3812 158.18V145.4H82.9812V147.92H82.8012C82.3512 147.11 80.7312 145.01 77.4912 145.01C73.0512 145.01 70.0512 148.43 70.0512 153.23C70.0512 158 73.2012 161.39 77.6712 161.39ZM77.7912 159.26C74.7912 159.26 72.4812 156.89 72.4812 153.26C72.4812 149.69 74.7012 147.17 77.7612 147.17C80.6712 147.17 83.0712 149.39 83.0712 153.26C83.0712 156.53 81.0612 159.26 77.7912 159.26ZM92.2181 167.9H98.9681C101.818 167.9 103.708 166.61 103.708 163.46V145.4H101.428V147.86H101.248C100.858 147.29 99.3881 145.01 95.9981 145.01C91.5581 145.01 88.3781 148.4 88.3781 153.17C88.3781 158 91.4081 161.39 95.8181 161.39C99.0881 161.39 100.648 159.44 101.158 158.48H101.338V163.22C101.338 164.9 100.648 165.71 98.9981 165.71H92.2181V167.9ZM96.0881 159.23C93.0281 159.23 90.8081 156.74 90.8081 153.17C90.8081 149.51 93.1481 147.17 96.1481 147.17C99.3881 147.17 101.428 149.9 101.428 153.17C101.428 157.01 99.0281 159.23 96.0881 159.23ZM113.507 161.39C117.107 161.39 119.687 159.32 120.557 156.41L118.247 155.87C117.737 158.03 115.727 159.29 113.537 159.29C110.297 159.29 108.257 157.34 108.227 153.86H120.767V152.99C120.767 148.31 118.067 145.01 113.357 145.01C109.217 145.01 105.797 148.28 105.797 153.26C105.797 158.06 108.767 161.39 113.507 161.39ZM108.287 151.94C108.467 149 110.807 147.14 113.357 147.14C115.937 147.14 118.187 148.7 118.337 151.94H108.287ZM123.156 161H125.526V152.66C125.526 149.69 126.696 147.38 129.546 147.38H130.956V145.01H129.936C127.656 145.01 126.126 146.69 125.676 148.01H125.496V145.4H123.156V161Z" fill="black"/>
<path d="M17.36 134V129.135H7.665V109.5H2.45V134H17.36ZM25.5629 112.23C26.1229 111.67 26.4029 110.97 26.4029 110.13C26.4029 109.325 26.1229 108.625 25.5629 108.03C24.9679 107.47 24.2679 107.19 23.3929 107.19C22.5179 107.19 21.8179 107.47 21.2229 108.03C20.6279 108.625 20.3479 109.325 20.3479 110.13C20.3479 110.97 20.6279 111.67 21.2229 112.23C21.8179 112.825 22.5179 113.105 23.3929 113.105C24.2679 113.105 24.9679 112.825 25.5629 112.23ZM25.8429 134V115.555H17.7229V120.07H20.7679V134H25.8429ZM39.5199 134L45.4349 115.555H39.9049L36.1599 129.135H35.7749L32.0649 115.555H26.5699L32.5199 134H39.5199ZM54.4507 134.455C56.4107 134.455 58.1607 134 59.7007 133.055C61.2057 132.145 62.2907 130.71 62.9207 128.785L58.3707 127.735C57.7057 129.205 56.3757 129.94 54.3807 129.94C53.1557 129.94 52.1407 129.59 51.3707 128.89C50.5657 128.19 50.1807 127.245 50.1457 126.055H63.5157V124.76C63.5157 121.96 62.6757 119.65 60.9957 117.83C59.3157 116.01 57.0757 115.1 54.3107 115.1C51.6857 115.1 49.4457 116.01 47.6257 117.83C45.8057 119.65 44.8957 121.96 44.8957 124.795C44.8957 127.595 45.8057 129.905 47.5907 131.725C49.3757 133.545 51.6507 134.455 54.4507 134.455ZM50.1807 122.66C50.3207 121.785 50.7757 120.98 51.5107 120.315C52.2457 119.65 53.1907 119.335 54.3107 119.335C55.3957 119.335 56.3057 119.65 57.0757 120.28C57.8107 120.945 58.2657 121.715 58.3707 122.66H50.1807ZM76.6954 134.49C79.5654 134.49 82.0854 133.685 84.2204 132.11C86.3554 130.535 87.8604 128.33 88.6654 125.46H83.1004C82.5404 126.755 81.7004 127.735 80.5454 128.4C79.3904 129.065 78.0954 129.415 76.6954 129.415C74.5954 129.415 72.8454 128.68 71.4804 127.245C70.1154 125.81 69.4154 123.955 69.4154 121.75C69.4154 119.545 70.1154 117.725 71.4804 116.255C72.8454 114.82 74.5954 114.085 76.6954 114.085C78.1304 114.085 79.4254 114.435 80.5804 115.135C81.7354 115.835 82.5754 116.815 83.1004 118.075H88.6654C87.8604 115.205 86.3554 112.965 84.2204 111.39C82.0854 109.815 79.5654 109.045 76.6954 109.045C72.9854 109.045 69.9404 110.27 67.5954 112.685C65.2154 115.1 64.0254 118.145 64.0254 121.75C64.0254 125.39 65.2154 128.435 67.5954 130.85C69.9404 133.265 72.9854 134.49 76.6954 134.49ZM95.0108 134V123.255C95.0108 122.345 95.3258 121.575 95.9208 120.945C96.5158 120.35 97.2858 120.035 98.2308 120.035C99.1408 120.035 99.8758 120.35 100.471 120.945C101.031 121.54 101.311 122.31 101.311 123.255V134H106.421V121.61C106.421 119.755 105.826 118.215 104.601 116.955C103.376 115.73 101.801 115.1 99.8758 115.1C97.9508 115.1 96.4458 115.8 95.3608 117.235H95.0108V107.75H89.9008V134H95.0108ZM115.802 134.455C118.077 134.455 119.792 133.65 120.912 132.04H121.297C121.297 132.565 121.507 133.02 121.892 133.405C122.277 133.79 122.732 134 123.327 134H127.947V129.73H127.212C126.652 129.73 126.372 129.485 126.372 128.96V115.555H121.262V117.27H120.877C119.652 115.835 117.937 115.1 115.767 115.1C113.387 115.1 111.392 116.01 109.747 117.865C108.102 119.72 107.297 121.995 107.297 124.76C107.297 127.525 108.137 129.8 109.782 131.655C111.427 133.51 113.422 134.455 115.802 134.455ZM116.922 129.555C115.662 129.555 114.612 129.1 113.772 128.225C112.897 127.35 112.477 126.23 112.477 124.795C112.477 123.36 112.897 122.205 113.737 121.33C114.577 120.455 115.627 120.035 116.887 120.035C118.147 120.035 119.197 120.455 120.072 121.295C120.912 122.17 121.332 123.325 121.332 124.795C121.332 126.125 120.912 127.245 120.107 128.155C119.302 129.1 118.217 129.555 116.922 129.555ZM141.143 134V129.415H137.608C136.838 129.415 136.453 129.03 136.453 128.26V120.07H141.353V115.555H136.453V110.515H131.693V115.555H128.298V120.07H131.343V128.295C131.343 132.11 133.268 134 137.118 134H141.143Z" fill="#FF7E01"/>
<defs>
<linearGradient id="paint0_linear" x1="68" y1="0" x2="68" y2="92" gradientUnits="userSpaceOnUse">
<stop stop-color="#FFA701"/>
<stop offset="1" stop-color="#FF7901"/>
</linearGradient>
</defs>
</svg>
