<svg width="227" height="156" viewBox="0 0 227 156" fill="none" xmlns="http://www.w3.org/2000/svg">
<path d="M21.1 137.35C25.2 137.35 28.8 136.2 31.85 133.95C34.9 131.7 37.05 128.55 38.2 124.45H30.25C29.45 126.3 28.25 127.7 26.6 128.65C24.95 129.6 23.1 130.1 21.1 130.1C18.1 130.1 15.6 129.05 13.65 127C11.7 124.95 10.7 122.3 10.7 119.15C10.7 116 11.7 113.4 13.65 111.3C15.6 109.25 18.1 108.2 21.1 108.2C23.15 108.2 25 108.7 26.65 109.7C28.3 110.7 29.5 112.1 30.25 113.9H38.2C37.05 109.8 34.9 106.6 31.85 104.35C28.8 102.1 25.2 101 21.1 101C15.8 101 11.45 102.75 8.1 106.2C4.7 109.65 3 114 3 119.15C3 124.35 4.7 128.7 8.1 132.15C11.45 135.6 15.8 137.35 21.1 137.35ZM54.7648 137.3C58.8148 137.3 62.1648 136 64.8148 133.35C67.4648 130.7 68.7648 127.45 68.7648 123.5C68.7648 119.55 67.4648 116.25 64.8148 113.6C62.1648 110.95 58.8148 109.65 54.7648 109.65C50.7148 109.65 47.3648 110.95 44.7148 113.6C42.0648 116.25 40.7148 119.55 40.7148 123.5C40.7148 127.45 42.0148 130.7 44.6648 133.35C47.3148 136 50.6648 137.3 54.7648 137.3ZM50.0148 128.4C48.7648 127.1 48.1148 125.45 48.1148 123.5C48.1148 121.5 48.7648 119.85 50.0148 118.55C51.2648 117.25 52.8148 116.6 54.7648 116.6C56.7148 116.6 58.2648 117.25 59.5148 118.55C60.7648 119.85 61.3648 121.5 61.3648 123.5C61.3648 125.45 60.7648 127.1 59.5148 128.4C58.2648 129.7 56.7148 130.35 54.7648 130.35C52.8148 130.35 51.2648 129.7 50.0148 128.4ZM89.7078 148.15C92.4578 148.15 94.6578 147.5 96.2078 146.15C97.7578 144.8 98.5078 142.75 98.5078 140V110.3H91.2578V113H90.7078C90.1078 112.35 89.5578 111.85 89.0578 111.4C88.5078 111 87.7578 110.6 86.7078 110.2C85.6578 109.85 84.5078 109.65 83.2078 109.65C79.8078 109.65 76.9578 111 74.7078 113.65C72.4078 116.3 71.2578 119.6 71.2578 123.45C71.2578 127.4 72.4578 130.65 74.8578 133.3C77.2078 135.95 80.1078 137.3 83.5578 137.3C86.6078 137.3 88.9578 136.25 90.6578 134.2H91.2078V139.65C91.2078 140.85 90.6578 141.45 89.5578 141.45H77.8078V148.15H89.7078ZM85.0078 130.4C83.2578 130.4 81.7578 129.75 80.5578 128.45C79.3078 127.15 78.7078 125.5 78.7078 123.45C78.7078 121.45 79.3078 119.8 80.5578 118.5C81.7578 117.25 83.2578 116.6 85.0078 116.6C86.8078 116.6 88.3078 117.2 89.5078 118.45C90.7078 119.7 91.3078 121.4 91.3078 123.45C91.3078 125.4 90.7078 127.05 89.5578 128.4C88.3578 129.75 86.8578 130.4 85.0078 130.4ZM110.302 136.65V121.35C110.302 120 110.752 118.9 111.602 118C112.452 117.15 113.502 116.7 114.802 116.7C116.052 116.7 117.102 117.15 117.952 118C118.752 118.85 119.152 119.95 119.152 121.3V136.65H126.452V118.95C126.452 116.3 125.602 114.1 123.902 112.3C122.152 110.55 119.952 109.65 117.202 109.65C114.352 109.65 112.252 110.65 110.802 112.7H110.302V110.3H103.002V136.65H110.302ZM143.757 137.3C147.807 137.3 151.157 136 153.807 133.35C156.457 130.7 157.757 127.45 157.757 123.5C157.757 119.55 156.457 116.25 153.807 113.6C151.157 110.95 147.807 109.65 143.757 109.65C139.707 109.65 136.357 110.95 133.707 113.6C131.057 116.25 129.707 119.55 129.707 123.5C129.707 127.45 131.007 130.7 133.657 133.35C136.307 136 139.657 137.3 143.757 137.3ZM139.007 128.4C137.757 127.1 137.107 125.45 137.107 123.5C137.107 121.5 137.757 119.85 139.007 118.55C140.257 117.25 141.807 116.6 143.757 116.6C145.707 116.6 147.257 117.25 148.507 118.55C149.757 119.85 150.357 121.5 150.357 123.5C150.357 125.45 149.757 127.1 148.507 128.4C147.257 129.7 145.707 130.35 143.757 130.35C141.807 130.35 140.257 129.7 139.007 128.4ZM204.35 136.65L192.6 101.65H182.1L170.25 136.65H178.25L180.5 129.65H194.25L196.5 136.65H204.35ZM187.05 109.15H187.6L192.05 122.85H182.65L187.05 109.15ZM223.819 136.65V129.85H219.019V108.45H223.819V101.65H206.869V108.45H211.569V129.85H206.869V136.65H223.819Z" fill="#254A9C"/>
<path d="M134.712 87.6144C140.274 82.3343 143.055 75.1906 143.055 66.4939C143.055 58.1079 140.274 50.9642 134.712 45.0628C128.842 39.4721 121.735 36.6768 113.393 36.6768C104.741 36.6768 97.6349 39.4721 92.0733 45.0628C86.5117 50.9642 83.7309 58.1079 83.7309 66.4939C83.7309 75.1906 86.5117 82.3343 92.0733 87.6144C97.6349 93.2052 104.741 96.0005 113.393 96.0005C122.044 96.0005 129.151 93.2052 134.712 87.6144Z" fill="url(#paint0_linear)" fill-opacity="0.8"/>
<path d="M134.712 8.38608C140.274 13.6662 143.055 20.8099 143.055 29.5066C143.055 37.8927 140.274 45.0364 134.712 50.9377C128.842 56.5284 121.735 59.3238 113.393 59.3238C104.741 59.3238 97.6349 56.5284 92.0733 50.9377C86.5117 45.0364 83.7309 37.8927 83.7309 29.5066C83.7309 20.8099 86.5117 13.6662 92.0733 8.38608C97.6349 2.79535 104.741 0 113.393 0C122.044 0 129.151 2.79535 134.712 8.38608Z" fill="url(#paint1_linear)"/>
<path d="M77.3861 28.7987C82.6662 23.2371 89.8099 20.4563 98.5066 20.4563C106.893 20.4563 114.036 23.2371 119.938 28.7987C125.528 34.6693 128.324 41.7758 128.324 50.1182C128.324 58.7696 125.528 65.8761 119.938 71.4377C114.036 76.9993 106.893 79.7801 98.5066 79.7801C89.8099 79.7801 82.6662 76.9993 77.3861 71.4377C71.7953 65.8761 69 58.7696 69 50.1182C69 41.4668 71.7953 34.3603 77.3861 28.7987Z" fill="url(#paint2_linear)" fill-opacity="0.6"/>
<path d="M149.599 28.7992C144.319 23.2376 137.176 20.4568 128.479 20.4568C120.093 20.4568 112.949 23.2376 107.048 28.7992C101.457 34.6697 98.6617 41.7762 98.6617 50.1186C98.6617 58.77 101.457 65.8765 107.048 71.4381C112.949 76.9997 120.093 79.7805 128.479 79.7805C137.176 79.7805 144.319 76.9997 149.599 71.4381C155.19 65.8765 157.985 58.77 157.985 50.1186C157.985 41.4673 155.19 34.3608 149.599 28.7992Z" fill="url(#paint3_linear)" fill-opacity="0.6"/>
<defs>
<linearGradient id="paint0_linear" x1="113.393" y1="36.6768" x2="113.393" y2="96.0005" gradientUnits="userSpaceOnUse">
<stop stop-color="#4657E8"/>
<stop offset="1" stop-color="#1060FB" stop-opacity="0.63"/>
</linearGradient>
<linearGradient id="paint1_linear" x1="113.393" y1="59.3238" x2="113.393" y2="0" gradientUnits="userSpaceOnUse">
<stop stop-color="#324DC4"/>
<stop offset="1" stop-color="#37D4F7"/>
</linearGradient>
<linearGradient id="paint2_linear" x1="128.324" y1="50.1182" x2="69" y2="50.1182" gradientUnits="userSpaceOnUse">
<stop stop-color="#182CE2"/>
<stop offset="1" stop-color="#0041C0" stop-opacity="0.63"/>
</linearGradient>
<linearGradient id="paint3_linear" x1="98.6617" y1="50.1186" x2="157.985" y2="50.1186" gradientUnits="userSpaceOnUse">
<stop stop-color="#182CE2"/>
<stop offset="1" stop-color="#0041C0" stop-opacity="0.63"/>
</linearGradient>
</defs>
</svg>
