                                                    <svg width="27" height="24" viewBox="0 0 27 24" fill="none" xmlns="http://www.w3.org/2000/svg">
                                                    <g clip-path="url(#clip0)">
                                                    <path d="M18.3744 9H25.0386C25.6682 9 26.1786 9.51039 26.1786 10.14V16.2102C26.1786 18.5242 24.3027 20.4 21.9888 20.4H21.969C19.655 20.4003 17.7789 18.5248 17.7786 16.2108C17.7786 16.2106 17.7786 16.2104 17.7786 16.2102V9.59581C17.7786 9.26675 18.0453 9 18.3744 9Z" fill="#5059C9"/>
                                                    <path d="M22.8787 7.7999C24.3699 7.7999 25.5787 6.59107 25.5787 5.0999C25.5787 3.60873 24.3699 2.3999 22.8787 2.3999C21.3875 2.3999 20.1787 3.60873 20.1787 5.0999C20.1787 6.59107 21.3875 7.7999 22.8787 7.7999Z" fill="#5059C9"/>
                                                    <path d="M14.4786 7.80001C16.6325 7.80001 18.3786 6.05392 18.3786 3.9C18.3786 1.74609 16.6325 0 14.4786 0C12.3247 0 10.5786 1.74609 10.5786 3.9C10.5786 6.05392 12.3247 7.80001 14.4786 7.80001Z" fill="#7B83EB"/>
                                                    <path d="M19.679 9H8.67857C8.05646 9.0154 7.56434 9.53168 7.57877 10.1538V17.0772C7.4919 20.8105 10.4455 23.9086 14.1788 24C17.912 23.9086 20.8656 20.8105 20.7788 17.0772V10.1538C20.7932 9.53168 20.3011 9.0154 19.679 9Z" fill="#7B83EB"/>
                                                    <path opacity="0.1" d="M14.7787 9V18.702C14.7757 19.1469 14.5061 19.5466 14.0947 19.716C13.9637 19.7714 13.8229 19.8 13.6807 19.8H8.10669C8.02869 19.602 7.95669 19.404 7.89668 19.2C7.68666 18.5115 7.57949 17.7958 7.57868 17.076V10.152C7.56426 9.53087 8.05557 9.0154 8.67668 9H14.7787Z" fill="black"/>
                                                    <path opacity="0.2" d="M14.1788 9V19.302C14.1788 19.4442 14.1502 19.585 14.0948 19.716C13.9254 20.1274 13.5257 20.397 13.0808 20.4H8.38871C8.2867 20.202 8.1907 20.004 8.1067 19.8C8.02269 19.596 7.9567 19.404 7.89669 19.2C7.68666 18.5115 7.57949 17.7958 7.57868 17.076V10.152C7.56426 9.53087 8.05558 9.0154 8.6767 9H14.1788Z" fill="black"/>
                                                    <path opacity="0.2" d="M14.1788 9V18.102C14.1743 18.7065 13.6853 19.1954 13.0808 19.2H7.89669C7.68666 18.5115 7.57949 17.7958 7.57868 17.076V10.152C7.56426 9.53087 8.05558 9.0154 8.6767 9H14.1788Z" fill="black"/>
                                                    <path opacity="0.2" d="M13.5787 9V18.102C13.5741 18.7065 13.0852 19.1954 12.4807 19.2H7.89668C7.68666 18.5115 7.57949 17.7958 7.57868 17.076V10.152C7.56426 9.53087 8.05557 9.0154 8.67668 9H13.5787Z" fill="black"/>
                                                    <path opacity="0.1" d="M14.7788 5.89781V7.78783C14.6768 7.79383 14.5808 7.79983 14.4788 7.79983C14.3768 7.79983 14.2808 7.79384 14.1788 7.78783C13.9762 7.77439 13.7754 7.74226 13.5788 7.69183C12.3638 7.40409 11.36 6.55198 10.8788 5.39981C10.796 5.20632 10.7317 5.00541 10.6868 4.7998H13.6808C14.2862 4.8021 14.7765 5.29234 14.7788 5.89781Z" fill="black"/>
                                                    <path opacity="0.2" d="M14.1788 6.49787V7.78786C13.9763 7.77442 13.7754 7.74229 13.5788 7.69186C12.3637 7.40414 11.3599 6.55205 10.8787 5.3999H13.0808C13.6862 5.40219 14.1765 5.89243 14.1788 6.49787Z" fill="black"/>
                                                    <path opacity="0.2" d="M14.1788 6.49787V7.78786C13.9763 7.77442 13.7754 7.74229 13.5788 7.69186C12.3637 7.40414 11.3599 6.55205 10.8787 5.3999H13.0808C13.6862 5.40219 14.1765 5.89243 14.1788 6.49787Z" fill="black"/>
                                                    <path opacity="0.2" d="M13.5787 6.4979V7.6919C12.3637 7.40417 11.3599 6.55206 10.8787 5.3999H12.4807C13.0861 5.40221 13.5764 5.89245 13.5787 6.4979Z" fill="black"/>
                                                    <path d="M1.47846 5.3999H12.4789C13.0863 5.3999 13.5786 5.8923 13.5786 6.4997V17.5001C13.5786 18.1075 13.0862 18.5999 12.4789 18.5999H1.47846C0.871052 18.5999 0.378662 18.1075 0.378662 17.5001V6.4997C0.378662 5.8923 0.871063 5.3999 1.47846 5.3999Z" fill="url(#paint0_linear)"/>
                                                    <path d="M9.87303 9.5869H7.67402V15.575H6.27303V9.5869H4.08423V8.42529H9.87303V9.5869Z" fill="white"/>
                                                    </g>
                                                    <defs>
                                                    <linearGradient id="paint0_linear" x1="2.67177" y1="4.54054" x2="11.2856" y2="19.4593" gradientUnits="userSpaceOnUse">
                                                    <stop stop-color="#5A62C3"/>
                                                    <stop offset="0.5" stop-color="#4D55BD"/>
                                                    <stop offset="1" stop-color="#3940AB"/>
                                                    </linearGradient>
                                                    <clipPath id="clip0">
                                                    <rect width="25.8" height="24" fill="white" transform="translate(0.378662)"/>
                                                    </clipPath>
                                                    </defs>
                                                    </svg>