<svg width="38" height="42" viewBox="0 0 38 42" fill="none" xmlns="http://www.w3.org/2000/svg">
<path d="M27.7193 37.7047C30.0047 35.5133 31.1474 32.5486 31.1474 28.9392C31.1474 25.4588 30.0047 22.4941 27.7193 20.0449C25.3069 17.7246 22.3868 16.5645 18.9587 16.5645C15.4036 16.5645 12.4834 17.7246 10.1981 20.0449C7.91269 22.4941 6.77002 25.4588 6.77002 28.9392C6.77002 32.5486 7.91269 35.5133 10.1981 37.7047C12.4834 40.025 15.4036 41.1851 18.9587 41.1851C22.5137 41.1851 25.4339 40.025 27.7193 37.7047Z" stroke="#99AFFF" stroke-opacity="0.05"/>
<path d="M27.7193 4.82367C30.0047 7.01504 31.1474 9.97981 31.1474 13.5891C31.1474 17.0696 30.0047 20.0344 27.7193 22.4836C25.3069 24.8038 22.3868 25.9639 18.9587 25.9639C15.4036 25.9639 12.4834 24.8038 10.1981 22.4836C7.91269 20.0344 6.77002 17.0696 6.77002 13.5891C6.77002 9.97981 7.91269 7.01504 10.1981 4.82367C12.4834 2.5034 15.4036 1.34326 18.9587 1.34326C22.5137 1.34326 25.4339 2.5034 27.7193 4.82367Z" stroke="#99AFFF" stroke-opacity="0.05"/>
<path d="M4.16306 13.2953C6.33276 10.9871 9.26826 9.83301 12.8419 9.83301C16.2879 9.83301 19.2234 10.9871 21.6484 13.2953C23.9457 15.7317 25.0944 18.6811 25.0944 22.1434C25.0944 25.7338 23.9457 28.6833 21.6484 30.9915C19.2234 33.2996 16.2879 34.4537 12.8419 34.4537C9.26826 34.4537 6.33276 33.2996 4.16306 30.9915C1.86571 28.6833 0.717041 25.7338 0.717041 22.1434C0.717041 18.5529 1.86571 15.6035 4.16306 13.2953Z" stroke="#99AFFF" stroke-opacity="0.05"/>
<path d="M33.8371 13.2953C31.6674 10.9871 28.7319 9.83301 25.1583 9.83301C21.7122 9.83301 18.7768 10.9871 16.3518 13.2953C14.0544 15.7317 12.9058 18.6811 12.9058 22.1434C12.9058 25.7338 14.0544 28.6833 16.3518 30.9915C18.7768 33.2996 21.7122 34.4537 25.1583 34.4537C28.7319 34.4537 31.6674 33.2996 33.8371 30.9915C36.1344 28.6833 37.2831 25.7338 37.2831 22.1434C37.2831 18.5529 36.1344 15.6035 33.8371 13.2953Z" stroke="#99AFFF" stroke-opacity="0.05"/>
</svg>
