<svg width="18" height="18" viewBox="0 0 18 18" fill="none" xmlns="http://www.w3.org/2000/svg">
<path d="M9 0C13.9706 0 18 4.02944 18 9C18 13.9706 13.9706 18 9 18C4.02944 18 0 13.9706 0 9C0 4.02944 4.02944 0 9 0ZM14.5017 5.08842L5.08842 14.5017C6.19193 15.2877 7.54198 15.75 9 15.75C12.7279 15.75 15.75 12.7279 15.75 9C15.75 7.54198 15.2877 6.19193 14.5017 5.08842ZM9 2.25C5.27208 2.25 2.25 5.27208 2.25 9C2.25 10.458 2.71227 11.8081 3.49825 12.9116L12.9116 3.49825C11.8081 2.71227 10.458 2.25 9 2.25Z" fill="#E10E00"/>
</svg>
