<svg width="92" height="92" viewBox="0 0 92 92" fill="none" xmlns="http://www.w3.org/2000/svg">
<circle cx="46" cy="46" r="46" fill="url(#paint0_linear)"/>
<path d="M50.1314 24.0488H40.9343C39.8459 24.0488 38.9635 24.9169 38.9635 25.9878C38.9635 27.0587 39.8459 27.9268 40.9343 27.9268H50.1314C51.2198 27.9268 52.1022 27.0587 52.1022 25.9878C52.1022 24.9169 51.2198 24.0488 50.1314 24.0488ZM50.1314 20.1708C53.1246 20.1708 55.5983 22.3592 55.9898 25.1985L56.0254 25.5483L56.0075 25.34L60.6423 25.3415C63.9076 25.3415 66.5547 27.9458 66.5547 31.1585V66.0607C66.5547 69.2734 63.9076 71.8777 60.6423 71.8777H30.4234C27.1581 71.8777 24.511 69.2734 24.511 66.0607V31.1585C24.511 27.9458 27.1581 25.3415 30.4234 25.3415L35.0582 25.34L35.0377 25.5483L35.0759 25.1985C35.4674 22.3592 37.9411 20.1708 40.9343 20.1708H50.1314ZM50.7883 58.951H35.0219C33.9335 58.951 33.0511 59.8191 33.0511 60.89C33.0511 61.9609 33.9335 62.829 35.0219 62.829H50.7883C51.8767 62.829 52.7591 61.9609 52.7591 60.89C52.7591 59.8191 51.8767 58.951 50.7883 58.951ZM45.5328 48.6096H35.0219C33.9335 48.6096 33.0511 49.4777 33.0511 50.5486C33.0511 51.6195 33.9335 52.4876 35.0219 52.4876H45.5328C46.6213 52.4876 47.5036 51.6195 47.5036 50.5486C47.5036 49.4777 46.6213 48.6096 45.5328 48.6096ZM56.0438 38.2682H35.0219C33.9335 38.2682 33.0511 39.1363 33.0511 40.2072C33.0511 41.2781 33.9335 42.1462 35.0219 42.1462H56.0438C57.1322 42.1462 58.0146 41.2781 58.0146 40.2072C58.0146 39.1363 57.1322 38.2682 56.0438 38.2682Z" fill="white"/>
<defs>
<linearGradient id="paint0_linear" x1="46" y1="0" x2="46" y2="92" gradientUnits="userSpaceOnUse">
<stop stop-color="#BBBBBB"/>
<stop offset="1" stop-color="#767575"/>
</linearGradient>
</defs>
</svg>
