<svg width="270" height="162" viewBox="0 0 270 162" fill="none" xmlns="http://www.w3.org/2000/svg">
<circle cx="134" cy="46" r="46" fill="url(#paint0_linear)"/>
<path d="M138.131 24.0488H128.934C127.846 24.0488 126.964 24.9169 126.964 25.9878C126.964 27.0587 127.846 27.9268 128.934 27.9268H138.131C139.22 27.9268 140.102 27.0587 140.102 25.9878C140.102 24.9169 139.22 24.0488 138.131 24.0488ZM138.131 20.1708C141.125 20.1708 143.598 22.3592 143.99 25.1985L144.025 25.5483L144.008 25.34L148.642 25.3415C151.908 25.3415 154.555 27.9458 154.555 31.1585V66.0607C154.555 69.2734 151.908 71.8777 148.642 71.8777H118.423C115.158 71.8777 112.511 69.2734 112.511 66.0607V31.1585C112.511 27.9458 115.158 25.3415 118.423 25.3415L123.058 25.34L123.038 25.5483L123.076 25.1985C123.467 22.3592 125.941 20.1708 128.934 20.1708H138.131ZM138.788 58.951H123.022C121.933 58.951 121.051 59.8191 121.051 60.89C121.051 61.9609 121.933 62.829 123.022 62.829H138.788C139.877 62.829 140.759 61.9609 140.759 60.89C140.759 59.8191 139.877 58.951 138.788 58.951ZM133.533 48.6096H123.022C121.933 48.6096 121.051 49.4777 121.051 50.5486C121.051 51.6195 121.933 52.4876 123.022 52.4876H133.533C134.621 52.4876 135.504 51.6195 135.504 50.5486C135.504 49.4777 134.621 48.6096 133.533 48.6096ZM144.044 38.2682H123.022C121.933 38.2682 121.051 39.1363 121.051 40.2072C121.051 41.2781 121.933 42.1462 123.022 42.1462H144.044C145.132 42.1462 146.015 41.2781 146.015 40.2072C146.015 39.1363 145.132 38.2682 144.044 38.2682Z" fill="white"/>
<path d="M1.30429 111.11V106.994H17.8131V111.11H11.9244V128H7.16367V111.11H1.30429ZM19.1185 109.704C18.6107 109.245 18.3568 108.635 18.3568 107.873C18.3568 107.111 18.6107 106.501 19.1185 106.042C19.6264 105.583 20.2855 105.354 21.0961 105.354C21.9066 105.354 22.5609 105.583 23.059 106.042C23.5668 106.491 23.8207 107.102 23.8207 107.873C23.8207 108.645 23.5668 109.26 23.059 109.719C22.5609 110.168 21.9066 110.393 21.0961 110.393C20.2855 110.393 19.6264 110.163 19.1185 109.704ZM18.7816 128V112.165H23.4398V128H18.7816ZM24.1447 120.075C24.1447 118.522 24.4816 117.121 25.1555 115.871C25.8391 114.611 26.8205 113.615 28.0998 112.883C29.3791 112.141 30.8488 111.77 32.509 111.77C34.6965 111.77 36.5226 112.375 37.9875 113.586C39.4523 114.787 40.2971 116.359 40.5217 118.303H35.8049C35.59 117.609 35.1896 117.048 34.6037 116.618C34.0275 116.188 33.3391 115.974 32.5383 115.974C31.425 115.974 30.5314 116.364 29.8576 117.146C29.1838 117.927 28.8469 118.903 28.8469 120.075C28.8469 121.257 29.1887 122.238 29.8723 123.02C30.5559 123.801 31.4543 124.191 32.5676 124.191C33.3293 124.191 33.9982 123.991 34.5744 123.591C35.1506 123.19 35.5412 122.668 35.7463 122.023H40.4924C40.2287 123.918 39.3742 125.456 37.9289 126.638C36.4934 127.81 34.6965 128.396 32.5383 128.396C30.8781 128.396 29.4035 128.024 28.1144 127.282C26.8254 126.54 25.8391 125.539 25.1555 124.279C24.4816 123.02 24.1447 121.618 24.1447 120.075ZM41.8125 128V105.5H46.4707V117.556H46.6465L51.1435 112.165H56.8711L51.7734 117.863L57.2666 128H52.0518L48.5654 121.423L46.4707 123.767V128H41.8125ZM55.6131 120.163C55.6131 117.683 56.365 115.666 57.8689 114.113C59.3728 112.551 61.3309 111.77 63.743 111.77C65.0125 111.77 66.1551 111.994 67.1707 112.443C68.1961 112.883 69.031 113.483 69.6756 114.245C70.3201 115.007 70.8133 115.881 71.1551 116.867C71.5066 117.854 71.6824 118.903 71.6824 120.017V121.364H60.0223C60.1004 122.38 60.4812 123.21 61.1648 123.854C61.8582 124.499 62.7469 124.821 63.8309 124.821C64.7 124.821 65.4373 124.641 66.0428 124.279C66.658 123.918 67.0877 123.469 67.3318 122.932H71.5359C71.1746 124.611 70.3006 125.944 68.9139 126.931C67.5271 127.907 65.7742 128.396 63.6551 128.396C62.1414 128.396 60.7693 128.044 59.5389 127.341C58.3182 126.638 57.3562 125.656 56.6531 124.396C55.9598 123.137 55.6131 121.726 55.6131 120.163ZM60.1101 118.273H67.3758C67.2879 117.414 66.9119 116.706 66.2478 116.149C65.5935 115.593 64.7586 115.314 63.743 115.314C62.7859 115.314 61.9656 115.607 61.282 116.193C60.6082 116.77 60.2176 117.463 60.1101 118.273ZM72.0943 115.783V112.194H73.5885C73.9986 112.194 74.316 112.067 74.5406 111.813C74.7652 111.55 74.8775 111.203 74.8775 110.773V107.873H79.2867V112.165H83.4322V115.783H79.2867V122.272C79.2867 122.868 79.4576 123.332 79.7994 123.664C80.151 123.996 80.6637 124.162 81.3375 124.162H83.3736V128H80.1656C78.4273 128 77.0699 127.521 76.0934 126.564C75.1266 125.598 74.6432 124.245 74.6432 122.507V115.783H72.0943ZM90.5109 128V106.994H96.3703L102.039 121.247H102.215L107.196 106.994H113.07V128H108.485V116.12H108.309L103.929 128H100.12L95.257 115.637H95.0812V128H90.5109ZM114.39 120.163C114.39 117.673 115.054 115.651 116.382 114.099C117.72 112.546 119.453 111.77 121.582 111.77C122.686 111.77 123.613 111.999 124.365 112.458C125.127 112.907 125.688 113.41 126.05 113.967H126.299V112.165H130.942V128H126.328V126.198H126.079C125.942 126.423 125.767 126.643 125.552 126.857C125.337 127.072 125.054 127.307 124.702 127.561C124.36 127.805 123.926 128.005 123.398 128.161C122.881 128.317 122.314 128.396 121.699 128.396C119.512 128.396 117.744 127.644 116.396 126.14C115.059 124.636 114.39 122.644 114.39 120.163ZM119.092 120.075C119.092 121.306 119.429 122.302 120.103 123.063C120.776 123.815 121.66 124.191 122.754 124.191C123.848 124.191 124.727 123.806 125.391 123.034C126.055 122.253 126.387 121.267 126.387 120.075C126.387 118.835 126.045 117.844 125.361 117.102C124.678 116.35 123.799 115.974 122.725 115.974C121.65 115.974 120.776 116.354 120.103 117.116C119.429 117.878 119.092 118.864 119.092 120.075ZM132.555 128V112.165H136.935V113.894H137.184C137.526 113.298 138.068 112.795 138.81 112.385C139.562 111.975 140.436 111.77 141.432 111.77C143.161 111.77 144.538 112.297 145.563 113.352C146.589 114.406 147.101 115.769 147.101 117.438V128H142.458V118.874C142.458 118.044 142.228 117.375 141.769 116.867C141.31 116.35 140.69 116.091 139.909 116.091C139.108 116.091 138.459 116.384 137.961 116.97C137.463 117.546 137.214 118.264 137.214 119.123V128H132.555ZM147.85 120.163C147.85 117.673 148.514 115.651 149.842 114.099C151.18 112.546 152.914 111.77 155.043 111.77C156.146 111.77 157.074 111.999 157.826 112.458C158.587 112.907 159.149 113.41 159.51 113.967H159.759V112.165H164.403V128H159.789V126.198H159.54C159.403 126.423 159.227 126.643 159.012 126.857C158.797 127.072 158.514 127.307 158.163 127.561C157.821 127.805 157.386 128.005 156.859 128.161C156.341 128.317 155.775 128.396 155.16 128.396C152.972 128.396 151.205 127.644 149.857 126.14C148.519 124.636 147.85 122.644 147.85 120.163ZM152.552 120.075C152.552 121.306 152.889 122.302 153.563 123.063C154.237 123.815 155.121 124.191 156.214 124.191C157.308 124.191 158.187 123.806 158.851 123.034C159.515 122.253 159.847 121.267 159.847 120.075C159.847 118.835 159.505 117.844 158.822 117.102C158.138 116.35 157.259 115.974 156.185 115.974C155.111 115.974 154.237 116.354 153.563 117.116C152.889 117.878 152.552 118.864 152.552 120.075ZM165.122 119.987C165.122 117.497 165.796 115.505 167.144 114.011C168.492 112.517 170.196 111.77 172.256 111.77C173.399 111.77 174.356 112.004 175.127 112.473C175.899 112.941 176.451 113.439 176.783 113.967H177.032V112.165H181.675V127.824C181.675 128.879 181.504 129.851 181.162 130.739C180.83 131.638 180.332 132.429 179.668 133.112C179.014 133.796 178.15 134.328 177.076 134.709C176.001 135.1 174.776 135.295 173.399 135.295C172.207 135.295 171.133 135.134 170.176 134.812C169.219 134.489 168.438 134.05 167.832 133.493C167.227 132.946 166.758 132.326 166.426 131.633C166.094 130.939 165.909 130.207 165.87 129.436H170.132C170.24 130.07 170.567 130.578 171.114 130.959C171.661 131.35 172.422 131.545 173.399 131.545C175.84 131.545 177.061 130.305 177.061 127.824V125.993H176.812C176.646 126.228 176.451 126.457 176.226 126.682C176.001 126.896 175.708 127.126 175.347 127.37C174.995 127.614 174.561 127.81 174.043 127.956C173.526 128.103 172.969 128.176 172.373 128.176C170.996 128.176 169.761 127.854 168.667 127.209C167.583 126.555 166.719 125.603 166.075 124.353C165.44 123.103 165.122 121.647 165.122 119.987ZM169.825 119.987C169.825 121.208 170.157 122.18 170.821 122.902C171.495 123.625 172.383 123.986 173.487 123.986C174.59 123.986 175.469 123.615 176.123 122.873C176.787 122.131 177.12 121.169 177.12 119.987C177.12 118.747 176.778 117.771 176.094 117.058C175.42 116.335 174.541 115.974 173.457 115.974C172.373 115.974 171.495 116.34 170.821 117.072C170.157 117.805 169.825 118.776 169.825 119.987ZM182.6 120.163C182.6 117.683 183.352 115.666 184.856 114.113C186.36 112.551 188.318 111.77 190.73 111.77C191.999 111.77 193.142 111.994 194.157 112.443C195.183 112.883 196.018 113.483 196.662 114.245C197.307 115.007 197.8 115.881 198.142 116.867C198.493 117.854 198.669 118.903 198.669 120.017V121.364H187.009C187.087 122.38 187.468 123.21 188.152 123.854C188.845 124.499 189.734 124.821 190.818 124.821C191.687 124.821 192.424 124.641 193.029 124.279C193.645 123.918 194.074 123.469 194.319 122.932H198.523C198.161 124.611 197.287 125.944 195.901 126.931C194.514 127.907 192.761 128.396 190.642 128.396C189.128 128.396 187.756 128.044 186.526 127.341C185.305 126.638 184.343 125.656 183.64 124.396C182.946 123.137 182.6 121.726 182.6 120.163ZM187.097 118.273H194.362C194.275 117.414 193.899 116.706 193.235 116.149C192.58 115.593 191.745 115.314 190.73 115.314C189.773 115.314 188.952 115.607 188.269 116.193C187.595 116.77 187.204 117.463 187.097 118.273ZM199.945 128V112.165H204.325V113.864H204.574C204.945 113.269 205.482 112.771 206.186 112.37C206.889 111.97 207.729 111.77 208.705 111.77C210.746 111.77 212.279 112.487 213.305 113.923H213.51C214.604 112.487 216.132 111.77 218.095 111.77C219.813 111.77 221.2 112.287 222.255 113.322C223.319 114.357 223.852 115.7 223.852 117.351V128H219.208V118.977C219.208 118.078 219.003 117.375 218.593 116.867C218.192 116.35 217.597 116.091 216.806 116.091C216.044 116.091 215.429 116.374 214.96 116.94C214.491 117.507 214.257 118.234 214.257 119.123V128H209.613V118.845C209.613 118.015 209.398 117.351 208.969 116.853C208.539 116.345 207.934 116.091 207.152 116.091C206.4 116.091 205.785 116.374 205.307 116.94C204.838 117.507 204.604 118.225 204.604 119.094V128H199.945ZM224.615 120.163C224.615 117.683 225.367 115.666 226.871 114.113C228.375 112.551 230.333 111.77 232.745 111.77C234.014 111.77 235.157 111.994 236.173 112.443C237.198 112.883 238.033 113.483 238.678 114.245C239.322 115.007 239.815 115.881 240.157 116.867C240.509 117.854 240.684 118.903 240.684 120.017V121.364H229.024C229.102 122.38 229.483 123.21 230.167 123.854C230.86 124.499 231.749 124.821 232.833 124.821C233.702 124.821 234.439 124.641 235.045 124.279C235.66 123.918 236.09 123.469 236.334 122.932H240.538C240.177 124.611 239.303 125.944 237.916 126.931C236.529 127.907 234.776 128.396 232.657 128.396C231.143 128.396 229.771 128.044 228.541 127.341C227.32 126.638 226.358 125.656 225.655 124.396C224.962 123.137 224.615 121.726 224.615 120.163ZM229.112 118.273H236.378C236.29 117.414 235.914 116.706 235.25 116.149C234.596 115.593 233.761 115.314 232.745 115.314C231.788 115.314 230.968 115.607 230.284 116.193C229.61 116.77 229.22 117.463 229.112 118.273ZM241.961 128V112.165H246.34V113.894H246.589C246.931 113.298 247.473 112.795 248.215 112.385C248.967 111.975 249.841 111.77 250.837 111.77C252.566 111.77 253.943 112.297 254.968 113.352C255.994 114.406 256.506 115.769 256.506 117.438V128H251.863V118.874C251.863 118.044 251.633 117.375 251.174 116.867C250.715 116.35 250.095 116.091 249.314 116.091C248.513 116.091 247.864 116.384 247.366 116.97C246.868 117.546 246.619 118.264 246.619 119.123V128H241.961ZM257.285 115.783V112.194H258.779C259.189 112.194 259.506 112.067 259.731 111.813C259.955 111.55 260.068 111.203 260.068 110.773V107.873H264.477V112.165H268.622V115.783H264.477V122.272C264.477 122.868 264.648 123.332 264.99 123.664C265.341 123.996 265.854 124.162 266.528 124.162H268.564V128H265.356C263.618 128 262.26 127.521 261.284 126.564C260.317 125.598 259.833 124.245 259.833 122.507V115.783H257.285ZM85.1689 148.159H89.71C89.7588 149.019 90.1152 149.717 90.7793 150.254C91.4434 150.781 92.3564 151.045 93.5186 151.045C94.5049 151.045 95.2764 150.864 95.833 150.503C96.3896 150.132 96.668 149.619 96.668 148.965C96.668 148.555 96.541 148.208 96.2871 147.925C96.043 147.632 95.7061 147.407 95.2764 147.251C94.8564 147.085 94.373 146.938 93.8262 146.812C93.2793 146.685 92.7031 146.558 92.0977 146.431C91.4922 146.294 90.8867 146.138 90.2812 145.962C89.6758 145.786 89.0996 145.542 88.5527 145.229C88.0059 144.917 87.5176 144.541 87.0879 144.102C86.668 143.662 86.3311 143.086 86.0771 142.373C85.833 141.65 85.7109 140.83 85.7109 139.912C85.7109 138.096 86.3848 136.592 87.7324 135.4C89.0801 134.209 90.9258 133.613 93.2695 133.613C95.5352 133.613 97.3809 134.189 98.8066 135.342C100.232 136.484 100.989 138.135 101.077 140.293H96.3311C96.3115 139.561 96.0332 138.97 95.4961 138.521C94.9688 138.071 94.2266 137.847 93.2695 137.847C92.3711 137.847 91.6777 138.027 91.1895 138.389C90.7012 138.75 90.457 139.219 90.457 139.795C90.457 140.186 90.584 140.518 90.8379 140.791C91.0918 141.064 91.4336 141.279 91.8633 141.436C92.293 141.592 92.7861 141.729 93.3428 141.846C93.9092 141.963 94.5 142.085 95.1152 142.212C95.7305 142.339 96.3457 142.49 96.9609 142.666C97.5762 142.832 98.1621 143.071 98.7188 143.384C99.2852 143.696 99.7832 144.067 100.213 144.497C100.643 144.927 100.984 145.493 101.238 146.196C101.492 146.899 101.619 147.705 101.619 148.613C101.619 150.615 100.887 152.246 99.4219 153.506C97.957 154.766 95.9355 155.396 93.3574 155.396C90.8281 155.405 88.8262 154.746 87.3516 153.418C85.8965 152.109 85.1689 150.386 85.1689 148.247C85.1689 148.218 85.1689 148.188 85.1689 148.159ZM101.269 139.165H106.133L109.604 149.214H109.839L113.149 139.165H118.071L111.347 157.285C110.781 158.809 110.005 159.956 109.018 160.728C108.032 161.509 106.738 161.899 105.137 161.899H103.042V157.783H104.873C105.996 157.783 106.792 157.207 107.261 156.055L107.539 155.293L101.269 139.165ZM117.267 150.137H121.486C121.545 150.684 121.798 151.104 122.248 151.396C122.697 151.68 123.307 151.821 124.079 151.821C124.85 151.821 125.446 151.689 125.866 151.426C126.296 151.162 126.51 150.806 126.51 150.356C126.51 150.015 126.379 149.741 126.115 149.536C125.861 149.321 125.524 149.175 125.104 149.097C124.694 149.009 124.22 148.921 123.683 148.833C123.146 148.735 122.594 148.647 122.028 148.569C121.471 148.491 120.924 148.345 120.387 148.13C119.85 147.905 119.372 147.632 118.952 147.31C118.542 146.987 118.205 146.528 117.941 145.933C117.687 145.327 117.56 144.619 117.56 143.809C117.56 142.393 118.136 141.201 119.289 140.234C120.451 139.258 122.047 138.77 124.079 138.77C125.954 138.77 127.482 139.209 128.664 140.088C129.845 140.957 130.485 142.197 130.583 143.809H126.569C126.491 143.311 126.242 142.92 125.822 142.637C125.402 142.344 124.821 142.197 124.079 142.197C123.376 142.197 122.814 142.329 122.394 142.593C121.974 142.847 121.764 143.184 121.764 143.604C121.764 143.877 121.867 144.102 122.072 144.277C122.287 144.443 122.57 144.57 122.921 144.658C123.283 144.746 123.693 144.819 124.152 144.878C124.621 144.927 125.109 144.99 125.617 145.068C126.125 145.146 126.632 145.244 127.14 145.361C127.658 145.469 128.146 145.645 128.605 145.889C129.074 146.123 129.484 146.411 129.836 146.753C130.197 147.095 130.48 147.554 130.685 148.13C130.9 148.696 131.007 149.355 131.007 150.107C131.007 151.68 130.397 152.954 129.176 153.931C127.956 154.907 126.247 155.396 124.049 155.396C121.833 155.396 120.158 154.932 119.025 154.004C117.902 153.076 117.316 151.787 117.267 150.137ZM131.434 142.783V139.194H132.928C133.338 139.194 133.656 139.067 133.88 138.813C134.105 138.55 134.217 138.203 134.217 137.773V134.873H138.626V139.165H142.772V142.783H138.626V149.272C138.626 149.868 138.797 150.332 139.139 150.664C139.491 150.996 140.003 151.162 140.677 151.162H142.713V155H139.505C137.767 155 136.41 154.521 135.433 153.564C134.466 152.598 133.983 151.245 133.983 149.507V142.783H131.434ZM142.935 147.163C142.935 144.683 143.687 142.666 145.191 141.113C146.695 139.551 148.653 138.77 151.065 138.77C152.334 138.77 153.477 138.994 154.492 139.443C155.518 139.883 156.353 140.483 156.997 141.245C157.642 142.007 158.135 142.881 158.477 143.867C158.828 144.854 159.004 145.903 159.004 147.017V148.364H147.344C147.422 149.38 147.803 150.21 148.487 150.854C149.18 151.499 150.069 151.821 151.153 151.821C152.022 151.821 152.759 151.641 153.364 151.279C153.98 150.918 154.409 150.469 154.654 149.932H158.858C158.496 151.611 157.622 152.944 156.236 153.931C154.849 154.907 153.096 155.396 150.977 155.396C149.463 155.396 148.091 155.044 146.861 154.341C145.64 153.638 144.678 152.656 143.975 151.396C143.281 150.137 142.935 148.726 142.935 147.163ZM147.432 145.273H154.697C154.61 144.414 154.234 143.706 153.57 143.149C152.915 142.593 152.08 142.314 151.065 142.314C150.108 142.314 149.287 142.607 148.604 143.193C147.93 143.77 147.539 144.463 147.432 145.273ZM160.28 155V139.165H164.66V140.864H164.909C165.28 140.269 165.817 139.771 166.521 139.37C167.224 138.97 168.063 138.77 169.04 138.77C171.081 138.77 172.614 139.487 173.64 140.923H173.845C174.938 139.487 176.467 138.77 178.43 138.77C180.148 138.77 181.535 139.287 182.59 140.322C183.654 141.357 184.187 142.7 184.187 144.351V155H179.543V145.977C179.543 145.078 179.338 144.375 178.928 143.867C178.527 143.35 177.932 143.091 177.141 143.091C176.379 143.091 175.764 143.374 175.295 143.94C174.826 144.507 174.592 145.234 174.592 146.123V155H169.948V145.845C169.948 145.015 169.733 144.351 169.304 143.853C168.874 143.345 168.269 143.091 167.487 143.091C166.735 143.091 166.12 143.374 165.642 143.94C165.173 144.507 164.938 145.225 164.938 146.094V155H160.28Z" fill="#7F7E7E"/>
<defs>
<linearGradient id="paint0_linear" x1="134" y1="0" x2="134" y2="92" gradientUnits="userSpaceOnUse">
<stop stop-color="#BBBBBB"/>
<stop offset="1" stop-color="#767575"/>
</linearGradient>
</defs>
</svg>
