<svg width="161" height="50" viewBox="0 0 161 50" fill="none" xmlns="http://www.w3.org/2000/svg">
<g clip-path="url(#clip0_1574_6084)">
<path fill-rule="evenodd" clip-rule="evenodd" d="M0 8.89338C0 3.982 3.982 0 8.89334 0H41.1066C46.018 0 50 3.982 50 8.89338V41.1066C50 46.018 46.018 50 41.1066 50H8.89334C3.982 50 0 46.018 0 41.1066V8.89338ZM14.6511 31.3319H28.5405C31.7618 31.3319 34.3738 33.9439 34.3738 37.1653C34.3738 40.3872 31.7618 42.9985 28.5405 42.9985H14.6511C11.4298 42.9985 8.81781 40.3872 8.81781 37.1653C8.81781 33.9439 11.4298 31.3319 14.6511 31.3319ZM11.2684 26.1823C11.813 26.3893 11.7957 27.1547 11.2425 27.3376L9.83858 27.8016L11.1279 29.1185C11.4067 29.4031 11.3986 29.8568 11.1101 30.1318C10.8213 30.4065 10.3615 30.3987 10.0827 30.1139L8.70745 28.7093L7.94061 29.8977C7.64542 30.355 6.93796 30.2385 6.80968 29.7112L5.68516 25.0912C5.56809 24.6101 6.04658 24.197 6.51489 24.3749L11.2684 26.1823ZM25.9841 13.3315H39.8734C43.0947 13.3315 45.7066 15.9435 45.7066 19.1649C45.7066 22.3868 43.0947 24.9981 39.8734 24.9981H25.9841C22.7627 24.9981 20.1507 22.3868 20.1507 19.1649C20.1507 15.9435 22.7627 13.3315 25.9841 13.3315ZM22.6014 8.18189C23.1458 8.38886 23.1286 9.15432 22.5754 9.33716L21.1715 9.80122L22.4608 11.1181C22.7396 11.4027 22.7315 11.8564 22.443 12.1314C22.1542 12.4061 21.6943 12.3982 21.4155 12.1135L20.0403 10.7089L19.2735 11.8973C18.9782 12.3546 18.2708 12.2381 18.1426 11.7108L17.018 7.09076C16.9009 6.60968 17.3795 6.19655 17.8477 6.37446L22.6014 8.18189Z" fill="url(#paint0_linear_1574_6084)"/>
<path d="M62.2952 49.5305C65.9507 49.5305 68.8799 47.3685 69.9109 44.196H67.8019C66.9818 46.358 64.8494 47.7445 62.3187 47.7445C58.6866 47.7445 55.9684 44.901 55.9684 41C55.9684 37.146 58.6866 34.2555 62.3187 34.2555C64.8494 34.2555 66.9349 35.6655 67.8019 37.804H69.9109C68.833 34.702 65.9742 32.4695 62.3187 32.4695C57.5618 32.4695 54 36.159 54 41C54 45.888 57.5384 49.5305 62.2952 49.5305ZM77.0911 49.5305C80.7466 49.5305 83.4648 46.781 83.4648 43.115C83.4648 39.449 80.7935 36.6995 77.1145 36.6995C73.4824 36.6995 70.7408 39.4255 70.7408 43.115C70.7408 46.828 73.4355 49.5305 77.0911 49.5305ZM77.0911 47.8385C74.49 47.8385 72.6388 45.8645 72.6388 43.115C72.6388 40.436 74.4666 38.3915 77.0911 38.3915C79.7155 38.3915 81.5667 40.4125 81.5667 43.115C81.5667 45.841 79.7155 47.8385 77.0911 47.8385ZM85.0953 49.225H92.4063C95.1714 49.225 97.4678 47.5095 97.4678 44.5485C97.4678 42.222 95.9212 41.047 94.8199 40.671V40.53C96.1321 39.825 96.9054 38.603 96.9054 36.9815C96.9054 34.5845 95.0542 32.775 91.9376 32.775H85.0953V34.3965H86.6418V47.6035H85.0953V49.225ZM88.5399 39.8955V34.467H91.9376C93.6951 34.467 94.9605 35.501 94.9605 37.1225C94.9605 38.791 93.7185 39.8955 91.8673 39.8955H88.5399ZM88.5399 47.5565V41.4935H91.8673C93.7654 41.4935 95.4994 42.3395 95.4994 44.5015C95.4994 46.6165 94.0232 47.5565 92.0782 47.5565H88.5399ZM99.3471 49.225H101.198V42.692C101.198 40.3655 102.112 38.556 104.338 38.556H105.44V36.6995H104.643C102.862 36.6995 101.667 38.0155 101.315 39.0495H101.175V37.005H99.3471V49.225ZM112.027 49.5305C115.683 49.5305 118.401 46.781 118.401 43.115C118.401 39.449 115.729 36.6995 112.051 36.6995C108.418 36.6995 105.677 39.4255 105.677 43.115C105.677 46.828 108.372 49.5305 112.027 49.5305ZM112.027 47.8385C109.426 47.8385 107.575 45.8645 107.575 43.115C107.575 40.436 109.403 38.3915 112.027 38.3915C114.652 38.3915 116.503 40.4125 116.503 43.115C116.503 45.841 114.652 47.8385 112.027 47.8385ZM122.427 49.225H125.004L127.956 38.744H128.097L131.026 49.225H133.604L137.423 37.005H135.408L132.409 47.486H132.268L129.316 37.005H126.738L123.762 47.486H123.621L120.646 37.005H118.631L122.427 49.225ZM142.868 49.5305C145.703 49.5305 147.601 47.9795 147.601 45.6765C147.601 40.624 140.29 43.209 140.29 40.107C140.29 39.0495 141.275 38.2975 142.798 38.2975C144.391 38.2975 145.563 39.167 145.727 40.6005L147.344 40.1305C147.062 37.9215 145.024 36.6995 142.915 36.6995C140.361 36.6995 138.509 38.039 138.509 40.107C138.509 44.948 145.797 42.3395 145.797 45.7705C145.797 47.016 144.789 47.909 142.962 47.909C141.111 47.909 139.962 47.063 139.822 45.418L138.135 45.841C138.416 48.0265 140.126 49.5305 142.868 49.5305ZM154.918 49.5305C157.73 49.5305 159.745 47.909 160.425 45.6295L158.621 45.2065C158.222 46.8985 156.652 47.8855 154.942 47.8855C152.411 47.8855 150.818 46.358 150.794 43.632H160.589V42.9505C160.589 39.2845 158.48 36.6995 154.801 36.6995C151.567 36.6995 148.896 39.261 148.896 43.162C148.896 46.922 151.216 49.5305 154.918 49.5305ZM150.841 42.128C150.982 39.825 152.809 38.368 154.801 38.368C156.816 38.368 158.574 39.59 158.691 42.128H150.841Z" fill="#7B43FF"/>
<path d="M66.6819 25.9439C69.5546 25.9439 72.077 25.1379 74.214 23.5611C76.351 21.9843 77.8575 19.7768 78.6632 16.9034H73.093C72.5325 18.1999 71.6917 19.1811 70.5356 19.8468C69.3795 20.5126 68.0833 20.863 66.6819 20.863C64.58 20.863 62.8283 20.1272 61.462 18.6905C60.0957 17.2538 59.3951 15.3967 59.3951 13.1892C59.3951 10.9816 60.0957 9.15951 61.462 7.68781C62.8283 6.25115 64.58 5.51531 66.6819 5.51531C68.1183 5.51531 69.4145 5.86571 70.5706 6.56652C71.7267 7.26733 72.5675 8.24846 73.093 9.50991H78.6632C77.8575 6.6366 76.351 4.39401 74.214 2.81719C72.077 1.24037 69.5546 0.469482 66.6819 0.469482C62.9684 0.469482 59.9206 1.6959 57.5734 4.11369C55.1911 6.53148 54 9.57999 54 13.1892C54 16.8334 55.1911 19.8819 57.5734 22.2997C59.9206 24.7175 62.9684 25.9439 66.6819 25.9439ZM88.8682 25.9088C91.7059 25.9088 94.0531 24.9978 95.9098 23.1406C97.7666 21.2835 98.6774 19.0059 98.6774 16.2377C98.6774 13.4695 97.7666 11.1568 95.9098 9.29967C94.0531 7.44253 91.7059 6.53148 88.8682 6.53148C86.0305 6.53148 83.6833 7.44253 81.8266 9.29967C79.9698 11.1568 79.0239 13.4695 79.0239 16.2377C79.0239 19.0059 79.9348 21.2835 81.7915 23.1406C83.6483 24.9978 85.9955 25.9088 88.8682 25.9088ZM85.5401 19.6716C84.6642 18.7606 84.2088 17.6043 84.2088 16.2377C84.2088 14.8361 84.6642 13.6797 85.5401 12.7687C86.4159 11.8576 87.5019 11.4021 88.8682 11.4021C90.2345 11.4021 91.3205 11.8576 92.1963 12.7687C93.0722 13.6797 93.4926 14.8361 93.4926 16.2377C93.4926 17.6043 93.0722 18.7606 92.1963 19.6716C91.3205 20.5827 90.2345 21.0382 88.8682 21.0382C87.5019 21.0382 86.4159 20.5827 85.5401 19.6716ZM111.95 33.5126C113.877 33.5126 115.418 33.0571 116.504 32.111C117.59 31.1649 118.116 29.7282 118.116 27.801V6.987H113.036V8.87919H112.651C112.23 8.42366 111.845 8.07326 111.495 7.75789C111.109 7.47757 110.584 7.19725 109.848 6.91692C109.112 6.67164 108.307 6.53148 107.396 6.53148C105.014 6.53148 103.017 7.47757 101.44 9.33471C99.8286 11.1919 99.0229 13.5045 99.0229 16.2026C99.0229 18.9708 99.8637 21.2485 101.545 23.1056C103.192 24.9627 105.224 25.9088 107.641 25.9088C109.778 25.9088 111.425 25.173 112.616 23.7363H113.001V27.5557C113.001 28.3967 112.616 28.8172 111.845 28.8172H103.612V33.5126H111.95ZM108.657 21.0733C107.431 21.0733 106.38 20.6177 105.539 19.7067C104.663 18.7956 104.243 17.6393 104.243 16.2026C104.243 14.801 104.663 13.6447 105.539 12.7336C106.38 11.8576 107.431 11.4021 108.657 11.4021C109.918 11.4021 110.969 11.8226 111.81 12.6986C112.651 13.5746 113.071 14.766 113.071 16.2026C113.071 17.5692 112.651 18.7255 111.845 19.6716C111.004 20.6177 109.953 21.0733 108.657 21.0733ZM124.978 25.4533V14.7309C124.978 13.7848 125.294 13.014 125.889 12.3832C126.485 11.7875 127.22 11.4722 128.131 11.4722C129.007 11.4722 129.743 11.7875 130.338 12.3832C130.899 12.9789 131.179 13.7498 131.179 14.6959V25.4533H136.294V13.049C136.294 11.1919 135.698 9.65007 134.507 8.38862C133.281 7.1622 131.74 6.53148 129.813 6.53148C127.816 6.53148 126.345 7.23229 125.329 8.66894H124.978V6.987H119.863V25.4533H124.978ZM147.017 25.9088C149.855 25.9088 152.202 24.9978 154.059 23.1406C155.915 21.2835 156.826 19.0059 156.826 16.2377C156.826 13.4695 155.915 11.1568 154.059 9.29967C152.202 7.44253 149.855 6.53148 147.017 6.53148C144.179 6.53148 141.832 7.44253 139.975 9.29967C138.119 11.1568 137.173 13.4695 137.173 16.2377C137.173 19.0059 138.084 21.2835 139.94 23.1406C141.797 24.9978 144.144 25.9088 147.017 25.9088ZM143.689 19.6716C142.813 18.7606 142.358 17.6043 142.358 16.2377C142.358 14.8361 142.813 13.6797 143.689 12.7687C144.565 11.8576 145.651 11.4021 147.017 11.4021C148.383 11.4021 149.469 11.8576 150.345 12.7687C151.221 13.6797 151.641 14.8361 151.641 16.2377C151.641 17.6043 151.221 18.7606 150.345 19.6716C149.469 20.5827 148.383 21.0382 147.017 21.0382C145.651 21.0382 144.565 20.5827 143.689 19.6716Z" fill="#2D2C2C"/>
</g>
<defs>
<linearGradient id="paint0_linear_1574_6084" x1="4.72973" y1="2.70269" x2="45.2703" y2="50" gradientUnits="userSpaceOnUse">
<stop stop-color="#BE4EFF"/>
<stop offset="1" stop-color="#7033FF"/>
</linearGradient>
<clipPath id="clip0_1574_6084">
<rect width="160.589" height="50" fill="white"/>
</clipPath>
</defs>
</svg>
