<svg width="75" height="75" viewBox="0 0 75 75" fill="none" xmlns="http://www.w3.org/2000/svg">
<path fill-rule="evenodd" clip-rule="evenodd" d="M0 13.3401C0 5.97299 5.973 0 13.34 0H61.6599C69.027 0 75 5.97299 75 13.3401V61.6599C75 69.027 69.027 75 61.6599 75H13.34C5.973 75 0 69.027 0 61.6599V13.3401ZM21.9766 46.9978H42.8108C47.6426 46.9978 51.5607 50.9159 51.5607 55.7479C51.5607 60.5808 47.6426 64.4978 42.8108 64.4978H21.9766C17.1447 64.4978 13.2267 60.5808 13.2267 55.7479C13.2267 50.9159 17.1447 46.9978 21.9766 46.9978ZM16.9027 39.2735C17.7194 39.584 17.6936 40.7321 16.8638 41.0064L14.7579 41.7024L16.6919 43.6778C17.1101 44.1047 17.0979 44.7851 16.6651 45.1976C16.232 45.6097 15.5423 45.598 15.1241 45.1709L13.0612 43.064L11.9109 44.8466C11.4681 45.5325 10.4069 45.3578 10.2145 44.5668L8.52774 37.6368C8.35214 36.9152 9.06987 36.2956 9.77234 36.5623L16.9027 39.2735ZM38.9761 19.9972H59.8101C64.6421 19.9972 68.5599 23.9153 68.5599 28.7473C68.5599 33.5801 64.6421 37.4972 59.8101 37.4972H38.9761C34.1441 37.4972 30.226 33.5801 30.226 28.7473C30.226 23.9153 34.1441 19.9972 38.9761 19.9972ZM33.902 12.2728C34.7187 12.5833 34.693 13.7315 33.8631 14.0058L31.7572 14.7018L33.6912 16.6772C34.1094 17.1041 34.0972 17.7845 33.6645 18.197C33.2313 18.6091 32.5415 18.5974 32.1233 18.1703L30.0604 16.0634L28.9103 17.846C28.4674 18.5319 27.4062 18.3572 27.2139 17.5662L25.527 10.6361C25.3514 9.91452 26.0692 9.29484 26.7716 9.5617L33.902 12.2728Z" fill="url(#paint0_linear_1574_6082)"/>
<defs>
<linearGradient id="paint0_linear_1574_6082" x1="7.0946" y1="4.05404" x2="67.9054" y2="75" gradientUnits="userSpaceOnUse">
<stop stop-color="#BE4EFF"/>
<stop offset="1" stop-color="#7033FF"/>
</linearGradient>
</defs>
</svg>
