<svg width="150" height="51" viewBox="0 0 150 51" fill="none" xmlns="http://www.w3.org/2000/svg">
<path d="M0 9.80989C0 5.11133 3.80868 1.30185 8.50623 1.30185H39.3174C44.015 1.30185 47.8236 5.11133 47.8236 9.80989V40.6276C47.8236 45.3262 44.015 49.1357 39.3174 49.1357H8.50623C3.80868 49.1357 0 45.3262 0 40.6276V9.80989Z" fill="url(#paint0_linear_1574_6073)"/>
<path fill-rule="evenodd" clip-rule="evenodd" d="M24.5973 33.8288C27.0008 33.8288 28.9492 32.0965 28.9492 29.9596V19.8401C28.9492 17.7032 27.0008 15.9709 24.5973 15.9709H14.5543C12.1508 15.9709 10.2023 17.7032 10.2023 19.8401V29.9596C10.2023 32.0965 12.1508 33.8288 14.5543 33.8288H24.5973ZM36.9836 18.4007C36.9836 18.1182 36.8706 17.8449 36.6648 17.6297C36.1859 17.1287 35.3408 17.0677 34.7773 17.4935L30.2883 20.8853V28.913L34.7774 32.3059C35.0194 32.4888 35.3268 32.5892 35.6445 32.5892C36.3841 32.5892 36.9836 32.0562 36.9836 31.3987V18.4007Z" fill="white"/>
<path d="M63.7795 28.0431C66.5271 28.0431 68.9397 27.2722 70.9837 25.764C73.0277 24.2558 74.4686 22.1444 75.2392 19.3961H69.9115C69.3753 20.6362 68.5711 21.5746 67.4654 22.2114C66.3596 22.8482 65.1198 23.1834 63.7795 23.1834C61.769 23.1834 60.0936 22.4795 58.7868 21.1054C57.4799 19.7313 56.8098 17.955 56.8098 15.8435C56.8098 13.7321 57.4799 11.9893 58.7868 10.5816C60.0936 9.2075 61.769 8.50368 63.7795 8.50368C65.1533 8.50368 66.3931 8.83884 67.4989 9.50914C68.6046 10.1794 69.4088 11.1179 69.9115 12.3244H75.2392C74.4686 9.57617 73.0277 7.4312 70.9837 5.92301C68.9397 4.41483 66.5271 3.67749 63.7795 3.67749C60.2276 3.67749 57.3124 4.85052 55.0674 7.16307C52.7888 9.47562 51.6495 12.3914 51.6495 15.8435C51.6495 19.3291 52.7888 22.2449 55.0674 24.5575C57.3124 26.87 60.2276 28.0431 63.7795 28.0431ZM85 28.0095C87.7142 28.0095 89.9592 27.1382 91.7352 25.3618C93.5111 23.5855 94.3823 21.407 94.3823 18.7593C94.3823 16.1116 93.5111 13.8996 91.7352 12.1233C89.9592 10.347 87.7142 9.47562 85 9.47562C82.2859 9.47562 80.0408 10.347 78.2649 12.1233C76.489 13.8996 75.5842 16.1116 75.5842 18.7593C75.5842 21.407 76.4555 23.5855 78.2314 25.3618C80.0073 27.1382 82.2524 28.0095 85 28.0095ZM81.8168 22.0438C80.979 21.1724 80.5434 20.0664 80.5434 18.7593C80.5434 17.4187 80.979 16.3127 81.8168 15.4413C82.6545 14.5699 83.6932 14.1342 85 14.1342C86.3068 14.1342 87.3456 14.5699 88.1833 15.4413C89.021 16.3127 89.4231 17.4187 89.4231 18.7593C89.4231 20.0664 89.021 21.1724 88.1833 22.0438C87.3456 22.9152 86.3068 23.3509 85 23.3509C83.6932 23.3509 82.6545 22.9152 81.8168 22.0438ZM107.077 35.2824C108.92 35.2824 110.394 34.8467 111.433 33.9417C112.472 33.0368 112.975 31.6627 112.975 29.8194V9.91132H108.116V11.7211H107.747C107.345 11.2854 106.977 10.9503 106.642 10.6487C106.273 10.3805 105.77 10.1124 105.067 9.84429C104.363 9.60969 103.592 9.47562 102.721 9.47562C100.443 9.47562 98.5326 10.3805 97.0247 12.1568C95.4834 13.9331 94.7127 16.1452 94.7127 18.7258C94.7127 21.3735 95.5169 23.552 97.1253 25.3283C98.7001 27.1046 100.644 28.0095 102.956 28.0095C105 28.0095 106.575 27.3057 107.714 25.9316H108.082V29.5848C108.082 30.3891 107.714 30.7913 106.977 30.7913H99.1022V35.2824H107.077ZM103.927 23.3844C102.755 23.3844 101.749 22.9487 100.945 22.0773C100.107 21.206 99.7054 20.1 99.7054 18.7258C99.7054 17.3852 100.107 16.2792 100.945 15.4078C101.749 14.5699 102.755 14.1342 103.927 14.1342C105.134 14.1342 106.139 14.5364 106.943 15.3743C107.747 16.2122 108.149 17.3517 108.149 18.7258C108.149 20.0329 107.747 21.1389 106.977 22.0438C106.172 22.9487 105.167 23.3844 103.927 23.3844ZM119.538 27.5738V17.3182C119.538 16.4133 119.84 15.6759 120.41 15.0727C120.979 14.5029 121.683 14.2013 122.554 14.2013C123.392 14.2013 124.095 14.5029 124.665 15.0727C125.201 15.6424 125.469 16.3798 125.469 17.2847V27.5738H130.362V15.7095C130.362 13.9331 129.792 12.4585 128.653 11.2519C127.48 10.0789 126.005 9.47562 124.162 9.47562C122.252 9.47562 120.845 10.1459 119.873 11.5201H119.538V9.91132H114.646V27.5738H119.538ZM140.618 28.0095C143.332 28.0095 145.577 27.1382 147.353 25.3618C149.129 23.5855 150 21.407 150 18.7593C150 16.1116 149.129 13.8996 147.353 12.1233C145.577 10.347 143.332 9.47562 140.618 9.47562C137.904 9.47562 135.659 10.347 133.883 12.1233C132.107 13.8996 131.202 16.1116 131.202 18.7593C131.202 21.407 132.073 23.5855 133.849 25.3618C135.625 27.1382 137.87 28.0095 140.618 28.0095ZM137.434 22.0438C136.597 21.1724 136.161 20.0664 136.161 18.7593C136.161 17.4187 136.597 16.3127 137.434 15.4413C138.272 14.5699 139.311 14.1342 140.618 14.1342C141.925 14.1342 142.963 14.5699 143.801 15.4413C144.639 16.3127 145.041 17.4187 145.041 18.7593C145.041 20.0664 144.639 21.1724 143.801 22.0438C142.963 22.9152 141.925 23.3509 140.618 23.3509C139.311 23.3509 138.272 22.9152 137.434 22.0438Z" fill="#2D2C2C"/>
<path d="M55.7108 34.9001H57.4575L61.913 45.9874L66.3591 34.9001H68.1151L62.5855 48.5H61.2218L55.7108 34.9001ZM55.1411 34.9001H56.6822L56.9344 43.1945V48.5H55.1411V34.9001ZM67.1343 34.9001H68.6755V48.5H66.8821V43.1945L67.1343 34.9001ZM75.3152 48.6868C74.6116 48.6868 73.9733 48.5685 73.4004 48.3318C72.8338 48.089 72.3449 47.7496 71.934 47.3137C71.5292 46.8778 71.2178 46.361 70.9999 45.7632C70.782 45.1654 70.673 44.5116 70.673 43.8017V43.4094C70.673 42.5874 70.7944 41.8557 71.0373 41.2143C71.2801 40.5667 71.6101 40.0187 72.0274 39.5704C72.4446 39.1221 72.9178 38.7827 73.4471 38.5523C73.9764 38.3219 74.5244 38.2067 75.0911 38.2067C75.8134 38.2067 76.4361 38.3312 76.9592 38.5803C77.4885 38.8294 77.9213 39.1781 78.2575 39.6264C78.5938 40.0686 78.8429 40.5916 79.0048 41.1957C79.1667 41.7935 79.2476 42.4473 79.2476 43.1572V43.9324H71.7004V42.522H77.5196V42.3912C77.4947 41.9429 77.4013 41.507 77.2394 41.0836C77.0837 40.6601 76.8346 40.3114 76.4921 40.0374C76.1497 39.7634 75.6826 39.6264 75.0911 39.6264C74.6988 39.6264 74.3376 39.7105 74.0076 39.8786C73.6775 40.0405 73.3942 40.2834 73.1576 40.6072C72.9209 40.931 72.7372 41.3264 72.6065 41.7935C72.4757 42.2605 72.4103 42.7991 72.4103 43.4094V43.8017C72.4103 44.2812 72.4757 44.7326 72.6065 45.1561C72.7435 45.5733 72.9396 45.9407 73.1949 46.2582C73.4565 46.5758 73.7709 46.8249 74.1383 47.0055C74.5119 47.1861 74.9354 47.2764 75.4086 47.2764C76.0189 47.2764 76.5357 47.1518 76.9592 46.9027C77.3826 46.6537 77.7531 46.3205 78.0707 45.9033L79.1168 46.7346C78.8989 47.0646 78.6218 47.3791 78.2855 47.678C77.9493 47.9769 77.5352 48.2198 77.0432 48.4066C76.5575 48.5934 75.9815 48.6868 75.3152 48.6868ZM85 48.6868C84.2963 48.6868 83.658 48.5685 83.0852 48.3318C82.5185 48.089 82.0297 47.7496 81.6187 47.3137C81.2139 46.8778 80.9026 46.361 80.6846 45.7632C80.4667 45.1654 80.3577 44.5116 80.3577 43.8017V43.4094C80.3577 42.5874 80.4791 41.8557 80.722 41.2143C80.9649 40.5667 81.2949 40.0187 81.7121 39.5704C82.1293 39.1221 82.6026 38.7827 83.1319 38.5523C83.6612 38.3219 84.2091 38.2067 84.7758 38.2067C85.4981 38.2067 86.1208 38.3312 86.6439 38.5803C87.1732 38.8294 87.606 39.1781 87.9422 39.6264C88.2785 40.0686 88.5276 40.5916 88.6895 41.1957C88.8514 41.7935 88.9323 42.4473 88.9323 43.1572V43.9324H81.3852V42.522H87.2043V42.3912C87.1794 41.9429 87.086 41.507 86.9241 41.0836C86.7685 40.6601 86.5194 40.3114 86.1769 40.0374C85.8344 39.7634 85.3674 39.6264 84.7758 39.6264C84.3835 39.6264 84.0223 39.7105 83.6923 39.8786C83.3623 40.0405 83.0789 40.2834 82.8423 40.6072C82.6057 40.931 82.422 41.3264 82.2912 41.7935C82.1604 42.2605 82.0951 42.7991 82.0951 43.4094V43.8017C82.0951 44.2812 82.1604 44.7326 82.2912 45.1561C82.4282 45.5733 82.6244 45.9407 82.8797 46.2582C83.1412 46.5758 83.4557 46.8249 83.8231 47.0055C84.1967 47.1861 84.6201 47.2764 85.0934 47.2764C85.7036 47.2764 86.2205 47.1518 86.6439 46.9027C87.0673 46.6537 87.4379 46.3205 87.7554 45.9033L88.8016 46.7346C88.5836 47.0646 88.3065 47.3791 87.9703 47.678C87.634 47.9769 87.2199 48.2198 86.728 48.4066C86.2423 48.5934 85.6663 48.6868 85 48.6868ZM94.7221 38.3935V39.7198H89.2578V38.3935H94.7221ZM91.1073 35.9369H92.8353V45.9967C92.8353 46.3392 92.8882 46.5976 92.9941 46.772C93.0999 46.9463 93.2369 47.0615 93.4051 47.1176C93.5732 47.1736 93.7538 47.2016 93.9468 47.2016C94.09 47.2016 94.2395 47.1892 94.3952 47.1643C94.5571 47.1331 94.6785 47.1082 94.7594 47.0895L94.7688 48.5C94.6318 48.5436 94.4512 48.584 94.227 48.6214C94.0091 48.665 93.7444 48.6868 93.4331 48.6868C93.0096 48.6868 92.6204 48.6027 92.2655 48.4346C91.9106 48.2665 91.6272 47.9862 91.4155 47.5939C91.21 47.1954 91.1073 46.6599 91.1073 45.9874V35.9369Z" fill="#0254D7"/>
<defs>
<linearGradient id="paint0_linear_1574_6073" x1="43.0413" y1="45.9467" x2="-0.00948122" y2="1.31099" gradientUnits="userSpaceOnUse">
<stop offset="0.544849" stop-color="#0254D7"/>
<stop offset="0.992708" stop-color="#0254D7" stop-opacity="0.46"/>
</linearGradient>
</defs>
</svg>
