<svg width="170" height="34" viewBox="0 0 170 34" fill="none" xmlns="http://www.w3.org/2000/svg">
<path d="M49.5927 25.0136C52.115 25.0136 54.3298 24.3041 56.2062 22.916C58.0825 21.5279 59.4052 19.5845 60.1127 17.0549H55.2218C54.7297 18.1963 53.9914 19.06 52.9763 19.6462C51.9612 20.2323 50.8231 20.5407 49.5927 20.5407C47.7471 20.5407 46.2091 19.8929 45.0094 18.6282C43.8098 17.3634 43.1946 15.7285 43.1946 13.7851C43.1946 11.8417 43.8098 10.2376 45.0094 8.94202C46.2091 7.67726 47.7471 7.02947 49.5927 7.02947C50.8539 7.02947 51.992 7.33794 53.0071 7.95489C54.0222 8.57185 54.7604 9.43558 55.2218 10.5461H60.1127C59.4052 8.01659 58.0825 6.04234 56.2062 4.6542C54.3298 3.26605 52.115 2.5874 49.5927 2.5874C46.3321 2.5874 43.656 3.66707 41.5951 5.79556C39.5034 7.92405 38.4575 10.6078 38.4575 13.7851C38.4575 16.9933 39.5034 19.677 41.5951 21.8055C43.656 23.934 46.3321 25.0136 49.5927 25.0136Z" fill="#204DAF"></path>
<path d="M69.6882 24.9828C72.1798 24.9828 74.2407 24.1808 75.871 22.5458C77.5013 20.9109 78.3011 18.9058 78.3011 16.4688C78.3011 14.0319 77.5013 11.9959 75.871 10.361C74.2407 8.72609 72.1798 7.92405 69.6882 7.92405C67.1967 7.92405 65.1357 8.72609 63.5054 10.361C61.8752 11.9959 61.0446 14.0319 61.0446 16.4688C61.0446 18.9058 61.8444 20.9109 63.4747 22.5458C65.105 24.1808 67.1659 24.9828 69.6882 24.9828ZM66.766 19.4919C65.997 18.6899 65.5971 17.6719 65.5971 16.4688C65.5971 15.2349 65.997 14.217 66.766 13.4149C67.535 12.6129 68.4886 12.2119 69.6882 12.2119C70.8879 12.2119 71.8415 12.6129 72.6105 13.4149C73.3795 14.217 73.7486 15.2349 73.7486 16.4688C73.7486 17.6719 73.3795 18.6899 72.6105 19.4919C71.8415 20.294 70.8879 20.695 69.6882 20.695C68.4886 20.695 67.535 20.294 66.766 19.4919Z" fill="#204DAF"></path>
<path d="M90.5701 31.6767C92.2619 31.6767 93.6153 31.2757 94.5689 30.4428C95.5225 29.6099 95.9839 28.3452 95.9839 26.6486V8.32507H91.5236V9.99084H91.1853C90.8162 9.58982 90.4778 9.28134 90.1702 9.00371C89.8318 8.75693 89.3704 8.51015 88.7245 8.26337C88.0785 8.04744 87.371 7.92405 86.5713 7.92405C84.4796 7.92405 82.7262 8.75693 81.342 10.3919C79.9271 12.0268 79.2196 14.0627 79.2196 16.438C79.2196 18.875 79.9578 20.8801 81.4343 22.515C82.88 24.1499 84.6641 24.9828 86.7866 24.9828C88.663 24.9828 90.1087 24.335 91.1545 23.0702H91.4929V26.4326C91.4929 27.173 91.1545 27.5431 90.4778 27.5431H83.2492V31.6767H90.5701ZM87.6786 20.7258C86.602 20.7258 85.6792 20.3248 84.941 19.5228C84.172 18.7207 83.8028 17.7028 83.8028 16.438C83.8028 15.2041 84.172 14.1861 84.941 13.3841C85.6792 12.6129 86.602 12.2119 87.6786 12.2119C88.786 12.2119 89.7088 12.582 90.447 13.3532C91.1853 14.1244 91.5544 15.1732 91.5544 16.438C91.5544 17.6411 91.1853 18.659 90.4778 19.4919C89.7396 20.3248 88.8168 20.7258 87.6786 20.7258Z" fill="#204DAF"></path>
<path d="M102.624 24.5818V15.1424C102.624 14.3095 102.901 13.6309 103.424 13.0756C103.947 12.5512 104.593 12.2736 105.393 12.2736C106.162 12.2736 106.808 12.5512 107.331 13.0756C107.823 13.6 108.069 14.2787 108.069 15.1115V24.5818H112.56V13.6617C112.56 12.0268 112.037 10.6695 110.991 9.55897C109.915 8.4793 108.561 7.92405 106.869 7.92405C105.116 7.92405 103.824 8.541 102.932 9.80575H102.624V8.32507H98.1335V24.5818H102.624Z" fill="#204DAF"></path>
<path d="M122.591 24.9828C125.083 24.9828 127.143 24.1808 128.774 22.5458C130.404 20.9109 131.204 18.9058 131.204 16.4688C131.204 14.0319 130.404 11.9959 128.774 10.361C127.143 8.72609 125.083 7.92405 122.591 7.92405C120.099 7.92405 118.038 8.72609 116.408 10.361C114.778 11.9959 113.947 14.0319 113.947 16.4688C113.947 18.9058 114.747 20.9109 116.377 22.5458C118.008 24.1808 120.069 24.9828 122.591 24.9828ZM119.669 19.4919C118.9 18.6899 118.5 17.6719 118.5 16.4688C118.5 15.2349 118.9 14.217 119.669 13.4149C120.438 12.6129 121.391 12.2119 122.591 12.2119C123.791 12.2119 124.744 12.6129 125.513 13.4149C126.282 14.217 126.651 15.2349 126.651 16.4688C126.651 17.6719 126.282 18.6899 125.513 19.4919C124.744 20.294 123.791 20.695 122.591 20.695C121.391 20.695 120.438 20.294 119.669 19.4919Z" fill="#204DAF"></path>
<path d="M158.638 24.5818L151.409 2.98842H144.949L137.659 24.5818H142.581L143.965 20.2631H152.424L153.808 24.5818H158.638ZM147.995 7.61557H148.333L151.071 16.0678H145.288L147.995 7.61557Z" fill="#204DAF"></path>
<path d="M170 24.5818V20.3865H167.047V7.1837H170V2.98842H159.572V7.1837H162.464V20.3865H159.572V24.5818H170Z" fill="#204DAF"></path>
<path d="M23.5051 30.5879C25.4128 28.7768 26.3666 26.3264 26.3666 23.3434C26.3666 20.4669 25.4128 18.0165 23.5051 15.9923C21.4915 14.0747 19.0539 13.1158 16.1924 13.1158C13.2249 13.1158 10.7873 14.0747 8.87958 15.9923C6.97191 18.0165 6.01807 20.4669 6.01807 23.3434C6.01807 26.3264 6.97191 28.7768 8.87958 30.5879C10.7873 32.5056 13.2249 33.4644 16.1924 33.4644C19.1599 33.4644 21.5974 32.5056 23.5051 30.5879Z" fill="url(#paint0_linear)" fill-opacity="0.6"></path>
<path d="M23.5051 3.4122C25.4128 5.22333 26.3666 7.67369 26.3666 10.6567C26.3666 13.5332 25.4128 15.9836 23.5051 18.0078C21.4915 19.9254 19.0539 20.8843 16.1924 20.8843C13.2249 20.8843 10.7873 19.9254 8.87958 18.0078C6.97191 15.9836 6.01807 13.5332 6.01807 10.6567C6.01807 7.67369 6.97191 5.22333 8.87958 3.4122C10.7873 1.49454 13.2249 0.535706 16.1924 0.535706C19.1599 0.535706 21.5974 1.49454 23.5051 3.4122Z" fill="url(#paint1_linear)"></path>
<path d="M3.84751 9.646C5.65864 7.73832 8.10899 6.78448 11.092 6.78448C13.9685 6.78448 16.4189 7.73832 18.4431 9.646C20.3607 11.6597 21.3196 14.0973 21.3196 16.9588C21.3196 19.9263 20.3607 22.3639 18.4431 24.2715C16.4189 26.1792 13.9685 27.1331 11.092 27.1331C8.10899 27.1331 5.65864 26.1792 3.84751 24.2715C1.92984 22.3639 0.971008 19.9263 0.971008 16.9588C0.971008 13.9913 1.92984 11.5537 3.84751 9.646Z" fill="url(#paint2_linear)" fill-opacity="0.6"></path>
<path d="M28.6176 9.646C26.8065 7.73832 24.3561 6.78448 21.3731 6.78448C18.4966 6.78448 16.0462 7.73832 14.022 9.646C12.1043 11.6597 11.1455 14.0973 11.1455 16.9588C11.1455 19.9263 12.1043 22.3639 14.022 24.2715C16.0462 26.1792 18.4966 27.1331 21.3731 27.1331C24.3561 27.1331 26.8065 26.1792 28.6176 24.2715C30.5352 22.3639 31.4941 19.9263 31.4941 16.9588C31.4941 13.9913 30.5352 11.5537 28.6176 9.646Z" fill="url(#paint3_linear)" fill-opacity="0.6"></path>
<defs>
<linearGradient id="paint0_linear" x1="16.1924" y1="13.1158" x2="16.1924" y2="33.4644" gradientUnits="userSpaceOnUse">
<stop stop-color="#373DCB"></stop>
<stop offset="1" stop-color="#2146C8" stop-opacity="0.47"></stop>
</linearGradient>
<linearGradient id="paint1_linear" x1="16.1924" y1="20.8843" x2="16.1924" y2="0.535706" gradientUnits="userSpaceOnUse">
<stop stop-color="#005DCA"></stop>
<stop offset="1" stop-color="#37D4F7"></stop>
</linearGradient>
<linearGradient id="paint2_linear" x1="21.3196" y1="16.9588" x2="0.971008" y2="16.9588" gradientUnits="userSpaceOnUse">
<stop stop-color="#373DCB"></stop>
<stop offset="1" stop-color="#2163E2" stop-opacity="0.63"></stop>
</linearGradient>
<linearGradient id="paint3_linear" x1="11.1455" y1="16.9588" x2="31.4941" y2="16.9588" gradientUnits="userSpaceOnUse">
<stop stop-color="#373DCB"></stop>
<stop offset="1" stop-color="#2163E2" stop-opacity="0.63"></stop>
</linearGradient>
</defs>
</svg>
