<svg width="12" height="12" viewBox="0 0 16 10" fill="none" xmlns="http://www.w3.org/2000/svg">
<path d="M7.67966 9.80298C7.25591 9.8035 6.85246 9.62149 6.57241 9.30347L0.289445 2.16173C-0.123568 1.66952 -0.0681091 0.937618 0.414354 0.513266C0.896818 0.0889135 1.62981 0.127329 2.06527 0.59979L7.55927 6.84497C7.58966 6.87965 7.63354 6.89954 7.67966 6.89954C7.72578 6.89954 7.76966 6.87965 7.80006 6.84497L13.294 0.59979C13.5699 0.271049 14.0022 0.117504 14.4236 0.198572C14.845 0.27964 15.1894 0.582601 15.3236 0.990222C15.4578 1.39784 15.3607 1.84617 15.0699 2.16173L8.78883 9.3009C8.50831 9.6197 8.10431 9.80258 7.67966 9.80298Z" fill="#7B7A7B"/>
</svg>