<svg width="299" height="224" viewBox="0 0 299 224" fill="none" xmlns="http://www.w3.org/2000/svg">
<g clip-path="url(#clip0)">
<path d="M180.06 201.307L187.049 214.682H192.867L185.871 201.307H180.06Z" fill="black"/>
<path d="M193.449 215.035H186.836L179.478 200.957H186.083L193.449 215.035ZM187.261 214.33H192.279L185.65 201.662H180.642L187.261 214.33Z" fill="black"/>
<path d="M134.46 201.307L141.449 214.682H187.048L180.06 201.307H134.46Z" fill="#C2E6FF" fill-opacity="0.31"/>
<path d="M187.631 215.035H141.237L133.889 200.957H180.283L187.631 215.035ZM141.662 214.33H186.469L179.849 201.662H135.043L141.662 214.33Z" fill="black"/>
<path d="M255.078 45.5811H248.225C252.957 45.5811 257.495 47.4608 260.841 50.8067C264.187 54.1527 266.067 58.6907 266.067 63.4226V183.815C266.067 188.546 264.187 193.084 260.841 196.43C257.495 199.776 252.957 201.656 248.225 201.656H255.078C259.81 201.656 264.348 199.776 267.694 196.43C271.04 193.084 272.919 188.546 272.919 183.815V63.4246C272.92 61.0815 272.458 58.7612 271.562 56.5963C270.665 54.4315 269.351 52.4644 267.694 50.8074C266.038 49.1505 264.071 47.8361 261.906 46.9393C259.741 46.0426 257.421 45.5811 255.078 45.5811Z" fill="black"/>
<path d="M110.178 214.682C109.019 214.682 107.907 215.143 107.087 215.963C106.267 216.783 105.807 217.894 105.807 219.054C105.807 220.213 106.267 221.325 107.087 222.145C107.907 222.964 109.019 223.425 110.178 223.425H195.142C196.301 223.425 197.413 222.964 198.233 222.145C199.053 221.325 199.513 220.213 199.513 219.054C199.513 217.894 199.053 216.783 198.233 215.963C197.413 215.143 196.301 214.682 195.142 214.682H110.178Z" fill="white"/>
<path d="M195.142 223.778H110.178C108.925 223.778 107.724 223.28 106.838 222.394C105.952 221.508 105.454 220.307 105.454 219.054C105.454 217.801 105.952 216.599 106.838 215.713C107.724 214.827 108.925 214.33 110.178 214.33H195.142C196.395 214.33 197.597 214.827 198.483 215.713C199.369 216.599 199.866 217.801 199.866 219.054C199.866 220.307 199.369 221.508 198.483 222.394C197.597 223.28 196.395 223.778 195.142 223.778ZM110.178 215.035C109.113 215.036 108.091 215.46 107.338 216.213C106.584 216.967 106.161 217.988 106.16 219.054C106.161 220.119 106.584 221.141 107.338 221.894C108.091 222.647 109.113 223.071 110.178 223.072H195.142C196.208 223.072 197.23 222.649 197.984 221.895C198.737 221.142 199.161 220.119 199.161 219.054C199.161 217.988 198.737 216.966 197.984 216.212C197.23 215.459 196.208 215.035 195.142 215.035H110.178Z" fill="black"/>
<path d="M202.338 214.682H195.142C196.301 214.682 197.413 215.143 198.233 215.963C199.053 216.783 199.513 217.894 199.513 219.054C199.513 220.213 199.053 221.325 198.233 222.145C197.413 222.964 196.301 223.425 195.142 223.425H202.338C203.497 223.425 204.609 222.964 205.428 222.145C206.248 221.325 206.709 220.213 206.709 219.054C206.709 217.894 206.248 216.783 205.428 215.963C204.609 215.143 203.497 214.682 202.338 214.682Z" fill="black"/>
<path d="M202.338 223.778H195.142V223.072C196.208 223.072 197.23 222.649 197.984 221.895C198.737 221.142 199.16 220.119 199.16 219.054C199.16 217.988 198.737 216.966 197.984 216.212C197.23 215.459 196.208 215.035 195.142 215.035V214.33H202.338C203.59 214.33 204.792 214.827 205.678 215.713C206.564 216.599 207.061 217.801 207.061 219.054C207.061 220.307 206.564 221.508 205.678 222.394C204.792 223.28 203.59 223.778 202.338 223.778ZM197.624 223.072H202.338C203.403 223.072 204.425 222.649 205.179 221.895C205.933 221.142 206.356 220.119 206.356 219.054C206.356 217.988 205.933 216.966 205.179 216.212C204.425 215.459 203.403 215.035 202.338 215.035H197.616C197.928 215.23 198.217 215.46 198.477 215.721C198.982 216.223 199.367 216.833 199.602 217.506C199.837 218.179 199.917 218.896 199.835 219.603C199.753 220.311 199.511 220.991 199.128 221.592C198.745 222.193 198.231 222.699 197.624 223.072Z" fill="black"/>
<path d="M54.9724 45.5811H248.225C252.957 45.5811 257.495 47.4608 260.841 50.8067C264.187 54.1527 266.066 58.6907 266.066 63.4226V183.815C266.066 188.546 264.187 193.084 260.841 196.43C257.495 199.776 252.957 201.656 248.225 201.656H54.9724C50.2405 201.656 45.7025 199.776 42.3565 196.43C39.0106 193.084 37.1309 188.546 37.1309 183.815V63.4246C37.1306 61.0815 37.5919 58.7612 38.4884 56.5963C39.3849 54.4315 40.699 52.4644 42.3558 50.8074C44.0126 49.1505 45.9795 47.8361 48.1443 46.9393C50.309 46.0426 52.6293 45.5811 54.9724 45.5811ZM54.9724 181.272H248.217C251.516 181.268 254.679 179.955 257.011 177.621C259.343 175.287 260.653 172.123 260.655 168.824V63.4246C260.653 60.1253 259.343 56.9615 257.011 54.6275C254.679 52.2936 251.516 50.9804 248.217 50.9761H54.9805C51.6806 50.9809 48.5173 52.2941 46.1841 54.6276C43.8509 56.9612 42.5383 60.1247 42.534 63.4246V168.824C42.5383 172.123 43.8509 175.287 46.1841 177.621C48.5173 179.954 51.6806 181.267 54.9805 181.272H54.9724Z" fill="white"/>
<path d="M248.225 202.015H54.9724C50.149 202.008 45.5253 200.088 42.1155 196.676C38.7058 193.265 36.7885 188.64 36.7842 183.817V63.4246C36.7885 58.6014 38.7058 53.9768 42.1156 50.5655C45.5254 47.1542 50.1492 45.2347 54.9724 45.2283H248.225C253.048 45.2347 257.672 47.1542 261.082 50.5655C264.491 53.9768 266.409 58.6014 266.413 63.4246V183.817C266.409 188.64 264.491 193.265 261.082 196.676C257.672 200.088 253.048 202.008 248.225 202.015ZM54.9724 45.9338C50.3363 45.9403 45.892 47.7854 42.6145 51.0644C39.3371 54.3434 37.494 58.7885 37.4897 63.4246V183.817C37.4935 188.453 39.3363 192.899 42.6138 196.178C45.8914 199.458 50.3359 201.303 54.9724 201.309H248.225C252.861 201.303 257.306 199.458 260.583 196.178C263.861 192.899 265.704 188.453 265.707 183.817V63.4246C265.703 58.7885 263.86 54.3434 260.583 51.0644C257.305 47.7854 252.861 45.9403 248.225 45.9338H54.9724ZM248.225 181.625H54.9805C51.5868 181.621 48.3331 180.271 45.9335 177.871C43.5339 175.471 42.1845 172.217 42.1813 168.824V63.4246C42.185 60.0312 43.5347 56.7778 45.9342 54.3783C48.3337 51.9788 51.5871 50.6291 54.9805 50.6253H248.225C251.616 50.6318 254.866 51.9828 257.263 54.3821C259.66 56.7815 261.007 60.0333 261.01 63.4246V168.824C261.008 172.215 259.661 175.468 257.264 177.867C254.867 180.267 251.616 181.618 248.225 181.625ZM54.9805 51.3289C51.7739 51.3326 48.6997 52.6083 46.4324 54.8759C44.1651 57.1435 42.89 60.218 42.8868 63.4246V168.824C42.89 172.03 44.1651 175.105 46.4324 177.372C48.6997 179.64 51.7739 180.916 54.9805 180.919H248.225C251.43 180.914 254.503 179.638 256.769 177.371C259.035 175.103 260.308 172.029 260.31 168.824V63.4246C260.308 60.219 259.035 57.1452 256.769 54.8776C254.503 52.6099 251.43 51.3337 248.225 51.3289H54.9805Z" fill="black"/>
<path d="M260.661 63.4227V168.822C260.662 171.184 259.99 173.497 258.724 175.491C257.458 177.485 255.651 179.078 253.513 180.082C251.86 180.867 250.053 181.273 248.223 181.27H54.9808C51.6805 181.266 48.5167 179.953 46.1831 177.619C43.8494 175.286 42.5365 172.122 42.5322 168.822V63.4227C42.5365 60.1224 43.8494 56.9586 46.1831 54.625C48.5167 52.2913 51.6805 50.9784 54.9808 50.9741H248.223C251.522 50.9784 254.685 52.2917 257.017 54.6256C259.349 56.9595 260.66 60.1234 260.661 63.4227Z" fill="#C2E6FF" fill-opacity="0.31"/>
<path d="M248.223 181.623H54.9805C51.5865 181.619 48.3327 180.269 45.9328 177.869C43.5329 175.469 42.183 172.216 42.1792 168.822V63.4227C42.183 60.0287 43.5329 56.7748 45.9328 54.3749C48.3327 51.975 51.5865 50.6251 54.9805 50.6213H248.223C251.615 50.6278 254.865 51.979 257.262 54.3787C259.66 56.7784 261.007 60.0308 261.01 63.4227V168.822C261.004 171.249 260.31 173.626 259.009 175.675C257.708 177.725 255.853 179.364 253.658 180.402C251.96 181.21 250.103 181.627 248.223 181.623ZM54.9805 51.3269C51.7735 51.3301 48.6988 52.6055 46.4311 54.8732C44.1634 57.1409 42.888 60.2156 42.8848 63.4227V168.822C42.888 172.029 44.1634 175.103 46.4311 177.371C48.6988 179.639 51.7735 180.914 54.9805 180.917H248.223C250 180.922 251.756 180.528 253.36 179.764C255.435 178.782 257.189 177.233 258.419 175.295C259.649 173.357 260.305 171.111 260.31 168.816V63.4227C260.308 60.2169 259.034 57.1431 256.767 54.8755C254.501 52.6079 251.428 51.3317 248.223 51.3269H54.9805Z" fill="black"/>
<g style="mix-blend-mode:soft-light">
<path d="M136.229 181.27H99.0208L57.0566 50.9741H94.2644L136.229 181.27Z" fill="white"/>
</g>
<g style="mix-blend-mode:soft-light">
<path d="M157.401 181.27H146.293L104.329 50.9741H115.427L157.401 181.27Z" fill="white"/>
</g>
<g style="mix-blend-mode:soft-light">
<path d="M245.255 181.27H208.047L166.081 50.9741H203.289L245.255 181.27Z" fill="white"/>
</g>
<g style="mix-blend-mode:soft-light">
<path d="M262.08 167.806V168.82C262.081 171.182 261.409 173.495 260.143 175.489C258.877 177.483 257.069 179.076 254.931 180.08L213.353 50.972H224.451L262.08 167.806Z" fill="white"/>
</g>
<path d="M251.086 132.474C250.606 133.045 249.992 133.487 249.299 133.761C248.605 134.035 247.854 134.132 247.114 134.043H247.071L247.163 132.516C248.523 110.717 247.507 87.896 212.479 87.7095C212.435 87.6984 212.39 87.6903 212.345 87.6852C210.022 87.2939 208.317 87.1215 207.508 87.0485L206.987 87.012C200.27 86.8215 194.329 86.9918 189.551 88.0906C189.538 88.0906 189.532 88.0906 189.52 88.0906C186.619 88.5367 184.654 88.9482 184.654 88.9482C174.282 91.2109 167.741 98.1306 166.896 107.118C166.608 110.159 166.344 112.923 166.105 115.307C154.476 108.994 165.075 84.4899 165.7 65.8516C166.324 47.2132 170.991 32.6501 179.689 29.175C209.087 17.4158 213.416 46.4732 222.58 59.3232C231.744 72.1731 252.256 61.3506 257.642 92.3706C261.831 116.372 254.587 128.299 251.086 132.474Z" fill="black"/>
<path d="M189.53 88.0865C189.113 88.1839 188.701 88.2893 188.314 88.3988C187.927 88.5083 187.503 88.6319 187.118 88.7658C186.156 89.0797 185.222 89.4717 184.324 89.9376C184.188 90.0045 184.048 90.0775 183.918 90.1586C183.752 90.2498 183.588 90.3411 183.428 90.4465C183.267 90.5519 183.128 90.629 182.98 90.7283C182.98 90.7283 182.967 90.7283 182.961 90.7405C182.815 90.8378 182.667 90.9432 182.521 91.0405C181.653 91.6655 180.872 92.4032 180.198 93.2342C180.092 93.3579 179.995 93.4796 179.904 93.6093C179.258 94.4846 178.738 95.4462 178.359 96.466C178.316 96.5694 178.278 96.6687 178.241 96.7782C178.205 96.8877 178.156 97.0175 178.12 97.1452C178.083 97.2729 178.014 97.4594 177.972 97.6237C177.881 97.9602 177.795 98.3049 177.72 98.6658C177.684 98.8259 177.653 98.9841 177.629 99.1443C177.605 99.3044 177.574 99.4626 177.55 99.6288C177.526 99.7951 177.499 99.9593 177.481 100.132C176.684 106.822 171.543 110.032 169.892 116.615C169.742 117.19 169.625 117.773 169.544 118.362C168.124 128.518 170.995 130.217 173.599 138.669C174.499 141.595 171.551 151.874 167.946 162.528C166.604 162.798 165.256 163.031 163.968 163.177C161.299 163.511 158.609 163.654 155.919 163.607C150.739 163.552 150.088 139.411 153.535 138.536C155.159 138.133 156.756 137.627 158.316 137.021C158.664 136.873 159.046 136.751 159.358 136.591C159.67 136.431 160 136.285 160.327 136.145L161.178 135.673C161.433 135.53 161.679 135.372 161.914 135.2C162.821 134.57 163.293 132.417 163.293 132.417L163.605 131.308L163.765 130.756C163.814 130.553 163.851 130.351 163.899 130.148L164.169 128.909L164.465 127.693L164.708 126.369C164.862 125.475 165.053 124.635 165.187 123.703C165.389 122.537 165.72 119.528 166.138 115.323C166.377 112.939 166.64 110.174 166.928 107.134C167.774 98.1467 174.314 91.2271 184.687 88.9644C184.668 88.9442 186.629 88.5326 189.53 88.0865Z" fill="#2755CB"/>
<path d="M156.872 163.919C156.545 163.919 156.221 163.919 155.895 163.919C152.904 163.887 151.775 157.156 151.434 154.265C150.696 148.115 150.99 138.874 153.448 138.248C155.06 137.849 156.646 137.347 158.194 136.743C158.315 136.693 158.451 136.64 158.585 136.589C158.81 136.502 159.023 136.421 159.208 136.328C159.534 136.165 159.856 136.017 160.193 135.872L161.018 135.413C161.172 135.337 161.319 135.246 161.456 135.142C161.549 135.073 161.642 135.008 161.746 134.939C162.393 134.489 162.859 132.911 162.985 132.352L163.461 130.673C163.483 130.58 163.506 130.47 163.528 130.363C163.55 130.255 163.569 130.16 163.591 130.067L163.861 128.834L164.157 127.602L164.398 126.294C164.459 125.943 164.523 125.598 164.601 125.254C164.7 124.735 164.803 124.197 164.884 123.632C165.071 122.553 165.381 119.82 165.833 115.265C166.079 112.803 166.358 109.869 166.624 107.076C167.496 97.798 174.225 90.9067 184.62 88.638C184.642 88.638 186.625 88.2204 189.5 87.7764L189.615 88.3846C189.191 88.4839 188.782 88.5873 188.399 88.6928C188.016 88.7982 187.606 88.9239 187.221 89.0557C186.268 89.3657 185.342 89.7543 184.453 90.2174C184.319 90.2843 184.186 90.3532 184.048 90.4202C183.873 90.5175 183.717 90.6026 183.569 90.6999C183.421 90.7973 183.267 90.8865 183.125 90.9818L183.107 90.9939C183.032 91.0426 182.959 91.0933 182.886 91.144L182.665 91.294C181.823 91.9022 181.065 92.6194 180.411 93.4269C180.293 93.5627 180.208 93.6742 180.127 93.7857C179.498 94.6405 178.991 95.578 178.618 96.5714C178.574 96.6809 178.539 96.7742 178.505 96.8796C178.47 96.985 178.422 97.1087 178.387 97.2304C178.328 97.3926 178.282 97.5446 178.241 97.7007C178.138 98.0859 178.059 98.4103 177.994 98.7266C177.957 98.8868 177.929 99.0388 177.905 99.1909C177.88 99.343 177.85 99.5133 177.826 99.6734C177.801 99.8336 177.777 100.004 177.761 100.164C177.323 103.832 175.571 106.526 173.878 109.131C172.42 111.374 170.914 113.693 170.164 116.688C170.015 117.252 169.9 117.825 169.821 118.403C168.807 125.623 169.957 128.433 171.695 132.686C172.366 134.329 173.126 136.19 173.862 138.58C174.647 141.127 172.745 149.216 168.207 162.626L168.151 162.792L167.978 162.826C166.456 163.133 165.14 163.345 163.976 163.479C161.619 163.773 159.247 163.92 156.872 163.919ZM185.301 89.1287L184.731 89.2422C174.61 91.4481 168.059 98.1407 167.212 107.143C166.948 109.936 166.669 112.87 166.421 115.333C165.969 119.903 165.657 122.653 165.468 123.735C165.387 124.299 165.282 124.842 165.182 125.357C165.115 125.7 165.051 126.04 164.99 126.389L164.744 127.719L164.446 128.96L164.179 130.193C164.157 130.29 164.136 130.383 164.118 130.476C164.1 130.57 164.069 130.71 164.041 130.819L163.569 132.49C163.522 132.705 163.045 134.76 162.07 135.44C161.965 135.505 161.886 135.561 161.805 135.62C161.643 135.741 161.47 135.848 161.29 135.938L160.454 136.401C160.1 136.557 159.787 136.701 159.473 136.855C159.253 136.963 159.027 137.058 158.796 137.141C158.668 137.189 158.54 137.238 158.415 137.291C156.841 137.905 155.228 138.417 153.587 138.821C151.965 139.227 151.171 146.984 152.03 154.173C152.703 159.779 154.188 163.274 155.903 163.297C158.579 163.342 161.255 163.199 163.911 162.869C165.024 162.743 166.263 162.543 167.694 162.261C173.242 145.838 173.799 140.415 173.288 138.757C172.56 136.391 171.806 134.541 171.139 132.911C169.43 128.723 168.193 125.696 169.225 118.314C169.309 117.713 169.428 117.118 169.582 116.532C170.356 113.44 171.891 111.078 173.377 108.793C175.109 106.129 176.743 103.613 177.163 100.089C177.181 99.9248 177.205 99.7626 177.23 99.6004C177.254 99.4383 177.282 99.2436 177.315 99.0814C177.347 98.9192 177.369 98.759 177.408 98.5908C177.473 98.2704 177.556 97.9339 177.663 97.5385C177.706 97.369 177.757 97.2018 177.817 97.0378C177.85 96.9202 177.895 96.7904 177.941 96.6667C177.988 96.543 178.016 96.4518 178.061 96.3444C178.451 95.3022 178.983 94.319 179.642 93.4228C179.727 93.3012 179.827 93.1755 179.95 93.0315C180.64 92.1836 181.439 91.4297 182.324 90.7892C182.408 90.7344 182.479 90.6858 182.55 90.6351L182.752 90.4972L182.821 90.4303H182.86C182.989 90.3451 183.119 90.264 183.265 90.1829C183.411 90.1018 183.594 89.9802 183.76 89.893C183.926 89.8058 184.046 89.7329 184.188 89.6639C184.54 89.4747 184.911 89.2963 185.301 89.1287Z" fill="black"/>
<path d="M247.655 126.678L247.563 128.008L245.97 150.332L245.282 182L158 177.276C158 177.276 163.751 164.772 168.404 152.812C172.009 143.536 174.958 134.586 174.057 132.039C171.456 124.68 168.583 123.201 170.002 114.359C170.083 113.846 170.2 113.338 170.351 112.837C172.001 107.106 177.143 104.308 177.94 98.4862C178.776 92.3857 183.196 89.3654 190.038 87.9938C193.519 87.3001 197.627 87.0265 202.204 87C202.492 87 202.788 87 203.082 87C203.282 87 203.485 87 203.69 87C204.919 87 206.178 87.0212 207.47 87.0547L207.991 87.0865C208.802 87.15 210.505 87.3001 212.829 87.6408C212.874 87.6453 212.919 87.6523 212.963 87.662C247.999 87.8296 249.015 107.699 247.655 126.678Z" fill="#2755CB"/>
<path d="M245.269 182L244.951 181.984L157 177.265L157.157 176.928C157.213 176.803 162.974 164.365 167.584 152.616C173.199 138.291 173.764 133.566 173.249 132.125C172.519 130.077 171.763 128.476 171.096 127.065C169.38 123.439 168.139 120.819 169.174 114.429C169.259 113.909 169.378 113.394 169.532 112.886C170.309 110.209 171.848 108.165 173.339 106.187C175.075 103.881 176.714 101.702 177.135 98.6521C177.928 92.9006 181.859 89.5133 189.501 87.9934C192.74 87.3545 196.752 87.0298 201.771 87C202.058 87 202.356 87 202.653 87C202.857 87 203.06 87 203.263 87C204.528 87 205.805 87.0228 207.06 87.0544L207.595 87.086C209.142 87.2071 210.781 87.3949 212.475 87.6406L212.597 87.6582C225.408 87.7231 234.445 90.3399 240.201 95.6597C248.587 103.405 248.443 115.757 247.65 126.725L247.558 128.046L245.958 150.243L245.269 182ZM157.878 176.786L244.671 181.442L245.348 150.227L247.04 126.697C247.825 115.836 247.973 103.614 239.754 96.0212C234.111 90.8086 225.215 88.2461 212.556 88.1864L212.473 88.1759C212.449 88.1759 212.42 88.1759 212.396 88.1654C210.694 87.9179 209.069 87.7319 207.544 87.6125L207.027 87.5809C205.791 87.5511 204.518 87.5336 203.255 87.5283C203.055 87.5283 202.851 87.5283 202.645 87.5283C202.354 87.5283 202.064 87.5283 201.779 87.5283C196.799 87.5581 192.832 87.8793 189.635 88.5094C182.278 89.9714 178.498 93.2148 177.739 98.717C177.302 101.889 175.545 104.221 173.847 106.476C172.385 108.417 170.874 110.425 170.122 113.018C169.972 113.506 169.858 114.002 169.778 114.502C168.762 120.752 169.915 123.185 171.657 126.867C172.33 128.289 173.093 129.9 173.831 131.969C174.618 134.174 172.711 141.176 168.16 152.785C163.971 163.466 158.832 174.711 157.878 176.786Z" fill="black"/>
<path d="M211.591 68.0088L189.013 71.8893L192.008 80.4411V80.4695L192.835 82.8254L193.624 85.09L193.788 85.5584L194.71 87.6142C194.71 87.6142 195.592 91.1521 202.698 91.1521C209.805 91.1521 212.351 87.675 212.351 87.675L211.591 68.0088Z" fill="white"/>
<path d="M202.709 91.4562C195.708 91.4562 194.544 88.0968 194.435 87.7156L193.52 85.6882L193.346 85.1955L191.724 80.5749L188.6 71.6542L211.873 67.652L212.645 87.7703L212.582 87.8555C212.485 88.0015 209.89 91.4562 202.709 91.4562ZM189.419 72.1286L194.082 85.457L195.012 87.5392C195.012 87.5717 195.959 90.848 202.705 90.848C208.963 90.848 211.605 88.0745 212.031 87.5737L211.293 68.3677L189.419 72.1286Z" fill="black"/>
<path d="M212.315 61.1013C212.814 71.7069 206.979 80.4634 196.803 83.4985C189.014 85.822 182.998 82.5598 173.907 62.9017C169.447 53.2652 181.611 43.2942 192.211 42.7975C194.733 42.6792 197.253 43.0588 199.629 43.9146C202.004 44.7704 204.187 46.0857 206.054 47.7854C207.921 49.4851 209.435 51.5359 210.509 53.8206C211.583 56.1054 212.197 58.5794 212.315 61.1013Z" fill="white"/>
<path d="M192.777 84.4615C186.867 84.4615 181.303 79.6159 173.631 63.0293C172.082 59.68 172.381 56.0691 174.493 52.5859C177.844 47.0632 185.291 42.8177 192.197 42.4933C194.759 42.373 197.319 42.7586 199.732 43.6278C202.144 44.4971 204.362 45.833 206.259 47.5594C208.155 49.2858 209.693 51.3689 210.784 53.6896C211.876 56.0103 212.499 58.5233 212.619 61.085C213.134 72.0433 207.107 80.7512 196.89 83.7924C195.559 84.2128 194.173 84.4381 192.777 84.4615ZM193.133 43.0792C192.831 43.0792 192.525 43.0792 192.225 43.1015C185.506 43.4158 178.266 47.5376 175.012 52.9022C173.011 56.2029 172.723 59.6171 174.183 62.7738C183.414 82.7321 189.435 85.3779 196.716 83.2065C206.65 80.2444 212.512 71.7777 212.011 61.1073C211.786 56.25 209.699 51.6659 206.184 48.3061C202.67 44.9463 197.996 43.0687 193.133 43.063V43.0792Z" fill="black"/>
<path d="M195.495 88.8692C195.132 88.5258 194.865 88.093 194.721 87.6142C194.427 86.6998 193.125 84.1229 193.125 84.1229C193.125 84.1229 202.518 84.1472 208.953 74.5432C208.953 74.5432 210.324 84.573 195.495 88.8692Z" fill="black"/>
<path d="M218.474 124.183C218.474 124.183 216.244 147.892 193.537 158.001C193.537 158.001 211.309 155.12 216.345 144.417C221.382 133.714 218.474 124.183 218.474 124.183Z" fill="black"/>
<path d="M195.913 173.316L193.174 157.731L193.5 157.699C193.632 157.685 206.896 156.239 214.229 146.996C218.251 141.928 219.786 135.44 218.795 127.735L219.403 127.658C220.417 135.535 218.839 142.167 214.709 147.369C207.863 155.996 196 157.969 193.892 158.255L196.424 172.668C202.572 172.149 208.653 171.027 214.582 169.318C223.502 166.709 235.193 161.549 240.174 151.803C249.752 133.051 246.127 110.632 246.09 110.407L246.688 110.305C246.727 110.532 250.388 133.145 240.715 152.071C235.635 162.005 223.786 167.254 214.742 169.898C208.687 171.647 202.471 172.782 196.189 173.286L195.913 173.316Z" fill="black"/>
<path d="M162.054 173.021L196.166 172.998C195.495 172.991 194.843 173.219 194.323 173.643C194.088 173.827 193.898 174.061 193.765 174.328C193.633 174.596 193.563 174.89 193.559 175.188C193.559 176.404 194.735 177.382 196.168 177.382L126.019 177.428C124.583 177.428 123.409 176.441 123.407 175.234C123.413 174.937 123.485 174.644 123.617 174.377C123.749 174.11 123.938 173.875 124.172 173.69C124.691 173.265 125.344 173.037 126.015 173.045L162.054 173.021Z" fill="white"/>
<path d="M126.02 181.732C124.415 181.732 123.109 180.613 123.107 179.234C123.112 178.892 123.193 178.555 123.344 178.247C123.495 177.94 123.713 177.67 123.981 177.456C124.552 176.988 125.27 176.735 126.008 176.741L162.044 176.716L196.154 176.694V177.302C195.554 177.294 194.971 177.497 194.506 177.876C194.305 178.032 194.142 178.231 194.029 178.458C193.916 178.685 193.855 178.934 193.851 179.188C193.856 179.443 193.918 179.693 194.032 179.921C194.146 180.149 194.309 180.349 194.51 180.506C194.973 180.884 195.556 181.086 196.154 181.077V181.686L126.004 181.732H126.02ZM162.054 177.325L126.018 177.349C125.419 177.341 124.836 177.544 124.372 177.923C124.173 178.079 124.01 178.278 123.897 178.505C123.783 178.732 123.721 178.981 123.715 179.234C123.715 180.277 124.749 181.124 126.02 181.124L194.266 181.077C194.22 181.043 194.175 181.008 194.13 180.97C193.858 180.76 193.638 180.49 193.486 180.182C193.334 179.873 193.256 179.534 193.256 179.19C193.256 178.846 193.334 178.507 193.486 178.198C193.638 177.89 193.858 177.62 194.13 177.41C194.173 177.373 194.218 177.337 194.264 177.302L162.054 177.325Z" fill="black"/>
<path d="M234.406 176.972C234.987 176.972 235.545 177.203 235.956 177.614C236.367 178.025 236.597 178.582 236.597 179.163C236.597 179.745 236.367 180.302 235.956 180.713C235.545 181.124 234.987 181.355 234.406 181.355L195.724 181.382C195.143 181.38 194.585 181.148 194.174 180.737C193.763 180.326 193.531 179.769 193.528 179.188C193.526 178.9 193.582 178.615 193.693 178.35C193.803 178.085 193.966 177.844 194.171 177.643C194.374 177.439 194.615 177.277 194.881 177.166C195.147 177.055 195.432 176.998 195.72 176.998L233.591 176.974L234.406 176.972Z" fill="white"/>
<path d="M195.726 181.686C195.064 181.685 194.43 181.421 193.961 180.953C193.493 180.485 193.23 179.85 193.229 179.188C193.227 178.86 193.29 178.535 193.416 178.233C193.542 177.93 193.727 177.656 193.96 177.426C194.192 177.194 194.467 177.009 194.769 176.884C195.072 176.758 195.397 176.694 195.724 176.694L234.408 176.668C235.07 176.668 235.705 176.931 236.173 177.399C236.641 177.867 236.904 178.502 236.904 179.164C236.904 179.825 236.641 180.46 236.173 180.928C235.705 181.396 235.07 181.659 234.408 181.659L195.726 181.686ZM234.408 177.276L195.726 177.302C195.478 177.302 195.232 177.35 195.002 177.446C194.773 177.541 194.565 177.681 194.39 177.858C194.213 178.031 194.073 178.238 193.978 178.466C193.883 178.695 193.835 178.94 193.837 179.188C193.839 179.688 194.039 180.168 194.393 180.522C194.746 180.876 195.226 181.075 195.726 181.077L234.408 181.051C234.909 181.05 235.39 180.85 235.744 180.496C236.098 180.141 236.297 179.661 236.298 179.159C236.295 178.66 236.095 178.181 235.741 177.828C235.387 177.476 234.908 177.277 234.408 177.276Z" fill="black"/>
<path d="M198.037 171.849C197.748 172.207 197.383 172.495 196.968 172.694C196.553 172.892 196.099 172.996 195.639 172.996H192.873C193.333 172.995 193.788 172.892 194.203 172.693C194.618 172.495 194.983 172.206 195.272 171.848C195.562 171.49 195.767 171.072 195.875 170.625C195.982 170.177 195.988 169.712 195.892 169.262L186.702 125.469C186.551 124.774 186.167 124.151 185.614 123.703C185.061 123.256 184.372 123.01 183.661 123.007H186.426C187.137 123.01 187.826 123.256 188.379 123.703C188.932 124.151 189.316 124.774 189.467 125.469L198.658 169.262C198.756 169.712 198.751 170.178 198.643 170.626C198.536 171.074 198.329 171.492 198.037 171.849Z" fill="#2755CB"/>
<path d="M192.874 177.302V176.694C193.289 176.693 193.698 176.6 194.073 176.421C194.447 176.242 194.777 175.982 195.038 175.659C195.298 175.336 195.484 174.959 195.581 174.556C195.677 174.152 195.683 173.732 195.597 173.326L186.404 129.534C186.268 128.908 185.922 128.347 185.424 127.943C184.926 127.54 184.306 127.319 183.665 127.316V126.707H186.433C187.212 126.711 187.968 126.98 188.574 127.47C189.181 127.961 189.602 128.644 189.768 129.406L198.958 173.199C199.063 173.693 199.057 174.204 198.939 174.695C198.821 175.186 198.595 175.645 198.277 176.037C197.959 176.43 197.557 176.747 197.101 176.965C196.645 177.183 196.147 177.296 195.641 177.296L192.874 177.302ZM185.589 127.316C186.307 127.808 186.809 128.557 186.992 129.408L196.183 173.201C196.288 173.695 196.282 174.206 196.164 174.697C196.046 175.188 195.819 175.647 195.501 176.039C195.299 176.288 195.063 176.507 194.8 176.69H195.631C196.046 176.689 196.455 176.596 196.829 176.416C197.203 176.237 197.532 175.977 197.793 175.655C198.054 175.333 198.24 174.956 198.337 174.553C198.434 174.15 198.439 173.73 198.354 173.324L189.163 129.532C189.027 128.906 188.68 128.345 188.182 127.942C187.684 127.539 187.063 127.318 186.422 127.316H185.589Z" fill="black"/>
<path d="M195.272 175.851C194.983 176.209 194.618 176.497 194.203 176.696C193.788 176.895 193.334 176.998 192.874 176.998L126.302 177.043C125.591 177.04 124.902 176.795 124.349 176.347C123.796 175.9 123.412 175.277 123.261 174.582L114.071 130.789C113.978 130.339 113.987 129.873 114.096 129.427C114.205 128.981 114.412 128.564 114.702 128.208C114.992 127.851 115.358 127.563 115.772 127.365C116.187 127.167 116.64 127.064 117.1 127.062L183.663 127.018C184.374 127.021 185.063 127.266 185.616 127.714C186.169 128.161 186.553 128.784 186.704 129.479L195.895 173.272C195.991 173.721 195.985 174.186 195.877 174.632C195.769 175.079 195.563 175.495 195.272 175.851Z" fill="white"/>
<path d="M126.3 177.343C125.52 177.339 124.764 177.07 124.158 176.579C123.552 176.088 123.131 175.405 122.965 174.642L113.775 130.849C113.673 130.355 113.681 129.844 113.801 129.353C113.92 128.862 114.146 128.404 114.464 128.011C114.781 127.617 115.182 127.299 115.638 127.081C116.095 126.862 116.594 126.749 117.1 126.75L183.663 126.705C184.443 126.709 185.199 126.978 185.805 127.469C186.412 127.96 186.832 128.643 186.998 129.406L196.188 173.199C196.294 173.693 196.288 174.204 196.17 174.695C196.052 175.186 195.825 175.645 195.507 176.037C195.189 176.43 194.788 176.747 194.332 176.965C193.876 177.183 193.377 177.296 192.872 177.296L126.3 177.341V177.343ZM183.665 127.312L117.102 127.356C116.687 127.355 116.277 127.448 115.903 127.627C115.529 127.806 115.2 128.067 114.941 128.39C114.679 128.713 114.492 129.09 114.394 129.494C114.296 129.898 114.288 130.319 114.373 130.726L123.563 174.519C123.7 175.144 124.046 175.704 124.543 176.107C125.041 176.51 125.66 176.731 126.3 176.735L192.872 176.69C193.286 176.689 193.696 176.596 194.07 176.416C194.444 176.237 194.774 175.977 195.035 175.654C195.295 175.332 195.481 174.955 195.578 174.552C195.675 174.148 195.68 173.728 195.594 173.322L186.402 129.53C186.265 128.905 185.919 128.345 185.422 127.943C184.924 127.54 184.305 127.319 183.665 127.316V127.312Z" fill="black"/>
<path d="M155.326 151.634C157.311 151.439 158.762 149.673 158.568 147.688C158.374 145.703 156.607 144.252 154.623 144.446C152.638 144.64 151.186 146.407 151.381 148.392C151.575 150.376 153.341 151.828 155.326 151.634Z" fill="#2755CB"/>
<path d="M154.985 151.941C154.463 151.953 153.944 151.86 153.459 151.669C152.974 151.478 152.532 151.191 152.159 150.827C151.786 150.462 151.489 150.027 151.287 149.546C151.085 149.065 150.98 148.549 150.98 148.027C150.98 147.505 151.085 146.989 151.287 146.508C151.489 146.028 151.786 145.592 152.159 145.227C152.532 144.863 152.974 144.576 153.459 144.385C153.944 144.194 154.463 144.101 154.985 144.113C156.022 144.114 157.016 144.526 157.75 145.26C158.484 145.993 158.897 146.987 158.9 148.024C158.899 149.062 158.487 150.057 157.753 150.792C157.02 151.526 156.025 151.939 154.987 151.941H154.985ZM154.985 144.721C154.544 144.71 154.105 144.788 153.694 144.949C153.284 145.11 152.909 145.352 152.594 145.66C152.278 145.968 152.027 146.336 151.856 146.743C151.684 147.149 151.596 147.586 151.596 148.027C151.596 148.468 151.684 148.905 151.856 149.311C152.027 149.718 152.278 150.086 152.594 150.394C152.909 150.702 153.284 150.944 153.694 151.105C154.105 151.266 154.544 151.344 154.985 151.333C155.861 151.331 156.701 150.982 157.321 150.362C157.941 149.741 158.289 148.901 158.289 148.024C158.287 147.148 157.938 146.309 157.319 145.69C156.7 145.071 155.86 144.723 154.985 144.721Z" fill="black"/>
<path d="M212.629 56.5841C212.629 56.5841 188.679 64.552 175.829 51.704C175.829 51.704 183.995 60.9837 189.648 59.9922C189.648 59.9922 181.633 62.4799 175.829 53.3625C175.829 53.3625 174.217 61.75 170.049 63.4612C170.049 63.4612 166.239 40.1009 186.365 37.1997C206.492 34.2984 211.654 47.3673 212.629 56.5841Z" fill="black"/>
<path d="M196.166 172.998C196.166 172.998 242.009 179.52 246.343 154.021C246.343 154.021 247.846 124.96 247.11 125.274C246.536 125.521 246.627 153.658 229.339 163.325C212.051 172.992 196.166 172.998 196.166 172.998Z" fill="black"/>
<path d="M103.178 61.9857L110.329 72.4047L86.6749 68.3174C81.3573 68.1679 76.2559 66.1804 72.2389 62.6931C68.2218 59.2058 65.5372 54.4342 64.6421 49.1905C63.7469 43.9468 64.6965 38.5548 67.3293 33.9324C69.962 29.31 74.1151 25.7426 79.0819 23.8375C84.0487 21.9324 89.5222 21.8073 94.5708 23.4834C99.6194 25.1596 103.931 28.5334 106.772 33.0307C109.614 37.528 110.809 42.8709 110.154 48.15C109.5 53.4292 107.036 58.3185 103.182 61.9857H103.178Z" fill="white"/>
<path d="M110.984 72.8265L86.642 68.6216C81.2653 68.4662 76.1077 66.4565 72.0433 62.9331C67.9789 59.4097 65.2578 54.5894 64.3411 49.2892C63.4244 43.9889 64.3686 38.5346 67.0135 33.8509C69.6585 29.1671 73.8415 25.5419 78.8537 23.5898C83.8659 21.6376 89.399 21.4784 94.5151 23.1394C99.6312 24.8003 104.016 28.1791 106.925 32.7031C109.835 37.2271 111.091 42.618 110.481 47.9622C109.87 53.3064 107.43 58.2752 103.575 62.0263L110.984 72.8265ZM87.3253 22.6269C81.4311 22.7337 75.8095 25.1285 71.649 29.305C67.4885 33.4816 65.1154 39.1125 65.0314 45.007C64.9474 50.9016 67.1591 56.5978 71.1989 60.8912C75.2386 65.1846 80.7898 67.7387 86.6785 68.0134H86.7252L109.668 71.979L102.774 61.9391L102.963 61.7607C105.202 59.6502 106.983 57.1022 108.196 54.2747C109.409 51.4473 110.028 48.4008 110.014 45.3242C110.008 39.308 107.615 33.5402 103.362 29.2853C99.1085 25.0305 93.3414 22.636 87.3253 22.6269Z" fill="black"/>
<path d="M74.2607 49.9589C75.6939 49.9589 76.8558 48.7971 76.8558 47.3638C76.8558 45.9306 75.6939 44.7687 74.2607 44.7687C72.8274 44.7687 71.6655 45.9306 71.6655 47.3638C71.6655 48.7971 72.8274 49.9589 74.2607 49.9589Z" fill="#2755CB"/>
<path d="M74.2606 50.263C73.6872 50.263 73.1266 50.0929 72.6498 49.7744C72.1731 49.4558 71.8015 49.003 71.582 48.4732C71.3626 47.9435 71.3052 47.3605 71.417 46.7981C71.5289 46.2357 71.805 45.7191 72.2105 45.3137C72.616 44.9082 73.1326 44.6321 73.695 44.5202C74.2574 44.4083 74.8403 44.4657 75.3701 44.6852C75.8998 44.9046 76.3526 45.2762 76.6712 45.753C76.9898 46.2298 77.1598 46.7903 77.1598 47.3637C77.1593 48.1325 76.8537 48.8696 76.3101 49.4132C75.7665 49.9568 75.0293 50.2624 74.2606 50.263ZM74.2606 45.0727C73.8075 45.0727 73.3645 45.2071 72.9878 45.4588C72.611 45.7106 72.3174 46.0684 72.144 46.487C71.9706 46.9056 71.9252 47.3663 72.0136 47.8107C72.102 48.2551 72.3202 48.6633 72.6406 48.9837C72.961 49.3041 73.3692 49.5223 73.8136 49.6107C74.258 49.6991 74.7187 49.6538 75.1373 49.4804C75.5559 49.307 75.9138 49.0133 76.1655 48.6365C76.4172 48.2598 76.5516 47.8169 76.5516 47.3637C76.55 46.757 76.308 46.1756 75.8785 45.747C75.4491 45.3183 74.8673 45.0773 74.2606 45.0768V45.0727Z" fill="black"/>
<path d="M87.6684 49.9589C89.1016 49.9589 90.2635 48.7971 90.2635 47.3638C90.2635 45.9306 89.1016 44.7687 87.6684 44.7687C86.2351 44.7687 85.0732 45.9306 85.0732 47.3638C85.0732 48.7971 86.2351 49.9589 87.6684 49.9589Z" fill="#2755CB"/>
<path d="M87.6678 50.263C87.0944 50.263 86.5338 50.0929 86.0571 49.7744C85.5803 49.4558 85.2087 49.003 84.9892 48.4732C84.7698 47.9435 84.7124 47.3605 84.8243 46.7981C84.9361 46.2357 85.2123 45.7191 85.6177 45.3137C86.0232 44.9082 86.5398 44.6321 87.1022 44.5202C87.6646 44.4083 88.2475 44.4657 88.7773 44.6852C89.3071 44.9046 89.7599 45.2762 90.0784 45.753C90.397 46.2298 90.5671 46.7903 90.5671 47.3637C90.5665 48.1325 90.2609 48.8696 89.7173 49.4132C89.1737 49.9568 88.4366 50.2624 87.6678 50.263ZM87.6678 45.0727C87.2147 45.0727 86.7717 45.2071 86.395 45.4588C86.0182 45.7106 85.7246 46.0684 85.5512 46.487C85.3778 46.9056 85.3324 47.3663 85.4208 47.8107C85.5092 48.2551 85.7274 48.6633 86.0478 48.9837C86.3682 49.3041 86.7764 49.5223 87.2208 49.6107C87.6653 49.6991 88.1259 49.6538 88.5445 49.4804C88.9632 49.307 89.321 49.0133 89.5727 48.6365C89.8245 48.2598 89.9588 47.8169 89.9588 47.3637C89.9572 46.757 89.7152 46.1756 89.2858 45.747C88.8564 45.3183 88.2746 45.0773 87.6678 45.0768V45.0727Z" fill="black"/>
<path d="M100.392 49.9589C101.826 49.9589 102.988 48.7971 102.988 47.3638C102.988 45.9306 101.826 44.7687 100.392 44.7687C98.9592 44.7687 97.7974 45.9306 97.7974 47.3638C97.7974 48.7971 98.9592 49.9589 100.392 49.9589Z" fill="#2755CB"/>
<path d="M100.394 50.263C99.8209 50.263 99.2604 50.0929 98.7836 49.7744C98.3069 49.4558 97.9352 49.003 97.7158 48.4732C97.4964 47.9435 97.439 47.3605 97.5508 46.7981C97.6627 46.2357 97.9388 45.7191 98.3443 45.3137C98.7498 44.9082 99.2664 44.6321 99.8288 44.5202C100.391 44.4083 100.974 44.4657 101.504 44.6852C102.034 44.9046 102.486 45.2762 102.805 45.753C103.124 46.2298 103.294 46.7903 103.294 47.3637C103.293 48.1325 102.987 48.8696 102.444 49.4132C101.9 49.9568 101.163 50.2624 100.394 50.263ZM100.394 45.0727C99.9412 45.0727 99.4983 45.2071 99.1215 45.4588C98.7448 45.7106 98.4511 46.0684 98.2777 46.487C98.1043 46.9056 98.059 47.3663 98.1474 47.8107C98.2358 48.2551 98.454 48.6633 98.7744 48.9837C99.0948 49.3041 99.503 49.5223 99.9474 49.6107C100.392 49.6991 100.852 49.6538 101.271 49.4804C101.69 49.307 102.048 49.0133 102.299 48.6365C102.551 48.2598 102.685 47.8169 102.685 47.3637C102.684 46.757 102.442 46.1756 102.012 45.747C101.583 45.3183 101.001 45.0773 100.394 45.0768V45.0727Z" fill="black"/>
<rect x="141" y="140" width="23" height="18" fill="white"/>
<path d="M150.092 151.325C150.949 151.325 151.701 151.09 152.338 150.63C152.976 150.169 153.425 149.525 153.665 148.686H152.004C151.837 149.065 151.586 149.351 151.241 149.545C150.897 149.74 150.51 149.842 150.092 149.842C149.465 149.842 148.943 149.627 148.535 149.208C148.128 148.789 147.919 148.247 147.919 147.602C147.919 146.958 148.128 146.426 148.535 145.997C148.943 145.577 149.465 145.362 150.092 145.362C150.521 145.362 150.907 145.465 151.252 145.669C151.597 145.874 151.847 146.16 152.004 146.528H153.665C153.425 145.69 152.976 145.035 152.338 144.575C151.701 144.115 150.949 143.89 150.092 143.89C148.985 143.89 148.076 144.248 147.376 144.953C146.665 145.659 146.31 146.549 146.31 147.602C146.31 148.666 146.665 149.556 147.376 150.261C148.076 150.967 148.985 151.325 150.092 151.325ZM156.709 151.315C157.555 151.315 158.255 151.049 158.809 150.507C159.362 149.965 159.634 149.3 159.634 148.492C159.634 147.684 159.362 147.009 158.809 146.467C158.255 145.925 157.555 145.659 156.709 145.659C155.862 145.659 155.162 145.925 154.609 146.467C154.055 147.009 153.773 147.684 153.773 148.492C153.773 149.3 154.044 149.965 154.598 150.507C155.152 151.049 155.852 151.315 156.709 151.315ZM155.716 149.494C155.455 149.228 155.319 148.891 155.319 148.492C155.319 148.083 155.455 147.745 155.716 147.48C155.977 147.214 156.301 147.081 156.709 147.081C157.116 147.081 157.44 147.214 157.701 147.48C157.962 147.745 158.088 148.083 158.088 148.492C158.088 148.891 157.962 149.228 157.701 149.494C157.44 149.76 157.116 149.893 156.709 149.893C156.301 149.893 155.977 149.76 155.716 149.494ZM163.592 153.534C164.167 153.534 164.627 153.401 164.95 153.125C165.274 152.849 165.431 152.43 165.431 151.867V145.792H163.916V146.344H163.801C163.676 146.211 163.561 146.109 163.456 146.017C163.342 145.935 163.185 145.853 162.965 145.772C162.746 145.7 162.506 145.659 162.234 145.659C161.524 145.659 160.928 145.935 160.458 146.477C159.977 147.019 159.737 147.694 159.737 148.482C159.737 149.29 159.988 149.955 160.489 150.497C160.98 151.039 161.586 151.315 162.307 151.315C162.945 151.315 163.436 151.1 163.791 150.681H163.906V151.795C163.906 152.041 163.791 152.164 163.561 152.164H161.106V153.534H163.592ZM162.61 149.903C162.245 149.903 161.931 149.77 161.68 149.505C161.419 149.239 161.294 148.901 161.294 148.482C161.294 148.073 161.419 147.735 161.68 147.469C161.931 147.214 162.245 147.081 162.61 147.081C162.986 147.081 163.3 147.203 163.55 147.459C163.801 147.715 163.927 148.062 163.927 148.482C163.927 148.881 163.801 149.218 163.561 149.494C163.31 149.77 162.997 149.903 162.61 149.903ZM167.478 151.182V148.052C167.478 147.776 167.572 147.551 167.749 147.367C167.927 147.193 168.146 147.101 168.418 147.101C168.679 147.101 168.899 147.193 169.076 147.367C169.243 147.541 169.327 147.766 169.327 148.042V151.182H170.852V147.561C170.852 147.019 170.675 146.569 170.319 146.201C169.954 145.843 169.494 145.659 168.919 145.659C168.324 145.659 167.885 145.864 167.582 146.283H167.478V145.792H165.952V151.182H167.478ZM174.05 151.315C174.896 151.315 175.596 151.049 176.15 150.507C176.704 149.965 176.976 149.3 176.976 148.492C176.976 147.684 176.704 147.009 176.15 146.467C175.596 145.925 174.896 145.659 174.05 145.659C173.204 145.659 172.504 145.925 171.95 146.467C171.396 147.009 171.114 147.684 171.114 148.492C171.114 149.3 171.386 149.965 171.94 150.507C172.493 151.049 173.193 151.315 174.05 151.315ZM173.058 149.494C172.796 149.228 172.661 148.891 172.661 148.492C172.661 148.083 172.796 147.745 173.058 147.48C173.319 147.214 173.643 147.081 174.05 147.081C174.458 147.081 174.782 147.214 175.043 147.48C175.304 147.745 175.429 148.083 175.429 148.492C175.429 148.891 175.304 149.228 175.043 149.494C174.782 149.76 174.458 149.893 174.05 149.893C173.643 149.893 173.319 149.76 173.058 149.494Z" fill="#2D2C2C"/>
<path d="M149.269 159.372C150.573 159.372 151.618 158.619 151.985 157.514H151.233C150.941 158.267 150.18 158.75 149.277 158.75C147.982 158.75 147.012 157.76 147.012 156.402C147.012 155.06 147.982 154.054 149.277 154.054C150.18 154.054 150.924 154.544 151.233 155.289H151.985C151.601 154.209 150.581 153.432 149.277 153.432C147.581 153.432 146.31 154.716 146.31 156.402C146.31 158.104 147.572 159.372 149.269 159.372ZM154.546 159.372C155.85 159.372 156.82 158.414 156.82 157.138C156.82 155.862 155.867 154.904 154.555 154.904C153.259 154.904 152.281 155.854 152.281 157.138C152.281 158.431 153.242 159.372 154.546 159.372ZM154.546 158.783C153.619 158.783 152.958 158.095 152.958 157.138C152.958 156.205 153.61 155.494 154.546 155.494C155.482 155.494 156.143 156.197 156.143 157.138C156.143 158.087 155.482 158.783 154.546 158.783ZM157.401 159.265H160.009C160.995 159.265 161.814 158.668 161.814 157.637C161.814 156.827 161.263 156.418 160.87 156.287V156.238C161.338 155.993 161.614 155.567 161.614 155.003C161.614 154.168 160.954 153.538 159.842 153.538H157.401V154.103H157.953V158.701H157.401V159.265ZM158.63 156.017V154.127H159.842C160.469 154.127 160.92 154.487 160.92 155.052C160.92 155.633 160.477 156.017 159.817 156.017H158.63ZM158.63 158.684V156.574H159.817C160.494 156.574 161.112 156.868 161.112 157.621C161.112 158.357 160.586 158.684 159.892 158.684H158.63ZM162.485 159.265H163.145V156.991C163.145 156.181 163.471 155.551 164.265 155.551H164.658V154.904H164.374C163.739 154.904 163.312 155.363 163.187 155.723H163.137V155.011H162.485V159.265ZM167.008 159.372C168.311 159.372 169.281 158.414 169.281 157.138C169.281 155.862 168.328 154.904 167.016 154.904C165.72 154.904 164.743 155.854 164.743 157.138C164.743 158.431 165.704 159.372 167.008 159.372ZM167.008 158.783C166.08 158.783 165.42 158.095 165.42 157.138C165.42 156.205 166.071 155.494 167.008 155.494C167.944 155.494 168.604 156.197 168.604 157.138C168.604 158.087 167.944 158.783 167.008 158.783ZM170.717 159.265H171.636L172.689 155.616H172.74L173.784 159.265H174.704L176.066 155.011H175.347L174.278 158.66H174.227L173.174 155.011H172.255L171.193 158.66H171.143L170.082 155.011H169.363L170.717 159.265ZM178.008 159.372C179.02 159.372 179.697 158.832 179.697 158.03C179.697 156.271 177.089 157.171 177.089 156.091C177.089 155.723 177.44 155.461 177.983 155.461C178.551 155.461 178.969 155.764 179.028 156.263L179.605 156.099C179.504 155.33 178.777 154.904 178.025 154.904C177.114 154.904 176.454 155.371 176.454 156.091C176.454 157.776 179.053 156.868 179.053 158.063C179.053 158.496 178.694 158.807 178.042 158.807C177.381 158.807 176.972 158.513 176.922 157.94L176.32 158.087C176.42 158.848 177.03 159.372 178.008 159.372ZM182.306 159.372C183.309 159.372 184.028 158.807 184.271 158.014L183.627 157.866C183.485 158.455 182.925 158.799 182.315 158.799C181.412 158.799 180.844 158.267 180.835 157.318H184.329V157.081C184.329 155.804 183.577 154.904 182.265 154.904C181.111 154.904 180.158 155.796 180.158 157.154C180.158 158.464 180.986 159.372 182.306 159.372ZM180.852 156.794C180.902 155.993 181.554 155.485 182.265 155.485C182.983 155.485 183.61 155.911 183.652 156.794H180.852Z" fill="#7B43FF"/>
<path fill-rule="evenodd" clip-rule="evenodd" d="M129 147.206C129 145.719 130.231 144.514 131.75 144.514H141.712C143.231 144.514 144.463 145.719 144.463 147.206V156.958C144.463 158.445 143.231 159.65 141.712 159.65H131.75C130.231 159.65 129 158.445 129 156.958V147.206ZM133.531 153.999H137.826C138.822 153.999 139.63 154.789 139.63 155.765C139.63 156.74 138.822 157.53 137.826 157.53H133.531C132.535 157.53 131.727 156.74 131.727 155.765C131.727 154.789 132.535 153.999 133.531 153.999ZM132.485 152.44C132.653 152.502 132.648 152.734 132.477 152.789L132.043 152.93L132.441 153.329C132.528 153.415 132.525 153.552 132.436 153.635C132.347 153.719 132.204 153.716 132.118 153.63L131.693 153.205L131.456 153.565C131.364 153.703 131.146 153.668 131.106 153.508L130.758 152.109C130.722 151.964 130.87 151.839 131.015 151.893L132.485 152.44ZM137.036 148.549H141.331C142.327 148.549 143.135 149.34 143.135 150.315C143.135 151.291 142.327 152.081 141.331 152.081H137.036C136.039 152.081 135.232 151.291 135.232 150.315C135.232 149.34 136.039 148.549 137.036 148.549ZM135.99 146.991C136.158 147.053 136.153 147.285 135.982 147.34L135.547 147.481L135.946 147.879C136.032 147.966 136.03 148.103 135.941 148.186C135.851 148.269 135.709 148.267 135.623 148.181L135.198 147.756L134.96 148.115C134.869 148.254 134.65 148.218 134.611 148.059L134.263 146.66C134.227 146.515 134.375 146.39 134.519 146.443L135.99 146.991Z" fill="url(#paint0_linear)"/>
</g>
<defs>
<linearGradient id="paint0_linear" x1="130.463" y1="145.332" x2="142.693" y2="159.908" gradientUnits="userSpaceOnUse">
<stop stop-color="#BE4EFF"/>
<stop offset="1" stop-color="#7033FF"/>
</linearGradient>
<clipPath id="clip0">
<rect width="299" height="223.778" fill="white"/>
</clipPath>
</defs>
</svg>
