<svg width="50" height="50" viewBox="0 0 50 50" fill="none" xmlns="http://www.w3.org/2000/svg">
<path d="M25 6.25C28.6698 6.25 32.2571 7.33821 35.3084 9.37703C38.3597 11.4158 40.7379 14.3137 42.1423 17.7041C43.5466 21.0945 43.9141 24.8253 43.1982 28.4245C42.4822 32.0238 40.7151 35.3299 38.1201 37.9248C35.5252 40.5198 32.2191 42.2869 28.6198 43.0029C25.0206 43.7188 21.2898 43.3513 17.8994 41.947C14.509 40.5426 11.6112 38.1644 9.57234 35.1131C7.53352 32.0618 6.44531 28.4745 6.44531 24.8047C6.45048 19.8853 8.407 15.1688 11.8856 11.6903C15.3641 8.21169 20.0806 6.25517 25 6.25V6.25ZM25 3.71094C20.828 3.71094 16.7498 4.94806 13.2809 7.26588C9.81208 9.58369 7.10845 12.8781 5.51191 16.7325C3.91537 20.5868 3.49765 24.8281 4.31155 28.9199C5.12546 33.0117 7.13445 36.7702 10.0845 39.7202C13.0345 42.6702 16.793 44.6792 20.8848 45.4931C24.9766 46.307 29.2178 45.8893 33.0722 44.2928C36.9266 42.6962 40.221 39.9926 42.5388 36.5237C44.8566 33.0549 46.0937 28.9766 46.0937 24.8047C46.0937 19.2103 43.8714 13.845 39.9155 9.88915C35.9597 5.93331 30.5944 3.71094 25 3.71094V3.71094Z" fill="url(#paint0_linear_222_12865)"/>
<path d="M25.4219 6.25C26.2383 6.25 27.6797 7.67969 28.9102 10.8164C30.3594 14.5117 31.1563 19.4805 31.1563 24.8047C31.1563 30.1289 30.375 35.0977 28.9102 38.793C27.6797 41.918 26.2422 43.3594 25.4219 43.3594C24.6016 43.3594 23.1641 41.9297 21.9336 38.793C20.4883 35.0977 19.6875 30.1289 19.6875 24.8047C19.6875 19.4805 20.4688 14.5117 21.9336 10.8164C23.168 7.67578 24.6094 6.25 25.4219 6.25ZM25.4219 3.71094C20.8516 3.71094 17.1484 13.1563 17.1484 24.8047C17.1484 36.4531 20.8516 45.8984 25.4219 45.8984C29.9922 45.8984 33.6953 36.4531 33.6953 24.8047C33.6953 13.1563 29.9922 3.71094 25.4219 3.71094V3.71094Z" fill="url(#paint1_linear_222_12865)"/>
<path fill-rule="evenodd" clip-rule="evenodd" d="M43.9453 32.6641H6.89844V30.125H43.9453V32.6641Z" fill="url(#paint2_linear_222_12865)"/>
<path fill-rule="evenodd" clip-rule="evenodd" d="M43.9453 19.4805H6.89844V16.9414H43.9453V19.4805Z" fill="url(#paint3_linear_222_12865)"/>
<defs>
<linearGradient id="paint0_linear_222_12865" x1="7.89694" y1="5.99133" x2="42.103" y2="45.8984" gradientUnits="userSpaceOnUse">
<stop stop-color="#BE4EFF"/>
<stop offset="1" stop-color="#7033FF"/>
</linearGradient>
<linearGradient id="paint1_linear_222_12865" x1="18.7137" y1="5.99133" x2="44.9067" y2="17.9771" gradientUnits="userSpaceOnUse">
<stop stop-color="#BE4EFF"/>
<stop offset="1" stop-color="#7033FF"/>
</linearGradient>
<linearGradient id="paint2_linear_222_12865" x1="10.4029" y1="31.4156" x2="10.4087" y2="32.0566" gradientUnits="userSpaceOnUse">
<stop stop-color="#BE4EFF"/>
<stop offset="1" stop-color="#8F5FFF"/>
</linearGradient>
<linearGradient id="paint3_linear_222_12865" x1="10.4029" y1="18.2321" x2="10.4087" y2="18.873" gradientUnits="userSpaceOnUse">
<stop stop-color="#BE4EFF"/>
<stop offset="1" stop-color="#8F5FFF"/>
</linearGradient>
</defs>
</svg>
