<svg width="41" height="54" viewBox="0 0 41 54" fill="none" xmlns="http://www.w3.org/2000/svg">
<path d="M29.0671 0H1.39495C0.624535 0 0 0.624535 0 1.83642V52.4419C0 52.7708 0.624535 53.3953 1.39495 53.3953H39.605C40.3755 53.3953 41 52.7708 41 52.4419V12.3744C41 11.7107 40.9113 11.4972 40.755 11.3398L29.6602 0.245046C29.5028 0.0886744 29.2893 0 29.0671 0Z" fill="#E9E9E0"/>
<path d="M29.5581 0.143799V11.4417H40.856L29.5581 0.143799Z" fill="#D9D7CA"/>
<path d="M12.4084 31.7734C12.0766 31.7734 11.7582 31.6657 11.4864 31.4626C10.4938 30.7179 10.3604 29.8893 10.4233 29.3248C10.5968 27.7726 12.5162 26.1478 16.1299 24.4926C17.564 21.3499 18.9284 17.4778 19.7417 14.2426C18.7901 12.1716 17.8653 9.48466 18.5394 7.90855C18.7758 7.35648 19.0705 6.93313 19.6206 6.75006C19.838 6.67759 20.3872 6.58606 20.5894 6.58606C21.0699 6.58606 21.4923 7.20487 21.7917 7.58627C22.073 7.94478 22.7109 8.70471 21.4361 14.0719C22.7214 16.7264 24.5425 19.4305 26.2874 21.2822C27.5375 21.0562 28.613 20.9408 29.4892 20.9408C30.9824 20.9408 31.8873 21.2889 32.2563 22.0059C32.5614 22.5989 32.4365 23.2921 31.8844 24.0654C31.3533 24.8082 30.621 25.201 29.7677 25.201C28.6082 25.201 27.2581 24.4687 25.7525 23.0223C23.0475 23.5877 19.8886 24.5965 17.3351 25.713C16.538 27.4045 15.7743 28.7671 15.063 29.7663C14.0856 31.1346 13.2428 31.7734 12.4084 31.7734ZM14.9466 26.8858C12.909 28.031 12.0785 28.9721 12.0185 29.5022C12.0089 29.5899 11.9832 29.8207 12.4294 30.162C12.5715 30.1172 13.401 29.7387 14.9466 26.8858ZM27.9494 22.6504C28.7265 23.2483 28.9162 23.5505 29.4244 23.5505C29.6475 23.5505 30.2835 23.541 30.5781 23.13C30.7202 22.9308 30.7755 22.803 30.7974 22.7343C30.6801 22.6724 30.5247 22.5465 29.6771 22.5465C29.1956 22.5475 28.5901 22.5684 27.9494 22.6504ZM20.8268 16.3746C20.1451 18.7335 19.245 21.2803 18.2772 23.5868C20.27 22.8135 22.4363 22.1384 24.471 21.6607C23.1838 20.1656 21.8976 18.2987 20.8268 16.3746ZM20.248 8.30615C20.1546 8.33762 18.9799 9.98143 20.3396 11.3726C21.2444 9.35594 20.289 8.2928 20.248 8.30615Z" fill="#CC4B4C"/>
<path d="M39.605 53.3948H1.39495C0.624535 53.3948 0 52.7703 0 51.9999V37.1855H41V51.9999C41 52.7703 40.3755 53.3948 39.605 53.3948Z" fill="#CC4B4C"/>
<path d="M10.3786 50.5352H8.81396V40.9279H11.5772C11.9853 40.9279 12.3895 40.9927 12.7891 41.1233C13.1886 41.254 13.5471 41.4494 13.8646 41.7097C14.1821 41.97 14.4386 42.2856 14.6341 42.6546C14.8295 43.0236 14.9277 43.4384 14.9277 43.8999C14.9277 44.3871 14.8448 44.8276 14.6798 45.2233C14.5149 45.619 14.2841 45.9518 13.9885 46.2207C13.693 46.4896 13.3364 46.6984 12.9197 46.8462C12.503 46.9939 12.0415 47.0674 11.5381 47.0674H10.3777V50.5352H10.3786ZM10.3786 42.114V45.9203H11.8127C12.0034 45.9203 12.1922 45.8879 12.38 45.8221C12.5669 45.7573 12.7385 45.6505 12.8949 45.5027C13.0513 45.3549 13.1771 45.149 13.2725 44.8839C13.3678 44.6188 13.4155 44.2908 13.4155 43.8999C13.4155 43.7435 13.3936 43.5623 13.3507 43.3593C13.3068 43.1552 13.2181 42.9597 13.0837 42.7729C12.9483 42.586 12.7595 42.4296 12.5164 42.3037C12.2732 42.1779 11.9509 42.1149 11.5514 42.1149H10.3786V42.114Z" fill="white"/>
<path d="M24.5227 45.4646C24.5227 46.255 24.4379 46.931 24.2682 47.4917C24.0984 48.0523 23.8839 48.5214 23.6226 48.9C23.3614 49.2785 23.0687 49.576 22.7426 49.7934C22.4165 50.0108 22.1018 50.1729 21.7977 50.2825C21.4935 50.3912 21.2151 50.4608 20.9634 50.4913C20.7116 50.5199 20.5248 50.5352 20.4027 50.5352H16.7661V40.9279H19.66C20.4685 40.9279 21.1789 41.0566 21.791 41.3121C22.4031 41.5676 22.9123 41.91 23.3166 42.3352C23.7209 42.7605 24.0222 43.2458 24.2224 43.7883C24.4226 44.3318 24.5227 44.8906 24.5227 45.4646ZM19.8821 49.3882C20.9424 49.3882 21.7071 49.0497 22.1762 48.3717C22.6453 47.6938 22.8799 46.7117 22.8799 45.4255C22.8799 45.0259 22.8322 44.6303 22.7369 44.2393C22.6406 43.8484 22.4565 43.4946 22.1829 43.1771C21.9092 42.8596 21.5374 42.6031 21.0683 42.4077C20.5991 42.2122 19.9908 42.114 19.2433 42.114H18.3308V49.3882H19.8821V49.3882Z" fill="white"/>
<path d="M28.3819 42.114V45.1385H32.3971V46.2073H28.3819V50.5352H26.7915V40.9279H32.8004V42.114H28.3819Z" fill="white"/>
</svg>
