<svg width="42" height="38" viewBox="0 0 42 38" fill="none" xmlns="http://www.w3.org/2000/svg">
<path d="M10.7002 29.9639C7.9596 29.9639 5.51953 28.2096 4.63341 25.5949L4.57433 25.3971C4.36628 24.7036 4.27639 24.1232 4.27639 23.5401V11.8663L0.125708 25.7362C-0.408538 27.7756 0.808925 29.892 2.85087 30.4545L29.3294 37.5461C29.6582 37.6334 29.9895 37.6719 30.3132 37.6719C32.0186 37.6719 33.5777 36.5418 34.0118 34.8723L35.5529 29.9665H10.7002V29.9639Z" fill="#69A3FF"/>
<path d="M15.4082 11.9846C17.296 11.9846 18.832 10.4486 18.832 8.56076C18.832 6.67292 17.296 5.13696 15.4082 5.13696C13.5203 5.13696 11.9844 6.67292 11.9844 8.56076C11.9844 10.4486 13.5203 11.9846 15.4082 11.9846Z" fill="#69A3FF"/>
<path d="M36.8113 0H11.1264C8.76596 0 6.84473 1.92123 6.84473 4.28167V23.1164C6.84473 25.4768 8.76596 27.3981 11.1264 27.3981H36.8113C39.1717 27.3981 41.093 25.4768 41.093 23.1164V4.28167C41.093 1.91866 39.1717 0 36.8113 0V0ZM11.1264 3.4238H36.8113C37.2839 3.4238 37.6666 3.8065 37.6666 4.2791V16.4358L32.2574 10.125C31.6846 9.45204 30.8524 9.09245 29.9611 9.0719C29.075 9.07704 28.2402 9.47002 27.6726 10.1532L21.3156 17.7868L19.2454 15.7166C18.0742 14.5454 16.1683 14.5454 14.9971 15.7166L10.2711 20.4426V4.2791C10.2711 3.8065 10.6538 3.4238 11.1264 3.4238V3.4238Z" fill="#69A3FF"/>
</svg>
