<svg width="148" height="50" viewBox="0 0 148 50" fill="none" xmlns="http://www.w3.org/2000/svg">
<path d="M69.0537 22.04C71.2404 22.04 73.1604 21.4267 74.7871 20.2267C76.4137 19.0267 77.5604 17.3467 78.1737 15.16H73.9337C73.5071 16.1467 72.8671 16.8933 71.9871 17.4C71.1071 17.9067 70.1204 18.1733 69.0537 18.1733C67.4537 18.1733 66.1204 17.6133 65.0804 16.52C64.0404 15.4267 63.5071 14.0133 63.5071 12.3333C63.5071 10.6533 64.0404 9.26665 65.0804 8.14666C66.1204 7.05332 67.4537 6.49332 69.0537 6.49332C70.1471 6.49332 71.1337 6.75999 72.0137 7.29332C72.8937 7.82665 73.5337 8.57332 73.9337 9.53332H78.1737C77.5604 7.34665 76.4137 5.63999 74.7871 4.43999C73.1604 3.23999 71.2404 2.65332 69.0537 2.65332C66.2271 2.65332 63.9071 3.58665 62.1204 5.42665C60.3071 7.26665 59.4004 9.58666 59.4004 12.3333C59.4004 15.1067 60.3071 17.4267 62.1204 19.2667C63.9071 21.1067 66.2271 22.04 69.0537 22.04Z" fill="#2D2C2C"/>
<path d="M85.9416 22.0133C88.1016 22.0133 89.8883 21.32 91.3016 19.9067C92.715 18.4933 93.4083 16.76 93.4083 14.6533C93.4083 12.5467 92.715 10.7867 91.3016 9.37332C89.8883 7.95999 88.1016 7.26665 85.9416 7.26665C83.7816 7.26665 81.995 7.95999 80.5816 9.37332C79.1683 10.7867 78.4483 12.5467 78.4483 14.6533C78.4483 16.76 79.1416 18.4933 80.555 19.9067C81.9683 21.32 83.755 22.0133 85.9416 22.0133ZM83.4083 17.2667C82.7416 16.5733 82.395 15.6933 82.395 14.6533C82.395 13.5867 82.7416 12.7067 83.4083 12.0133C84.075 11.32 84.9016 10.9733 85.9416 10.9733C86.9816 10.9733 87.8083 11.32 88.475 12.0133C89.1416 12.7067 89.4616 13.5867 89.4616 14.6533C89.4616 15.6933 89.1416 16.5733 88.475 17.2667C87.8083 17.96 86.9816 18.3067 85.9416 18.3067C84.9016 18.3067 84.075 17.96 83.4083 17.2667Z" fill="#2D2C2C"/>
<path d="M103.511 27.8C104.978 27.8 106.151 27.4533 106.978 26.7333C107.805 26.0133 108.205 24.92 108.205 23.4533V7.61332H104.338V9.05332H104.045C103.725 8.70665 103.431 8.43999 103.165 8.19999C102.871 7.98666 102.471 7.77332 101.911 7.55999C101.351 7.37332 100.738 7.26665 100.045 7.26665C98.2312 7.26665 96.7112 7.98665 95.5112 9.39999C94.2846 10.8133 93.6712 12.5733 93.6712 14.6267C93.6712 16.7333 94.3112 18.4667 95.5912 19.88C96.8446 21.2933 98.3912 22.0133 100.231 22.0133C101.858 22.0133 103.111 21.4533 104.018 20.36H104.311V23.2667C104.311 23.9067 104.018 24.2267 103.431 24.2267H97.1646V27.8H103.511ZM101.005 18.3333C100.071 18.3333 99.2712 17.9867 98.6312 17.2933C97.9646 16.6 97.6446 15.72 97.6446 14.6267C97.6446 13.56 97.9646 12.68 98.6312 11.9867C99.2712 11.32 100.071 10.9733 101.005 10.9733C101.965 10.9733 102.765 11.2933 103.405 11.96C104.045 12.6267 104.365 13.5333 104.365 14.6267C104.365 15.6667 104.045 16.5467 103.431 17.2667C102.791 17.9867 101.991 18.3333 101.005 18.3333Z" fill="#2D2C2C"/>
<path d="M113.428 21.6667V13.5067C113.428 12.7867 113.668 12.2 114.121 11.72C114.575 11.2667 115.135 11.0267 115.828 11.0267C116.495 11.0267 117.055 11.2667 117.508 11.72C117.935 12.1733 118.148 12.76 118.148 13.48V21.6667H122.041V12.2267C122.041 10.8133 121.588 9.63999 120.681 8.67999C119.748 7.74665 118.575 7.26665 117.108 7.26665C115.588 7.26665 114.468 7.79999 113.695 8.89332H113.428V7.61332H109.535V21.6667H113.428Z" fill="#2D2C2C"/>
<path d="M130.204 22.0133C132.364 22.0133 134.151 21.32 135.564 19.9067C136.977 18.4933 137.671 16.76 137.671 14.6533C137.671 12.5467 136.977 10.7867 135.564 9.37332C134.151 7.95999 132.364 7.26665 130.204 7.26665C128.044 7.26665 126.257 7.95999 124.844 9.37332C123.431 10.7867 122.711 12.5467 122.711 14.6533C122.711 16.76 123.404 18.4933 124.817 19.9067C126.231 21.32 128.017 22.0133 130.204 22.0133ZM127.671 17.2667C127.004 16.5733 126.657 15.6933 126.657 14.6533C126.657 13.5867 127.004 12.7067 127.671 12.0133C128.337 11.32 129.164 10.9733 130.204 10.9733C131.244 10.9733 132.071 11.32 132.737 12.0133C133.404 12.7067 133.724 13.5867 133.724 14.6533C133.724 15.6933 133.404 16.5733 132.737 17.2667C132.071 17.96 131.244 18.3067 130.204 18.3067C129.164 18.3067 128.337 17.96 127.671 17.2667Z" fill="#2D2C2C"/>
<path d="M67.76 43.97C71.4 43.97 74.3167 41.8234 75.3433 38.6734H73.2433C72.4267 40.82 70.3033 42.1967 67.7833 42.1967C64.1667 42.1967 61.46 39.3734 61.46 35.5C61.46 31.6734 64.1667 28.8034 67.7833 28.8034C70.3033 28.8034 72.38 30.2034 73.2433 32.3267H75.3433C74.27 29.2467 71.4233 27.03 67.7833 27.03C63.0467 27.03 59.5 30.6934 59.5 35.5C59.5 40.3534 63.0233 43.97 67.76 43.97Z" fill="#0354D6"/>
<path d="M77.103 43.6667H78.9463V36.2934C78.9463 34.3334 80.533 32.9567 82.3997 32.9567C84.103 32.9567 85.573 34.2167 85.573 36.1534V43.6667H87.4163V36.0367C87.4163 33.3534 85.6663 31.23 82.843 31.23C80.953 31.23 79.5997 32.21 79.0863 33.3067H78.9463V26.1667H77.103V43.6667Z" fill="#0354D6"/>
<path d="M94.9834 43.97C97.6201 43.97 98.7401 42.2434 99.0434 41.7534H99.1834V41.87C99.2068 42.92 99.9534 43.6667 100.957 43.6667H102.147V42.0334H101.587C101.213 42.0334 100.98 41.8467 100.98 41.4734V31.5334H99.1134V33.4934H98.9734C98.6234 32.8634 97.3634 31.23 94.8434 31.23C91.3901 31.23 89.0568 33.89 89.0568 37.6234C89.0568 41.3334 91.5068 43.97 94.9834 43.97ZM95.0768 42.3134C92.7434 42.3134 90.9468 40.47 90.9468 37.6467C90.9468 34.87 92.6734 32.91 95.0534 32.91C97.3168 32.91 99.1834 34.6367 99.1834 37.6467C99.1834 40.19 97.6201 42.3134 95.0768 42.3134Z" fill="#0354D6"/>
<path d="M109.051 43.6667H110.778V42.0567H109.028C107.744 42.0567 107.208 41.4967 107.208 40.19V33.0967H110.941V31.5334H107.208V28.01H105.481V31.5334H103.078V33.0967H105.364V40.2134C105.364 42.6634 106.834 43.6667 109.051 43.6667Z" fill="#0354D6"/>
<path d="M112.683 43.6667H119.963C122.716 43.6667 125.003 41.9634 125.003 39.0234C125.003 36.7134 123.463 35.5467 122.366 35.1734V35.0334C123.673 34.3334 124.443 33.12 124.443 31.51C124.443 29.13 122.599 27.3334 119.496 27.3334H112.683V28.9434H114.223V42.0567H112.683V43.6667ZM116.113 34.4034V29.0134H119.496C121.246 29.0134 122.506 30.04 122.506 31.65C122.506 33.3067 121.269 34.4034 119.426 34.4034H116.113ZM116.113 42.01V35.99H119.426C121.316 35.99 123.043 36.83 123.043 38.9767C123.043 41.0767 121.573 42.01 119.636 42.01H116.113Z" fill="#0354D6"/>
<path d="M132.264 43.97C135.904 43.97 138.611 41.24 138.611 37.6C138.611 33.96 135.951 31.23 132.287 31.23C128.671 31.23 125.941 33.9367 125.941 37.6C125.941 41.2867 128.624 43.97 132.264 43.97ZM132.264 42.29C129.674 42.29 127.831 40.33 127.831 37.6C127.831 34.94 129.651 32.91 132.264 32.91C134.877 32.91 136.721 34.9167 136.721 37.6C136.721 40.3067 134.877 42.29 132.264 42.29Z" fill="#0354D6"/>
<path d="M145.274 43.6667H147.001V42.0567H145.251C143.968 42.0567 143.431 41.4967 143.431 40.19V33.0967H147.164V31.5334H143.431V28.01H141.704V31.5334H139.301V33.0967H141.588V40.2134C141.588 42.6634 143.058 43.6667 145.274 43.6667Z" fill="#0354D6"/>
<path d="M0 8.89333C0 3.982 3.982 0 8.89333 0H41.1067C46.018 0 50 3.982 50 8.89333V41.1067C50 46.018 46.018 50 41.1067 50H8.89333C3.982 50 0 46.018 0 41.1067V8.89333Z" fill="url(#paint0_linear)"/>
<path d="M38 25C38 17.8202 32.1798 12 25 12C17.8202 12 12 17.8202 12 25C12 32.1798 17.8202 38 25 38H32.4533C35.5168 38 38 35.5168 38 32.4533V25Z" fill="url(#paint1_linear)"/>
<path d="M36.3594 26.7333C36.3594 25.7762 35.5832 25 34.626 25H20.066C19.1089 25 18.3327 25.7762 18.3327 26.7333C18.3327 27.6905 19.1089 28.4667 20.066 28.4667H34.626C35.5832 28.4667 36.3594 27.6905 36.3594 26.7333Z" fill="#3360FF"/>
<path d="M36.1201 32.0667C36.1201 31.1096 35.3439 30.3334 34.3868 30.3334H26.0668C25.1096 30.3334 24.3335 31.1096 24.3335 32.0667C24.3335 33.0239 25.1096 33.8 26.0668 33.8H34.3868C35.3439 33.8 36.1201 33.0239 36.1201 32.0667Z" fill="#3360FF"/>
<defs>
<linearGradient id="paint0_linear" x1="-8" y1="3.31371" x2="27.3553" y2="38.669" gradientUnits="userSpaceOnUse">
<stop stop-color="#55FFE0"/>
<stop offset="1" stop-color="#3360FF"/>
</linearGradient>
<linearGradient id="paint1_linear" x1="41.8521" y1="13.7151" x2="22.5303" y2="31.1125" gradientUnits="userSpaceOnUse">
<stop stop-color="white"/>
<stop offset="1" stop-color="white"/>
</linearGradient>
</defs>
</svg>
