<svg width="134" height="44" viewBox="0 0 134 44" fill="none" xmlns="http://www.w3.org/2000/svg">
<path d="M50.4699 20.35C52.5199 20.35 54.3199 19.775 55.8449 18.65C57.3699 17.525 58.4449 15.95 59.0199 13.9H55.0449C54.6449 14.825 54.0449 15.525 53.2199 16C52.3949 16.475 51.4699 16.725 50.4699 16.725C48.9699 16.725 47.7199 16.2 46.7449 15.175C45.7699 14.15 45.2699 12.825 45.2699 11.25C45.2699 9.675 45.7699 8.375 46.7449 7.325C47.7199 6.3 48.9699 5.775 50.4699 5.775C51.4949 5.775 52.4199 6.025 53.2449 6.525C54.0699 7.025 54.6699 7.725 55.0449 8.625H59.0199C58.4449 6.575 57.3699 4.975 55.8449 3.85C54.3199 2.725 52.5199 2.175 50.4699 2.175C47.8199 2.175 45.6449 3.05 43.9699 4.775C42.2699 6.5 41.4199 8.675 41.4199 11.25C41.4199 13.85 42.2699 16.025 43.9699 17.75C45.6449 19.475 47.8199 20.35 50.4699 20.35ZM66.3023 20.325C68.3273 20.325 70.0023 19.675 71.3273 18.35C72.6523 17.025 73.3023 15.4 73.3023 13.425C73.3023 11.45 72.6523 9.8 71.3273 8.475C70.0023 7.15 68.3273 6.5 66.3023 6.5C64.2773 6.5 62.6023 7.15 61.2773 8.475C59.9523 9.8 59.2773 11.45 59.2773 13.425C59.2773 15.4 59.9273 17.025 61.2523 18.35C62.5773 19.675 64.2523 20.325 66.3023 20.325ZM63.9273 15.875C63.3023 15.225 62.9773 14.4 62.9773 13.425C62.9773 12.425 63.3023 11.6 63.9273 10.95C64.5523 10.3 65.3273 9.975 66.3023 9.975C67.2773 9.975 68.0523 10.3 68.6773 10.95C69.3023 11.6 69.6023 12.425 69.6023 13.425C69.6023 14.4 69.3023 15.225 68.6773 15.875C68.0523 16.525 67.2773 16.85 66.3023 16.85C65.3273 16.85 64.5523 16.525 63.9273 15.875ZM82.7738 25.75C84.1488 25.75 85.2488 25.425 86.0238 24.75C86.7988 24.075 87.1738 23.05 87.1738 21.675V6.825H83.5488V8.175H83.2738C82.9738 7.85 82.6988 7.6 82.4488 7.375C82.1738 7.175 81.7988 6.975 81.2738 6.775C80.7488 6.6 80.1738 6.5 79.5238 6.5C77.8238 6.5 76.3988 7.175 75.2738 8.5C74.1238 9.825 73.5488 11.475 73.5488 13.4C73.5488 15.375 74.1488 17 75.3488 18.325C76.5238 19.65 77.9738 20.325 79.6988 20.325C81.2238 20.325 82.3988 19.8 83.2488 18.775H83.5238V21.5C83.5238 22.1 83.2488 22.4 82.6988 22.4H76.8238V25.75H82.7738ZM80.4238 16.875C79.5488 16.875 78.7988 16.55 78.1988 15.9C77.5738 15.25 77.2738 14.425 77.2738 13.4C77.2738 12.4 77.5738 11.575 78.1988 10.925C78.7988 10.3 79.5488 9.975 80.4238 9.975C81.3238 9.975 82.0738 10.275 82.6738 10.9C83.2738 11.525 83.5738 12.375 83.5738 13.4C83.5738 14.375 83.2738 15.2 82.6988 15.875C82.0988 16.55 81.3488 16.875 80.4238 16.875ZM92.0709 20V12.35C92.0709 11.675 92.2959 11.125 92.7209 10.675C93.1459 10.25 93.6709 10.025 94.3209 10.025C94.9459 10.025 95.4709 10.25 95.8959 10.675C96.2959 11.1 96.4959 11.65 96.4959 12.325V20H100.146V11.15C100.146 9.825 99.7209 8.725 98.8709 7.825C97.9959 6.95 96.8959 6.5 95.5209 6.5C94.0959 6.5 93.0459 7 92.3209 8.025H92.0709V6.825H88.4209V20H92.0709ZM107.798 20.325C109.823 20.325 111.498 19.675 112.823 18.35C114.148 17.025 114.798 15.4 114.798 13.425C114.798 11.45 114.148 9.8 112.823 8.475C111.498 7.15 109.823 6.5 107.798 6.5C105.773 6.5 104.098 7.15 102.773 8.475C101.448 9.8 100.773 11.45 100.773 13.425C100.773 15.4 101.423 17.025 102.748 18.35C104.073 19.675 105.748 20.325 107.798 20.325ZM105.423 15.875C104.798 15.225 104.473 14.4 104.473 13.425C104.473 12.425 104.798 11.6 105.423 10.95C106.048 10.3 106.823 9.975 107.798 9.975C108.773 9.975 109.548 10.3 110.173 10.95C110.798 11.6 111.098 12.425 111.098 13.425C111.098 14.4 110.798 15.225 110.173 15.875C109.548 16.525 108.773 16.85 107.798 16.85C106.823 16.85 106.048 16.525 105.423 15.875Z" fill="#2D2C2C"/>
<path d="M48.4999 40.0198C51.6199 40.0198 54.1199 38.1798 54.9999 35.4798H53.1999C52.4999 37.3198 50.6799 38.4998 48.5199 38.4998C45.4199 38.4998 43.0999 36.0798 43.0999 32.7598C43.0999 29.4798 45.4199 27.0198 48.5199 27.0198C50.6799 27.0198 52.4599 28.2198 53.1999 30.0398H54.9999C54.0799 27.3998 51.6399 25.4998 48.5199 25.4998C44.4599 25.4998 41.4199 28.6398 41.4199 32.7598C41.4199 36.9198 44.4399 40.0198 48.4999 40.0198ZM61.1282 40.0198C64.2482 40.0198 66.5682 37.6798 66.5682 34.5598C66.5682 31.4398 64.2882 29.0998 61.1482 29.0998C58.0482 29.0998 55.7082 31.4198 55.7082 34.5598C55.7082 37.7198 58.0082 40.0198 61.1282 40.0198ZM61.1282 38.5798C58.9082 38.5798 57.3282 36.8998 57.3282 34.5598C57.3282 32.2798 58.8882 30.5398 61.1282 30.5398C63.3682 30.5398 64.9482 32.2598 64.9482 34.5598C64.9482 36.8798 63.3682 38.5798 61.1282 38.5798ZM67.9598 39.7598H74.1998C76.5598 39.7598 78.5198 38.2998 78.5198 35.7798C78.5198 33.7998 77.1998 32.7998 76.2598 32.4798V32.3598C77.3798 31.7598 78.0398 30.7198 78.0398 29.3398C78.0398 27.2998 76.4598 25.7598 73.7998 25.7598H67.9598V27.1398H69.2798V38.3798H67.9598V39.7598ZM70.8998 31.8198V27.1998H73.7998C75.2998 27.1998 76.3798 28.0798 76.3798 29.4598C76.3798 30.8798 75.3198 31.8198 73.7398 31.8198H70.8998ZM70.8998 38.3398V33.1798H73.7398C75.3598 33.1798 76.8398 33.8998 76.8398 35.7398C76.8398 37.5398 75.5798 38.3398 73.9198 38.3398H70.8998ZM80.1238 39.7598H81.7038V34.1998C81.7038 32.2198 82.4838 30.6798 84.3838 30.6798H85.3238V29.0998H84.6438C83.1238 29.0998 82.1038 30.2198 81.8038 31.0998H81.6838V29.3598H80.1238V39.7598ZM90.9462 40.0198C94.0662 40.0198 96.3862 37.6798 96.3862 34.5598C96.3862 31.4398 94.1062 29.0998 90.9662 29.0998C87.8662 29.0998 85.5262 31.4198 85.5262 34.5598C85.5262 37.7198 87.8262 40.0198 90.9462 40.0198ZM90.9462 38.5798C88.7262 38.5798 87.1462 36.8998 87.1462 34.5598C87.1462 32.2798 88.7062 30.5398 90.9462 30.5398C93.1862 30.5398 94.7662 32.2598 94.7662 34.5598C94.7662 36.8798 93.1862 38.5798 90.9462 38.5798ZM99.8224 39.7598H102.022L104.542 30.8398H104.662L107.162 39.7598H109.362L112.622 29.3598H110.902L108.342 38.2798H108.222L105.702 29.3598H103.502L100.962 38.2798H100.842L98.3024 29.3598H96.5824L99.8224 39.7598ZM117.269 40.0198C119.689 40.0198 121.309 38.6998 121.309 36.7398C121.309 32.4398 115.069 34.6398 115.069 31.9998C115.069 31.0998 115.909 30.4598 117.209 30.4598C118.569 30.4598 119.569 31.1998 119.709 32.4198L121.089 32.0198C120.849 30.1398 119.109 29.0998 117.309 29.0998C115.129 29.0998 113.549 30.2398 113.549 31.9998C113.549 36.1198 119.769 33.8998 119.769 36.8198C119.769 37.8798 118.909 38.6398 117.349 38.6398C115.769 38.6398 114.789 37.9198 114.669 36.5198L113.229 36.8798C113.469 38.7398 114.929 40.0198 117.269 40.0198ZM127.554 40.0198C129.954 40.0198 131.674 38.6398 132.254 36.6998L130.714 36.3398C130.374 37.7798 129.034 38.6198 127.574 38.6198C125.414 38.6198 124.054 37.3198 124.034 34.9998H132.394V34.4198C132.394 31.2998 130.594 29.0998 127.454 29.0998C124.694 29.0998 122.414 31.2798 122.414 34.5998C122.414 37.7998 124.394 40.0198 127.554 40.0198ZM124.074 33.7198C124.194 31.7598 125.754 30.5198 127.454 30.5198C129.174 30.5198 130.674 31.5598 130.774 33.7198H124.074Z" fill="#7B43FF"/>
<path fill-rule="evenodd" clip-rule="evenodd" d="M0 10.2813C0 6.64688 2.94668 3.7002 6.58107 3.7002H30.4189C34.0533 3.7002 37 6.64688 37 10.2813V34.1191C37 37.7535 34.0533 40.7002 30.4189 40.7002H6.58107C2.94668 40.7002 0 37.7535 0 34.1191V10.2813ZM10.8418 26.8858H21.12C23.5037 26.8858 25.4366 28.8187 25.4366 31.2025C25.4366 33.5867 23.5037 35.5191 21.12 35.5191H10.8418C8.45806 35.5191 6.52518 33.5867 6.52518 31.2025C6.52518 28.8187 8.45806 26.8858 10.8418 26.8858ZM8.33865 23.0751C8.74159 23.2283 8.72884 23.7947 8.31945 23.93L7.28055 24.2734L8.23466 25.2479C8.44096 25.4585 8.43497 25.7942 8.22145 25.9977C8.00777 26.201 7.66751 26.1952 7.4612 25.9845L6.44351 24.9451L5.87605 25.8245C5.65761 26.1629 5.13409 26.0767 5.03916 25.6865L4.20702 22.2677C4.12039 21.9117 4.47447 21.606 4.82102 21.7376L8.33865 23.0751ZM19.2282 13.5655H29.5063C31.8901 13.5655 33.8229 15.4984 33.8229 17.8822C33.8229 20.2664 31.8901 22.1988 29.5063 22.1988H19.2282C16.8444 22.1988 14.9115 20.2664 14.9115 17.8822C14.9115 15.4984 16.8444 13.5655 19.2282 13.5655ZM16.725 9.7548C17.1279 9.90796 17.1152 10.4744 16.7058 10.6097L15.6669 10.9531L16.621 11.9276C16.8273 12.1382 16.8213 12.4739 16.6078 12.6774C16.3941 12.8807 16.0538 12.8749 15.8475 12.6642L14.8298 11.6248L14.2624 12.5042C14.0439 12.8426 13.5204 12.7564 13.4255 12.3662L12.5933 8.94736C12.5067 8.59136 12.8608 8.28565 13.2073 8.4173L16.725 9.7548Z" fill="url(#paint0_linear)"/>
<defs>
<linearGradient id="paint0_linear" x1="3.5" y1="5.70019" x2="33.5" y2="40.7002" gradientUnits="userSpaceOnUse">
<stop stop-color="#BE4EFF"/>
<stop offset="1" stop-color="#7033FF"/>
</linearGradient>
</defs>
</svg>
