<svg width="30" height="38" viewBox="0 0 30 38" fill="none" xmlns="http://www.w3.org/2000/svg">
<path d="M16 9.75V0H9.25C6.90279 0 5 1.90279 5 4.25V28.75C5 31.0972 6.90279 33 9.25 33H25.75C28.0972 33 30 31.0972 30 28.75V14H20.25C17.9028 14 16 12.0972 16 9.75Z" fill="white" style="
    fill: black;
"></path>
<path d="M18.5 9.75V0.5L29.5 11.5H20.25C19.2835 11.5 18.5 10.7165 18.5 9.75Z" fill="white" style="
    fill: black;
"></path>
<path d="M0 8.70002C0 7.02133 1.03408 5.58417 2.5 4.99078V28.75C2.5 32.478 5.52208 35.5 9.25 35.5H25.0092C24.4159 36.9659 22.9787 38 21.3 38H9.25C4.14137 38 0 33.8587 0 28.75V8.70002Z" fill="white" style="
    fill: black;
"></path>
</svg>

