<svg width="249" height="75" viewBox="0 0 249 75" fill="none" xmlns="http://www.w3.org/2000/svg">
          <path
            d="M103.08 37.56C106.36 37.56 109.24 36.64 111.68 34.84C114.12 33.04 115.84 30.52 116.76 27.24H110.4C109.76 28.72 108.8 29.84 107.48 30.6C106.16 31.36 104.68 31.76 103.08 31.76C100.68 31.76 98.68 30.92 97.12 29.28C95.56 27.64 94.76 25.52 94.76 23C94.76 20.48 95.56 18.4 97.12 16.72C98.68 15.08 100.68 14.24 103.08 14.24C104.72 14.24 106.2 14.64 107.52 15.44C108.84 16.24 109.8 17.36 110.4 18.8H116.76C115.84 15.52 114.12 12.96 111.68 11.16C109.24 9.35998 106.36 8.47998 103.08 8.47998C98.84 8.47998 95.36 9.87998 92.68 12.64C89.96 15.4 88.6 18.88 88.6 23C88.6 27.16 89.96 30.64 92.68 33.4C95.36 36.16 98.84 37.56 103.08 37.56Z"
            fill="#2D2C2C" />
          <path
            d="M128.412 37.52C131.652 37.52 134.332 36.48 136.452 34.36C138.572 32.24 139.612 29.64 139.612 26.48C139.612 23.32 138.572 20.68 136.452 18.56C134.332 16.44 131.652 15.4 128.412 15.4C125.172 15.4 122.492 16.44 120.372 18.56C118.252 20.68 117.172 23.32 117.172 26.48C117.172 29.64 118.212 32.24 120.332 34.36C122.452 36.48 125.132 37.52 128.412 37.52ZM124.612 30.4C123.612 29.36 123.092 28.04 123.092 26.48C123.092 24.88 123.612 23.56 124.612 22.52C125.612 21.48 126.852 20.96 128.412 20.96C129.972 20.96 131.212 21.48 132.212 22.52C133.212 23.56 133.692 24.88 133.692 26.48C133.692 28.04 133.212 29.36 132.212 30.4C131.212 31.44 129.972 31.96 128.412 31.96C126.852 31.96 125.612 31.44 124.612 30.4Z"
            fill="#2D2C2C" />
          <path
            d="M154.766 46.2C156.966 46.2 158.726 45.68 159.966 44.6C161.206 43.52 161.806 41.88 161.806 39.68V15.92H156.006V18.08H155.566C155.086 17.56 154.646 17.16 154.246 16.8C153.806 16.48 153.206 16.16 152.366 15.84C151.526 15.56 150.606 15.4 149.566 15.4C146.846 15.4 144.566 16.48 142.766 18.6C140.926 20.72 140.006 23.36 140.006 26.44C140.006 29.6 140.966 32.2 142.886 34.32C144.766 36.44 147.086 37.52 149.846 37.52C152.286 37.52 154.166 36.68 155.526 35.04H155.966V39.4C155.966 40.36 155.526 40.84 154.646 40.84H145.246V46.2H154.766ZM151.006 32C149.606 32 148.406 31.48 147.446 30.44C146.446 29.4 145.966 28.08 145.966 26.44C145.966 24.84 146.446 23.52 147.446 22.48C148.406 21.48 149.606 20.96 151.006 20.96C152.446 20.96 153.646 21.44 154.606 22.44C155.566 23.44 156.046 24.8 156.046 26.44C156.046 28 155.566 29.32 154.646 30.4C153.686 31.48 152.486 32 151.006 32Z"
            fill="#2D2C2C" />
          <path
            d="M169.642 37V24.76C169.642 23.68 170.002 22.8 170.682 22.08C171.362 21.4 172.202 21.04 173.242 21.04C174.242 21.04 175.082 21.4 175.762 22.08C176.402 22.76 176.722 23.64 176.722 24.72V37H182.562V22.84C182.562 20.72 181.882 18.96 180.522 17.52C179.122 16.12 177.362 15.4 175.162 15.4C172.882 15.4 171.202 16.2 170.042 17.84H169.642V15.92H163.802V37H169.642Z"
            fill="#2D2C2C" />
          <path
            d="M194.806 37.52C198.046 37.52 200.726 36.48 202.846 34.36C204.966 32.24 206.006 29.64 206.006 26.48C206.006 23.32 204.966 20.68 202.846 18.56C200.726 16.44 198.046 15.4 194.806 15.4C191.566 15.4 188.886 16.44 186.766 18.56C184.646 20.68 183.566 23.32 183.566 26.48C183.566 29.64 184.606 32.24 186.726 34.36C188.846 36.48 191.526 37.52 194.806 37.52ZM191.006 30.4C190.006 29.36 189.486 28.04 189.486 26.48C189.486 24.88 190.006 23.56 191.006 22.52C192.006 21.48 193.246 20.96 194.806 20.96C196.366 20.96 197.606 21.48 198.606 22.52C199.606 23.56 200.086 24.88 200.086 26.48C200.086 28.04 199.606 29.36 198.606 30.4C197.606 31.44 196.366 31.96 194.806 31.96C193.246 31.96 192.006 31.44 191.006 30.4Z"
            fill="#2D2C2C" />
          <path
            d="M101.447 69.4549C106.907 69.4549 111.282 66.2349 112.822 61.5099H109.672C108.447 64.7299 105.262 66.7949 101.482 66.7949C96.0574 66.7949 91.9974 62.5599 91.9974 56.7499C91.9974 51.0099 96.0574 46.7049 101.482 46.7049C105.262 46.7049 108.377 48.8049 109.672 51.9899H112.822C111.212 47.3699 106.942 44.0449 101.482 44.0449C94.3774 44.0449 89.0574 49.5399 89.0574 56.7499C89.0574 64.0299 94.3424 69.4549 101.447 69.4549Z"
            fill="#7B43FF" />
          <path
            d="M123.547 69.4549C129.007 69.4549 133.067 65.3599 133.067 59.8999C133.067 54.4399 129.077 50.3449 123.582 50.3449C118.157 50.3449 114.062 54.4049 114.062 59.8999C114.062 65.4299 118.087 69.4549 123.547 69.4549ZM123.547 66.9349C119.662 66.9349 116.897 63.9949 116.897 59.8999C116.897 55.9099 119.627 52.8649 123.547 52.8649C127.467 52.8649 130.232 55.8749 130.232 59.8999C130.232 63.9599 127.467 66.9349 123.547 66.9349Z"
            fill="#7B43FF" />
          <path
            d="M135.502 68.9999H146.422C150.552 68.9999 153.982 66.4449 153.982 62.0349C153.982 58.5699 151.672 56.8199 150.027 56.2599V56.0499C151.987 54.9999 153.142 53.1799 153.142 50.7649C153.142 47.1949 150.377 44.4999 145.722 44.4999H135.502V46.9149H137.812V66.5849H135.502V68.9999ZM140.647 55.1049V47.0199H145.722C148.347 47.0199 150.237 48.5599 150.237 50.9749C150.237 53.4599 148.382 55.1049 145.617 55.1049H140.647ZM140.647 66.5149V57.4849H145.617C148.452 57.4849 151.042 58.7449 151.042 61.9649C151.042 65.1149 148.837 66.5149 145.932 66.5149H140.647Z"
            fill="#7B43FF" />
          <path
            d="M156.789 68.9999H159.554V59.2699C159.554 55.8049 160.919 53.1099 164.244 53.1099H165.889V50.3449H164.699C162.039 50.3449 160.254 52.3049 159.729 53.8449H159.519V50.7999H156.789V68.9999Z"
            fill="#7B43FF" />
          <path
            d="M175.728 69.4549C181.188 69.4549 185.248 65.3599 185.248 59.8999C185.248 54.4399 181.258 50.3449 175.763 50.3449C170.338 50.3449 166.243 54.4049 166.243 59.8999C166.243 65.4299 170.268 69.4549 175.728 69.4549ZM175.728 66.9349C171.843 66.9349 169.078 63.9949 169.078 59.8999C169.078 55.9099 171.808 52.8649 175.728 52.8649C179.648 52.8649 182.413 55.8749 182.413 59.8999C182.413 63.9599 179.648 66.9349 175.728 66.9349Z"
            fill="#7B43FF" />
          <path
            d="M191.262 68.9999H195.112L199.522 53.3899H199.732L204.107 68.9999H207.957L213.662 50.7999H210.652L206.172 66.4099H205.962L201.552 50.7999H197.702L193.257 66.4099H193.047L188.602 50.7999H185.592L191.262 68.9999Z"
            fill="#7B43FF" />
          <path
            d="M221.792 69.4549C226.027 69.4549 228.862 67.1449 228.862 63.7149C228.862 56.1899 217.942 60.0399 217.942 55.4199C217.942 53.8449 219.412 52.7249 221.687 52.7249C224.067 52.7249 225.817 54.0199 226.062 56.1549L228.477 55.4549C228.057 52.1649 225.012 50.3449 221.862 50.3449C218.047 50.3449 215.282 52.3399 215.282 55.4199C215.282 62.6299 226.167 58.7449 226.167 63.8549C226.167 65.7099 224.662 67.0399 221.932 67.0399C219.167 67.0399 217.452 65.7799 217.242 63.3299L214.722 63.9599C215.142 67.2149 217.697 69.4549 221.792 69.4549Z"
            fill="#7B43FF" />
          <path
            d="M239.793 69.4549C243.993 69.4549 247.003 67.0399 248.018 63.6449L245.323 63.0149C244.728 65.5349 242.383 67.0049 239.828 67.0049C236.048 67.0049 233.668 64.7299 233.633 60.6699H248.263V59.6549C248.263 54.1949 245.113 50.3449 239.618 50.3449C234.788 50.3449 230.798 54.1599 230.798 59.9699C230.798 65.5699 234.263 69.4549 239.793 69.4549ZM233.703 58.4299C233.913 54.9999 236.643 52.8299 239.618 52.8299C242.628 52.8299 245.253 54.6499 245.428 58.4299H233.703Z"
            fill="#7B43FF" />
          <path
            d="M0 13.34C0 5.973 5.973 0 13.34 0H61.66C69.027 0 75 5.973 75 13.34V61.66C75 69.027 69.027 75 61.66 75H13.34C5.973 75 0 69.027 0 61.66V13.34Z"
            fill="url(#paint0_linear)" />
          <path
            d="M21.9761 46.998H42.8101C47.6421 46.998 51.5601 50.916 51.5601 55.748C51.5601 60.581 47.6421 64.498 42.8101 64.498H21.9761C17.1441 64.498 13.2261 60.581 13.2261 55.748C13.2261 50.916 17.1441 46.998 21.9761 46.998Z"
            fill="white" />
          <path
            d="M16.8628 41.0072C17.6927 40.733 17.7185 39.5848 16.9018 39.2744L9.77142 36.5632C9.06894 36.2964 8.35121 36.9161 8.52683 37.6377L10.2136 44.5677C10.406 45.3588 11.4672 45.5335 11.91 44.8475L13.0602 43.0649L15.1231 45.1718C15.5413 45.5989 16.231 45.6106 16.6642 45.1985C17.097 44.7861 17.1091 44.1056 16.6909 43.6788L14.757 41.7034L16.8628 41.0072Z"
            fill="white" />
          <path
            d="M38.9761 19.998H59.8101C64.6421 19.998 68.5601 23.916 68.5601 28.748C68.5601 33.581 64.6421 37.498 59.8101 37.498H38.9761C34.1441 37.498 30.2261 33.581 30.2261 28.748C30.2261 23.916 34.1441 19.998 38.9761 19.998Z"
            fill="white" />
          <path
            d="M33.8628 14.0072C34.6927 13.733 34.7185 12.5848 33.9018 12.2744L26.7714 9.56323C26.0689 9.29638 25.3512 9.91606 25.5268 10.6377L27.2136 17.5677C27.406 18.3588 28.4672 18.5335 28.91 17.8475L30.0602 16.0649L32.1231 18.1718C32.5413 18.5989 33.231 18.6106 33.6642 18.1985C34.097 17.7861 34.1091 17.1056 33.6909 16.6788L31.757 14.7034L33.8628 14.0072Z"
            fill="white" />
          <defs>
            <linearGradient id="paint0_linear" x1="-12" y1="4.97056" x2="41.033" y2="58.0036"
              gradientUnits="userSpaceOnUse">
              <stop stop-color="#D355FF" />
              <stop offset="1" stop-color="#7033FF" />
            </linearGradient>
          </defs>
        </svg>