<?xml version="1.0" encoding="utf-8"?>
<!-- Generator: Adobe Illustrator 17.0.0, SVG Export Plug-In . SVG Version: 6.00 Build 0)  -->
<!DOCTYPE svg PUBLIC "-//W3C//DTD SVG 1.1//EN" "http://www.w3.org/Graphics/SVG/1.1/DTD/svg11.dtd">
<svg version="1.1" id="Capa_1" xmlns="http://www.w3.org/2000/svg" xmlns:xlink="http://www.w3.org/1999/xlink" x="0px" y="0px"
	 width="23px" height="23px" viewBox="0 0 23 23" enable-background="new 0 0 23 23" xml:space="preserve">
<path fill="#F2F2F2" d="M18.283,23H4.717C2.116,23,0,20.884,0,18.283V4.717C0,2.116,2.116,0,4.717,0h13.566
	C20.884,0,23,2.116,23,4.717v13.566C23,20.884,20.884,23,18.283,23z"/>
<linearGradient id="SVGID_1_" gradientUnits="userSpaceOnUse" x1="10.9385" y1="19.1367" x2="10.9385" y2="3.7372">
	<stop  offset="0" style="stop-color:#62A0F1"/>
	<stop  offset="0.2796" style="stop-color:#7A6CF6"/>
	<stop  offset="0.3574" style="stop-color:#936CD8"/>
	<stop  offset="0.4483" style="stop-color:#A96DBE"/>
	<stop  offset="0.5479" style="stop-color:#BB6DA9"/>
	<stop  offset="0.6592" style="stop-color:#C76D9A"/>
	<stop  offset="0.7916" style="stop-color:#CF6D92"/>
	<stop  offset="1" style="stop-color:#D16D8F"/>
</linearGradient>
<path fill="url(#SVGID_1_)" d="M17.205,14.195v0.674v1.123c0,0.991-0.806,1.797-1.797,1.797h-1.123
	c-0.991,0-1.797-0.806-1.797-1.797s0.806-1.797,1.797-1.797h1.572V7.583L9.389,8.698v6.845v0.674v1.123
	c0,0.991-0.806,1.797-1.797,1.797H6.469c-0.991,0-1.797-0.806-1.797-1.797s0.806-1.797,1.797-1.797h1.572V5.317l9.164-1.58V14.195z"
	/>
</svg>
