<?xml version="1.0" encoding="utf-8"?>
<!-- Generator: Adobe Illustrator 17.0.0, SVG Export Plug-In . SVG Version: 6.00 Build 0)  -->
<!DOCTYPE svg PUBLIC "-//W3C//DTD SVG 1.1//EN" "http://www.w3.org/Graphics/SVG/1.1/DTD/svg11.dtd">
<svg version="1.1" id="Capa_1" xmlns="http://www.w3.org/2000/svg" xmlns:xlink="http://www.w3.org/1999/xlink" x="0px" y="0px"
	 width="23px" height="23px" viewBox="0 0 23 23" enable-background="new 0 0 23 23" xml:space="preserve">
<path fill="#FFFFFF" d="M18.283,23H4.717C2.116,23,0,20.884,0,18.283V4.717C0,2.116,2.116,0,4.717,0h13.566
	C20.884,0,23,2.116,23,4.717v13.566C23,20.884,20.884,23,18.283,23z"/>
<circle fill="#1DA2F8" cx="11.5" cy="11.5" r="10"/>
<g>
	<path fill="#F2F2F2" d="M11.5,2.98c-0.067,0-0.122-0.055-0.122-0.122V2.3c0-0.067,0.055-0.122,0.122-0.122s0.122,0.055,0.122,0.122
		v0.558C11.622,2.925,11.567,2.98,11.5,2.98z"/>
	<path fill="#F2F2F2" d="M11.5,20.822c-0.067,0-0.122-0.055-0.122-0.122v-0.558c0-0.067,0.055-0.122,0.122-0.122
		s0.122,0.055,0.122,0.122V20.7C11.622,20.767,11.567,20.822,11.5,20.822z"/>
	<path fill="#F2F2F2" d="M9.999,3.111c-0.058,0-0.11-0.042-0.12-0.101l-0.097-0.55C9.771,2.395,9.815,2.331,9.881,2.32
		c0.067-0.012,0.13,0.033,0.141,0.099l0.097,0.55c0.012,0.066-0.033,0.13-0.099,0.141C10.013,3.111,10.006,3.111,9.999,3.111z"/>
	<path fill="#F2F2F2" d="M13.097,20.682c-0.058,0-0.11-0.042-0.12-0.101l-0.097-0.55c-0.012-0.066,0.033-0.13,0.099-0.141
		c0.067-0.012,0.13,0.033,0.141,0.099l0.097,0.55c0.012,0.066-0.033,0.13-0.099,0.141C13.112,20.682,13.104,20.682,13.097,20.682z"
		/>
	<path fill="#F2F2F2" d="M8.544,3.501c-0.05,0-0.097-0.031-0.115-0.08L8.239,2.897C8.216,2.833,8.248,2.763,8.312,2.74
		c0.063-0.023,0.133,0.01,0.156,0.073l0.191,0.524c0.023,0.063-0.01,0.133-0.073,0.156C8.572,3.499,8.558,3.501,8.544,3.501z"/>
	<path fill="#F2F2F2" d="M14.647,20.267c-0.05,0-0.097-0.031-0.115-0.08l-0.191-0.524c-0.023-0.063,0.01-0.133,0.073-0.156
		c0.063-0.023,0.133,0.01,0.156,0.073l0.191,0.524c0.023,0.063-0.01,0.133-0.073,0.156C14.674,20.265,14.66,20.267,14.647,20.267z"
		/>
	<path fill="#F2F2F2" d="M7.179,4.138c-0.042,0-0.083-0.022-0.106-0.061L6.794,3.594C6.761,3.535,6.781,3.461,6.839,3.427
		c0.058-0.034,0.133-0.014,0.167,0.045l0.279,0.483C7.318,4.013,7.298,4.088,7.24,4.121C7.221,4.133,7.2,4.138,7.179,4.138z"/>
	<path fill="#F2F2F2" d="M16.1,19.589c-0.042,0-0.083-0.022-0.106-0.061l-0.279-0.483c-0.034-0.058-0.014-0.133,0.045-0.167
		c0.058-0.034,0.133-0.014,0.167,0.045l0.279,0.483c0.034,0.058,0.014,0.133-0.045,0.167C16.142,19.584,16.121,19.589,16.1,19.589z"
		/>
	<path fill="#F2F2F2" d="M5.945,5.002c-0.035,0-0.069-0.015-0.093-0.044L5.493,4.531C5.45,4.479,5.456,4.402,5.508,4.359
		C5.56,4.316,5.637,4.322,5.68,4.374l0.359,0.427C6.082,4.853,6.075,4.93,6.023,4.973C6.001,4.993,5.973,5.002,5.945,5.002z"/>
	<path fill="#F2F2F2" d="M17.414,18.669c-0.035,0-0.069-0.015-0.093-0.044l-0.359-0.427c-0.043-0.052-0.037-0.129,0.015-0.172
		c0.052-0.043,0.128-0.037,0.172,0.015l0.359,0.427c0.043,0.052,0.037,0.129-0.015,0.172C17.469,18.66,17.441,18.669,17.414,18.669z
		"/>
	<path fill="#F2F2F2" d="M4.88,6.067c-0.028,0-0.056-0.009-0.078-0.029L4.374,5.68C4.323,5.637,4.316,5.56,4.359,5.508
		c0.043-0.052,0.12-0.058,0.172-0.015l0.427,0.359c0.052,0.043,0.058,0.12,0.015,0.172C4.949,6.052,4.915,6.067,4.88,6.067z"/>
	<path fill="#F2F2F2" d="M18.547,17.536c-0.028,0-0.056-0.009-0.078-0.029l-0.427-0.359c-0.052-0.043-0.058-0.12-0.015-0.172
		c0.043-0.052,0.12-0.058,0.172-0.015l0.427,0.359c0.052,0.043,0.058,0.12,0.015,0.172C18.617,17.521,18.582,17.536,18.547,17.536z"
		/>
	<path fill="#F2F2F2" d="M4.016,7.301c-0.021,0-0.042-0.005-0.061-0.016L3.472,7.006C3.413,6.972,3.393,6.897,3.427,6.839
		c0.034-0.058,0.108-0.078,0.167-0.045l0.483,0.279C4.135,7.107,4.155,7.182,4.122,7.24C4.099,7.279,4.058,7.301,4.016,7.301z"/>
	<path fill="#F2F2F2" d="M19.467,16.222c-0.021,0-0.042-0.005-0.061-0.016l-0.483-0.279c-0.058-0.034-0.078-0.108-0.045-0.167
		c0.034-0.058,0.108-0.078,0.167-0.045l0.483,0.279c0.058,0.034,0.078,0.108,0.045,0.167C19.55,16.2,19.509,16.222,19.467,16.222z"
		/>
	<path fill="#F2F2F2" d="M3.379,8.666c-0.014,0-0.028-0.002-0.042-0.007L2.813,8.468C2.75,8.445,2.717,8.375,2.74,8.312
		c0.023-0.063,0.093-0.096,0.156-0.073L3.421,8.43c0.063,0.023,0.096,0.093,0.073,0.156C3.476,8.636,3.429,8.666,3.379,8.666z"/>
	<path fill="#F2F2F2" d="M20.145,14.769c-0.014,0-0.028-0.002-0.042-0.007l-0.524-0.191c-0.063-0.023-0.096-0.093-0.073-0.156
		c0.023-0.063,0.093-0.096,0.156-0.073l0.524,0.191c0.063,0.023,0.096,0.093,0.073,0.156C20.242,14.738,20.195,14.769,20.145,14.769
		z"/>
	<path fill="#F2F2F2" d="M2.989,10.121c-0.007,0-0.014-0.001-0.021-0.002l-0.55-0.097C2.352,10.011,2.308,9.948,2.32,9.881
		s0.075-0.111,0.141-0.099l0.55,0.097c0.066,0.012,0.111,0.075,0.099,0.141C3.099,10.08,3.048,10.121,2.989,10.121z"/>
	<path fill="#F2F2F2" d="M20.56,13.22c-0.007,0-0.014-0.001-0.021-0.002l-0.55-0.097c-0.066-0.012-0.111-0.075-0.099-0.141
		s0.075-0.111,0.141-0.099l0.55,0.097c0.066,0.012,0.111,0.075,0.099,0.141C20.67,13.178,20.618,13.22,20.56,13.22z"/>
	<path fill="#F2F2F2" d="M2.858,11.622H2.3c-0.067,0-0.122-0.055-0.122-0.122s0.055-0.122,0.122-0.122h0.558
		c0.067,0,0.122,0.055,0.122,0.122S2.925,11.622,2.858,11.622z"/>
	<path fill="#F2F2F2" d="M20.7,11.622h-0.558c-0.067,0-0.122-0.055-0.122-0.122s0.055-0.122,0.122-0.122H20.7
		c0.067,0,0.122,0.055,0.122,0.122S20.767,11.622,20.7,11.622z"/>
	<path fill="#F2F2F2" d="M2.44,13.22c-0.058,0-0.11-0.042-0.12-0.101c-0.012-0.066,0.033-0.13,0.099-0.141l0.55-0.097
		c0.067-0.012,0.13,0.033,0.141,0.099c0.012,0.066-0.033,0.13-0.099,0.141l-0.55,0.097C2.454,13.219,2.447,13.22,2.44,13.22z"/>
	<path fill="#F2F2F2" d="M20.01,10.121c-0.058,0-0.11-0.042-0.12-0.101c-0.012-0.066,0.033-0.13,0.099-0.141l0.55-0.097
		c0.066-0.012,0.13,0.033,0.141,0.099c0.012,0.066-0.033,0.13-0.099,0.141l-0.55,0.097C20.025,10.121,20.017,10.121,20.01,10.121z"
		/>
	<path fill="#F2F2F2" d="M2.855,14.769c-0.05,0-0.097-0.031-0.115-0.08c-0.023-0.063,0.01-0.133,0.073-0.156l0.524-0.191
		c0.063-0.023,0.133,0.01,0.156,0.073c0.023,0.063-0.01,0.133-0.073,0.156l-0.524,0.191C2.883,14.766,2.869,14.769,2.855,14.769z"/>
	<path fill="#F2F2F2" d="M19.621,8.666c-0.05,0-0.097-0.031-0.115-0.08c-0.023-0.063,0.01-0.133,0.073-0.156l0.524-0.191
		c0.063-0.023,0.133,0.01,0.156,0.073c0.023,0.063-0.01,0.133-0.073,0.156l-0.524,0.191C19.649,8.664,19.635,8.666,19.621,8.666z"/>
	<path fill="#F2F2F2" d="M3.533,16.222c-0.042,0-0.083-0.022-0.106-0.061c-0.034-0.058-0.014-0.133,0.045-0.167l0.483-0.279
		c0.058-0.034,0.133-0.014,0.167,0.045c0.034,0.058,0.014,0.133-0.045,0.167l-0.483,0.279C3.574,16.217,3.553,16.222,3.533,16.222z"
		/>
	<path fill="#F2F2F2" d="M18.984,7.301c-0.042,0-0.083-0.022-0.106-0.061c-0.034-0.058-0.014-0.133,0.045-0.167l0.483-0.279
		c0.058-0.034,0.133-0.014,0.167,0.045c0.034,0.058,0.014,0.133-0.045,0.167l-0.483,0.279C19.026,7.296,19.005,7.301,18.984,7.301z"
		/>
	<path fill="#F2F2F2" d="M4.452,17.536c-0.035,0-0.069-0.015-0.093-0.044c-0.043-0.052-0.037-0.129,0.015-0.172l0.427-0.359
		c0.052-0.043,0.128-0.037,0.172,0.015c0.043,0.052,0.037,0.129-0.015,0.172l-0.427,0.359C4.508,17.526,4.48,17.536,4.452,17.536z"
		/>
	<path fill="#F2F2F2" d="M18.12,6.067c-0.035,0-0.069-0.015-0.093-0.044c-0.043-0.052-0.037-0.128,0.015-0.172l0.427-0.359
		c0.052-0.043,0.129-0.037,0.172,0.015c0.043,0.052,0.037,0.128-0.015,0.172l-0.427,0.359C18.176,6.058,18.148,6.067,18.12,6.067z"
		/>
	<path fill="#F2F2F2" d="M5.586,18.669c-0.028,0-0.056-0.009-0.078-0.029c-0.052-0.043-0.058-0.12-0.015-0.172l0.359-0.427
		c0.043-0.052,0.12-0.058,0.172-0.015c0.052,0.043,0.058,0.12,0.015,0.172L5.68,18.626C5.656,18.655,5.621,18.669,5.586,18.669z"/>
	<path fill="#F2F2F2" d="M17.055,5.002c-0.028,0-0.056-0.009-0.078-0.029c-0.052-0.043-0.058-0.12-0.015-0.172l0.359-0.427
		c0.043-0.052,0.12-0.058,0.172-0.015c0.052,0.043,0.058,0.12,0.015,0.172l-0.359,0.427C17.124,4.987,17.09,5.002,17.055,5.002z"/>
	<path fill="#F2F2F2" d="M6.9,19.589c-0.021,0-0.042-0.005-0.061-0.016c-0.058-0.034-0.078-0.108-0.045-0.167l0.279-0.483
		c0.034-0.058,0.108-0.078,0.167-0.045c0.058,0.034,0.078,0.108,0.045,0.167l-0.279,0.483C6.983,19.567,6.942,19.589,6.9,19.589z"/>
	<path fill="#F2F2F2" d="M15.821,4.138c-0.021,0-0.042-0.005-0.061-0.016c-0.058-0.034-0.078-0.108-0.045-0.167l0.279-0.483
		c0.034-0.058,0.108-0.078,0.167-0.045c0.058,0.034,0.078,0.108,0.045,0.167l-0.279,0.483C15.904,4.116,15.863,4.138,15.821,4.138z"
		/>
	<path fill="#F2F2F2" d="M8.353,20.267c-0.014,0-0.028-0.002-0.042-0.007c-0.063-0.023-0.096-0.093-0.073-0.156l0.191-0.524
		c0.023-0.063,0.093-0.096,0.156-0.073c0.063,0.023,0.096,0.093,0.073,0.156l-0.191,0.524C8.45,20.236,8.403,20.267,8.353,20.267z"
		/>
	<path fill="#F2F2F2" d="M14.456,3.501c-0.014,0-0.028-0.002-0.042-0.007c-0.063-0.023-0.096-0.093-0.073-0.156l0.191-0.524
		c0.023-0.063,0.093-0.096,0.156-0.073c0.063,0.023,0.096,0.093,0.073,0.156L14.57,3.421C14.552,3.471,14.506,3.501,14.456,3.501z"
		/>
	<path fill="#F2F2F2" d="M9.903,20.682c-0.007,0-0.014-0.001-0.021-0.002c-0.066-0.012-0.111-0.075-0.099-0.141l0.097-0.55
		c0.012-0.066,0.075-0.111,0.141-0.099c0.066,0.012,0.111,0.075,0.099,0.141l-0.097,0.55C10.012,20.64,9.961,20.682,9.903,20.682z"
		/>
	<path fill="#F2F2F2" d="M13.001,3.111c-0.007,0-0.014-0.001-0.021-0.002c-0.066-0.012-0.111-0.075-0.099-0.141l0.097-0.55
		c0.012-0.066,0.075-0.11,0.141-0.099c0.066,0.012,0.111,0.075,0.099,0.141l-0.097,0.55C13.11,3.07,13.059,3.111,13.001,3.111z"/>
	<path fill="#F2F2F2" d="M10.826,3.915c-0.063,0-0.116-0.048-0.121-0.111l-0.128-1.458c-0.006-0.067,0.044-0.126,0.111-0.132
		c0.067-0.006,0.126,0.044,0.132,0.111l0.128,1.458c0.006,0.067-0.044,0.126-0.111,0.132C10.833,3.915,10.829,3.915,10.826,3.915z"
		/>
	<path fill="#F2F2F2" d="M12.302,20.787c-0.063,0-0.116-0.048-0.121-0.111l-0.128-1.458c-0.006-0.067,0.044-0.126,0.111-0.132
		c0.068-0.006,0.126,0.044,0.132,0.111l0.128,1.458c0.006,0.067-0.044,0.126-0.111,0.132C12.309,20.787,12.305,20.787,12.302,20.787
		z"/>
	<path fill="#F2F2F2" d="M9.498,4.149c-0.054,0-0.103-0.036-0.118-0.09L9.001,2.645C8.984,2.58,9.022,2.513,9.087,2.496
		c0.065-0.018,0.132,0.021,0.149,0.086l0.379,1.414c0.017,0.065-0.021,0.132-0.086,0.149C9.519,4.148,9.508,4.149,9.498,4.149z"/>
	<path fill="#F2F2F2" d="M13.881,20.508c-0.054,0-0.103-0.036-0.118-0.09l-0.379-1.414c-0.017-0.065,0.021-0.132,0.086-0.149
		c0.065-0.018,0.132,0.021,0.149,0.086l0.379,1.414c0.017,0.065-0.021,0.132-0.086,0.149C13.902,20.507,13.891,20.508,13.881,20.508
		z"/>
	<path fill="#F2F2F2" d="M8.231,4.61c-0.046,0-0.09-0.026-0.111-0.07L7.501,3.214C7.473,3.153,7.499,3.08,7.56,3.052
		c0.061-0.028,0.134-0.002,0.162,0.059l0.618,1.326C8.369,4.498,8.343,4.57,8.282,4.599C8.265,4.607,8.248,4.61,8.231,4.61z"/>
	<path fill="#F2F2F2" d="M15.388,19.96c-0.046,0-0.09-0.026-0.111-0.07l-0.618-1.326c-0.028-0.061-0.002-0.134,0.059-0.162
		c0.061-0.028,0.134-0.002,0.162,0.059l0.618,1.326c0.028,0.061,0.002,0.134-0.059,0.162C15.423,19.956,15.405,19.96,15.388,19.96z"
		/>
	<path fill="#F2F2F2" d="M7.063,5.285c-0.038,0-0.076-0.018-0.1-0.052L6.123,4.034c-0.039-0.055-0.025-0.131,0.03-0.17
		c0.055-0.039,0.131-0.025,0.17,0.03l0.839,1.199c0.039,0.055,0.025,0.131-0.03,0.17C7.111,5.277,7.087,5.285,7.063,5.285z"/>
	<path fill="#F2F2F2" d="M16.777,19.158c-0.038,0-0.076-0.018-0.1-0.052l-0.839-1.199c-0.039-0.055-0.025-0.131,0.03-0.17
		c0.055-0.039,0.131-0.025,0.17,0.03l0.839,1.199c0.039,0.055,0.025,0.131-0.03,0.17C16.826,19.151,16.801,19.158,16.777,19.158z"/>
	<path fill="#F2F2F2" d="M6.029,6.151c-0.031,0-0.062-0.012-0.086-0.036L4.908,5.081c-0.048-0.048-0.048-0.125,0-0.172
		c0.048-0.048,0.125-0.048,0.172,0l1.035,1.035c0.048,0.048,0.048,0.125,0,0.172C6.092,6.139,6.061,6.151,6.029,6.151z"/>
	<path fill="#F2F2F2" d="M18.005,18.127c-0.031,0-0.062-0.012-0.086-0.036l-1.035-1.035c-0.048-0.048-0.048-0.125,0-0.172
		c0.048-0.048,0.125-0.048,0.172,0l1.035,1.035c0.048,0.048,0.048,0.125,0,0.172C18.068,18.115,18.037,18.127,18.005,18.127z"/>
	<path fill="#F2F2F2" d="M5.162,7.184c-0.024,0-0.049-0.007-0.07-0.022L3.894,6.323c-0.055-0.039-0.069-0.115-0.03-0.17
		c0.039-0.055,0.115-0.069,0.17-0.03l1.199,0.839c0.055,0.039,0.069,0.115,0.03,0.17C5.239,7.166,5.201,7.184,5.162,7.184z"/>
	<path fill="#F2F2F2" d="M19.036,16.899c-0.024,0-0.049-0.007-0.07-0.022l-1.199-0.839c-0.055-0.039-0.069-0.115-0.03-0.17
		c0.039-0.055,0.115-0.069,0.17-0.03l1.199,0.839c0.055,0.039,0.069,0.115,0.03,0.17C19.112,16.881,19.074,16.899,19.036,16.899z"/>
	<path fill="#F2F2F2" d="M4.488,8.352c-0.017,0-0.035-0.004-0.051-0.011L3.111,7.722C3.049,7.694,3.023,7.621,3.052,7.56
		C3.08,7.499,3.153,7.473,3.214,7.501L4.54,8.12c0.061,0.028,0.087,0.101,0.059,0.162C4.578,8.326,4.534,8.352,4.488,8.352z"/>
	<path fill="#F2F2F2" d="M19.838,15.51c-0.017,0-0.035-0.004-0.052-0.011L18.46,14.88c-0.061-0.028-0.087-0.101-0.059-0.162
		s0.101-0.087,0.162-0.059l1.326,0.618c0.061,0.028,0.087,0.101,0.059,0.162C19.928,15.484,19.884,15.51,19.838,15.51z"/>
	<path fill="#F2F2F2" d="M4.027,9.62c-0.01,0-0.021-0.001-0.032-0.004L2.582,9.237C2.517,9.219,2.478,9.152,2.496,9.087
		C2.513,9.022,2.58,8.984,2.645,9.001L4.059,9.38c0.065,0.017,0.104,0.084,0.086,0.149C4.13,9.584,4.081,9.62,4.027,9.62z"/>
	<path fill="#F2F2F2" d="M20.386,14.003c-0.01,0-0.021-0.001-0.032-0.004l-1.414-0.379c-0.065-0.017-0.104-0.084-0.086-0.149
		c0.017-0.065,0.084-0.104,0.149-0.086l1.414,0.379c0.065,0.017,0.104,0.084,0.086,0.149C20.49,13.967,20.44,14.003,20.386,14.003z"
		/>
	<path fill="#F2F2F2" d="M3.793,10.948c-0.004,0-0.007,0-0.011-0.001L2.324,10.82c-0.067-0.006-0.117-0.065-0.111-0.132
		c0.006-0.067,0.065-0.117,0.132-0.111l1.458,0.128c0.067,0.006,0.117,0.065,0.111,0.132C3.909,10.9,3.856,10.948,3.793,10.948z"/>
	<path fill="#F2F2F2" d="M20.665,12.424c-0.004,0-0.007,0-0.011-0.001l-1.458-0.128c-0.067-0.006-0.117-0.065-0.111-0.132
		c0.006-0.067,0.064-0.117,0.132-0.111l1.458,0.128c0.067,0.006,0.117,0.065,0.111,0.132C20.781,12.376,20.728,12.424,20.665,12.424
		z"/>
	<path fill="#F2F2F2" d="M2.335,12.424c-0.063,0-0.116-0.048-0.121-0.111c-0.006-0.067,0.044-0.126,0.111-0.132l1.458-0.128
		c0.068-0.006,0.126,0.044,0.132,0.111c0.006,0.067-0.044,0.126-0.111,0.132l-1.458,0.128C2.342,12.424,2.338,12.424,2.335,12.424z"
		/>
	<path fill="#F2F2F2" d="M19.207,10.948c-0.063,0-0.116-0.048-0.121-0.111c-0.006-0.067,0.044-0.126,0.111-0.132l1.458-0.128
		c0.068-0.006,0.126,0.044,0.132,0.111c0.006,0.067-0.044,0.126-0.111,0.132l-1.458,0.128C19.214,10.948,19.21,10.948,19.207,10.948
		z"/>
	<path fill="#F2F2F2" d="M2.613,14.003c-0.054,0-0.103-0.036-0.118-0.09c-0.017-0.065,0.021-0.132,0.086-0.149l1.414-0.379
		c0.065-0.018,0.132,0.021,0.149,0.086c0.017,0.065-0.021,0.132-0.086,0.149l-1.414,0.379C2.635,14.002,2.624,14.003,2.613,14.003z"
		/>
	<path fill="#F2F2F2" d="M18.973,9.62c-0.054,0-0.103-0.036-0.118-0.09c-0.017-0.065,0.021-0.132,0.086-0.149l1.414-0.379
		c0.065-0.018,0.132,0.021,0.149,0.086c0.017,0.065-0.021,0.132-0.086,0.149l-1.414,0.379C18.994,9.618,18.983,9.62,18.973,9.62z"/>
	<path fill="#F2F2F2" d="M3.162,15.51c-0.046,0-0.09-0.026-0.111-0.07c-0.028-0.061-0.002-0.134,0.059-0.162l1.326-0.618
		c0.061-0.028,0.134-0.002,0.162,0.059c0.028,0.061,0.002,0.134-0.059,0.162l-1.326,0.618C3.197,15.506,3.179,15.51,3.162,15.51z"/>
	<path fill="#F2F2F2" d="M18.512,8.352c-0.046,0-0.09-0.026-0.111-0.07c-0.028-0.061-0.002-0.134,0.059-0.162l1.326-0.618
		c0.061-0.028,0.134-0.002,0.162,0.059c0.028,0.061,0.002,0.134-0.059,0.162l-1.326,0.618C18.547,8.349,18.529,8.352,18.512,8.352z"
		/>
	<path fill="#F2F2F2" d="M3.964,16.899c-0.038,0-0.076-0.018-0.1-0.052c-0.039-0.055-0.025-0.131,0.03-0.17l1.199-0.839
		c0.055-0.039,0.131-0.025,0.17,0.03c0.039,0.055,0.025,0.131-0.03,0.17l-1.199,0.839C4.013,16.892,3.988,16.899,3.964,16.899z"/>
	<path fill="#F2F2F2" d="M17.837,7.184c-0.038,0-0.076-0.018-0.1-0.052c-0.039-0.055-0.025-0.131,0.03-0.17l1.199-0.839
		c0.055-0.039,0.131-0.025,0.17,0.03c0.039,0.055,0.025,0.131-0.03,0.17l-1.199,0.839C17.886,7.177,17.862,7.184,17.837,7.184z"/>
	<path fill="#F2F2F2" d="M4.995,18.127c-0.031,0-0.062-0.012-0.086-0.036c-0.048-0.048-0.048-0.125,0-0.172l1.035-1.035
		c0.048-0.048,0.125-0.048,0.172,0c0.048,0.048,0.048,0.125,0,0.172l-1.035,1.035C5.057,18.115,5.026,18.127,4.995,18.127z"/>
	<path fill="#F2F2F2" d="M16.971,6.151c-0.031,0-0.062-0.012-0.086-0.036c-0.048-0.048-0.048-0.125,0-0.172l1.035-1.035
		c0.048-0.048,0.125-0.048,0.172,0c0.048,0.048,0.048,0.125,0,0.172l-1.035,1.035C17.033,6.139,17.002,6.151,16.971,6.151z"/>
	<path fill="#F2F2F2" d="M6.223,19.158c-0.024,0-0.049-0.007-0.07-0.022c-0.055-0.039-0.069-0.115-0.03-0.17l0.839-1.199
		c0.039-0.055,0.115-0.069,0.17-0.03c0.055,0.039,0.069,0.115,0.03,0.17l-0.839,1.199C6.299,19.14,6.261,19.158,6.223,19.158z"/>
	<path fill="#F2F2F2" d="M15.937,5.285c-0.024,0-0.049-0.007-0.07-0.022c-0.055-0.039-0.069-0.115-0.03-0.17l0.839-1.199
		c0.039-0.055,0.115-0.069,0.17-0.03c0.055,0.039,0.069,0.115,0.03,0.17l-0.839,1.199C16.014,5.266,15.976,5.285,15.937,5.285z"/>
	<path fill="#F2F2F2" d="M7.612,19.96c-0.017,0-0.035-0.004-0.052-0.011c-0.061-0.028-0.087-0.101-0.059-0.162L8.12,18.46
		c0.028-0.061,0.101-0.087,0.162-0.059c0.061,0.028,0.087,0.101,0.059,0.162l-0.618,1.326C7.702,19.934,7.658,19.96,7.612,19.96z"/>
	<path fill="#F2F2F2" d="M14.77,4.61c-0.017,0-0.035-0.004-0.052-0.011c-0.061-0.028-0.087-0.101-0.059-0.162l0.618-1.326
		c0.028-0.061,0.101-0.087,0.162-0.059c0.061,0.028,0.087,0.101,0.059,0.162L14.88,4.54C14.859,4.584,14.815,4.61,14.77,4.61z"/>
	<path fill="#F2F2F2" d="M9.119,20.508c-0.01,0-0.021-0.001-0.032-0.004c-0.065-0.017-0.104-0.084-0.086-0.149l0.379-1.414
		c0.017-0.065,0.084-0.104,0.149-0.086c0.065,0.017,0.104,0.084,0.086,0.149l-0.379,1.414C9.222,20.472,9.173,20.508,9.119,20.508z"
		/>
	<path fill="#F2F2F2" d="M13.502,4.149c-0.01,0-0.021-0.001-0.032-0.004c-0.065-0.017-0.104-0.084-0.086-0.149l0.379-1.414
		c0.017-0.065,0.084-0.104,0.149-0.086c0.065,0.017,0.104,0.084,0.086,0.149L13.62,4.059C13.606,4.113,13.556,4.149,13.502,4.149z"
		/>
	<path fill="#F2F2F2" d="M10.698,20.787c-0.004,0-0.007,0-0.011-0.001c-0.067-0.006-0.117-0.065-0.111-0.132l0.128-1.458
		c0.006-0.067,0.065-0.117,0.132-0.111c0.067,0.006,0.117,0.065,0.111,0.132l-0.128,1.458
		C10.814,20.739,10.761,20.787,10.698,20.787z"/>
	<path fill="#F2F2F2" d="M12.174,3.915c-0.004,0-0.007,0-0.011-0.001c-0.067-0.006-0.117-0.065-0.111-0.132l0.128-1.458
		c0.006-0.067,0.064-0.117,0.132-0.111c0.067,0.006,0.117,0.065,0.111,0.132l-0.128,1.458C12.29,3.867,12.237,3.915,12.174,3.915z"
		/>
	<polygon fill="#F2F2F2" points="12.708,12.708 18.097,4.903 10.292,10.292 4.903,18.097 	"/>
</g>
<polygon fill="#CCCCCC" points="12.708,12.708 18.097,4.903 4.903,18.097 "/>
<polygon fill="#FF525D" points="12.708,12.708 18.097,4.903 10.292,10.292 "/>
<polygon fill="#EF4152" points="12.708,12.708 18.097,4.903 11.5,11.5 "/>
</svg>
