<svg width="18" height="18" viewBox="0 0 18 18" fill="none" xmlns="http://www.w3.org/2000/svg">
<path d="M1.12054e-06 9C1.55508e-06 13.9706 4.02944 18 9 18C13.9706 18 18 13.9706 18 9C18 4.02944 13.9706 -1.55508e-06 9 -1.12054e-06C4.02944 -6.86003e-07 6.86003e-07 4.02944 1.12054e-06 9ZM13.0776 8.7479C13.3173 8.98754 13.3391 9.36253 13.143 9.62678L13.0776 9.70249L9.47689 13.3032C9.23721 13.5429 8.86216 13.5647 8.59791 13.3685L8.5222 13.3031L4.9222 9.70177C4.65865 9.43811 4.65873 9.01073 4.92238 8.74717C5.16207 8.50758 5.53707 8.48586 5.80128 8.68198L5.87698 8.74735L8.3256 11.1971L8.32533 5.17456C8.32533 4.83283 8.57927 4.55042 8.90874 4.50572L9.00033 4.49956C9.34206 4.49956 9.62447 4.7535 9.66917 5.08297L9.67533 5.17456L9.6756 11.1953L12.123 8.7479C12.3627 8.50826 12.7377 8.48647 13.0019 8.68254L13.0776 8.7479Z" fill="#757575"/>
</svg>
