<svg width="75" height="75" viewBox="0 0 75 75" fill="none" xmlns="http://www.w3.org/2000/svg">
<path d="M0 13.34C0 5.973 5.973 0 13.34 0H61.66C69.027 0 75 5.973 75 13.34V61.66C75 69.027 69.027 75 61.66 75H13.34C5.973 75 0 69.027 0 61.66V13.34Z" fill="url(#paint0_linear_1574_6068)"/>
<path fill-rule="evenodd" clip-rule="evenodd" d="M38.5749 51C42.3443 51 45.3999 48.2839 45.3999 44.9333V29.0667C45.3999 25.7161 42.3443 23 38.5749 23H22.8249C19.0556 23 15.9999 25.7161 15.9999 29.0667V44.9333C15.9999 48.2839 19.0556 51 22.8249 51H38.5749ZM57.9999 26.8098C57.9999 26.3669 57.8228 25.9384 57.5001 25.6009C56.749 24.8154 55.4237 24.7198 54.5399 25.3874L47.4999 30.7055V43.2924L54.54 48.6121C54.9197 48.8989 55.4017 49.0564 55.8999 49.0564C57.0597 49.0564 57.9999 48.2207 57.9999 47.1897V26.8098ZM23.5001 32C24.8808 32 26.0001 30.8808 26.0001 29.5C26.0001 28.1193 24.8808 27 23.5001 27C22.1194 27 21.0001 28.1193 21.0001 29.5C21.0001 30.8808 22.1194 32 23.5001 32Z" fill="white"/>
<defs>
<linearGradient id="paint0_linear_1574_6068" x1="67.5" y1="70" x2="0" y2="0" gradientUnits="userSpaceOnUse">
<stop offset="0.544849" stop-color="#0254D7"/>
<stop offset="0.992708" stop-color="#0254D7" stop-opacity="0.46"/>
</linearGradient>
</defs>
</svg>
