<svg width="7" height="8" viewBox="0 0 7 8" fill="none" xmlns="http://www.w3.org/2000/svg">
<path d="M6.65011 0.854978C6.55669 0.761352 6.42987 0.708735 6.29761 0.708735C6.16535 0.708735 6.03852 0.761352 5.94511 0.854978L3.50011 3.29498L1.05511 0.849978C0.961692 0.756352 0.834866 0.703735 0.702607 0.703735C0.570349 0.703735 0.443523 0.756352 0.350107 0.849978C0.155107 1.04498 0.155107 1.35998 0.350107 1.55498L2.79511 3.99998L0.350107 6.44498C0.155107 6.63998 0.155107 6.95498 0.350107 7.14998C0.545107 7.34498 0.860107 7.34498 1.05511 7.14998L3.50011 4.70498L5.94511 7.14998C6.14011 7.34498 6.45511 7.34498 6.65011 7.14998C6.84511 6.95498 6.84511 6.63998 6.65011 6.44498L4.20511 3.99998L6.65011 1.55498C6.84011 1.36498 6.84011 1.04498 6.65011 0.854978Z" fill="#2755CB"/>
</svg>
