<svg width="14" height="15" viewBox="0 0 14 15" fill="none" xmlns="http://www.w3.org/2000/svg">
<rect width="14" height="15" fill="#E5E5E5"/>
<g clip-path="url(#clip0)">
<rect width="1440" height="760" transform="translate(-286 -85)" fill="white"/>
<rect x="-209" y="-29" width="1363" height="704" fill="#FAFAFA"/>
<rect x="-19" y="-20" width="1163" height="119" fill="white"/>
<path d="M13.44 0H0.56C0.25025 0 0 0.268125 0 0.6V14.4C0 14.7319 0.25025 15 0.56 15H13.44C13.7498 15 14 14.7319 14 14.4V0.6C14 0.268125 13.7498 0 13.44 0ZM12.74 13.65H1.26V1.35H12.74V13.65ZM3.374 7.725H4.26125C4.326 7.725 4.38025 7.66875 4.38025 7.5975V6.11812C4.38025 5.74875 4.6585 5.45063 5.0015 5.45063H8.60125V6.45188C8.60125 6.55875 8.715 6.61688 8.792 6.55125L10.7013 4.94438C10.7625 4.89375 10.7625 4.79438 10.7013 4.74375L8.792 3.13687C8.715 3.07125 8.60125 3.13125 8.60125 3.23625V4.2375H4.99975C4.0355 4.2375 3.255 5.0775 3.255 6.11438V7.59375C3.255 7.66875 3.3075 7.725 3.374 7.725ZM3.3005 10.2544L5.20975 11.8612C5.28675 11.9269 5.4005 11.8669 5.4005 11.7619V10.7606H9.00025C9.9645 10.7606 10.745 9.92062 10.745 8.88375V7.40438C10.745 7.335 10.6925 7.27688 10.626 7.27688H9.73875C9.674 7.27688 9.61975 7.33313 9.61975 7.40438V8.88375C9.61975 9.25313 9.3415 9.55125 8.9985 9.55125H5.4005V8.55C5.4005 8.44313 5.28675 8.385 5.20975 8.45063L3.3005 10.0575C3.23925 10.1044 3.23925 10.2038 3.3005 10.2544Z" fill="#4D4D4D"/>
</g>
<defs>
<clipPath id="clip0">
<rect width="1440" height="760" fill="white" transform="translate(-286 -85)"/>
</clipPath>
</defs>
</svg>
