<svg width="24" height="24" viewBox="0 0 24 24" fill="none" xmlns="http://www.w3.org/2000/svg">
<path d="M18.5 20C18.5 20.275 18.276 20.5 18 20.5H6C5.724 20.5 5.5 20.275 5.5 20V4C5.5 3.725 5.724 3.5 6 3.5H12V8C12 9.104 12.896 10 14 10H18.5V20ZM13.5 4.621L17.378 8.5H14C13.724 8.5 13.5 8.275 13.5 8V4.621ZM19.414 8.414L13.585 2.586C13.559 2.56 13.527 2.54 13.5 2.516C13.429 2.452 13.359 2.389 13.281 2.336C13.241 2.309 13.195 2.291 13.153 2.268C13.082 2.228 13.012 2.184 12.937 2.152C12.74 2.07 12.528 2.029 12.313 2.014C12.266 2.011 12.22 2 12.172 2H12.171H12H6C4.896 2 4 2.896 4 4V20C4 21.104 4.896 22 6 22H18C19.104 22 20 21.104 20 20V10V9.828C20 9.298 19.789 8.789 19.414 8.414Z" fill="#212121"/>
<path fill-rule="evenodd" clip-rule="evenodd" d="M10.5556 14C10.2487 14 10 14.2487 10 14.5556V18.4444C10 18.7513 10.2487 19 10.5556 19H19.4444C19.7513 19 20 18.7513 20 18.4444V14.5556C20 14.2487 19.7513 14 19.4444 14H10.5556ZM10.755 15.375V18H11.6513C11.9588 18 12.2113 17.9462 12.4088 17.8387C12.6088 17.7287 12.7563 17.5763 12.8513 17.3812C12.9488 17.1837 12.9975 16.9525 12.9975 16.6875C12.9975 16.4225 12.9488 16.1925 12.8513 15.9975C12.7563 15.8 12.6088 15.6475 12.4088 15.54C12.2113 15.43 11.9588 15.375 11.6513 15.375H10.755ZM11.6288 17.5875H11.235V15.7837H11.6288C11.8488 15.7837 12.0225 15.82 12.15 15.8925C12.2775 15.965 12.3688 16.0687 12.4237 16.2037C12.4787 16.3387 12.5063 16.5 12.5063 16.6875C12.5063 16.8775 12.4787 17.04 12.4237 17.175C12.3688 17.3075 12.2775 17.41 12.15 17.4825C12.0225 17.5525 11.8488 17.5875 11.6288 17.5875ZM13.9235 17.8725C14.121 17.9875 14.351 18.045 14.6135 18.045C14.8735 18.045 15.1023 17.9875 15.2998 17.8725C15.4973 17.7575 15.651 17.5987 15.761 17.3963C15.871 17.1912 15.926 16.955 15.926 16.6875C15.926 16.42 15.871 16.185 15.761 15.9825C15.651 15.7775 15.4973 15.6175 15.2998 15.5025C15.1023 15.3875 14.8735 15.33 14.6135 15.33C14.351 15.33 14.121 15.3875 13.9235 15.5025C13.7285 15.6175 13.5748 15.7775 13.4623 15.9825C13.3523 16.185 13.2973 16.42 13.2973 16.6875C13.2973 16.955 13.3523 17.1912 13.4623 17.3963C13.5748 17.5987 13.7285 17.7575 13.9235 17.8725ZM15.2098 17.3663C15.0623 17.5312 14.8635 17.6137 14.6135 17.6137C14.3635 17.6137 14.1635 17.5312 14.0135 17.3663C13.8635 17.2012 13.7885 16.975 13.7885 16.6875C13.7885 16.4 13.8635 16.1737 14.0135 16.0087C14.1635 15.8438 14.3635 15.7613 14.6135 15.7613C14.8635 15.7613 15.0623 15.8438 15.2098 16.0087C15.3598 16.1737 15.4348 16.4 15.4348 16.6875C15.4348 16.975 15.3598 17.2012 15.2098 17.3663ZM16.8186 17.8763C17.0086 17.9887 17.2361 18.045 17.5011 18.045C17.8161 18.045 18.0736 17.9688 18.2736 17.8163C18.4761 17.6637 18.6023 17.4525 18.6523 17.1825H18.1236C18.0911 17.3175 18.0211 17.4237 17.9136 17.5013C17.8086 17.5763 17.6686 17.6137 17.4936 17.6137C17.2511 17.6137 17.0611 17.5325 16.9236 17.37C16.7861 17.205 16.7173 16.9787 16.7173 16.6913C16.7173 16.4037 16.7861 16.1775 16.9236 16.0125C17.0611 15.8475 17.2511 15.765 17.4936 15.765C17.6686 15.765 17.8086 15.8062 17.9136 15.8887C18.0211 15.9687 18.0911 16.08 18.1236 16.2225H18.6523C18.6023 15.94 18.4761 15.7212 18.2736 15.5662C18.0736 15.4087 17.8161 15.33 17.5011 15.33C17.2361 15.33 17.0086 15.3875 16.8186 15.5025C16.6286 15.6175 16.4823 15.7775 16.3798 15.9825C16.2773 16.1875 16.2261 16.4237 16.2261 16.6913C16.2261 16.9588 16.2773 17.195 16.3798 17.4C16.4823 17.6025 16.6286 17.7613 16.8186 17.8763Z" fill="#212121"/>
<path d="M7 7H10" stroke="black" stroke-linecap="round"/>
<path d="M7 9H10" stroke="black" stroke-linecap="round"/>
</svg>
