<svg width="14" height="14" viewBox="0 0 14 14" fill="none" xmlns="http://www.w3.org/2000/svg">
<path d="M7 0C5.14348 0 3.36301 0.737517 2.05025 2.05031C0.737498 3.36309 0 5.14362 0 7.00018C4.78584e-05 7.91946 0.181156 8.82973 0.532983 9.67901C0.88481 10.5283 1.40047 11.3 2.05051 11.95C2.70055 12.5999 3.47226 13.1155 4.32155 13.4673C5.17085 13.819 6.08111 14 7.00036 14C7.91962 14 8.82986 13.8188 9.67912 13.467C10.5284 13.1152 11.3 12.5995 11.95 11.9494C12.6 11.2994 13.1156 10.5277 13.4673 9.67834C13.819 8.82901 14 7.91873 14 6.99945C14 3.13404 10.8653 0 7 0ZM7 12.5413C6.26696 12.5497 5.53953 12.4126 4.85985 12.1378C4.18018 11.8631 3.56176 11.4563 3.04042 10.9409C2.51908 10.4255 2.10519 9.81175 1.8227 9.13525C1.54022 8.45875 1.39477 7.73293 1.39477 6.99982C1.39477 6.26671 1.54022 5.54088 1.8227 4.86438C2.10519 4.18789 2.51908 3.57416 3.04042 3.05875C3.56176 2.54335 4.18018 2.13651 4.85985 1.8618C5.53953 1.58708 6.26696 1.44996 7 1.45837C7.73304 1.44996 8.46047 1.58708 9.14015 1.8618C9.81982 2.13651 10.4382 2.54335 10.9596 3.05875C11.4809 3.57416 11.8948 4.18789 12.1773 4.86438C12.4598 5.54088 12.6052 6.26671 12.6052 6.99982C12.6052 7.73293 12.4598 8.45875 12.1773 9.13525C11.8948 9.81175 11.4809 10.4255 10.9596 10.9409C10.4382 11.4563 9.81982 11.8631 9.14015 12.1378C8.46047 12.4126 7.73304 12.5497 7 12.5413ZM5.17781 6.81789C5.78156 6.81789 6.27083 6.24693 6.27083 5.54181C6.27083 4.83669 5.78083 4.26574 5.17708 4.26574C4.57333 4.26574 4.08333 4.83669 4.08333 5.54181C4.08333 6.24693 4.57333 6.81789 5.17781 6.81789ZM8.82292 6.81789C9.4274 6.81789 9.91667 6.24693 9.91667 5.54181C9.91667 4.83669 9.42667 4.26574 8.82292 4.26574C8.21917 4.26574 7.72917 4.83742 7.72917 5.54181C7.72917 6.2462 8.21917 6.81789 8.82292 6.81789ZM10.1653 7.97437C10.0366 7.90945 9.88761 7.89751 9.75022 7.94113C9.61283 7.98475 9.49799 8.08044 9.43031 8.20771C9.40552 8.25584 8.79667 9.36931 7.00073 9.36931C5.21354 9.36931 4.60104 8.26605 4.57042 8.20844C4.50486 8.07897 4.39055 7.98084 4.25264 7.93564C4.11474 7.89045 3.96452 7.90189 3.83505 7.96745C3.70558 8.03301 3.60745 8.14732 3.56226 8.28523C3.51706 8.42314 3.5285 8.57335 3.59406 8.70283C3.63052 8.77502 4.50406 10.4631 7.00073 10.4631C9.49813 10.4631 10.3702 8.77429 10.4059 8.7021C10.4702 8.57363 10.4809 8.42494 10.4358 8.28857C10.3907 8.15219 10.2935 8.03922 10.1653 7.97437Z" fill="#2F405B"/>
</svg>
