<svg width="24" height="24" viewBox="0 0 24 24" fill="none" xmlns="http://www.w3.org/2000/svg">
<path d="M18.5 20C18.5 20.275 18.276 20.5 18 20.5H6C5.724 20.5 5.5 20.275 5.5 20V4C5.5 3.725 5.724 3.5 6 3.5H12V8C12 9.104 12.896 10 14 10H18.5V20ZM13.5 4.621L17.378 8.5H14C13.724 8.5 13.5 8.275 13.5 8V4.621ZM19.414 8.414L13.585 2.586C13.559 2.56 13.527 2.54 13.5 2.516C13.429 2.452 13.359 2.389 13.281 2.336C13.241 2.309 13.195 2.291 13.153 2.268C13.082 2.228 13.012 2.184 12.937 2.152C12.74 2.07 12.528 2.029 12.313 2.014C12.266 2.011 12.22 2 12.172 2H12.171H12H6C4.896 2 4 2.896 4 4V20C4 21.104 4.896 22 6 22H18C19.104 22 20 21.104 20 20V10V9.828C20 9.298 19.789 8.789 19.414 8.414Z" fill="#212121"/>
<path fill-rule="evenodd" clip-rule="evenodd" d="M10.5556 14C10.2487 14 10 14.2487 10 14.5556V18.4444C10 18.7513 10.2487 19 10.5556 19H19.4444C19.7513 19 20 18.7513 20 18.4444V14.5556C20 14.2487 19.7513 14 19.4444 14H10.5556ZM12.2018 16.4739L11.2577 18H11.8785L12.4993 16.9352L13.1848 18H13.8185L12.8528 16.4997L13.7969 14.9822H13.1761L12.5553 16.0341L11.8785 14.9822H11.2448L12.2018 16.4739ZM14.2461 14.9822V18H16.1343V17.5689H14.7979V14.9822H14.2461ZM16.9341 17.9396C17.1036 18.0144 17.2991 18.0517 17.5204 18.0517C17.7503 18.0517 17.9443 18.0115 18.1024 17.931C18.2605 17.8477 18.3797 17.7385 18.4602 17.6034C18.5407 17.4683 18.5809 17.3217 18.5809 17.1636C18.5809 16.9855 18.5436 16.8403 18.4688 16.7282C18.3941 16.6133 18.2949 16.5213 18.1714 16.4523C18.0478 16.3833 17.9113 16.323 17.7618 16.2712C17.621 16.2253 17.496 16.1821 17.3867 16.1419C17.2775 16.1017 17.1913 16.0528 17.1281 15.9953C17.0648 15.935 17.0332 15.8545 17.0332 15.7539C17.0332 15.6361 17.0735 15.547 17.1539 15.4866C17.2373 15.4234 17.3393 15.3932 17.46 15.3961C17.6009 15.3961 17.7101 15.4378 17.7877 15.5211C17.8681 15.6016 17.9098 15.695 17.9127 15.8013H18.5033C18.4976 15.6231 18.4501 15.4694 18.3611 15.34C18.2748 15.2107 18.1541 15.1101 17.9989 15.0383C17.8466 14.9664 17.6698 14.9305 17.4687 14.9305C17.2703 14.9305 17.095 14.9664 16.9427 15.0383C16.7904 15.1072 16.6697 15.2064 16.5806 15.3357C16.4943 15.4622 16.4527 15.6145 16.4555 15.7927C16.4555 16.0025 16.5159 16.1707 16.6366 16.2971C16.7602 16.4236 16.9384 16.527 17.1712 16.6075L17.5764 16.7455C17.7029 16.7886 17.8035 16.8446 17.8782 16.9136C17.9558 16.9826 17.9946 17.0789 17.9946 17.2024C17.9946 17.3203 17.9515 17.4151 17.8653 17.487C17.7791 17.556 17.6627 17.5904 17.5161 17.5904C17.3465 17.5904 17.2129 17.543 17.1151 17.4482C17.0203 17.3505 16.97 17.2312 16.9643 17.0904H16.3823C16.3851 17.2944 16.4354 17.4683 16.5331 17.612C16.6309 17.7528 16.7645 17.862 16.9341 17.9396Z" fill="#212121"/>
<path d="M7 7H10" stroke="black" stroke-linecap="round"/>
<path d="M7 9H10" stroke="black" stroke-linecap="round"/>
</svg>