<svg width="15" height="11" viewBox="0 0 15 11" fill="none" xmlns="http://www.w3.org/2000/svg">
<rect width="15" height="11" fill="#E5E5E5"/>
<g clip-path="url(#clip0)">
<rect width="1440" height="660" transform="translate(-290 -95)" fill="white"/>
<rect x="-213" y="-39" width="1363" height="604" fill="#FAFAFA"/>
<rect x="-204" y="-28" width="1345" height="68" fill="white"/>
<rect x="-65" y="-12" width="95" height="35" rx="5" fill="#0254D7"/>
<path d="M11.25 9.58965H1.5V3.24309H3.44625C3.44625 3.24309 3.963 2.61126 5.07375 1.83275H0.75C0.551088 1.83275 0.360322 1.90704 0.21967 2.03929C0.0790176 2.17153 0 2.3509 0 2.53792L0 10.2948C0 10.4819 0.0790176 10.6612 0.21967 10.7935C0.360322 10.9257 0.551088 11 0.75 11H12C12.1989 11 12.3897 10.9257 12.5303 10.7935C12.671 10.6612 12.75 10.4819 12.75 10.2948V7.65325L11.25 8.81326V9.58965ZM10.0208 4.6887V7.19277L15 3.52516L10.0208 0V2.2079C3.975 2.2079 3.975 7.82672 3.975 7.82672C5.6865 5.18373 6.7395 4.6887 10.0208 4.6887Z" fill="white"/>
</g>
<defs>
<clipPath id="clip0">
<rect width="1440" height="660" fill="white" transform="translate(-290 -95)"/>
</clipPath>
</defs>
</svg>
