<svg width="75" height="75" viewBox="0 0 75 75" fill="none" xmlns="http://www.w3.org/2000/svg">
<path d="M0 13.34C0 5.973 5.973 0 13.34 0H61.66C69.027 0 75 5.973 75 13.34V61.66C75 69.027 69.027 75 61.66 75H13.34C5.973 75 0 69.027 0 61.66V13.34Z" fill="url(#paint0_linear)"/>
<path d="M57.4999 37.4375C57.5082 40.2228 56.7645 42.9704 55.3294 45.4566C53.6277 48.4358 51.0117 50.9416 47.7744 52.6934C44.5371 54.4451 40.8063 55.3737 37 55.3749C33.9702 55.3819 30.9794 54.7926 28.2482 53.653C27.9777 53.5401 27.6812 53.5015 27.3921 53.5499L18.6874 55.0084C17.6402 55.1839 16.7472 54.2456 16.9742 53.2084L18.5465 46.0241C18.6264 45.659 18.5645 45.2785 18.3889 44.9485C17.1383 42.5985 16.4923 40.0344 16.5001 37.4375C16.5015 34.107 17.5627 30.8425 19.5647 28.0099C21.5668 25.1773 24.4305 22.8883 27.8353 21.3993C30.6767 20.1436 33.8168 19.4928 37 19.5001H38.2059C43.2328 19.7427 47.9808 21.5993 51.5408 24.7143C55.1008 27.8293 57.2226 31.9838 57.4999 36.3824V37.4375Z" fill="white"/>
<defs>
<linearGradient id="paint0_linear" x1="-12" y1="4.97056" x2="41.033" y2="58.0036" gradientUnits="userSpaceOnUse">
<stop stop-color="#FFC700"/>
<stop offset="1" stop-color="#FF5D01"/>
</linearGradient>
</defs>
</svg>
