<svg width="16" height="9" viewBox="0 0 16 9" fill="none" xmlns="http://www.w3.org/2000/svg">
<rect width="16" height="9" fill="#E5E5E5"/>
<g clip-path="url(#clip0)">
<rect width="1440" height="660" transform="translate(-174 -97)" fill="white"/>
<rect x="-97" y="-41" width="1363" height="604" fill="#FAFAFA"/>
<rect x="-88" y="-30" width="1345" height="68" fill="white"/>
<rect x="-72.5" y="-13.5" width="103" height="34" rx="4.5" fill="white" stroke="#E6E6E6"/>
<path d="M5.33333 8.35714C5.33333 8.18665 5.40357 8.02313 5.5286 7.90257C5.65362 7.78201 5.82319 7.71429 6 7.71429H10C10.1768 7.71429 10.3464 7.78201 10.4714 7.90257C10.5964 8.02313 10.6667 8.18665 10.6667 8.35714C10.6667 8.52764 10.5964 8.69115 10.4714 8.81171C10.3464 8.93227 10.1768 9 10 9H6C5.82319 9 5.65362 8.93227 5.5286 8.81171C5.40357 8.69115 5.33333 8.52764 5.33333 8.35714ZM2.66667 4.5C2.66667 4.3295 2.7369 4.16599 2.86193 4.04543C2.98695 3.92487 3.15652 3.85714 3.33333 3.85714H12.6667C12.8435 3.85714 13.013 3.92487 13.1381 4.04543C13.2631 4.16599 13.3333 4.3295 13.3333 4.5C13.3333 4.6705 13.2631 4.83401 13.1381 4.95457C13.013 5.07513 12.8435 5.14286 12.6667 5.14286H3.33333C3.15652 5.14286 2.98695 5.07513 2.86193 4.95457C2.7369 4.83401 2.66667 4.6705 2.66667 4.5ZM0 0.642857C0 0.472361 0.070238 0.308848 0.195262 0.188289C0.320287 0.0677295 0.489856 0 0.666667 0H15.3333C15.5101 0 15.6797 0.0677295 15.8047 0.188289C15.9298 0.308848 16 0.472361 16 0.642857C16 0.813353 15.9298 0.976867 15.8047 1.09743C15.6797 1.21798 15.5101 1.28571 15.3333 1.28571H0.666667C0.489856 1.28571 0.320287 1.21798 0.195262 1.09743C0.070238 0.976867 0 0.813353 0 0.642857Z" fill="#868686"/>
</g>
<defs>
<clipPath id="clip0">
<rect width="1440" height="660" fill="white" transform="translate(-174 -97)"/>
</clipPath>
</defs>
</svg>
