<svg width="32" height="23" viewBox="0 0 32 23" fill="none" xmlns="http://www.w3.org/2000/svg">
<path d="M0 1.58333C0 1.16341 0.166815 0.76068 0.463748 0.463748C0.76068 0.166815 1.16341 0 1.58333 0H30.0833C30.5033 0 30.906 0.166815 31.2029 0.463748C31.4999 0.76068 31.6667 1.16341 31.6667 1.58333C31.6667 2.00326 31.4999 2.40599 31.2029 2.70292C30.906 2.99985 30.5033 3.16667 30.0833 3.16667H1.58333C1.16341 3.16667 0.76068 2.99985 0.463748 2.70292C0.166815 2.40599 0 2.00326 0 1.58333Z" fill="white"/>
<path d="M0 11.134C0 10.7141 0.166815 10.3113 0.463748 10.0144C0.76068 9.71747 1.16341 9.55066 1.58333 9.55066H30.0833C30.5033 9.55066 30.906 9.71747 31.2029 10.0144C31.4999 10.3113 31.6667 10.7141 31.6667 11.134C31.6667 11.5539 31.4999 11.9566 31.2029 12.2536C30.906 12.5505 30.5033 12.7173 30.0833 12.7173H1.58333C1.16341 12.7173 0.76068 12.5505 0.463748 12.2536C0.166815 11.9566 0 11.5539 0 11.134Z" fill="white"/>
<path d="M1.58333 19.1013C1.16341 19.1013 0.76068 19.2681 0.463748 19.5651C0.166815 19.862 0 20.2647 0 20.6847C0 21.1046 0.166815 21.5073 0.463748 21.8042C0.76068 22.1012 1.16341 22.268 1.58333 22.268H30.0833C30.5033 22.268 30.906 22.1012 31.2029 21.8042C31.4999 21.5073 31.6667 21.1046 31.6667 20.6847C31.6667 20.2647 31.4999 19.862 31.2029 19.5651C30.906 19.2681 30.5033 19.1013 30.0833 19.1013H1.58333Z" fill="white"/>
</svg>
