<svg width="84" height="62" viewBox="0 0 84 62" fill="none" xmlns="http://www.w3.org/2000/svg">
<g opacity="0.5">
<path fill-rule="evenodd" clip-rule="evenodd" d="M75.5834 5.16667H8.41675C7.73161 5.16667 7.07452 5.43884 6.59006 5.92331C6.10559 6.40778 5.83342 7.06486 5.83342 7.75V54.25C5.83342 54.9351 6.10559 55.5922 6.59006 56.0767C7.07452 56.5612 7.73161 56.8333 8.41675 56.8333H75.5834C76.2686 56.8333 76.9256 56.5612 77.4101 56.0767C77.8946 55.5922 78.1668 54.9351 78.1668 54.25V7.75C78.1668 7.06486 77.8946 6.40778 77.4101 5.92331C76.9256 5.43884 76.2686 5.16667 75.5834 5.16667ZM8.41675 0C6.36132 0 4.39008 0.816516 2.93667 2.26992C1.48326 3.72333 0.666748 5.69457 0.666748 7.75L0.666748 54.25C0.666748 56.3054 1.48326 58.2767 2.93667 59.7301C4.39008 61.1835 6.36132 62 8.41675 62H75.5834C77.6388 62 79.6101 61.1835 81.0635 59.7301C82.5169 58.2767 83.3334 56.3054 83.3334 54.25V7.75C83.3334 5.69457 82.5169 3.72333 81.0635 2.26992C79.6101 0.816516 77.6388 0 75.5834 0H8.41675Z" fill="#E6E6E6"/>
<path d="M55.6812 29.1711C56.0649 28.7884 56.5592 28.5361 57.0942 28.4499C57.6293 28.3637 58.1778 28.4479 58.6623 28.6906L78.1768 38.7501V56.8334H5.84351V51.6668L19.5145 39.5044C19.9368 39.0837 20.4916 38.8219 21.0849 38.7635C21.6781 38.7051 22.2733 38.8537 22.7695 39.1841L36.5128 48.3446L55.6812 29.1763V29.1711Z" fill="#E6E6E6"/>
<path fill-rule="evenodd" clip-rule="evenodd" d="M23.9268 25.8333C24.9445 25.8333 25.9523 25.6329 26.8926 25.2434C27.8328 24.8539 28.6872 24.2831 29.4068 23.5634C30.1265 22.8438 30.6974 21.9894 31.0868 21.0491C31.4763 20.1089 31.6768 19.1011 31.6768 18.0833C31.6768 17.0656 31.4763 16.0578 31.0868 15.1175C30.6974 14.1773 30.1265 13.3229 29.4068 12.6033C28.6872 11.8836 27.8328 11.3128 26.8926 10.9233C25.9523 10.5338 24.9445 10.3333 23.9268 10.3333C21.8713 10.3333 19.9001 11.1499 18.4467 12.6033C16.9933 14.0567 16.1768 16.0279 16.1768 18.0833C16.1768 20.1388 16.9933 22.11 18.4467 23.5634C19.9001 25.0168 21.8713 25.8333 23.9268 25.8333V25.8333Z" fill="#E6E6E6"/>
</g>
</svg>
