<svg width="8" height="12" viewBox="0 0 8 12" fill="none" xmlns="http://www.w3.org/2000/svg">
<path d="M5.03562 11.6728L4.93795 12H0L0.123852 11.6728C0.619258 11.6607 0.946507 11.6194 1.10661 11.5489C1.36539 11.4482 1.55771 11.3093 1.68055 11.1331C1.8759 10.8552 2.07728 10.3598 2.2837 9.64591L4.37206 2.40644C4.54928 1.80534 4.63688 1.35123 4.63688 1.04413C4.64141 0.905297 4.60117 0.768682 4.52209 0.654472C4.43254 0.539491 4.30878 0.455928 4.16866 0.415842C4.0146 0.356436 3.71152 0.327236 3.25639 0.327236L3.36312 0H8L7.90334 0.327236C7.52574 0.321195 7.24481 0.362477 7.06255 0.451082C6.81349 0.555214 6.60082 0.730736 6.45135 0.955529C6.31642 1.17402 6.13921 1.65732 5.9207 2.40745L3.8404 9.64692C3.65211 10.3125 3.55846 10.7374 3.55846 10.9206C3.55846 11.0676 3.5927 11.1945 3.66419 11.3012C3.74072 11.4019 3.85853 11.4804 4.01762 11.5399C4.18276 11.5932 4.52209 11.6375 5.03562 11.6728Z" fill="#2F405B"/>
</svg>
