<svg width="19" height="13" viewBox="0 0 19 13" fill="none" xmlns="http://www.w3.org/2000/svg">
<path d="M3.56006 1.24274H18.0399V2.64583H3.56006V1.24274Z" fill="#2F405B"/>
<path d="M3.56006 5.48409H18.0399V6.88717H3.56006V5.48409Z" fill="#2F405B"/>
<path d="M3.56006 9.71741H18.0399V11.1205H3.56006V9.71741Z" fill="#2F405B"/>
<path d="M1.44317 0V2.50953C1.42959 2.62941 1.42959 2.75044 1.44317 2.87032C1.46166 2.92405 1.49859 2.9695 1.5474 2.9986C1.6271 3.03721 1.71568 3.05382 1.80396 3.04671H1.90017V3.1349H0.296641V3.07878H0.376818C0.472796 3.08425 0.568759 3.0678 0.657436 3.03067C0.709742 3.00366 0.749856 2.95782 0.769683 2.90239C0.79077 2.77246 0.793469 2.64021 0.7777 2.50953V0.905995C0.789117 0.81817 0.789117 0.729237 0.7777 0.641413C0.760983 0.60427 0.73291 0.57339 0.697524 0.553218C0.655673 0.540741 0.611092 0.540741 0.569241 0.553218C0.471819 0.558269 0.376398 0.582806 0.288623 0.625377L0.248535 0.545201L1.33894 0H1.44317Z" fill="#2F405B"/>
<path d="M1.86025 7.56065H0.0322266V7.51255C0.408534 7.09553 0.749145 6.64764 1.05047 6.1736C1.16304 5.96674 1.22358 5.7356 1.22686 5.50012C1.23332 5.35271 1.18147 5.2087 1.08254 5.09923C1.03717 5.0485 0.981546 5.00798 0.919351 4.98034C0.857157 4.9527 0.789805 4.93857 0.721745 4.93888C0.606635 4.93933 0.494073 4.97281 0.39743 5.03535C0.300786 5.09788 0.224123 5.18684 0.176544 5.29166H0.0883502C0.145446 5.04207 0.276828 4.81565 0.46518 4.64223C0.626073 4.50523 0.831153 4.43118 1.04245 4.43377C1.1942 4.43186 1.3437 4.47061 1.4754 4.54602C1.60181 4.61567 1.70707 4.71816 1.78008 4.84267C1.84887 4.95083 1.88762 5.07536 1.89232 5.20346C1.88925 5.42017 1.83132 5.63256 1.72395 5.82082C1.44366 6.25642 1.10663 6.65276 0.721745 6.99942H1.38721C1.49381 7.01089 1.60132 7.01089 1.70792 6.99942C1.75377 6.98662 1.79531 6.96169 1.82818 6.92726C1.87994 6.86373 1.92307 6.79363 1.95646 6.7188H2.03664L1.86025 7.56065Z" fill="#2F405B"/>
<path d="M0.609345 10.5272V10.447C0.73495 10.4172 0.856207 10.3714 0.970139 10.3107C1.04487 10.2598 1.10554 10.1909 1.14653 10.1103C1.19372 10.0272 1.21858 9.93324 1.21869 9.83766C1.22005 9.77641 1.20864 9.71554 1.18517 9.65894C1.1617 9.60234 1.1267 9.55126 1.08239 9.50894C1.03734 9.46379 0.983486 9.4284 0.924177 9.40495C0.864867 9.3815 0.801368 9.3705 0.737627 9.37264C0.625205 9.37604 0.515653 9.40894 0.419961 9.46804C0.324269 9.52715 0.2458 9.61038 0.192427 9.70938H0.104232C0.185731 9.46154 0.335859 9.24191 0.537186 9.07599C0.700419 8.95062 0.900624 8.88295 1.10644 8.88356C1.3012 8.87608 1.49114 8.94515 1.6356 9.07599C1.70084 9.13297 1.75317 9.2032 1.78912 9.28201C1.82506 9.36081 1.84379 9.44638 1.84406 9.53299C1.84321 9.64938 1.80989 9.76323 1.74785 9.86172C1.67263 9.98033 1.56756 10.0771 1.44318 10.1423C1.60367 10.2142 1.74408 10.3243 1.85208 10.463C1.94763 10.6048 1.99539 10.7733 1.98838 10.9441C1.98725 11.0947 1.95537 11.2435 1.89471 11.3814C1.83405 11.5192 1.74588 11.6433 1.6356 11.7459C1.51304 11.8696 1.36683 11.9675 1.20568 12.0336C1.04452 12.0997 0.871716 12.1327 0.697539 12.1307C0.499228 12.1459 0.300933 12.1012 0.128285 12.0024C0.0888547 11.9778 0.05637 11.9435 0.0339175 11.9028C0.011465 11.8622 -0.000209542 11.8164 2.84691e-06 11.7699C-2.97187e-05 11.7032 0.0258978 11.6392 0.0722924 11.5913C0.118687 11.5434 0.181904 11.5154 0.24855 11.5134C0.296062 11.5027 0.345356 11.5027 0.392868 11.5134L0.649433 11.7138C0.762744 11.8219 0.910167 11.8871 1.06635 11.8982C1.11817 11.8967 1.16912 11.8846 1.21603 11.8625C1.26293 11.8404 1.30478 11.8089 1.33895 11.7699C1.42011 11.6769 1.46307 11.5566 1.45922 11.4332C1.45885 11.221 1.382 11.016 1.24274 10.8559C1.07229 10.6813 0.850249 10.566 0.609345 10.5272Z" fill="#2F405B"/>
</svg>
