<svg width="13" height="13" viewBox="0 0 13 13" fill="none" xmlns="http://www.w3.org/2000/svg">
<rect width="13" height="13" fill="#E5E5E5"/>
<g clip-path="url(#clip0)">
<rect width="1440" height="760" transform="translate(-98 -88)" fill="white"/>
<rect x="-21" y="-32" width="1363" height="704" fill="#FAFAFA"/>
<rect x="-21" y="-32" width="180" height="704" fill="white"/>
<path d="M11.6996 6.58885H6.41115V1.3004C6.41115 1.23541 6.35797 1.18223 6.29297 1.18223H5.9089C5.13291 1.18095 4.36433 1.33313 3.64738 1.63C2.93043 1.92687 2.27925 2.36258 1.73131 2.91205C1.1917 3.45 0.761738 4.08766 0.465334 4.7896C0.156898 5.51763 -0.00137267 6.30044 8.96841e-06 7.09111C-0.00126171 7.86709 0.150916 8.63567 0.447787 9.35262C0.744659 10.0696 1.18036 10.7208 1.72984 11.2687C2.27198 11.8108 2.90423 12.2377 3.60738 12.5347C4.33542 12.8431 5.11823 13.0014 5.9089 13C6.68488 13.0013 7.45346 12.8491 8.17041 12.5522C8.88737 12.2553 9.53854 11.8196 10.0865 11.2702C10.6286 10.728 11.0555 10.0958 11.3525 9.39262C11.6609 8.66459 11.8192 7.88178 11.8178 7.09111V6.70703C11.8178 6.64203 11.7646 6.58885 11.6996 6.58885ZM9.36116 10.5744C8.90374 11.0283 8.36126 11.3874 7.7648 11.6313C7.16834 11.8751 6.52963 11.9989 5.88526 11.9955C4.58383 11.9896 3.36069 11.4799 2.44038 10.5596C1.51416 9.6334 1.00452 8.4014 1.00452 7.09111C1.00452 5.78081 1.51416 4.54881 2.44038 3.62259C3.24694 2.81603 4.28543 2.32412 5.40664 2.21185V7.59336H10.7882C10.6744 8.72048 10.1781 9.76488 9.36116 10.5744ZM12.9996 5.76752L12.9612 5.35094C12.8356 3.99042 12.2314 2.70672 11.2594 1.73766C10.2867 0.766825 9.00563 0.165994 7.63725 0.0388564L7.21919 0.000448672C7.14976 -0.00546021 7.09067 0.0477198 7.09067 0.117149V5.79115C7.09067 5.85615 7.14385 5.90933 7.20885 5.90933L12.8814 5.89456C12.9508 5.89456 13.0055 5.83547 12.9996 5.76752ZM8.09223 4.90778V1.11723C9.02278 1.312 9.87674 1.77284 10.5503 2.44377C11.2254 3.11738 11.6878 3.97417 11.8798 4.89744L8.09223 4.90778Z" fill="#4D4D4D"/>
</g>
<defs>
<clipPath id="clip0">
<rect width="1440" height="760" fill="white" transform="translate(-98 -88)"/>
</clipPath>
</defs>
</svg>
