<svg width="76" height="76" viewBox="0 0 76 76" fill="none" xmlns="http://www.w3.org/2000/svg">
<path d="M0.950928 13.4897C0.950928 6.12266 6.92393 0.149658 14.2909 0.149658H62.6109C69.9779 0.149658 75.9509 6.12266 75.9509 13.4897V61.8097C75.9509 69.1767 69.9779 75.1497 62.6109 75.1497H14.2909C6.92393 75.1497 0.950928 69.1767 0.950928 61.8097V13.4897Z" fill="url(#paint0_linear)"/>
<path d="M58.4509 37.5872C58.4592 40.3725 57.7154 43.1201 56.2803 45.6063C54.5786 48.5854 51.9626 51.0913 48.7253 52.843C45.488 54.5948 41.7573 55.5233 37.9509 55.5246C34.9211 55.5315 31.9304 54.9423 29.1991 53.8027C28.9286 53.6898 28.6322 53.6512 28.343 53.6996L19.6383 55.1581C18.5911 55.3336 17.6981 54.3953 17.9251 53.358L19.4974 46.1737C19.5773 45.8086 19.5154 45.4281 19.3398 45.0982C18.0892 42.7482 17.4433 40.184 17.451 37.5872C17.4525 34.2566 18.5136 30.9922 20.5157 28.1596C22.5177 25.3269 25.3815 23.0379 28.7863 21.549C31.6276 20.2932 34.7677 19.6425 37.9509 19.6497H39.1568C44.1837 19.8924 48.9318 21.7489 52.4917 24.8639C56.0517 27.9789 58.1735 32.1334 58.4509 36.532V37.5872Z" fill="white"/>
<defs>
<linearGradient id="paint0_linear" x1="-11.0491" y1="5.12022" x2="41.9839" y2="58.1532" gradientUnits="userSpaceOnUse">
<stop stop-color="#FFC700"/>
<stop offset="1" stop-color="#FF5D01"/>
</linearGradient>
</defs>
</svg>
