<svg width="5" height="24" viewBox="0 0 5 24" fill="none" xmlns="http://www.w3.org/2000/svg">
<path d="M2.375 4.75C3.68668 4.75 4.75 3.68668 4.75 2.375C4.75 1.06332 3.68668 0 2.375 0C1.06332 0 0 1.06332 0 2.375C0 3.68668 1.06332 4.75 2.375 4.75Z" fill="#128C7E"/>
<path d="M2.375 14.25C3.68668 14.25 4.75 13.1867 4.75 11.875C4.75 10.5633 3.68668 9.5 2.375 9.5C1.06332 9.5 0 10.5633 0 11.875C0 13.1867 1.06332 14.25 2.375 14.25Z" fill="#128C7E"/>
<path d="M2.375 23.75C3.68668 23.75 4.75 22.6867 4.75 21.375C4.75 20.0633 3.68668 19 2.375 19C1.06332 19 0 20.0633 0 21.375C0 22.6867 1.06332 23.75 2.375 23.75Z" fill="#128C7E"/>
</svg>
