<svg width="12" height="15" viewBox="0 0 12 15" fill="none" xmlns="http://www.w3.org/2000/svg">
<path d="M8.60545 7.01785V2.81596C8.60545 1.26337 7.35538 0 5.81889 0C5.7696 0.000296166 5.7205 0.00616947 5.67253 0.0175078C4.95348 0.0523697 4.27535 0.362311 3.77844 0.883203C3.28154 1.40409 3.00388 2.09607 3.00293 2.81596V7.01785C3.00293 8.56275 4.25929 9.81911 5.80419 9.81911C7.34908 9.81911 8.60545 8.56275 8.60545 7.01785ZM4.40356 7.01785V2.81596C4.40356 2.04352 5.03174 1.41534 5.80419 1.41534C5.84248 1.41535 5.88069 1.41183 5.91834 1.40483C6.63616 1.45735 7.20482 2.07013 7.20482 2.81596V7.01785C7.20482 7.7903 6.57664 8.41848 5.80419 8.41848C5.03174 8.41848 4.40356 7.7903 4.40356 7.01785Z" fill="#2F405B"/>
<path d="M1.6018 7.01785H0.201172C0.201172 9.86953 2.34483 12.2254 5.10337 12.572V14.021H6.504V12.572C9.26254 12.2254 11.4062 9.87023 11.4062 7.01785H10.0056C10.0056 9.33519 8.12103 11.2197 5.80369 11.2197C3.48635 11.2197 1.6018 9.33519 1.6018 7.01785Z" fill="#2F405B"/>
</svg>
