<svg width="18" height="18" viewBox="0 0 18 18" fill="none" xmlns="http://www.w3.org/2000/svg">
<rect width="18" height="18" fill="#E5E5E5"/>
<g clip-path="url(#clip0)">
<rect width="1440" height="760" transform="translate(-628 -477)" fill="white"/>
<rect x="-551" y="-421" width="1363" height="704" fill="#FAFAFA"/>
<rect x="-542" y="-253" width="1344" height="468" fill="white"/>
<path d="M-542 8H803" stroke="#E6E6E6"/>
<rect opacity="0.3" x="-628" y="-477" width="1440" height="760" fill="black"/>
<rect x="-110" y="-390" width="405" height="503" rx="8" fill="white"/>
<rect x="-95" y="-8" width="120" height="34" rx="5" fill="#005CEF" fill-opacity="0.05"/>
<circle cx="9" cy="9" r="9" fill="#0254D7"/>
<path d="M13.091 5.92025L12.0799 4.90918L9.00009 7.98901L5.92025 4.90918L4.90918 5.92025L7.98901 9.00009L4.90918 12.0799L5.92025 13.091L9.00009 10.0112L12.0799 13.091L13.091 12.0799L10.0112 9.00009L13.091 5.92025Z" fill="white"/>
</g>
<defs>
<clipPath id="clip0">
<rect width="1440" height="760" fill="white" transform="translate(-628 -477)"/>
</clipPath>
</defs>
</svg>
