<svg width="15" height="15" viewBox="0 0 15 15" fill="none" xmlns="http://www.w3.org/2000/svg">
<path d="M10.7812 7.45383C10.7815 7.71967 10.6674 7.97277 10.4679 8.14845L5.98756 12.09C5.67878 12.3491 5.21963 12.3143 4.95341 12.0116C4.6872 11.709 4.7113 11.2491 5.00769 10.976L8.92554 7.52936C8.9473 7.51029 8.95977 7.48276 8.95977 7.45383C8.95977 7.4249 8.9473 7.39737 8.92554 7.3783L5.00769 3.93171C4.7113 3.65852 4.6872 3.19869 4.95341 2.89602C5.21963 2.59335 5.67878 2.55856 5.98756 2.81766L10.4662 6.758C10.6662 6.93399 10.781 7.18743 10.7812 7.45383Z" fill="#2D2D2D"/>
</svg>
