<svg width="24" height="24" viewBox="0 0 24 24" fill="none" xmlns="http://www.w3.org/2000/svg">
<path d="M18.5 20C18.5 20.275 18.276 20.5 18 20.5H6C5.724 20.5 5.5 20.275 5.5 20V4C5.5 3.725 5.724 3.5 6 3.5H12V8C12 9.104 12.896 10 14 10H18.5V20ZM13.5 4.621L17.378 8.5H14C13.724 8.5 13.5 8.275 13.5 8V4.621ZM19.414 8.414L13.585 2.586C13.559 2.56 13.527 2.54 13.5 2.516C13.429 2.452 13.359 2.389 13.281 2.336C13.241 2.309 13.195 2.291 13.153 2.268C13.082 2.228 13.012 2.184 12.937 2.152C12.74 2.07 12.528 2.029 12.313 2.014C12.266 2.011 12.22 2 12.172 2H12.171H12H6C4.896 2 4 2.896 4 4V20C4 21.104 4.896 22 6 22H18C19.104 22 20 21.104 20 20V10V9.828C20 9.298 19.789 8.789 19.414 8.414Z" fill="#212121"/>
<path fill-rule="evenodd" clip-rule="evenodd" d="M10.5556 14C10.2487 14 10 14.2487 10 14.5556V18.4444C10 18.7513 10.2487 19 10.5556 19H19.4444C19.7513 19 20 18.7513 20 18.4444V14.5556C20 14.2487 19.7513 14 19.4444 14H10.5556ZM11.4043 14.9822V18H11.9561V16.8317H12.5208C12.768 16.8317 12.9706 16.79 13.1287 16.7067C13.2868 16.6204 13.4032 16.5084 13.4779 16.3704C13.5526 16.2296 13.59 16.0758 13.59 15.9091C13.59 15.7338 13.5512 15.5757 13.4736 15.4349C13.396 15.2941 13.2782 15.1834 13.1201 15.1029C12.962 15.0225 12.7623 14.9822 12.5208 14.9822H11.4043ZM12.4864 16.3833H11.9561V15.4306H12.4864C12.6789 15.4306 12.8169 15.4737 12.9002 15.5599C12.9864 15.6433 13.0296 15.7597 13.0296 15.9091C13.0296 16.0557 12.9864 16.1721 12.9002 16.2583C12.8169 16.3417 12.6789 16.3833 12.4864 16.3833ZM14.0229 14.9822V18H15.0533C15.4068 18 15.6971 17.9382 15.9241 17.8146C16.1541 17.6882 16.3236 17.5128 16.4328 17.2887C16.5449 17.0616 16.601 16.7958 16.601 16.4911C16.601 16.1865 16.5449 15.922 16.4328 15.6979C16.3236 15.4708 16.1541 15.2955 15.9241 15.1719C15.6971 15.0455 15.4068 14.9822 15.0533 14.9822H14.0229ZM15.0274 17.5258H14.5748V15.4521H15.0274C15.2803 15.4521 15.4801 15.4938 15.6267 15.5772C15.7732 15.6605 15.8781 15.7798 15.9414 15.935C16.0046 16.0902 16.0362 16.2756 16.0362 16.4911C16.0362 16.7095 16.0046 16.8964 15.9414 17.0516C15.8781 17.2039 15.7732 17.3217 15.6267 17.4051C15.4801 17.4855 15.2803 17.5258 15.0274 17.5258ZM19.0365 14.9822H17.0879V18H17.6397V16.7067H18.7692V16.2712H17.6397V15.4263H19.0365V14.9822Z" fill="#212121"/>
<path d="M7 7H10" stroke="black" stroke-linecap="round"/>
<path d="M7 9H10" stroke="black" stroke-linecap="round"/>
</svg>
