<svg width="13" height="16" viewBox="0 0 13 16" fill="none" xmlns="http://www.w3.org/2000/svg">
<rect width="13" height="16" fill="#E5E5E5"/>
<g clip-path="url(#clip0)">
<rect width="1440" height="760" transform="translate(-98 -128)" fill="white"/>
<rect x="-21" y="-72" width="1363" height="704" fill="#FAFAFA"/>
<rect x="-21" y="-72" width="180" height="704" fill="white"/>
<g clip-path="url(#clip1)">
<path d="M7.90827 5.35547H5.12771C4.92827 5.35547 4.7666 5.55445 4.7666 5.79991V14.0221C4.7666 14.2676 4.92827 14.4666 5.12771 14.4666H7.90827C8.10771 14.4666 8.26938 14.2676 8.26938 14.0221V5.79991C8.26938 5.55445 8.10771 5.35547 7.90827 5.35547ZM7.51104 13.5777H5.48882V6.24436H7.51104V13.5777Z" fill="#4D4D4D"/>
<path d="M12.639 1.48926H9.85843C9.65898 1.48926 9.49731 1.68824 9.49731 1.9337V14.0226C9.49731 14.2681 9.65898 14.467 9.85843 14.467H12.639C12.8384 14.467 13.0001 14.2681 13.0001 14.0226V1.9337C13.0001 1.68824 12.8384 1.48926 12.639 1.48926ZM12.2779 13.5781H10.2195V2.37815H12.2779V13.5781Z" fill="#4D4D4D"/>
<path d="M3.14167 8.06641H0.361111C0.161669 8.06641 0 8.26538 0 8.51085V14.0664C0 14.3119 0.161669 14.5108 0.361111 14.5108H3.14167C3.34111 14.5108 3.50278 14.3119 3.50278 14.0664V8.51085C3.50278 8.26538 3.34111 8.06641 3.14167 8.06641ZM2.78056 13.5775H0.722222V8.9553H2.78056V13.5775Z" fill="#4D4D4D"/>
</g>
</g>
<defs>
<clipPath id="clip0">
<rect width="1440" height="760" fill="white" transform="translate(-98 -128)"/>
</clipPath>
<clipPath id="clip1">
<rect width="13" height="16" fill="white"/>
</clipPath>
</defs>
</svg>
