<svg width="15" height="15" viewBox="0 0 15 15" fill="none" xmlns="http://www.w3.org/2000/svg">
<path d="M4.37695 7.26101C4.37664 7.00581 4.48625 6.76283 4.67778 6.59418L8.97887 2.81029C9.27529 2.56155 9.71608 2.59495 9.97164 2.88551C10.2272 3.17607 10.2041 3.61752 9.91953 3.87977L6.1584 7.18851C6.13751 7.20681 6.12554 7.23324 6.12554 7.26101C6.12554 7.28879 6.13751 7.31521 6.1584 7.33352L9.91953 10.6423C10.1175 10.8084 10.21 11.0687 10.1612 11.3225C10.1123 11.5763 9.92989 11.7837 9.6844 11.8646C9.43891 11.9454 9.16891 11.8869 8.97887 11.7117L4.67933 7.92901C4.48733 7.76006 4.3772 7.51676 4.37695 7.26101Z" fill="#2D2D2D"/>
</svg>
