<svg width="18" height="18" viewBox="0 0 18 18" fill="none" xmlns="http://www.w3.org/2000/svg">
<path d="M15.7308 7.89419H14.3846V4.57689C14.3846 2.14419 11.9615 0.153809 8.99999 0.153809C6.03845 0.153809 3.61537 2.14419 3.61537 4.57689V7.89419H2.26922C1.59614 7.89419 0.923065 8.44708 0.923065 8.99996V16.7403C0.923065 17.2932 1.59614 17.8461 2.26922 17.8461H15.7308C16.4038 17.8461 17.0769 17.2932 17.0769 16.7403V8.99996C17.0769 8.44708 16.4038 7.89419 15.7308 7.89419ZM10.3461 15.6346H7.65383L8.1923 13.2019C7.51922 12.9807 6.98076 12.3173 6.98076 11.7644C6.98076 10.8798 7.92307 10.1057 8.99999 10.1057C10.0769 10.1057 11.0192 10.8798 11.0192 11.7644C11.0192 12.4278 10.6154 12.9807 9.80768 13.2019L10.3461 15.6346ZM11.6923 7.89419H6.30768V4.57689C6.30768 3.36054 7.51922 2.36535 8.99999 2.36535C10.4808 2.36535 11.6923 3.36054 11.6923 4.57689V7.89419Z" fill="#2F405B"/>
</svg>
