<svg width="10" height="12" viewBox="0 0 10 12" fill="none" xmlns="http://www.w3.org/2000/svg">
<path d="M0 6.12833H9.3437V6.94572H0V6.12833Z" fill="#2F405B"/>
<path d="M8.19641 7.23816H5.33931C5.78175 7.49312 6.0892 7.6881 6.22419 7.79308C6.52963 8.00271 6.78557 8.27656 6.97408 8.59547C7.12219 8.85636 7.20214 9.15038 7.20655 9.45035C7.20649 9.70187 7.15141 9.95034 7.04519 10.1783C6.93897 10.4063 6.78417 10.6083 6.59164 10.7702C6.12742 11.16 5.53215 11.3584 4.92687 11.3251C4.34455 11.3303 3.77001 11.1912 3.2546 10.9201C2.7799 10.6948 2.3774 10.3417 2.09226 9.90029C1.78828 9.32481 1.58776 8.70041 1.49984 8.05555H1.19238V12H1.49984C1.50977 11.8117 1.5721 11.6299 1.67982 11.4751C1.72309 11.4323 1.77472 11.3989 1.8315 11.3769C1.88827 11.355 1.94896 11.345 2.00977 11.3476C2.36583 11.3964 2.71541 11.4844 3.05213 11.6101C3.40813 11.7341 3.77123 11.8368 4.13947 11.9175C4.44918 11.9695 4.76281 11.9946 5.07684 11.9925C6.03309 12.0272 6.96477 11.6852 7.67148 11.0401C7.98871 10.7577 8.24234 10.4111 8.41557 10.0232C8.5888 9.6354 8.67768 9.2152 8.67635 8.79044C8.67438 8.3417 8.56647 7.89977 8.36139 7.50062C8.3164 7.40314 8.2564 7.32815 8.19641 7.23816Z" fill="#2F405B"/>
<path d="M2.33952 5.40842C2.497 5.5359 2.70697 5.67838 2.94693 5.83586H6.59893C6.23898 5.61839 5.79654 5.37093 5.27911 5.08597C4.36162 4.66431 3.51835 4.09707 2.78196 3.4062C2.54888 3.14088 2.42086 2.79949 2.42201 2.44633C2.42552 2.2132 2.47886 1.98351 2.57845 1.77269C2.67804 1.56186 2.82158 1.37478 2.99943 1.224C3.39359 0.863967 3.91321 0.672814 4.44673 0.691576C4.97224 0.694985 5.48828 0.831737 5.94652 1.08902C6.41128 1.33583 6.79817 1.70714 7.06386 2.16137C7.36155 2.72537 7.54743 3.34158 7.61129 3.97612H7.91874V0.00167195H7.61129C7.58663 0.194179 7.50871 0.375979 7.38632 0.526599C7.28779 0.614809 7.15845 0.660615 7.02637 0.654081C6.7932 0.624269 6.5672 0.553169 6.35896 0.444111C5.75387 0.16549 5.09775 0.0148634 4.43173 0.00167195C3.54087 -0.0263971 2.67523 0.299904 2.02456 0.909046C1.72877 1.17171 1.49172 1.49382 1.32891 1.85434C1.16609 2.21486 1.08117 2.60568 1.07969 3.00126C1.07574 3.45401 1.18669 3.90036 1.40215 4.29857C1.63451 4.72935 1.95369 5.10726 2.33952 5.40842Z" fill="#2F405B"/>
</svg>
