<svg width="16" height="17" viewBox="0 0 16 17" fill="none" xmlns="http://www.w3.org/2000/svg">
<path fill-rule="evenodd" clip-rule="evenodd" d="M9.64772 10.6243V11.151L12.4877 13.9777C12.7611 14.251 13.2077 14.251 13.4811 13.9777C13.7544 13.7043 13.7544 13.2577 13.4811 12.9843L10.6477 10.151H10.1211L9.93438 9.97098C10.7344 9.03765 11.1477 7.76432 10.9211 6.41098C10.6077 4.55765 9.06105 3.07765 7.19438 2.85098C4.37438 2.50432 2.00105 4.87765 2.34772 7.69765C2.57438 9.56432 4.05438 11.111 5.90772 11.4243C7.26105 11.651 8.53438 11.2377 9.46772 10.4377L9.64772 10.6243ZM6.64775 4.15097C8.30775 4.15097 9.64775 5.49097 9.64775 7.15097C9.64775 8.81097 8.30775 10.151 6.64775 10.151C4.98775 10.151 3.64775 8.81097 3.64775 7.15097C3.64775 5.49097 4.98775 4.15097 6.64775 4.15097Z" fill="#AFB4C5"/>
</svg>
