<svg width="13" height="13" viewBox="0 0 13 13" fill="none" xmlns="http://www.w3.org/2000/svg">
<rect width="13" height="13" fill="#E5E5E5"/>
<g clip-path="url(#clip0)">
<rect width="1440" height="660" transform="translate(-1209 -141)" fill="white"/>
<rect x="-962" y="-85" width="1193" height="604" fill="#FAFAFA"/>
<rect x="-952" y="-74" width="1174" height="114" fill="white"/>
<g filter="url(#filter0_d)">
<rect x="-14" y="-10" width="219" height="33" rx="5" fill="white"/>
</g>
<path d="M5.55942 11.1182C6.79289 11.118 7.99083 10.7051 8.96247 9.94526L12.0174 13L13 12.0174L9.9451 8.96269C10.7054 7.991 11.1185 6.79285 11.1188 5.55912C11.1188 2.49396 8.62474 0 5.55942 0C2.49409 0 0 2.49396 0 5.55912C0 8.62428 2.49409 11.1182 5.55942 11.1182ZM5.55942 1.38978C7.85893 1.38978 9.72898 3.25973 9.72898 5.55912C9.72898 7.85851 7.85893 9.72846 5.55942 9.72846C3.2599 9.72846 1.38985 7.85851 1.38985 5.55912C1.38985 3.25973 3.2599 1.38978 5.55942 1.38978Z" fill="#757575"/>
</g>
<defs>
<filter id="filter0_d" x="-22" y="-18" width="235" height="49" filterUnits="userSpaceOnUse" color-interpolation-filters="sRGB">
<feFlood flood-opacity="0" result="BackgroundImageFix"/>
<feColorMatrix in="SourceAlpha" type="matrix" values="0 0 0 0 0 0 0 0 0 0 0 0 0 0 0 0 0 0 127 0"/>
<feOffset/>
<feGaussianBlur stdDeviation="4"/>
<feColorMatrix type="matrix" values="0 0 0 0 0 0 0 0 0 0 0 0 0 0 0 0 0 0 0.08 0"/>
<feBlend mode="normal" in2="BackgroundImageFix" result="effect1_dropShadow"/>
<feBlend mode="normal" in="SourceGraphic" in2="effect1_dropShadow" result="shape"/>
</filter>
<clipPath id="clip0">
<rect width="1440" height="660" fill="white" transform="translate(-1209 -141)"/>
</clipPath>
</defs>
</svg>
