<svg width="14" height="12" viewBox="0 0 14 12" fill="none" xmlns="http://www.w3.org/2000/svg">
<path id="Vector" d="M13.5044 3.6645C13.1886 2.95118 12.7303 2.30315 12.1548 1.75646C11.2837 0.926819 10.1764 0.3585 8.96979 0.12176C8.13231 -0.0405866 7.26907 -0.0405866 6.43159 0.12176C5.22387 0.356988 4.11563 0.925773 3.2452 1.75713C2.67112 2.30439 2.21293 2.95172 1.8956 3.66383C1.56737 4.40292 1.39882 5.1974 1.4 5.99988L1.4007 6.01654H0L2.1 8.6666L4.2 6.01654H2.8007L2.8 5.99988C2.79798 5.07011 3.08942 4.16122 3.6365 3.39116C3.98938 2.89427 4.43866 2.46615 4.9602 2.1298C5.49075 1.7894 6.08588 1.55072 6.71229 1.42712C7.98527 1.17785 9.31007 1.42021 10.3955 2.10091C11.4809 2.78162 12.2381 3.84496 12.5006 5.05719C12.6326 5.67846 12.6326 6.31863 12.5006 6.9399C12.3725 7.537 12.1218 8.1041 11.7628 8.6086C11.5878 8.85594 11.3869 9.08861 11.165 9.29928C10.7178 9.72465 10.1891 10.0644 9.60749 10.3C9.31127 10.4192 9.00341 10.5103 8.68839 10.572C8.0363 10.6976 7.36438 10.6976 6.71229 10.572C6.086 10.4497 5.49112 10.2111 4.9616 9.86996C4.70116 9.70235 4.4581 9.51148 4.2357 9.29994L3.2459 10.2426C3.83048 10.8002 4.52482 11.2424 5.28912 11.5439C6.05343 11.8455 6.8727 12.0005 7.69999 12C8.54213 11.9997 9.37574 11.8394 10.1521 11.5287C11.2774 11.0752 12.2402 10.3201 12.9234 9.35528C13.6265 8.36452 14.0015 7.19572 14 5.99988C14.0017 5.19756 13.8332 4.40319 13.5044 3.6645Z" fill="white"/>
</svg>
