<svg width="191" height="166" viewBox="0 0 191 166" fill="none" xmlns="http://www.w3.org/2000/svg">
<path d="M0.000320435 83C-0.0383429 95.8881 3.42629 108.602 10.112 120.106C18.0393 133.891 30.226 145.486 45.3071 153.592C60.3882 161.697 77.768 165.994 95.5 166C109.922 166.032 124.154 163.185 137.101 157.684C137.816 157.38 138.602 157.279 139.368 157.407L185.164 165.028C187.957 165.493 190.336 162.988 189.727 160.222L181.223 121.628C181.008 120.649 181.172 119.627 181.658 118.75C187.839 107.607 191.037 95.3837 191 83C190.993 67.589 186.049 52.4839 176.723 39.3768C167.396 26.2697 154.055 15.6781 138.194 8.78848C124.958 2.97783 110.329 -0.0333245 95.5 0.000278177H89.8824C66.4642 1.12314 44.3454 9.71379 27.7611 24.1274C11.1767 38.541 1.29228 57.7647 0.000320435 78.1177V83Z" fill="url(#paint0_linear)"/>
<path d="M70.6187 130.735C64.7568 130.735 58.9587 127.759 55.1875 123.271C51.9414 119.409 50.2478 114.946 50.2478 109.9V86.0983C50.2478 81.3085 51.0421 76.2395 53.8902 72.3885C57.7807 67.1281 64.9137 65.8281 71.4563 65.8281H119.759C126.003 65.8281 132.872 67.0033 136.783 71.8715C137.065 72.223 137.327 72.59 137.581 72.9878C139.893 76.6008 140.484 81.0284 140.484 85.3175V110.159C140.484 115.097 138.835 120.401 135.707 124.222C131.828 128.96 125.936 130.735 119.812 130.735H70.6187Z" fill="white"/>
<path d="M47.8099 87.0164V107.899C42.0405 107.899 37.3688 103.227 37.3688 97.4575C37.3688 91.6881 42.0405 87.0164 47.8099 87.0164Z" fill="white"/>
<path d="M95.517 53.1633C89.7475 53.1633 85.0758 57.835 85.0758 63.6045H105.959C105.959 57.835 101.286 53.1633 95.517 53.1633Z" fill="white"/>
<path d="M153.364 97.4575C153.364 103.227 148.693 107.899 142.923 107.899V87.0164C148.691 87.0164 153.364 91.6881 153.364 97.4575Z" fill="white"/>
<path d="M95.5135 42.2752C98.1835 42.2752 100.348 40.1107 100.348 37.4407C100.348 34.7706 98.1835 32.6061 95.5135 32.6061C92.8434 32.6061 90.6789 34.7706 90.6789 37.4407C90.6789 40.1107 92.8434 42.2752 95.5135 42.2752Z" fill="white"/>
<path d="M76.3041 86.8071C73.071 86.8071 70.4251 89.453 70.4251 92.6861C70.4251 95.9192 73.071 98.5651 76.3041 98.5651C79.5372 98.5651 82.183 95.9192 82.183 92.6861C82.183 89.453 79.5385 86.8071 76.3041 86.8071Z" fill="#3A2BAB"/>
<path d="M114.429 98.5651C117.676 98.5651 120.308 95.933 120.308 92.6861C120.308 89.4392 117.676 86.8071 114.429 86.8071C111.182 86.8071 108.55 89.4392 108.55 92.6861C108.55 95.933 111.182 98.5651 114.429 98.5651Z" fill="#3A2BAB"/>
<path d="M100.24 105.3C100.169 105.39 98.4731 107.518 95.3659 107.518C92.2013 107.518 90.5929 105.432 90.5108 105.326C90.0673 104.719 89.2173 104.582 88.6055 105.023C87.9922 105.465 87.854 106.321 88.2961 106.934C88.3933 107.069 90.7449 110.256 95.3645 110.256C99.8665 110.256 102.313 107.094 102.414 106.96C102.868 106.36 102.751 105.51 102.155 105.052C101.562 104.597 100.703 104.704 100.24 105.3Z" fill="#3A2BAB"/>
<rect x="94" y="38" width="3" height="15.8309" fill="white"/>
<defs>
<linearGradient id="paint0_linear" x1="95.5" y1="0" x2="95.5" y2="166" gradientUnits="userSpaceOnUse">
<stop stop-color="#5949D8"/>
<stop offset="1" stop-color="#2511BE"/>
</linearGradient>
</defs>
</svg>
