<svg width="5" height="8" viewBox="0 0 5 8" fill="none" xmlns="http://www.w3.org/2000/svg">
<path d="M0.185673 6.1691L1.58138 7.56481C1.70029 7.68372 1.86014 7.75 2.02778 7.75C2.19542 7.75 2.35526 7.68372 2.47417 7.56481L3.86988 6.1691C4.11745 5.92154 4.11745 5.52193 3.86988 5.27632C3.74708 5.15351 3.58528 5.09113 3.42349 5.09113C3.2617 5.09113 3.0999 5.15351 2.9771 5.27632L2.65156 5.60185V0.873782C2.65156 0.528752 2.37281 0.25 2.02778 0.25C1.68275 0.25 1.404 0.528752 1.404 0.873782V5.60185L1.07846 5.27632C0.830897 5.02875 0.431287 5.02875 0.185673 5.27632C-0.0618908 5.52388 -0.0618908 5.92349 0.185673 6.1691Z" fill="#7B7A7B"/>
</svg>
