<svg width="5" height="8" viewBox="0 0 5 8" fill="none" xmlns="http://www.w3.org/2000/svg">
<path d="M3.87651 1.8309L2.47841 0.435185C2.3593 0.316277 2.19918 0.25 2.03125 0.25C1.86332 0.25 1.7032 0.316277 1.58409 0.435185L0.18599 1.8309C-0.0619968 2.07846 -0.0619968 2.47807 0.18599 2.72368C0.309008 2.84649 0.471078 2.90887 0.633149 2.90887C0.795219 2.90887 0.957289 2.84649 1.08031 2.72368L1.4064 2.39815V7.12622C1.4064 7.47125 1.68563 7.75 2.03125 7.75C2.37687 7.75 2.6561 7.47125 2.6561 7.12622V2.39815L2.98219 2.72368C3.23018 2.97125 3.63048 2.97125 3.87651 2.72368C4.1245 2.47612 4.1245 2.07651 3.87651 1.8309Z" fill="#7B7A7B"/>
</svg>
