<svg width="36" height="36" viewBox="0 0 36 36" fill="none" xmlns="http://www.w3.org/2000/svg">
<path fill-rule="evenodd" clip-rule="evenodd" d="M18 36C27.9412 36 36 27.9412 36 18C36 8.05884 27.9412 0 18 0C8.05884 0 0 8.05884 0 18C0 27.9412 8.05884 36 18 36ZM26 22.2468C26 21.0044 24.9932 19.9973 23.7511 19.9973H12.2489C11.0068 19.9973 10 21.0044 10 22.2468V23.1667C10 23.739 10.1785 24.2969 10.5104 24.7629C12.0526 26.9277 14.5757 28 17.9967 28C21.4171 28 23.9414 26.9282 25.4874 24.7644C25.8208 24.2979 26 23.7388 26 23.1653V22.2468ZM22.9968 13.001C22.9968 10.239 20.7582 8 17.9967 8C15.2352 8 12.9966 10.239 12.9966 13.001C12.9966 15.7627 15.2352 18.0017 17.9967 18.0017C20.7582 18.0017 22.9968 15.7627 22.9968 13.001Z" fill="url(#paint0_linear)"/>
<defs>
<linearGradient id="paint0_linear" x1="18" y1="0" x2="18" y2="36" gradientUnits="userSpaceOnUse">
<stop stop-color="#2743CB"/>
<stop offset="1" stop-color="#0B27AC"/>
</linearGradient>
</defs>
</svg>
