<?xml version="1.0" encoding="utf-8"?>
<!-- Generator: Adobe Illustrator 17.0.0, SVG Export Plug-In . SVG Version: 6.00 Build 0)  -->
<!DOCTYPE svg PUBLIC "-//W3C//DTD SVG 1.1//EN" "http://www.w3.org/Graphics/SVG/1.1/DTD/svg11.dtd">
<svg version="1.1" id="Capa_1" xmlns="http://www.w3.org/2000/svg" xmlns:xlink="http://www.w3.org/1999/xlink" x="0px" y="0px"
	 width="23px" height="23px" viewBox="0 0 23 23" enable-background="new 0 0 23 23" xml:space="preserve">
<path fill="#74DB6B" d="M18.283,23H4.717C2.116,23,0,20.884,0,18.283V4.717C0,2.116,2.116,0,4.717,0h13.566
	C20.884,0,23,2.116,23,4.717v13.566C23,20.884,20.884,23,18.283,23z"/>
<path fill="#FFFFFF" d="M15.765,14.186c-0.453-0.272-1.032-0.2-1.406,0.173l0,0c-0.526,0.526-1.38,0.526-1.906,0l-3.812-3.812
	c-0.526-0.526-0.526-1.38,0-1.906l0,0c0.373-0.373,0.445-0.953,0.173-1.406L7.963,5.816C7.636,5.271,6.929,5.094,6.384,5.421
	L5.782,5.782c-1.403,1.403,0.019,5.101,3.176,8.259s6.855,4.58,8.259,3.176l0.361-0.602c0.327-0.545,0.15-1.252-0.395-1.579
	L15.765,14.186z"/>
</svg>
