<svg width="13" height="13" viewBox="0 0 13 13" fill="none" xmlns="http://www.w3.org/2000/svg">
<path d="M12.6875 12.0689L9.38346 8.76486C10.1774 7.81169 10.5734 6.5891 10.4889 5.35145C10.4044 4.11379 9.84601 2.95635 8.92988 2.1199C8.01375 1.28346 6.81041 0.83241 5.57019 0.86059C4.32997 0.88877 3.14836 1.39401 2.27117 2.2712C1.39398 3.14839 0.888739 4.33 0.860559 5.57022C0.832379 6.81044 1.28343 8.01378 2.11987 8.92991C2.95632 9.84604 4.11376 10.4044 5.35142 10.4889C6.58907 10.5734 7.81166 10.1775 8.76483 9.38349L12.0688 12.6875L12.6875 12.0689ZM1.74996 5.68749C1.74996 4.90872 1.98089 4.14745 2.41355 3.49993C2.84621 2.85241 3.46116 2.34773 4.18064 2.04971C4.90013 1.75169 5.69183 1.67372 6.45563 1.82565C7.21943 1.97758 7.92102 2.35259 8.47169 2.90326C9.02236 3.45393 9.39737 4.15552 9.5493 4.91932C9.70123 5.68312 9.62325 6.47482 9.32523 7.1943C9.02721 7.91379 8.52253 8.52874 7.87502 8.9614C7.2275 9.39406 6.46622 9.62499 5.68746 9.62499C4.64352 9.62383 3.64268 9.20862 2.9045 8.47044C2.16633 7.73227 1.75112 6.73142 1.74996 5.68749Z" fill="#909090"/>
</svg>
