<svg width="184" height="90" fill="none" xmlns="http://www.w3.org/2000/svg"><path d="M119.815 37.56l2.91-4.74c.22-.36.38-.88.71-1a3.311 3.311 0 012-.41 1.87 1.87 0 011 1.43c.09 3.44.05 6.87 0 10.31a1.347 1.347 0 01-.893 1.454c-.195.068-.403.09-.607.065-1 0-1.44-.63-1.45-1.57 0-1.92 0-3.85-.2-5.89-.45.67-.9 1.33-1.34 2-.26.38-.49.79-.75 1.17-.93 1.34-2 1.31-2.9-.09a18.89 18.89 0 00-2.13-2.87v5.69c-.07.92-.5 1.54-1.51 1.56-1.01.02-1.45-.61-1.51-1.54-.05-.65 0-1.31 0-2v-7.88c0-.89.1-1.73 1.17-2a1.89 1.89 0 012.3 1c.98 1.79 2.06 3.43 3.2 5.31zM110.085 71.87a3.328 3.328 0 012.31 3.58 3.496 3.496 0 01-3.51 3.23 61.802 61.802 0 01-6.24.13 1.523 1.523 0 01-1.552-1.054 1.532 1.532 0 01-.058-.666v-9.85a1.524 1.524 0 01.939-1.63c.21-.085.435-.123.661-.11 1.77 0 3.55-.06 5.32.05a3.53 3.53 0 013.51 2.37 3.307 3.307 0 01-1.38 3.95zm-5.89 1.53c-.48 2.66-.43 2.72 2 2.72h1.49c.88 0 1.67-.29 1.69-1.32.02-1.03-.82-1.32-1.66-1.37-1.16-.08-2.28-.03-3.52-.03zm1.68-2.6v-.05a5.68 5.68 0 001.6 0 2 2 0 001.07-.91c.13-.28-.1-1.08-.25-1.1-1.33-.2-2.68-.28-4-.38 0 0-.14.1-.14.16-.07.681-.07 1.368 0 2.05 0 .15.73.19 1.12.26.2.006.401-.004.6-.03zM127.045 56.22c0-2.26-.05-4.18 0-6.09.029-.598.27-1.165.68-1.6a1.434 1.434 0 011.536-.146 1.425 1.425 0 01.774 1.335c.06 3.51.07 7 0 10.54a1.783 1.783 0 01-1.13 1.34 2.632 2.632 0 01-2-.76c-1.59-1.89-3-3.91-4.53-5.87a3.913 3.913 0 00-1.14-1.11v6.18c-.07 1.1-.72 1.83-1.62 1.73a1.544 1.544 0 01-1.106-.575 1.545 1.545 0 01-.324-1.205v-9.74c0-.84.18-1.58 1-1.88a2.002 2.002 0 012.38.72c1.1 1.44 2.19 2.89 3.29 4.34.67.84 1.33 1.68 2.19 2.79zM154.855 55.87v-5.68c0-1.27.52-1.93 1.48-1.94.96-.01 1.56.64 1.56 1.88v9.62c0 .89-.22 1.64-1.16 1.92a1.859 1.859 0 01-2.1-.85c-1.78-2.33-3.55-4.67-5.6-7V59.93c0 1.08-.64 1.92-1.58 1.88-.94-.04-1.43-.75-1.44-1.89V50.3c0-.83.11-1.57 1-1.89a1.94 1.94 0 012.37.71c1.22 1.59 2.43 3.19 3.65 4.79.53.7 1.07 1.39 1.61 2.09l.21-.13zM130.575 70.61v6.35c0 .79-.18 1.47-1 1.76-1.08.39-2-.31-2-1.66-.05-1.89 0-3.79 0-5.68v-3.82c0-.88 0-1.79 1-2.11a2.11 2.11 0 012.52.92c1.44 1.95 2.93 3.88 4.41 5.81.22.3.47.57.91 1.1V68.4c0-.57 0-1.15.05-1.73a1.32 1.32 0 011.44-1.34 1.35 1.35 0 011.48 1.44V76.74c0 .8 0 1.61-.93 1.92a1.931 1.931 0 01-2.32-.84c-1.66-2.18-3.33-4.35-5-6.53-.11-.17-.25-.32-.56-.68zM176.325 51.08v2.5h4.37a2 2 0 011.3.28 1.681 1.681 0 01.52 1.36 1.735 1.735 0 01-1.18 1c-1.231.11-2.469.11-3.7 0-1-.07-1.53.2-1.35 1.32.031.446.031.893 0 1.34h5c.42 0 .94-.12 1.25.08.31.2 1 .81 1 1.22 0 .41-.59 1.29-.95 1.31-2.69.1-5.4.1-8.09 0-.4 0-1.08-.87-1.09-1.36-.09-3.43-.06-6.86 0-10.3a1.43 1.43 0 011.56-1.52c2.39-.05 4.78 0 7.17 0a1.352 1.352 0 011.52 1.39c0 1-.64 1.37-1.52 1.38-1.96.02-3.84 0-5.81 0zM146.355 73.33c-1.08.72-1.9 1.45-1.64 2.84.065.42.065.849 0 1.27a1.34 1.34 0 01-1.33 1.34 1.42 1.42 0 01-1.65-1.1 1.836 1.836 0 01-.07-.46v-10.3a1.424 1.424 0 01.603-1.32 1.421 1.421 0 011.447-.1 2.327 2.327 0 01.95 1.51c.13 1.25 0 2.52 0 4.08l4.09-4c.44-.43.86-.89 1.33-1.28a1.431 1.431 0 011.045-.45 1.445 1.445 0 011.045.45 1.374 1.374 0 01.272 1.62 1.377 1.377 0 01-.372.45c-1.18 1.16-2.41 2.27-3.69 3.47 1.14 1.42 2.23 2.8 3.33 4.18.26.33.53.66.76 1a1.383 1.383 0 01.317 1.087 1.382 1.382 0 01-.597.963 1.402 1.402 0 01-2.07-.25c-.85-1-1.65-2.13-2.48-3.2l-1.29-1.8zM115.165 19.22v-3.48c0-.93.41-1.56 1.42-1.61a1.358 1.358 0 011.478.863c.073.194.101.4.082.607.07 2.2 0 4.41.1 6.61-.028.37.026.74.159 1.087a2.502 2.502 0 001.557 1.473c.353.114.726.148 1.094.1 1.66 0 2.64-1.07 2.68-3 .04-1.93 0-3.94 0-5.91 0-1.28.43-1.81 1.4-1.86.97-.05 1.62.54 1.63 1.8 0 2.16.08 4.33-.07 6.49-.33 4.7-3.78 5.66-7.14 5.19a4.932 4.932 0 01-4.39-5v-3.36zM144.745 60.53c-.3.33-.6.94-1.05 1.08a2.999 2.999 0 01-1.57-.32c-.14 0-.28-.28-.32-.46-.39-2.09-1.83-2.34-3.59-2.1-.268.04-.541.04-.81 0-1.6-.24-2.69.17-3.12 1.94a1.404 1.404 0 01-.754.992 1.408 1.408 0 01-1.246.008c-.77-.35-1-1.16-.55-2.17 1.47-3.35 3-6.7 4.43-10.05a2 2 0 011.88-1.3 1.914 1.914 0 011.89 1.26c1.5 3.38 2.997 6.763 4.49 10.15.1.22.16.49.32.97zm-5.06-4.61l-1.68-4c-.62 1.51-1.12 2.71-1.66 4h3.34zM114.325 26.4c-.28.3-.58.9-1 1a2.52 2.52 0 01-1.57-.3 1.343 1.343 0 01-.52-.87c-.3-1.54-1.3-1.9-2.69-1.7a3.617 3.617 0 01-1 0c-1.8-.25-3.21 0-3.71 2.15a1.279 1.279 0 01-.757.848 1.271 1.271 0 01-1.133-.098 1.307 1.307 0 01-.853-1.383c.023-.195.089-.381.193-.547 1.53-3.45 3-6.93 4.64-10.33a2.406 2.406 0 011.75-1.17 2.365 2.365 0 011.76 1.16c1.65 3.44 3.15 7 4.69 10.43.04.18.07.37.2.81zm-5-4.62l-1.69-4c-.6 1.47-1.1 2.69-1.65 4h3.34zM106.295 45.03c-1.33-.49-2.83-.94-4.24-1.6-1.08-.5-1.32-1.42-.77-2.16a1.42 1.42 0 012.22-.23 4.722 4.722 0 003.61.93 1.91 1.91 0 001.27-.9c.3-.71-.33-1.12-.94-1.32-1-.34-2-.58-3-.92-2.28-.77-3.19-2.08-3-4.2a4.05 4.05 0 013.76-3.5 7.77 7.77 0 014.81.94c.8.44 1.24 1.06.8 2-.44.94-1.15.92-2.18.54a11 11 0 00-3-.74c-.36 0-1 .59-1.1 1-.08.27.48.92.89 1.09 1.35.56 2.79.88 4.12 1.47a3.183 3.183 0 011.89 3.31 3.56 3.56 0 01-2.08 3.36c-1 .37-2.022.681-3.06.93zM134.355 41.62c-.229.02-.46.02-.69 0a2.26 2.26 0 00-2.95 1.88 1.419 1.419 0 01-2.07 1c-1-.51-.88-1.34-.51-2.2l4.4-10a1.92 1.92 0 011.85-1.32 2 2 0 012 1.33c1.48 3.333 2.964 6.666 4.45 10a1.404 1.404 0 01.178 1.181 1.396 1.396 0 01-.798.889 1.33 1.33 0 01-2-.79c-.56-2.05-2-2.32-3.86-1.97zm0-6.8l-1.69 4.09h3.37l-1.68-4.09zM126.335 77.54c-.35.4-.62 1-1 1.1a2.723 2.723 0 01-1.6-.27 1.078 1.078 0 01-.49-.74c-.36-1.71-1.46-2.18-3-1.89a2.252 2.252 0 01-.58 0c-1.84-.22-3.4-.08-3.89 2.21-.19.89-1.08 1.06-1.89.73a1.281 1.281 0 01-.66-1.85c1.53-3.54 3.06-7.08 4.71-10.57a2.72 2.72 0 011.76-1c.9-.19 1.5.45 1.85 1.26 1.334 3.066 2.687 6.136 4.06 9.21.18.53.42 1.1.73 1.81zm-6.79-8.57l-1.65 4h3.34l-1.69-4zM166.435 61.85a6.863 6.863 0 01-6.44-4.567 6.847 6.847 0 01.37-5.441 6.858 6.858 0 017-3.652c1.131.192 2.226.553 3.25 1.07a1.457 1.457 0 01.915 1.54c-.026.213-.1.418-.215.6-.43.75-1.26.81-2.24.43a8 8 0 00-3.15-.8 3.399 3.399 0 00-3.09 3 4.078 4.078 0 001.61 4.4 3.839 3.839 0 004.36 0c.23-.14.44-.33.68-.45a1.36 1.36 0 011.85.39 1.328 1.328 0 01.282.981 1.314 1.314 0 01-.502.889 6.56 6.56 0 01-4.68 1.61zM104.205 53.81h4.58c.94 0 1.63.28 1.65 1.33.02 1.05-.65 1.39-1.58 1.4h-3.83c-.7 0-1 .25-.93 1 .07.75 0 1.62 0 2.43 0 1.11-.62 1.81-1.52 1.82-.9.01-1.53-.67-1.54-1.78v-9.85c0-1.21.56-1.8 1.76-1.82h7c.94 0 1.59.45 1.55 1.46-.04 1.01-.63 1.35-1.54 1.35h-5.55l-.05 2.66zM145.435 41.78h5.06c1.3 0 2 1 1.47 1.94a1.996 1.996 0 01-1.35.84c-2.16.09-4.32 0-6.48 0a1.528 1.528 0 01-1.71-1.62V32.75a1.497 1.497 0 01.403-1.18 1.486 1.486 0 011.157-.46c.93 0 1.45.66 1.46 1.83-.01 2.91-.01 5.74-.01 8.84zM156.335 41.78h4.92c1 0 1.68.34 1.77 1.4.07.84-.63 1.41-1.73 1.42h-6.13c-1.29 0-1.85-.52-1.86-1.83-.04-3.28-.04-6.56 0-9.84 0-1.13.67-1.81 1.56-1.78.89.03 1.47.67 1.47 1.83.01 2.88 0 5.77 0 8.8zM112.815 55.02v-5.1c0-1.1.55-1.67 1.49-1.67s1.48.58 1.48 1.69v10.2a1.423 1.423 0 01-.348 1.14 1.43 1.43 0 01-1.092.48c-.9.07-1.51-.58-1.52-1.63-.03-1.7-.01-3.45-.01-5.11z" fill="#603086"/><path d="M104.195 73.4c1.21 0 2.36-.05 3.5 0 .84.05 1.68.31 1.66 1.37-.02 1.06-.81 1.28-1.69 1.32h-1.49c-2.41.03-2.46-.03-1.98-2.69zM105.875 70.8a3.719 3.719 0 01-.58 0c-.39-.07-1.09-.11-1.12-.26-.07-.682-.07-1.369 0-2.05 0-.06.09-.17.14-.16 1.35.1 2.7.18 4 .38.15 0 .38.82.25 1.1a1.999 1.999 0 01-1.13.87 5.68 5.68 0 01-1.6 0l.04.12zM139.685 55.92h-3.34c.54-1.3 1-2.5 1.66-4l1.68 4zM109.285 21.78h-3.34c.55-1.32 1-2.54 1.65-4l1.69 4zM134.435 34.82l1.68 4.09h-3.37l1.69-4.09zM119.545 68.97l1.69 4h-3.34l1.65-4z" fill="#fff"/><circle cx="45" cy="45" r="45" fill="#ED6921"/><path d="M45.414 59.313h0l-.002-.007-13.046-30.082h0l-.003-.007c-.577-1.22-1.911-1.982-3.355-1.93-1.383-.052-2.777.708-3.354 1.93h0l-.004.007-13.045 30.082h0l-.003.007c-.652 1.635.274 3.408 2.102 4.008h0l.009.002c.377.11.755.163 1.19.163 1.377 0 2.716-.703 3.296-1.93h0l.003-.008 2.827-6.489h14.017l2.826 6.486v.002c.521 1.238 1.868 1.94 3.24 1.94.428 0 .87-.053 1.202-.167 1.827-.6 2.752-2.373 2.1-4.007zM34.33 49.464h-9.964l4.657-11.957 5.307 11.957z" fill="#603086" stroke="#603086" stroke-width=".5"/><path d="M77.856 49.417V32.394c0-1.756-1.365-3.13-3.12-3.13-1.742 0-3.166 1.362-3.166 3.13v17.023c0 4.414-3.54 8.011-7.975 8.011-4.388 0-7.975-3.6-7.975-8.011V32.394c0-1.773-1.477-3.13-3.166-3.13-1.755 0-3.119 1.374-3.119 3.13v17.023c0 7.874 6.314 14.319 14.26 14.319 7.898 0 14.26-6.443 14.26-14.319z" fill="#603086" stroke="#603086"/></svg>