<svg width="321" height="41" fill="none" xmlns="http://www.w3.org/2000/svg"><path fill-rule="evenodd" clip-rule="evenodd" d="M310.11 14.013c-.421-.44-1.045-.61-1.842-.608h-3.029V30.85h5.413v-.104h.102V16.203c0-.426-.053-.805-.17-1.141-.074-.407-.211-.764-.474-1.049zm-7.189-4.608c-.435-.429-1.054-.552-1.841-.552h-4.663v2.776h.104v.4h.749c.486-.005.694.076.746.14l.028.037c.007.088.011.19.011.307V30.85h5.044v-.104h.102v-.274h.274v-.103h.102V11.652c0-.463-.052-.857-.173-1.2-.073-.417-.212-.773-.483-1.047zm-6.629 4h-3.027c-.747-.001-1.365.17-1.794.6-.426.435-.596 1.054-.596 1.801V30.85h5.417v-.104h.101V13.802h-.101v-.397zm14.945 18.265c-2.587 2.593-6.214 4.136-10.435 4.142-8.37-.013-14.359-6.254-14.372-14.796.007-4.321 1.494-8.004 4.017-10.618 2.542-2.574 6.101-4.082 10.253-4.089 8.511.016 14.606 6.135 14.622 14.808-.004 4.245-1.52 7.926-4.085 10.553zm2.717-23.797c-3.284-3.267-7.89-5.2-13.152-5.2-5.195 0-9.744 1.933-12.982 5.2l-.043.05-.058.054c-3.24 3.266-5.171 7.86-5.169 13.14-.001 5.213 1.93 9.805 5.183 13.086 3.256 3.281 7.832 5.25 13.093 5.247h.006c5.197 0 9.769-1.967 13.037-5.247l.045-.046.058-.057c3.269-3.278 5.23-7.869 5.23-13.084 0-5.283-1.961-9.878-5.248-13.143zm-39.651 19.29h-7.306l7.419-10.388v-4.227h-11.855c-.725 0-1.323.144-1.737.562-.409.42-.552 1.02-.552 1.75l.001 3.693h2.672v-.798c.002-.437.091-.65.221-.77.124-.122.396-.222.898-.22h3.487l-7.421 10.383v4.368h14.558v-3.968h-.385v-.385zm-42.019-1.43c-1.008.987-1.969 1.43-2.893 1.43-.57-.002-.832-.121-.985-.306-.162-.188-.274-.583-.272-1.244.041-1.313.293-1.715 1.257-2.123.831-.356 1.549-.501 2.893-.73v2.973zm6.08 2.852c-.152-.135-.258-.343-.26-.761V18.86c-.002-2.308-.376-3.973-1.423-5.075-1.056-1.1-2.68-1.515-4.966-1.515-1.49 0-2.941.158-4.344.568-1.017.293-2.08.56-3.744 1.403l-.312.156 1.568 4.087.372-.164.474-.216c1.344-.537 2.121-.79 3.042-.938.804-.122 1.171-.13 1.577-.13.783-.001 1.257.14 1.516.382.258.237.418.66.42 1.442v.084c-2.33.376-3.027.523-4.204.78-.846.146-1.559.432-2.247.705-2.319 1.005-3.399 2.903-3.377 5.74.002 1.77.346 3.142 1.147 4.094.802.948 2.024 1.397 3.581 1.397h.022c1.292-.003 2.574-.288 3.606-.883.544-.333.945-.591 1.616-1.155.037.545.188.996.482 1.332.341.394.85.564 1.394.562h5.436v-2.698h-.518c-.428 0-.703-.097-.858-.233zm14.917-16.179c-1.946-.006-3.587.624-5.622 2.308v-.13c0-.593-.104-1.105-.433-1.49-.336-.388-.849-.552-1.454-.546h-5.708v2.697h.658c.487.002.735.118.881.274.146.157.239.428.239.862v15.135h5.705v-.385h.384V18.896c1.142-.994 1.804-1.296 2.895-1.306.568.01.801.117.963.338.177.232.292.75.289 1.622v11.967h5.956V18.722c.008-2.628-.285-3.734-1.027-4.776-.91-1.084-2.156-1.546-3.726-1.54zm-54.603-5.928h-5.714v2.837h.662c.502 0 .769.101.897.224.128.12.22.335.222.772v21.205h5.711v-.383h.382V8.659c0-.612-.157-1.17-.534-1.575-.379-.407-.946-.609-1.626-.606zm-18.872 14.48l2.335-7.861 2.108 7.862h-4.443zm4.532-14.48h-9.115v2.837h1.068c.585-.004.933.08 1.064.177.119.088.182.178.191.546-.004.4.014.717-.397 1.944l-6.442 19.534h6.277l.082-.274 1.694-5.654h6.517l1.639 5.928h6.804l-6.411-22.83c-.384-1.621-1.413-2.266-2.971-2.208zm24.032 0h-5.712v2.837h.66c.856.06 1.068.205 1.118.994v21.207h5.705v-.383h.383V8.659c.002-.628-.2-1.19-.59-1.581-.388-.396-.943-.6-1.564-.6zm8.462-.41c-1.018 0-1.895.255-2.533.776-.636.515-.999 1.304-.992 2.227-.009.92.363 1.687 1.005 2.165.644.482 1.513.698 2.52.698 1.071-.002 1.942-.212 2.572-.7.633-.49.957-1.256.951-2.163.002-.91-.313-1.698-.94-2.225-.624-.524-1.504-.778-2.583-.778zm1.366 6.477h-5.842v2.7h.653c.487.002.734.118.88.274.147.155.239.427.239.86v15.137h6.093v-16.8c0-.627-.201-1.179-.568-1.568-.367-.391-.888-.603-1.455-.603zM142.528 26.43c1.655 0 3.011-.804 3.011-2.427V8.759h7.302v15.928c0 4.832-3.208 6.449-7.415 6.449h-12.162c-.907 0-1.929-.523-2.362-1.26l-2.114-3.446h13.74zm-59.721 0c1.658 0 3.006-.804 3.006-2.427V8.759h7.308v15.928c0 4.832-3.206 6.449-7.417 6.449H73.548c-.908 0-1.931-.523-2.366-1.26l-2.115-3.446h13.74zm28.002-12.284l-9.858 16.99h-8.59l13.75-22.377H115.51l13.737 22.377h-8.578l-2.31-3.988h-12.718l2.111-3.435c.434-.746 1.458-1.262 2.362-1.262h5.52l-4.825-8.305zm-59.728 0l-9.865 16.99h-8.589L46.38 8.759h9.401l13.744 22.377h-8.59l-2.305-3.988H45.904l2.111-3.435c.435-.746 1.46-1.262 2.37-1.262H55.9l-4.819-8.305zM10.12 21.71v9.423l2.11-3.443c.44-.74 1.46-1.26 2.369-1.26h8.027c1.519.022 2.725-1.043 2.725-2.357 0-1.316-1.178-2.363-2.725-2.363H10.12zm0 0l2.11-3.432c.44-.746 1.46-1.263 2.369-1.263h8.114c1.454 0 2.638-.658 2.638-1.78 0-1.118-1.166-1.779-2.638-1.779H10.12v8.254zm-7.305 9.426V8.759h19.898c4.106 0 10.707.552 10.707 5.869 0 2.615-2.307 4.46-4.988 5.124 3.326.999 4.988 2.838 4.988 5.35 0 5.488-6.279 6.012-10.707 6.031l-19.898.002zm7.305-9.426l-7.305 9.426 7.305-9.426zM161.995 2.81v36.442h2.02V2.809h-2.02z" fill="#176FC1"/></svg>