<svg width="179" height="60" fill="none" xmlns="http://www.w3.org/2000/svg"><path d="M29.059 14.727h-6.466c-1.957 0-3.5-1.557-3.5-3.533V4.666c0-1.917 1.543-3.534 3.5-3.534h6.466c1.898 0 3.5 1.557 3.5 3.534v6.528c0 1.976-1.543 3.533-3.5 3.533z" fill="#406EB3"/><path d="M12.272 29.401H5.036c-2.195 0-3.915-1.797-3.915-3.953v-7.367c0-2.156 1.78-3.953 3.915-3.953h7.296c2.194 0 3.914 1.797 3.914 3.953v7.367c0 2.216-1.78 3.953-3.974 3.953z" fill="#632678"/><path d="M11.62 44.674H7.171c-1.305 0-2.372-1.078-2.372-2.396v-4.492c0-1.317 1.067-2.395 2.372-2.395h4.449c1.305 0 2.373 1.078 2.373 2.395v4.492c0 1.318-1.068 2.396-2.373 2.396z" fill="#982881"/><path d="M23.542 58.868h-5.279a2.862 2.862 0 01-2.847-2.875v-5.33c0-1.558 1.246-2.875 2.847-2.875h5.28a2.862 2.862 0 012.846 2.874v5.33c0 1.618-1.245 2.876-2.847 2.876zM42.82 17.423h-3.618c-1.068 0-1.958-.899-1.958-1.977v-3.653c0-1.078.89-1.977 1.958-1.977h3.618c1.067 0 1.957.899 1.957 1.977v3.653c.06 1.078-.83 1.977-1.957 1.977z" fill="#BA2F7D"/><path d="M122.657 19.878c1.187 0 2.076-.958 2.076-2.096a2.073 2.073 0 00-2.076-2.097c-1.186 0-2.135.959-2.135 2.097s.949 2.096 2.135 2.096zM45.963 42.518c-.297.479-.83.718-1.424.718-.296 0-.711-.06-.949-.24-.474-.299-.77-.898-.77-1.497 0-.299.059-.599.237-.838l4.863-7.726-4.863-7.726c-.178-.24-.238-.6-.238-.839 0-.599.297-1.198.83-1.497.297-.18.594-.24.89-.24.594 0 1.127.24 1.483.719l3.974 6.349 4.034-6.349c.296-.48.89-.719 1.483-.719.296 0 .593.06.89.24.533.3.83.898.83 1.497 0 .3-.06.6-.237.839l-4.864 7.726 4.864 7.726c.177.24.237.539.237.838 0 .6-.297 1.258-.771 1.498-.297.18-.653.24-.95.24-.592 0-1.067-.24-1.423-.72l-4.033-6.288-4.093 6.289zM63.342 24.97a10.41 10.41 0 017-2.696c5.871 0 10.498 4.731 10.498 10.6 0 5.81-4.686 10.542-10.499 10.542a10.41 10.41 0 01-6.999-2.695v9.044c0 .898-.83 1.677-1.72 1.677-.83 0-1.72-.78-1.72-1.678V24.131c0-.899.83-1.677 1.72-1.677.949 0 1.72.778 1.72 1.677v.838zm6.94.838c-3.915 0-7 3.114-7 7.067 0 3.953 3.085 7.067 7 7.067s7-3.114 7-7.067c.058-3.953-3.026-7.067-7-7.067zM110.557 30.958v10.601c0 .898-.83 1.677-1.72 1.677-.949 0-1.72-.779-1.72-1.677V24.13c0-.898.83-1.677 1.72-1.677.83 0 1.661.719 1.72 1.617a8.686 8.686 0 015.22-1.736c1.067 0 1.898.838 1.898 1.736 0 .959-.831 1.797-1.898 1.797-2.67.06-5.22 1.018-5.22 5.091zM122.657 22.453c-.949 0-1.72.779-1.72 1.677V41.62c0 .898.83 1.677 1.72 1.677.831 0 1.72-.779 1.72-1.677V24.13c0-.898-.83-1.677-1.72-1.677zM144.722 24.13c0-.898.831-1.677 1.721-1.677.83 0 1.72.779 1.72 1.677V41.62c0 .898-.831 1.677-1.72 1.677-.949 0-1.721-.779-1.721-1.677v-.839c-1.898 1.677-4.329 2.695-6.999 2.695-5.872 0-10.498-4.731-10.498-10.6 0-5.81 4.685-10.541 10.498-10.541 2.67 0 5.101 1.018 6.999 2.695v-.899zm-6.999 15.812c3.915 0 6.999-3.114 6.999-7.067 0-3.953-3.084-7.068-6.999-7.068-3.914 0-6.999 3.115-6.999 7.068 0 3.953 3.085 7.067 6.999 7.067zM165.779 31.198c0-2.935-2.491-5.45-5.398-5.45-2.787 0-5.397 1.137-5.397 5.27v10.6c0 .9-.831 1.678-1.72 1.678-.949 0-1.721-.779-1.721-1.677V24.13c0-.898.831-1.677 1.721-1.677.83 0 1.66.719 1.72 1.617 1.483-1.138 3.321-1.736 5.338-1.736 4.686 0 8.897 3.713 8.897 8.384v10.9c0 .9-.83 1.678-1.72 1.678-.949 0-1.72-.779-1.72-1.677V31.198zM41.811 32.276c-.06-5.39-4.804-9.943-10.44-9.943-5.871 0-10.498 4.732-10.498 10.542 0 5.929 4.686 10.6 10.499 10.6 2.788 0 5.397-1.078 7.295-2.994.356-.3.594-.839.594-1.318 0-.958-.83-1.737-1.72-1.737-.534 0-1.009.3-1.365.72-1.186 1.257-2.906 1.856-4.745 1.856-3.5 0-6.347-2.396-6.94-5.75H40.33c.059 0 .118 0 .177-.06.712-.3 1.305-1.018 1.305-1.916zm-10.44-6.469c3.145 0 5.754 2.037 6.644 4.911H24.669c.89-2.874 3.5-4.91 6.703-4.91zM104.211 32.276c-.06-5.39-4.864-9.943-10.44-9.943-5.872 0-10.499 4.732-10.499 10.542 0 5.929 4.686 10.6 10.5 10.6 2.787 0 5.397-1.078 7.295-2.994.356-.3.593-.839.593-1.318 0-.958-.83-1.737-1.72-1.737-.534 0-1.008.3-1.364.72-1.187 1.257-2.907 1.856-4.745 1.856-3.5 0-6.347-2.396-6.94-5.75H102.846c.712-.3 1.365-1.078 1.365-1.976zm-10.44-6.469c3.144 0 5.754 2.037 6.643 4.911H87.069c.89-2.874 3.5-4.91 6.702-4.91zM172.897 43.296c-.178 0-.297-.12-.297-.3v-2.934h-.652c-.178 0-.297-.12-.297-.3s.119-.3.297-.3h1.898c.178 0 .297.12.297.3s-.119.3-.297.3h-.652v2.934c0 .18-.119.3-.297.3zM176.278 43.296c-.178 0-.238-.12-.297-.24l-.83-2.395v2.335c0 .18-.119.3-.297.3s-.296-.12-.296-.3v-3.114c0-.24.178-.42.415-.42.178 0 .356.12.415.3l.83 2.456.831-2.456c.059-.18.237-.3.415-.3.237 0 .415.18.415.42v3.114c0 .18-.118.3-.296.3s-.297-.12-.297-.3v-2.335c-.119.36-.296.958-.474 1.437-.297.958-.356.959-.356.959.059.18-.06.239-.178.239z" fill="#26478D"/></svg>