<svg xmlns="http://www.w3.org/2000/svg" width="289" height="50"><path d="M1 1h287.2v48H1.1V1z" fill="#004c8f"/><path d="M49 1h239.2v48H49V1z" fill="#004c8f"/><path d="M64.1 36.3V13.7h7.5v7.6h7v-7.6H86v22.6h-7.4v-8.8h-7v8.8H64m33.8-17h2a8 8 0 013 .4c.5.3.9.6 1.2 1 .3.5.6 1 .8 1.8a10.2 10.2 0 01-.3 5.7c-.4.9-1 1.5-1.7 1.9-.7.4-1.7.6-3.1.6h-1.9V19.3zm2.9 17c1.8 0 3.2-.1 4.4-.4 1.2-.3 2.2-.8 3-1.2.7-.5 1.4-1.2 2-2 .6-1 1.2-2 1.6-3.3.4-1.4.6-2.9.6-4.6a13 13 0 00-1.4-6.3c-1-1.7-2.3-3-4-3.7a15 15 0 00-6-1.1H90.5v22.6h10.2m15.1 0V13.7h17.6v5.6h-10.3v3.6h8.3v5.4H123v8h-7.3m42.7-14h-7c-.2-1-.6-2-1.3-2.6-.7-.6-1.5-1-2.6-1a4 4 0 00-3.2 1.6c-.8 1-1.2 2.7-1.2 5 0 1.5.1 2.7.5 3.5a4 4 0 001.5 1.9c.6.4 1.4.6 2.3.6 1.2 0 2-.3 2.8-1 .6-.6 1-1.5 1.2-2.8h7.1c-.1 1.4-.4 2.6-.8 3.6s-1.1 1.9-2 2.8c-1 1-2.2 1.7-3.5 2.3-1.3.5-2.8.7-4.6.7-1.7 0-3.3-.2-4.7-.7a10.4 10.4 0 01-6-5.4 13 13 0 01-1.3-5.7c0-1.7.3-3.4.9-4.9a10.2 10.2 0 015.7-6.1 14.3 14.3 0 019.8-.3c1.4.5 2.6 1.2 3.5 2.1a9.9 9.9 0 012.9 6.4m23.8-3.5l2.1.1c.4.2.8.4 1 .7.3.4.5.8.5 1.2 0 .6-.3 1-.7 1.4-.5.4-1.3.6-2.4.6h-2.8v-4h2.3zm1.9 17.5c1.8 0 3 0 3.7-.2.7-.2 1.5-.4 2.2-.8a5.3 5.3 0 003-3.1c.3-.8.5-1.7.5-2.6 0-1.4-.3-2.5-1-3.4a5 5 0 00-2.8-2c2-1.1 3-2.7 3-4.7a5 5 0 00-2.6-4.6c-1.3-.8-3.4-1.2-6.2-1.2h-11.2v22.6H184zm-1.2-9.5c1.5 0 2.4.2 3 .6.4.4.6.9.6 1.6a2 2 0 01-.7 1.6c-.5.4-1.5.5-2.9.5h-3v-4.3h3m27 1.9H205l2.4-8.2 2.4 8.2zm-7 7.6l.9-3h7.4l.8 3h7.4l-8-22.6h-7.6l-8.2 22.6h7.3m19.7 0V13.7h7l7.7 12.1V13.7h7.2v22.6h-7.1l-7.7-11.8v11.8h-7.1m26.8 0V13.7h7.3v7.5l6.7-7.5h8.7l-8.3 8.5 9.2 14.1h-9l-5.4-9-2 2v7h-7.2" fill="#fff"/><path d="M1 1h48v48H1V1z" fill="#ed232a"/><path d="M9.4 9.5h31.2v31H9.4v-31z" fill="#fff"/><path d="M22.6 1h4.8v48h-4.8V1z" fill="#fff"/><path d="M1 22.6h48v4.8H1v-4.8z" fill="#fff"/><path d="M17.8 17.8h14.4v14.4H17.8V17.8z" fill="#004c8f"/></svg>