<svg width="320" height="61" viewBox="0 0 320 61" fill="none" xmlns="http://www.w3.org/2000/svg">
<path d="M258.029 12.2871L266.668 31.913L266.722 12.2871H270.508V30.313H278.401V32.9263H263.255L260.642 27.4332H256.322V24.9799H259.842L256.322 17.3002V12.3404H258.029V12.2871ZM256.322 27.3798H251.896L249.336 32.8729H242.243V12.4471H246.296V32.2863L255.309 12.2871H256.322V17.2469L256.162 16.8203L252.856 24.9266H256.322V27.3798ZM158.619 32.9796V31.5397L159.473 32.9263L158.619 32.9796ZM158.619 29.5131C160.273 32.4996 163.953 33.4062 166.886 33.4596C170.566 33.5129 173.819 31.6463 174.885 30.2064C176.699 27.5931 176.112 19.0068 176.112 14.687C182.192 14.2604 188.325 15.2203 187.578 23.1667C186.832 30.4197 181.872 31.273 175.259 31.0063C174.832 31.8063 174.086 32.4463 173.019 32.9263C188.965 34.1529 189.925 29.2464 191.631 25.3532V32.9263L208.217 33.0329V18.1002L220.91 32.9263H224.003V14.687H230.99V32.9263H235.096V14.7403H242.616V12.5004H220.91V27.2732L208.217 12.5004H205.338V30.7397H195.045V23.4866H203.738V21.3001H195.045L195.098 14.6337H204.164V12.4471H191.311V19.3268C190.778 18.1535 190.138 16.9269 189.392 15.9136C186.085 11.8071 179.792 12.6071 172.486 12.6071V22.8467C172.486 26.3132 172.166 31.0597 166.939 31.113C162.406 31.1663 161.499 28.4465 161.339 23.9133C161.393 20.8734 161.233 15.9136 161.233 12.6071H158.619V29.5131ZM158.619 12.6604V29.5131C157.98 28.4465 157.713 27.1665 157.713 25.5666V12.6071H158.619V12.6604ZM158.619 31.5397L153.766 23.9666C156.38 22.5267 157.713 20.1801 156.86 16.7669C156.006 13.6204 153.926 12.8738 149.98 12.8204H149.66V14.6337H151.206C153.553 15.5403 153.873 20.6601 151.846 21.8867C151.366 22.26 150.567 22.3667 149.66 22.42V24.8199H150.087L155.26 33.0863L158.619 32.9263V31.5397ZM149.713 12.8204V14.6337H146.247V22.3667C147.047 22.3667 148.487 22.4734 149.713 22.42V24.8199H146.247V33.0863H142.14L142.194 12.7671H149.713V12.8204ZM134.247 25.2999C135.154 25.2999 136.114 25.2466 136.914 25.0866C137.234 25.0333 138.727 24.3933 138.887 24.2866C142.3 22.1534 142.3 15.7536 138.887 13.6204C137.874 13.0337 136.167 12.7671 134.247 12.7138V14.847H135.474C138.247 15.2737 138.514 19.5402 137.287 21.7267C136.754 22.6867 135.474 23.06 134.247 23.1667V25.2999ZM134.247 12.7138V14.847H130.461V23.1133C131.367 23.1667 132.861 23.2733 134.247 23.1667V25.2999C133.501 25.2999 132.754 25.2999 132.061 25.2466H130.461V33.1929H126.994V12.8738C129.021 12.8204 131.794 12.6604 134.247 12.7138Z" fill="#ED1D24"/>
<path d="M290.668 19.2739C290.668 19.2739 290.774 19.4873 291.361 19.9139C291.948 20.3406 292.161 20.3939 292.161 20.3939C292.161 20.3939 292.001 21.0339 292.001 22.0472C292.001 23.1138 292.428 25.087 292.428 25.0337C292.428 24.9804 291.788 24.2337 291.201 22.5271C290.561 20.6072 290.668 19.2739 290.668 19.2739Z" fill="#757668"/>
<path d="M287.147 24.3935C287.147 24.3935 287.414 24.0201 287.521 23.5401C287.627 23.0602 287.627 22.6868 287.627 22.6868C287.627 22.6868 288.107 22.6335 288.747 22.1002C289.387 21.5669 289.814 21.0869 289.814 21.0869C289.814 21.0869 289.654 22.2602 288.907 23.1668C287.894 24.5001 287.147 24.3935 287.147 24.3935Z" fill="#757668"/>
<path d="M289.921 23.3271C290.454 23.3271 290.454 26.9003 290.454 26.847C290.454 26.7937 292.641 28.0203 292.641 29.1402C292.641 30.6335 289.921 31.6468 289.921 31.6468C289.921 31.6468 289.761 32.8734 289.494 34.0467C289.228 35.22 288.961 36.7666 288.961 36.7666C288.961 36.7666 288.801 35.5933 288.801 34.42V32.6068C288.801 32.6068 287.361 33.0867 287.361 34.1534C287.361 35.22 287.735 34.9 287.735 35.4866C287.735 36.0733 287.361 36.7666 287.361 36.7666C287.361 36.7666 287.521 35.7 286.561 35.1133C285.601 34.5267 285.868 33.4601 286.615 33.0334C287.361 32.6068 288.748 32.0735 288.748 32.0735C288.748 32.0735 288.801 31.0602 288.801 29.7269C288.801 28.3936 288.854 27.7536 288.854 27.7536C288.854 27.7536 286.295 27.3803 286.241 26.4737C286.241 26.2604 286.935 26.1537 287.735 26.1537C288.321 26.1537 289.014 26.3137 289.014 26.3137C289.014 26.3137 289.601 23.3271 289.921 23.3271ZM290.401 28.0203C290.401 28.0203 290.294 29.0869 290.188 29.8869C290.081 30.6868 289.974 31.1135 289.974 31.1135C289.974 31.1135 291.521 30.6335 291.574 29.4069C291.681 28.2869 290.401 28.0203 290.401 28.0203Z" fill="#757668"/>
<path d="M297.387 16.9276V18.8475C297.387 18.8475 297.547 18.3675 299.84 17.6209C302.133 16.8209 303.573 16.7676 303.573 16.7676L297.387 16.9276Z" fill="#757668"/>
<path d="M298.987 20.0203V18.847C298.987 18.847 299.947 18.687 300.853 18.687C302.453 18.687 303.467 19.007 303.467 19.007C303.467 19.007 302.987 18.9537 302.56 18.9537C302.133 18.9537 302.027 19.0603 302.027 19.0603C302.027 19.0603 302.293 19.807 301.76 20.0203C301.227 20.2336 301.173 20.1803 300.96 20.2336C300.747 20.287 300.427 20.2869 300.427 20.2869L300.747 19.967C300.747 19.967 300.853 19.9136 300.64 19.7003C300.427 19.487 300.533 19.167 300.533 19.167C300.533 19.167 300.32 19.327 299.787 19.5403C299.36 19.807 298.987 20.0203 298.987 20.0203Z" fill="#757668"/>
<path d="M301.494 27.5936H303.04C303.04 27.5936 303.84 26.687 304.107 26.687C304.48 26.687 304.64 27.327 305.067 27.327C305.174 27.327 305.493 26.847 305.76 26.847C306.187 26.847 306.187 27.5936 306.347 27.5936H306.773V27.7003H305.44C305.44 27.7003 305.334 27.967 305.067 27.967C304.8 27.967 304.48 27.647 304.48 27.647H301.494V27.5936Z" fill="#757668"/>
<path d="M306.08 28.1803C306.08 28.1803 305.653 28.7669 304.533 28.7669C303.573 28.7669 303.147 28.3403 302.88 28.1803C302.827 28.127 302.72 28.127 302.613 28.127C302.507 28.127 302.56 28.2336 302.667 28.2336C302.773 28.2336 302.773 28.2869 302.827 28.2869C302.88 28.3936 302.933 28.5003 303.093 28.7136C303.467 29.1936 304.213 29.5136 304.533 29.5136C304.853 29.5136 305.227 29.4069 305.813 28.8736C306.24 28.4469 306.08 28.1803 306.08 28.1803Z" fill="#757668"/>
<path d="M295.84 29.5668C295.84 29.5668 301.173 32.0733 303.733 32.0733C305.227 32.0733 305.333 31.8067 305.813 31.22C306.293 30.6334 309.173 26.6869 309.706 23.967C310.293 21.2471 310.453 20.5005 310.453 20.5005C310.453 20.5005 310.666 23.3804 309.653 26.1536C308.693 28.9801 306.4 31.9133 305.92 32.3933C305.44 32.8733 304.693 32.98 303.2 32.82C301.707 32.66 298.987 31.7 297.76 30.7934C296.48 29.8868 295.84 29.5668 295.84 29.5668Z" fill="#757668"/>
<path d="M309.494 38.6864V36.9798C309.494 36.2865 309.92 35.5932 310.56 35.1132C311.2 34.6332 311.734 34.5799 311.734 33.0866C311.734 31.6466 311.68 31.8067 311.68 31.1667C311.68 30.5267 312.16 29.8867 312.8 29.8867C313.44 29.8867 314.133 30.74 314.133 30.74C314.133 30.74 312.854 30.74 312.64 32.34C312.427 33.9399 312.427 34.4199 311.84 35.4332C311.254 36.3931 310.72 36.8198 310.294 37.4064C309.814 37.9931 309.494 38.6864 309.494 38.6864Z" fill="#757668"/>
<path d="M313.76 32.9264L314.666 33.513C314.666 33.513 314.72 33.0864 315.2 32.5531C315.68 32.0198 315.893 31.8598 315.893 31.8598C315.893 31.8598 315.573 31.6998 314.72 32.0731C313.92 32.4997 313.76 32.9264 313.76 32.9264Z" fill="#757668"/>
<path d="M312.587 35.913L313.76 36.7129C313.76 36.7129 313.974 35.9663 314.72 35.113C315.413 34.313 315.84 34.153 315.84 34.153C315.84 34.153 314.987 33.993 313.974 34.633C312.907 35.3263 312.587 35.913 312.587 35.913Z" fill="#757668"/>
<path d="M320 18.5805C320 18.5805 320.053 15.9673 318.88 15.9673C318.027 15.9673 316.64 17.1939 314.773 23.2203C313.653 26.9002 314.827 29.0334 314.827 29.0334C314.827 29.0334 315.147 24.9802 315.787 23.5936C316.373 22.207 318.027 18.0472 319.253 18.0472C319.786 18.0472 320 18.5805 320 18.5805Z" fill="#757668"/>
<path d="M309.867 17.6737C309.867 17.6737 306.774 17.3538 306.56 20.3936C306.507 21.1936 306.667 21.1403 306.667 22.5269C306.667 23.9135 306.667 23.9668 306.667 24.2868C306.667 24.6068 306.827 25.0868 305.92 25.0868H302.774C302.454 25.0868 302.294 25.2468 302.614 25.3534C302.987 25.4601 303.147 25.5134 303.414 25.6201C303.68 25.7801 303.894 25.8334 304.16 25.6734C304.374 25.5667 304.427 25.4601 304.907 25.4601C305.387 25.4601 305.334 25.4601 305.494 25.6201C305.654 25.7801 305.707 25.7801 305.974 25.7801C306.24 25.7801 306.4 25.6734 306.72 25.3001C307.04 24.9801 307.254 24.0735 307.307 22.5269C307.414 20.9803 307.467 19.647 308.054 18.7937C308.747 18.0471 309.867 17.6737 309.867 17.6737Z" fill="#757668"/>
<path d="M309.76 19.4337C309.76 19.007 309.44 18.687 309.013 18.687C308.586 18.687 308.266 19.007 308.266 19.4337C308.266 19.647 308.373 19.8603 308.586 20.0203C308.586 20.0736 308.533 20.0736 308.533 20.127C308.373 20.287 308.106 20.3936 308.106 20.3936C308.106 20.3936 308.32 20.5003 308.64 20.3403C308.8 20.2869 308.96 20.2336 309.066 20.1803C309.12 20.1803 309.173 20.1803 309.226 20.127C309.546 20.0736 309.76 19.807 309.76 19.4337Z" fill="#757668"/>
<path d="M309.973 15.8609V13.9943L308.374 13.6743C308.374 13.6743 309.227 13.9943 309.6 14.6876C309.973 15.2209 309.973 15.8609 309.973 15.8609Z" fill="#757668"/>
<path d="M310.827 12.8739C310.827 13.1939 310.72 13.3539 310.4 13.7805C310.081 14.2072 309.974 14.7938 309.494 14.4738C309.014 14.1539 307.574 13.1939 301.121 13.1939C296.908 13.1939 294.454 13.9939 293.601 13.9939C292.748 13.9939 291.628 13.4606 291.628 12.1273C291.628 10.794 292.001 10.5273 292.108 10.5273C292.161 10.5273 292.748 12.6073 295.041 12.6073C297.334 12.6073 300.534 11.0607 304.801 11.0607C308.214 11.114 310.827 12.7139 310.827 12.8739Z" fill="#ED1D24"/>
<path d="M302.667 10.6346C302.667 10.6346 302.294 7.64801 300.854 7.64801C300.374 7.64801 300.054 7.91466 299.681 7.91466C298.667 7.91466 297.761 5.9414 296.321 5.9414C295.681 5.9414 295.254 6.15472 294.881 6.15472C294.294 6.15472 293.868 5.46143 293.868 5.46143C293.868 5.46143 293.868 7.54134 296.321 7.54134C296.908 7.54134 297.548 7.48801 298.187 7.86133C300.747 9.40793 302.667 10.6346 302.667 10.6346Z" fill="#757668"/>
<path d="M301.6 5.14111C301.6 5.14111 301.067 5.99442 302.934 7.16771C304.8 8.34099 304.96 7.91433 305.44 8.87429C305.92 9.78092 305.92 9.94092 305.92 9.94092C305.92 9.94092 306.347 9.4076 306.347 8.60764C306.347 7.75434 305.867 7.22103 304.64 6.84772C303.414 6.4744 303.254 6.47439 302.774 6.1544C302.56 5.99441 302.4 5.7811 302.187 5.56777C301.92 5.30112 301.6 5.14111 301.6 5.14111Z" fill="#757668"/>
<path d="M307.787 7.75439C307.787 7.75439 308.054 8.44771 308.32 8.98102C308.587 9.51433 308.96 10.581 309.6 10.581C310.187 10.581 310.294 9.51433 309.6 9.19434C308.907 8.82102 308.747 8.71436 308.427 8.44771C308.054 8.12772 307.787 7.75439 307.787 7.75439Z" fill="#757668"/>
<path d="M292.374 15.1138C292.374 15.1138 289.334 12.0739 287.094 12.0739C284.534 12.0739 284.321 13.5672 281.388 13.5672H281.334C278.615 13.5672 278.508 11.9673 278.508 11.9673C278.508 11.9673 277.815 12.7139 277.548 13.5139C277.228 14.4205 277.388 15.4338 278.721 15.4338C280.161 15.4338 282.294 13.6205 285.494 13.6205H286.828C286.828 13.6205 287.414 14.3672 288.427 14.6872C289.441 15.0071 290.134 15.0605 290.294 15.0605C290.454 15.0605 290.454 15.4871 290.241 15.4871C290.027 15.4871 289.174 15.5938 288.481 15.5938C287.787 15.5938 286.508 15.3271 285.174 15.3271C283.841 15.3271 282.614 15.3805 281.761 15.8605C280.908 16.3404 280.854 16.6604 280.801 17.1937C280.748 17.727 280.961 18.7937 280.961 18.7937C280.961 18.7937 281.868 17.3004 283.734 17.3004C285.068 17.3004 285.761 17.727 286.721 17.727C290.401 17.727 292.374 15.1138 292.374 15.1138Z" fill="#EE322D"/>
<path d="M320 40.6592H12.5991V60.0717H320V40.6592Z" fill="url(#paint0_linear)"/>
<path d="M29.0249 32.9266L34.8913 11.6475H42.3044L36.4913 32.9266H29.0249Z" fill="#005B76"/>
<path d="M67.3169 32.9266L73.1833 11.6475H80.5964L74.7833 32.9266H67.3169Z" fill="#005B76"/>
<path d="M105.608 32.9266L111.475 11.6475H118.888L113.075 32.9266H105.608Z" fill="#005B76"/>
<path fill-rule="evenodd" clip-rule="evenodd" d="M60.3835 18.9532H67.8499C68.8632 14.1534 65.6633 11.7002 58.3569 11.7002C49.8773 11.7002 44.1709 15.7534 42.1976 22.7397C40.4377 29.0861 43.9042 32.9793 51.8505 32.9793C59.9035 32.9793 64.65 30.5261 66.6766 25.0863H59.2102C58.1436 27.4862 56.2237 28.7662 53.5571 28.7662C49.9306 28.7662 48.544 26.5262 49.664 22.4731C50.8373 18.2599 53.5571 15.9667 57.1837 15.9667C59.4769 15.9134 60.5435 16.9266 60.3835 18.9532Z" fill="#005B76"/>
<path fill-rule="evenodd" clip-rule="evenodd" d="M98.675 18.9532H106.141C107.155 14.1534 103.955 11.7002 96.6485 11.7002C88.1688 11.7002 82.4624 15.7534 80.4891 22.7397C78.7292 29.0861 82.1957 32.9793 90.1421 32.9793C98.1951 32.9793 102.942 30.5261 104.968 25.0863H97.5018C96.4351 27.4862 94.5152 28.7662 91.8486 28.7662C88.2221 28.7662 86.8355 26.5262 87.9555 22.4731C89.1288 18.2599 91.8487 15.9667 95.4752 15.9667C97.7684 15.9134 98.835 16.9266 98.675 18.9532Z" fill="#005B76"/>
<path fill-rule="evenodd" clip-rule="evenodd" d="M8.5457 7.59407C16.0121 0.341031 25.0784 -1.52555 28.7049 3.43424C32.3314 8.39404 29.1315 18.3136 21.6652 25.5133C14.1988 32.7664 5.13251 34.6329 1.50599 29.6732C-2.12052 24.7667 1.02601 14.8471 8.5457 7.59407Z" fill="#F99D28"/>
<path fill-rule="evenodd" clip-rule="evenodd" d="M13.4523 3.75368C12.6523 4.34033 11.799 5.03364 10.999 5.83361C4.4393 12.1267 1.71941 20.7663 4.97261 25.0861C8.27914 29.406 16.3855 27.8594 23.0519 21.4596C26.625 18.0464 29.0783 14.0999 30.0382 10.4201C30.3582 7.70019 29.9316 5.30029 28.6516 3.48703C25.7718 -0.406144 19.6387 -0.0861573 13.4523 3.75368Z" fill="#AF2A30"/>
<path fill-rule="evenodd" clip-rule="evenodd" d="M17.1853 29.086C13.6654 31.6459 10.0389 32.9259 6.51904 32.3925C8.01231 32.4459 9.1856 30.8459 10.1989 28.7127C11.2122 26.5261 11.7988 24.4462 12.2788 22.5263C12.9721 19.4864 13.0254 17.3532 12.6521 16.8732C12.0655 16.1265 10.6789 16.2865 9.13227 17.1398C8.38563 17.5132 7.42567 17.2465 8.59896 15.9132C9.77224 14.5266 14.4121 11.2201 16.1186 10.6868C17.9852 10.1535 20.0652 10.8468 19.3718 12.82C18.8385 14.3133 12.3855 30.7926 17.1853 29.086ZM22.4651 3.5404C23.3183 4.39369 22.785 6.26029 21.3451 7.70023C19.8518 9.14018 17.8786 9.67347 17.0253 8.82018C16.1186 7.96688 16.652 6.10029 18.1452 4.60702C19.6385 3.16708 21.6118 2.6871 22.4651 3.5404Z" fill="white"/>
<path d="M26.5181 46.0986H28.598V51.8051H31.2112V53.5117H26.5181V46.0986Z" fill="white"/>
<path d="M44.2244 46.0986H42.1445V53.5117H44.2244V46.0986Z" fill="white"/>
<path d="M56.0107 46.0986H60.6505V47.6986H58.0373V49.0318H60.4906V50.5784H58.0373V53.5117H56.0107V46.0986Z" fill="white"/>
<path d="M71.9028 46.0986H76.596V47.6986H73.9294V49.0318H76.436V50.5784H73.9294V51.8584H76.596V53.5117H71.9028V46.0986Z" fill="white"/>
<path d="M103.955 46.0986H101.875V53.5117H103.955V46.0986Z" fill="white"/>
<path d="M115.421 46.0986H117.448L120.328 49.9385C120.381 50.0451 120.648 50.4718 121.021 51.2717C120.968 50.6851 120.914 50.2051 120.914 49.8318V46.152H122.888V53.565H120.914L118.035 49.7251C117.981 49.6185 117.715 49.1918 117.341 48.4452C117.395 49.0318 117.448 49.5118 117.448 49.8851V53.565H115.421V46.0986Z" fill="white"/>
<path d="M136.487 52.1254C137.074 52.1254 137.447 51.8054 137.447 51.3787C137.447 50.7921 137.02 50.6321 136.167 50.4188C134.78 50.0455 134.141 49.5122 134.141 48.3389C134.141 46.9523 135.154 45.939 136.754 45.939C137.607 45.939 138.354 46.1523 138.994 46.5789L138.354 48.0189C137.874 47.6456 137.34 47.4322 136.914 47.4322C136.38 47.4322 136.06 47.6989 136.06 48.0722C136.06 48.6055 136.594 48.7122 137.287 48.8722C138.62 49.2455 139.367 49.7255 139.367 51.0588C139.367 52.6054 138.247 53.672 136.434 53.672C135.367 53.672 134.567 53.352 133.714 52.6054L134.674 51.1121C135.26 51.8054 135.847 52.1254 136.487 52.1254Z" fill="white"/>
<path d="M152.326 46.0986V50.1518C152.326 51.4851 152.593 52.0184 153.66 52.0184C154.94 52.0184 154.993 51.2717 154.993 49.6718V46.0986H157.073V50.5251C157.073 52.765 156.113 53.725 153.66 53.725C152.38 53.725 151.473 53.4583 150.94 52.8183C150.353 52.125 150.3 51.2718 150.3 50.0985V46.0986H152.326Z" fill="white"/>
<path d="M168.433 46.0986H170.726C171.793 46.0986 172.593 46.0986 173.233 46.5786C173.766 47.0053 174.086 47.6452 174.086 48.3919C174.086 49.5652 173.499 50.2585 172.379 50.5251L174.459 53.5117H172.113L170.353 50.5784V53.5117H168.379V46.0986H168.433ZM170.779 49.6185C171.633 49.6185 172.059 49.3518 172.059 48.7119C172.059 47.9119 171.686 47.6986 170.779 47.6986H170.353V49.6718H170.779V49.6185Z" fill="white"/>
<path d="M187.258 46.0986H189.871L192.485 53.5117H190.405L190.031 52.1784H187.098L186.725 53.5117H184.645L187.258 46.0986ZM189.605 50.7384L188.805 48.2852C188.752 48.1785 188.698 47.8586 188.538 47.2719C188.378 47.8052 188.325 48.1785 188.272 48.2852L187.525 50.7384H189.605Z" fill="white"/>
<path d="M203.044 46.0986H205.071L207.95 49.9385C208.004 50.0451 208.27 50.4718 208.644 51.2717C208.59 50.6851 208.537 50.2051 208.537 49.8318V46.152H210.51V53.565H208.537L205.657 49.7251C205.604 49.6185 205.337 49.1918 204.964 48.4452C205.017 49.0318 205.071 49.5118 205.071 49.8851V53.565H203.044V46.0986Z" fill="white"/>
<path d="M227.417 48.6056C226.883 48.019 226.35 47.699 225.657 47.699C224.43 47.699 223.63 48.6056 223.63 49.8323C223.63 50.9522 224.43 51.9122 225.657 51.9122C226.35 51.9122 226.883 51.6455 227.417 51.0055V53.1921C226.777 53.5121 226.137 53.6721 225.443 53.6721C223.204 53.6721 221.55 52.0188 221.55 49.7789C221.55 47.539 223.15 45.8857 225.443 45.8857C226.137 45.8857 226.777 46.0457 227.417 46.3657V48.6056Z" fill="white"/>
<path d="M238.616 46.0986H243.309V47.6986H240.643V49.0318H243.149V50.5784H240.643V51.8584H243.309V53.5117H238.616V46.0986Z" fill="white"/>
<defs>
<linearGradient id="paint0_linear" x1="12.6114" y1="50.3535" x2="319.986" y2="50.3535" gradientUnits="userSpaceOnUse">
<stop stop-color="#39569B"/>
<stop offset="0.2269" stop-color="#39569B"/>
<stop offset="0.3214" stop-color="#7B5278"/>
<stop offset="0.477" stop-color="#F04C3B"/>
<stop offset="0.6211" stop-color="#F47C53"/>
<stop offset="0.6747" stop-color="#F47F57"/>
<stop offset="0.7253" stop-color="#F58862"/>
<stop offset="0.7748" stop-color="#F69675"/>
<stop offset="0.8235" stop-color="#F8AB90"/>
<stop offset="0.8718" stop-color="#FAC5B3"/>
<stop offset="0.9189" stop-color="#FDE5DC"/>
<stop offset="0.9525" stop-color="white"/>
<stop offset="1" stop-color="white"/>
</linearGradient>
</defs>
</svg>
