<svg width="304" height="61" fill="none" xmlns="http://www.w3.org/2000/svg"><g clip-path="url(#clip0)"><path d="M55.517 59.899h10.229l8.02-29.887H63.64L55.517 59.9zM107.961 59.899h10.23l8.019-29.887h-10.229l-8.02 29.887zM160.502 59.899h10.129l7.924-29.887h-10.229L160.502 59.9zM98.434 40.241h10.229c1.404-6.716-2.906-10.124-12.935-10.124-11.633 0-19.452 5.714-22.158 15.442C71.26 54.581 75.975 60 86.9 60c11.032 0 17.547-3.409 20.259-11.132H96.93c-1.503 3.408-4.11 5.112-7.718 5.112-4.917 0-6.922-3.007-5.418-8.72 1.604-5.92 5.418-9.228 10.33-9.228 3.207 0 4.61 1.404 4.31 4.21zM150.979 40.241h10.23c1.403-6.716-3.012-10.124-13.041-10.124-11.533 0-19.452 5.714-22.058 15.442-2.406 9.022 2.305 14.44 13.237 14.44 10.931 0 17.446-3.409 20.253-11.132h-10.225c-1.408 3.408-4.114 5.112-7.723 5.112-4.912 0-6.916-3.007-5.318-8.72 1.509-5.92 5.318-9.228 10.23-9.228 3.212 0 4.716 1.404 4.415 4.21z" fill="#004A7F"/><path d="M16.107 13.473C29.745-.065 46.29-3.578 52.91 5.649c6.621 9.227.802 27.877-12.835 41.414C26.437 60.7 9.892 64.209 3.17 54.882c-6.515-9.323-.696-27.877 12.936-41.41z" fill="#F06321"/><path d="M25.134 6.25c-1.504 1.103-3.007 2.406-4.511 3.814C8.689 21.893 3.673 38.136 9.592 46.261c6.114 8.12 20.754 5.112 32.988-6.822 6.621-6.415 11.032-13.837 12.836-20.754.501-5.112-.2-9.628-2.506-13.036-5.212-7.217-16.444-6.621-27.776.601z" fill="#AE282E"/><path d="M42.38 7.754v.3c-.1 1.705-1.103 3.81-2.907 5.614-2.706 2.606-6.315 3.608-7.824 2.11-1.704-1.604-.696-5.117 2.01-7.924 2.807-2.706 6.415-3.609 7.919-2.005.501.501.802 1.103.802 1.905zM31.955 53.779c-6.42 4.811-13.036 7.222-19.456 6.22 2.706.1 4.916-2.912 6.72-6.922 1.805-4.11 2.807-7.919 3.71-11.532 1.303-5.714 1.403-9.724.701-10.626-1.102-1.408-3.508-1.102-6.32.501-1.403.802-3.208.301-1.098-2.305 2.206-2.606 10.726-8.826 13.733-9.829 3.413-.902 7.222.401 5.92 4.11-.908 2.707-12.736 33.59-3.91 30.383z" fill="#fff"/><path d="M193.897 55.182l2.305-8.62h5.614V41.95h-4.311l2.005-7.323h2.306v-4.516h-7.624L186.273 60h15.543v-4.817h-7.919zm7.919-8.62h1.102c5.117 0 7.523.902 6.521 4.41-.802 3.108-3.308 4.21-7.623 4.21V60c4.215 0 7.322-.401 10.429-2.511 2.106-1.404 3.614-3.509 4.216-5.914 1.097-4.11-.707-6.922-5.418-7.518 4.41-.802 7.222-3.113 8.119-6.721.802-2.707.1-4.712-1.804-6.015-1.604-1.102-4.311-1.208-7.919-1.208h-7.623v4.516h3.914c4.811 0 7.017.602 6.315 3.609-.902 2.907-3.508 3.714-8.42 3.714h-1.809v4.61zM229.893 39.044v3.704c-.802.406-1.504 1.107-1.804 2.11h-6.015c.998-2.907 3.709-4.917 7.819-5.814zm0 17.547c-.702.2-1.504.3-2.305.3-2.707 0-3.91-1.107-3.308-3.112.601-2.306 2.405-3.108 5.613-3.408v-3.509c-6.921.502-10.731 2.306-11.933 6.817-1.103 4.11 1.508 6.82 6.921 6.82 1.804 0 3.508-.3 5.012-.901V56.59zm5.819-6.22l-.1.3c-.802 3.108-2.912 5.218-5.719 5.92v3.007c1.504-.607 2.807-1.404 4.009-2.506l-.501 2.907h6.02c.3-1.409.601-3.013 1.002-4.616l2.306-8.42c.2-.702.3-1.404.3-2.105v-1.003c-.2-3.413-3.107-5.217-8.52-5.217-1.709 0-3.213.2-4.616.406v3.704c.902-.497 2.005-.697 3.413-.697 3.103 0 4.31 1.398 3.403 4.41l-.095.301h-3.213c-1.198 0-2.405.1-3.508.1v3.509h5.819zM244.833 59.999h6.12l2.907-10.73c1.002-3.81 4.511-6.521 8.22-6.521 3.608 0 4.916 2.11 3.714 6.32l-2.912 10.93h6.119l3.408-12.735c1.404-5.413-1.303-8.625-7.317-8.625-3.914 0-7.022 1.403-9.728 4.21l.701-3.71h-6.114c-.602 3.309-1.003 5.319-1.208 6.12l-3.91 14.74zM274.414 59.999h6.019l3.008-11.232 8.124 11.232h8.32l-9.227-11.934 12.434-8.926h-7.718l-11.532 8.325 4.611-17.347h-6.015L274.414 60z" fill="#004A7F"/></g><defs><clipPath id="clip0"><path fill="#fff" d="M0 0h303.593v61H0z"/></clipPath></defs></svg>