<svg width="403" height="60" fill="none" xmlns="http://www.w3.org/2000/svg"><path d="M55.017 59.399h10.229l8.02-29.887H63.14L55.017 59.4zM107.461 59.399h10.23l8.019-29.887h-10.229l-8.02 29.887zM160.002 59.399h10.129l7.924-29.887h-10.229L160.002 59.4zM97.934 39.741h10.229c1.404-6.716-2.906-10.124-12.935-10.124-11.633 0-19.452 5.714-22.158 15.442C70.76 54.081 75.475 59.5 86.4 59.5c11.032 0 17.547-3.409 20.259-11.132H96.43c-1.503 3.408-4.11 5.112-7.718 5.112-4.917 0-6.922-3.007-5.418-8.72 1.604-5.92 5.418-9.228 10.33-9.228 3.207 0 4.61 1.404 4.31 4.21M150.479 39.741h10.23c1.403-6.716-3.012-10.124-13.041-10.124-11.533 0-19.452 5.714-22.058 15.442-2.406 9.022 2.305 14.44 13.237 14.44 10.931 0 17.446-3.409 20.253-11.132h-10.225c-1.408 3.408-4.114 5.112-7.723 5.112-4.912 0-6.916-3.007-5.318-8.72 1.509-5.92 5.318-9.228 10.23-9.228 3.212 0 4.716 1.404 4.415 4.21" fill="#004A7F"/><path d="M15.607 12.973C29.245-.565 45.79-4.078 52.41 5.149c6.621 9.227.802 27.877-12.835 41.414C25.937 60.2 9.392 63.709 2.67 54.382c-6.515-9.323-.696-27.877 12.936-41.41" fill="#F06321"/><path d="M24.634 5.75c-1.504 1.103-3.007 2.406-4.511 3.814C8.189 21.393 3.173 37.636 9.092 45.761c6.114 8.12 20.754 5.112 32.988-6.822 6.621-6.415 11.032-13.837 12.836-20.754.501-5.112-.2-9.628-2.506-13.036-5.212-7.217-16.444-6.621-27.776.601" fill="#AE282E"/><path d="M41.88 7.254v.3c-.1 1.705-1.103 3.81-2.907 5.614-2.706 2.606-6.315 3.608-7.824 2.11-1.704-1.604-.696-5.117 2.01-7.924 2.807-2.706 6.415-3.609 7.919-2.005.501.501.802 1.103.802 1.905zM31.455 53.279c-6.42 4.811-13.036 7.222-19.456 6.22 2.706.1 4.916-2.912 6.72-6.922 1.805-4.11 2.807-7.919 3.71-11.532 1.303-5.714 1.403-9.724.701-10.626-1.102-1.408-3.508-1.102-6.32.501-1.403.802-3.208.301-1.098-2.305 2.206-2.606 10.726-8.826 13.733-9.829 3.413-.902 7.222.401 5.92 4.11-.908 2.707-12.736 33.59-3.91 30.383" fill="#fff"/><path d="M194.871 49.852c-.231 2.431.627 3.773 2.927 4.4a13.63 13.63 0 008.009-.363 5.146 5.146 0 003.092-2.563c.616-1.276.451-2.267-.825-2.872a24.572 24.572 0 00-4.159-1.375c-2.2-.594-4.533-.957-6.711-1.683-4.225-1.409-5.347-4.06-3.719-8.23a9.606 9.606 0 015.292-5.369 20.497 20.497 0 0114.237-.946c3.499.99 4.874 3.598 3.994 7.096h-5.248c-.297-2.101-1.101-3.058-3.169-3.466a12.685 12.685 0 00-6.832.507 4.797 4.797 0 00-2.718 2.2c-.726 1.298-.561 2.322.803 2.905a38.442 38.442 0 005.435 1.694c1.959.54 3.961.957 5.941 1.452.448.131.88.312 1.288.54a4.477 4.477 0 012.673 5.5 10.52 10.52 0 01-6.414 7.834 21.762 21.762 0 01-15.227.88 5.761 5.761 0 01-4.514-5.09 5.76 5.76 0 01.278-2.391c.077-.264.418-.639.638-.65 1.629-.032 3.257-.01 4.929-.01zM239.474 52.305a8.45 8.45 0 01-2.586 3.664 13.885 13.885 0 01-9.462 2.948 12.105 12.105 0 01-5.655-1.166c-2.805-1.463-3.938-4.236-3.19-7.79 1.595-7.426 7.371-11.827 15.194-11.398.501.012 1.001.056 1.496.132 4.687.804 6.601 3.664 5.842 8.527-.462 2.894-.462 2.894-3.377 2.894h-12.477c-.737 0-.979.275-1.1.924a3.504 3.504 0 00.55 2.965 3.497 3.497 0 002.651 1.436c2.729.34 5.171-.088 6.657-2.784a.709.709 0 01.528-.33c1.595-.033 3.234-.022 4.929-.022zm-3.796-5.501c.704-2.575-.286-4.115-2.772-4.489-3.466-.517-6.811 1.441-7.46 4.401.158.01.316.01.473 0l9.759.088zM376.407 52.305a8.607 8.607 0 01-3.609 4.401 15.28 15.28 0 01-13.148 1.42c-3.487-1.1-4.951-4.203-4.17-8.076 1.475-7.416 7.317-11.871 15.139-11.497 1.12.05 2.23.242 3.301.572a5.5 5.5 0 014.159 5.699 44.357 44.357 0 01-.506 4.467c-.077.67-.418.825-1.1.825H362.28c-.946 0-1.21.374-1.309 1.166a3.498 3.498 0 00.708 2.897 3.506 3.506 0 002.68 1.306c2.707.286 5.094-.176 6.524-2.85a.76.76 0 01.562-.297c1.584-.044 3.157-.033 4.962-.033zm-14.039-5.5h9.737a1.016 1.016 0 00.682-.606c.517-2.101-.77-3.598-3.301-3.906-3.278-.418-6.524 1.607-7.173 4.511h.055zM402.162 44.34h-4.697c-.374-2.091-.804-2.531-3.037-2.62-1.23-.015-2.46.073-3.675.265a2.2 2.2 0 00-1.265.55 3.158 3.158 0 00-1.034 1.683c0 .385.781 1.001 1.309 1.1 1.738.518 3.521.826 5.27 1.277 1.299.319 2.575.727 3.818 1.221a3.237 3.237 0 012.079 3.96 7.492 7.492 0 01-5.501 6.184 21.52 21.52 0 01-11.596.451l-.297-.066c-3.059-.913-4.06-2.728-3.136-5.941h4.808c.22.825.198 1.815.682 2.2a4.679 4.679 0 002.542.935c1.337.055 2.676 0 4.005-.165a3.943 3.943 0 001.232-.396 2.335 2.335 0 001.65-2.09c0-.98-1.045-1.265-1.848-1.452-1.717-.418-3.488-.66-5.204-1.1a15.336 15.336 0 01-3.378-1.2 3.587 3.587 0 01-1.881-4.4 6.65 6.65 0 014.027-4.83 18.207 18.207 0 0112.476-.672c2.596.782 3.51 2.74 2.651 5.105zM273.262 39.048h5.413c-.803 3.058-1.595 6.051-2.354 9.055-.268 1-.481 2.013-.639 3.036a3.362 3.362 0 001.973 3.864c.485.203 1.012.29 1.537.251a8.031 8.031 0 007.889-5.952c.891-3.08 1.639-6.205 2.453-9.297.088-.319.176-.638.275-.957h5.501c-1.166 4.478-2.332 8.9-3.454 13.334-.44 1.75-.782 3.521-1.101 5.293-.099.572-.275.792-.88.78h-4.632c.187-1.1.352-2.1.561-3.41l-.924.836a11.75 11.75 0 01-11.002 2.685 4.844 4.844 0 01-4.067-4.09 4.845 4.845 0 01.139-2.038c.969-4.478 2.19-8.912 3.312-13.39zM265.516 51.656a9.413 9.413 0 01-5.303 5.765 16.876 16.876 0 01-10.914 1.1c-4.61-1.001-6.502-4.302-5.391-9.077a13.445 13.445 0 0112.905-10.826c2.339-.277 4.71.002 6.921.814a4.732 4.732 0 013.113 5.7h-4.775c-.176 0-.429-.286-.484-.485a3.199 3.199 0 00-3.091-2.431 7.13 7.13 0 00-7.933 4.632 16.926 16.926 0 00-1.012 3.96 3.67 3.67 0 001.981 4.025 3.672 3.672 0 001.551.377c2.838.275 5.369-.276 6.766-3.17a.897.897 0 01.693-.373c1.606-.022 3.213-.011 4.973-.011zM327.194 39.004h4.478c.561 0 .88-.132.979-.726.099-.594.418-1.221.462-1.849a2.514 2.514 0 012.531-2.586 32.505 32.505 0 003.817-.934l-1.54 6.05h5.567c-.33 1.266-.616 2.421-.946 3.709h-4.566a1.098 1.098 0 00-1.364 1.034c-.66 2.761-1.386 5.5-2.091 8.262a6.895 6.895 0 00-.143.683c-.165 1.562.286 2.09 1.871 2.112h3.168c-.286 1.1-.55 2.2-.88 3.367a.84.84 0 01-.605.506 56.664 56.664 0 01-6.414 0c-2.256-.21-3.136-1.276-2.894-3.51.29-2.077.705-4.135 1.243-6.161.43-1.826.947-3.63 1.409-5.435 0-.22.077-.44.132-.803h-5.149c.33-1.288.638-2.509.935-3.72zM314.299 42.447c-4.907-.253-7.789 1.607-9.252 6.15-.958 2.982-1.662 6.04-2.432 9.077a.846.846 0 01-.101.347.845.845 0 01-.561.429.858.858 0 01-.361.005h-4.676c1.617-6.49 3.213-12.894 4.819-19.385h5.358l-.528 2.882a10.328 10.328 0 015.325-3.091c1.1-.21 2.2-.253 3.4-.385-.33 1.44-.661 2.684-.991 3.971zM354.16 39.004c-.561 2.2-1.1 4.269-1.65 6.359-1.1 4.07-2.145 8.142-3.169 12.223-.176.704-.462.891-1.1.87h-4.775c.308-1.233.583-2.388.88-3.521 1.299-4.984 2.608-9.902 3.884-14.941.176-.726.44-1.034 1.254-1.001 1.475.066 3.015.01 4.676.01zM324.158 39.004c-1.706 6.6-3.378 12.938-5.05 19.374h-5.689c.308-1.232.595-2.442.903-3.652 1.265-4.874 2.563-9.748 3.795-14.644a1.208 1.208 0 01.972-1.112c.173-.035.353-.03.525.012 1.463.088 2.937.022 4.544.022zM325.301 35.329h-6.106c.385-1.518.737-2.97 1.101-4.4a.834.834 0 01.638-.451h5.501c-.319 1.671-.726 3.256-1.134 4.851zM355.315 35.318h-6.073c.385-1.518.737-2.97 1.1-4.4a.777.777 0 01.551-.44h5.633l-1.211 4.84z" fill="#004A7F"/><path d="M235.678 46.815h-9.759c-.157.01-.315.01-.473 0 .649-2.992 3.994-4.95 7.46-4.4 2.486.285 3.476 1.826 2.772 4.4zM362.313 46.804c.649-2.904 3.895-4.929 7.118-4.533 2.531.308 3.818 1.804 3.301 3.906a1.013 1.013 0 01-.682.605c-3.224.033-6.436.022-9.737.022z" fill="#fff"/></svg>