<svg width="232" height="47" fill="none" xmlns="http://www.w3.org/2000/svg"><path fill="#F58220" d="M137 0h95v46h-95z"/><path d="M0 46h138V0H0v46z" fill="#00836C"/><path d="M55.81 23.21a23.22 23.22 0 11-46.44.02 23.22 23.22 0 0146.44-.02zM63.84 31.23c0-1 0-2 .07-3V16.71c-.12-1 0-2-.1-3 0-.73 0-1.48-.06-2.21a7.233 7.233 0 01-.1-.83c-.13-.39.12-.42.45-.34 1.11 0 2.2.06 3.31 0 .73-.06 1.49 0 2.22-.06 0 .52-.07 1-.08 1.52-.07.79-.11 1.62-.1 2.43v2c0 1.92-.06 3.83-.05 5.75.01 1.92 0 3.88 0 5.81.06 1.17 0 2.35.06 3.52 0 1 0 1.91.1 2.86 0 .56.11 1.1.1 1.67-.43 0-.88 0-1.29-.07-1 0-2-.06-3 0-.47 0-.9.06-1.38 0-.39.17-.27-.18-.27-.44s0-.61.1-.9c0-.83 0-1.68.09-2.51v-.71l-.07.03zM79.67 33.29c1.202.132 2.411.189 3.62.17a8.36 8.36 0 004.19-1 6.69 6.69 0 002.39-2.28 7.878 7.878 0 00.87-1.65c.45-1.206.733-2.468.84-3.75.128-1.263.152-2.534.07-3.8a11.639 11.639 0 00-.75-3.45 7.311 7.311 0 00-1.41-2.24 6.579 6.579 0 00-1.91-1.48 7.71 7.71 0 00-1.5-.56c-1.704-.391-3.46-.5-5.2-.32-.41 0-.81.05-1.21.07-.08 5.21 0 10.42-.06 15.63.06 1.56 0 3.12.06 4.68v-.02zm-5.57-1.8c.06-2.44.07-4.89.06-7.33.08-1.48 0-3 0-4.45 0-2.27-.07-4.54-.09-6.8-.09-.62 0-1.28-.1-1.9 0-.2-.29-.89.13-.71.766.134 1.542.208 2.32.22.881.075 1.766.105 2.65.09.73-.1 1.52-.08 2.27-.15 1.13 0 2.23-.16 3.37-.17 1.247-.075 2.5-.005 3.73.21.89.148 1.763.38 2.61.69a10.47 10.47 0 012.46 1.38A9.829 9.829 0 0196 15.31a10.84 10.84 0 011.33 3.44c.191.797.309 1.61.35 2.43.08.951.08 1.908 0 2.86-.047.742-.144 1.48-.29 2.21a11.078 11.078 0 01-.51 1.9A10.64 10.64 0 0195 31.62c-.5.608-1.067 1.158-1.69 1.64a11.189 11.189 0 01-3.53 1.91 14.81 14.81 0 01-2.45.59 22.917 22.917 0 01-5.61.2c-.84 0-1.66-.12-2.51-.12a15.87 15.87 0 00-3.51-.05c-.61.047-1.219.13-1.82.25 0-.49.13-1 .13-1.47 0-1 .07-2 .09-3.08zM106.49 33.25a13.08 13.08 0 002.43.09 5.585 5.585 0 001.61-.5c.228-.128.443-.279.64-.45.26-.203.486-.446.67-.72.189-.263.356-.54.5-.83a7.32 7.32 0 00.38-1.41c0-.5.09-1 .08-1.45-.12-.33 0-.77-.16-1.09a3.307 3.307 0 00-.58-1.38 1.84 1.84 0 00-.52-.62 3.884 3.884 0 00-.73-.6c-.28-.08-.5-.29-.8-.32a3.247 3.247 0 00-1.2-.24 8.264 8.264 0 00-1.8-.1c-.53-.14-.59.17-.52.62v9zm0-12a8.57 8.57 0 002.54-.21c.44-.11.859-.293 1.24-.54a3.91 3.91 0 001-.89 4.18 4.18 0 00.66-1.34c.108-.299.172-.612.19-.93a4.47 4.47 0 000-1.59 2.228 2.228 0 00-.29-1 3.067 3.067 0 00-.9-1.15 4.49 4.49 0 00-1.12-.61 7.36 7.36 0 00-3.13-.2c-.4 0-.12.57-.2.84v7.66l.01-.04zm-5.43 10v-4.83-6.65c-.06-1.05 0-2.12 0-3.17 0-1.31 0-2.6-.09-3.89 0-.57 0-1.12-.11-1.66 0-.24-.13-.64 0-.76l3.31.06c1.27-.07 2.57 0 3.84-.05 1.281-.06 2.565-.02 3.84.12.497.05.987.158 1.46.32a7.32 7.32 0 011.63.63c.29.22.66.38 1 .64.473.353.877.79 1.19 1.29.305.455.519.964.63 1.5a4.995 4.995 0 010 1.88 4.203 4.203 0 01-.51 1.7 5.21 5.21 0 01-1.12 1.62 8.37 8.37 0 01-1.41 1.06c-.485.276-.998.5-1.53.67-.27.07-.57.14-.83.22.32.05.62.16.93.24.31.08.76.32 1.17.44.586.29 1.14.642 1.65 1.05a6.453 6.453 0 011.47 1.7c.401.737.653 1.546.74 2.38a7.346 7.346 0 01-.38 3.39 6.198 6.198 0 01-1 1.74 5.563 5.563 0 01-1.03 1.11 7.75 7.75 0 01-1.66 1c-.711.298-1.452.52-2.21.66a17.9 17.9 0 01-2.84.16c-1.29 0-2.59 0-3.88-.07h-2.58c-.57.07-1.18 0-1.76.07-.3 0 0-.51-.1-.74.05-.54.09-1.06.1-1.62.06-.74 0-1.49.08-2.23v.02zM123.9 31.23c.09-3.34.06-6.69.06-10 0-2.51 0-5-.08-7.52-.06-.47 0-1-.06-1.46-.06-.46-.07-.83-.07-1.25a2.747 2.747 0 010-.69H127.61c.61 0 1.28 0 1.9-.06.38-.09.09.38.18.6a12.186 12.186 0 00-.1 1.62c-.07.6 0 1.24-.06 1.85-.06.61 0 1.19 0 1.78 0 1.35 0 2.71-.06 4.06 0 3.12 0 6.24.06 9.36v2.18c0 .72 0 1.45.09 2.15s.09 1.19.08 1.79c.08.32-.45.06-.65.12-.45 0-.89-.05-1.35 0-.62-.06-1.28 0-1.91 0-.36.07-.81 0-1.16.06-.35.06-.66.06-.91 0 0-.44 0-.87.1-1.29 0-.69.08-1.36.06-2.06.047-.401.064-.806.05-1.21l-.03-.03z" fill="#fff"/><path d="M32.42 40.59a11.5 11.5 0 006.22-1.77 10.681 10.681 0 002.93-2.51c.51-.602.963-1.252 1.35-1.94a12.001 12.001 0 001.35-4.32 12.5 12.5 0 00-.45-5.05 12.828 12.828 0 00-1.64-3.47 11.908 11.908 0 00-3.78-3.63c-.34-.21-.64-.43-1-.64-.51-.35-1.34-.79-1.94-.32a3.43 3.43 0 00-.64 2.37v17.24c0 .49.12 1.07-.38 1.35a4.58 4.58 0 01-1.69.61 3.001 3.001 0 01-1.43-.16 3.1 3.1 0 01-1.15-.61c-.43-.38-.17-1.05-.24-1.59V18.51a2.29 2.29 0 00-.74-1.78 1 1 0 00-.86 0 8.997 8.997 0 00-1.8 1.1A11.059 11.059 0 0023.85 20a11.42 11.42 0 00-1.71 2.31 12.998 12.998 0 00-1.49 4.12 12.15 12.15 0 00-.06 4.08 12 12 0 002.5 5.64A12.35 12.35 0 0028 39.77a12.22 12.22 0 004.4.82h.02zM32.46 13.66c.163.02.327.02.49 0 .09 0 .18-.08.29-.06a.33.33 0 01.22-.11c.08-.05.2 0 .24-.14a1.78 1.78 0 00.24-.12c.07 0 .13-.12.2-.17.07-.05.14-.17.25-.22.048-.073.105-.14.17-.2.075-.094.136-.198.18-.31a.66.66 0 00.12-.22.769.769 0 00.1-.23.41.41 0 00.06-.24c0-.1 0-.22.09-.31v-.72c-.08-.09 0-.22-.08-.33A.48.48 0 0035 10a3.728 3.728 0 00-.32-.63.58.58 0 00-.16-.19 3.22 3.22 0 01-.24-.28c-.1 0-.15-.11-.24-.16-.063-.052-.13-.099-.2-.14-.08 0-.12-.11-.21-.1a1.86 1.86 0 00-.41-.17c-.08 0-.14-.09-.24-.07h-.31a2.53 2.53 0 00-.55 0c-.11 0-.24 0-.33.06-.122.037-.242.08-.36.13-.07 0-.17 0-.23.12s-.16.1-.25.13l-.23.2c-.1 0-.12.12-.19.17-.07.05-.09.14-.16.19-.131.15-.239.318-.32.5 0 .09-.09.14-.09.23a1.22 1.22 0 00-.1.24c0 .1 0 .2-.06.28a4.7 4.7 0 000 .65.61.61 0 00.05.33.8.8 0 00.11.4c0 .1.08.13.09.22a.743.743 0 00.1.22c.07.134.16.256.27.36.06.05.08.15.16.19a.63.63 0 00.19.17c.05.08.16.09.21.17.05.08.24.07.31.18.07.11.17 0 .23.08s.15 0 .22.09.18.08.28.06c.162.02.327.02.49 0l-.05.03z" fill="#F58220"/><path d="M38.3 8.84a1.2 1.2 0 011.76-.66 26.57 26.57 0 013.5 3.22 18.69 18.69 0 013.81 5A15 15 0 0149 22.61a16.66 16.66 0 01-.8 6.53 16.94 16.94 0 01-7.79 9.41 16.71 16.71 0 01-16.63-.36 17 17 0 01-8-13.61A16.38 16.38 0 0117 17.2a18.108 18.108 0 014.42-6 21.46 21.46 0 013.2-3 1.07 1.07 0 011.63.31 6.18 6.18 0 011 3.35c-.15 2-1.86 3.14-3.22 4.3a14.94 14.94 0 00-3.66 5 12.73 12.73 0 00-1.22 5.81 14.1 14.1 0 005.66 11.2 13.17 13.17 0 007.91 2.45 12.89 12.89 0 009.89-5.1A14.21 14.21 0 0045.57 26a13.881 13.881 0 00-1.7-5.88 14.43 14.43 0 00-3.54-4.23c-1.07-1-2.37-1.93-2.72-3.42a5.72 5.72 0 01.69-3.59v-.04z" fill="#F58220"/><path d="M157.38 30.22l-1.83-.96c-.96 2.07-2.46 3.15-4.08 3.15-2.7 0-4.14-2.1-4.14-6.27 0-4.11 1.47-6.24 4.02-6.24 1.62 0 2.94 1.05 3.57 3.03l2.16-.69c-.93-2.7-2.97-4.23-5.67-4.23-3.9 0-6.3 2.97-6.3 8.13 0 5.31 2.22 8.13 6.3 8.13 2.7 0 4.68-1.32 5.97-4.05zm10.793 1.65l.24 2.13h2.4v-.24c-.21-.69-.33-1.47-.33-2.31v-8.76c0-2.97-1.95-4.65-5.25-4.65-2.7 0-4.68 1.11-5.85 3.33l1.89 1.02c.81-1.62 2.16-2.46 3.84-2.46 1.89 0 3.15 1.05 3.15 2.46v1.14c-6.39 1.23-9.39 2.94-9.39 6.39 0 2.55 1.77 4.32 4.32 4.32 1.89 0 3.54-.81 4.98-2.37zm.09-1.98c-1.8 1.59-3.3 2.4-4.68 2.4-1.59 0-2.55-.93-2.55-2.34 0-2.22 2.34-3.39 7.23-4.38v4.32zm6.506 9.81h2.16v-7.38c.99 1.32 2.28 1.95 4.05 1.95 4.2 0 6.54-2.82 6.54-8.04 0-5.28-2.4-8.19-6.51-8.19-1.89 0-3.09.78-4.2 2.19l-.36-1.92h-1.68V39.7zm2.16-9.63v-7.83c.99-1.56 2.37-2.34 3.96-2.34 2.91 0 4.38 2.13 4.38 6.36 0 4.05-1.53 6.21-4.14 6.21-1.74 0-3.03-.75-4.2-2.4zm13.77 3.93h2.22V18.31h-2.22V34zm-.18-19.05h2.58v-2.64h-2.58v2.64zm13.232 17.16c-.48.12-.93.24-1.53.24-1.83 0-2.07-.54-2.07-2.13V20.17h3.57v-1.86h-3.57v-5.07h-2.28v5.07h-2.34v1.86h2.34v11.04c0 2.04 1.2 3.06 3.57 3.06.87 0 1.62-.09 2.31-.33v-1.83zm10.61-.24l.24 2.13h2.4v-.24c-.21-.69-.33-1.47-.33-2.31v-8.76c0-2.97-1.95-4.65-5.25-4.65-2.7 0-4.68 1.11-5.85 3.33l1.89 1.02c.81-1.62 2.16-2.46 3.84-2.46 1.89 0 3.15 1.05 3.15 2.46v1.14c-6.39 1.23-9.39 2.94-9.39 6.39 0 2.55 1.77 4.32 4.32 4.32 1.89 0 3.54-.81 4.98-2.37zm.09-1.98c-1.8 1.59-3.3 2.4-4.68 2.4-1.59 0-2.55-.93-2.55-2.34 0-2.22 2.34-3.39 7.23-4.38v4.32zm6.656 4.11h2.19V12.31h-2.19V34z" fill="#fff"/><path d="M157.38 30.22l.181.085.082-.173-.17-.09-.093.178zm-1.83-.96l.093-.177-.186-.098-.088.19.181.085zm-.63-6.33l-.191.06.061.191.191-.06-.061-.191zm2.16-.69l.061.19.195-.062-.067-.193-.189.065zm.393 7.803l-1.83-.96-.186.354 1.83.96.186-.354zm-2.104-.867c-.939 2.024-2.381 3.034-3.899 3.034v.4c1.722 0 3.28-1.15 4.261-3.266l-.362-.168zm-3.899 3.034c-1.289 0-2.259-.497-2.916-1.482-.666-.999-1.024-2.52-1.024-4.588h-.4c0 2.102.362 3.716 1.091 4.81.738 1.107 1.838 1.66 3.249 1.66v-.4zm-3.94-6.07c0-2.036.365-3.552 1.021-4.552.648-.988 1.589-1.488 2.799-1.488v-.4c-1.34 0-2.409.565-3.133 1.67-.717 1.091-1.087 2.696-1.087 4.77h.4zm3.82-6.04c1.513 0 2.769.973 3.379 2.89l.382-.12c-.65-2.043-2.034-3.17-3.761-3.17v.4zm3.631 3.02l2.16-.69-.122-.38-2.16.69.122.38zm2.288-.945c-.955-2.774-3.067-4.365-5.859-4.365v.4c2.608 0 4.576 1.469 5.481 4.095l.378-.13zm-5.859-4.365c-2.006 0-3.641.767-4.77 2.207-1.124 1.434-1.73 3.515-1.73 6.123h.4c0-2.552.594-4.536 1.645-5.877 1.046-1.335 2.561-2.053 4.455-2.053v-.4zm-6.5 8.33c0 2.678.559 4.762 1.662 6.18 1.109 1.425 2.748 2.15 4.838 2.15v-.4c-1.99 0-3.501-.685-4.522-1.997-1.027-1.32-1.578-3.302-1.578-5.933h-.4zm6.5 8.33c1.384 0 2.594-.339 3.626-1.035 1.03-.696 1.868-1.74 2.525-3.13l-.362-.17c-.633 1.34-1.43 2.321-2.387 2.968-.956.646-2.086.967-3.402.967v.4zm16.763-2.6l.198-.022-.049-.435-.296.321.147.136zm.24 2.13l-.199.022.02.178h.179V34zm2.4 0v.2h.2V34h-.2zm0-.24h.2v-.03l-.009-.028-.191.058zm-11.43-12.39l-.177-.093-.093.175.175.094.095-.176zm1.89 1.02l-.095.176.181.098.092-.185-.178-.089zm6.99 1.14l.037.196.163-.03v-.166h-.2zm0 6.36l.132.15.068-.06v-.09h-.2zm0-4.32h.2v-.244l-.24.048.04.196zm-.289 6.322l.24 2.13.397-.044-.24-2.13-.397.044zm.439 2.308h2.4v-.4h-2.4v.4zm2.6-.2v-.24h-.4V34h.4zm-.009-.298a7.755 7.755 0 01-.321-2.252h-.4c0 .859.122 1.659.338 2.368l.383-.116zm-.321-2.252v-8.76h-.4v8.76h.4zm0-8.76c0-1.531-.505-2.753-1.456-3.589-.947-.833-2.313-1.261-3.994-1.261v.4c1.618 0 2.877.412 3.73 1.162.849.746 1.32 1.849 1.32 3.288h.4zm-5.45-4.85c-2.766 0-4.819 1.144-6.027 3.437l.353.186c1.132-2.147 3.039-3.223 5.674-3.223v-.4zm-5.945 3.706l1.89 1.02.189-.352-1.89-1.02-.189.352zm2.163.933c.778-1.555 2.061-2.349 3.662-2.349v-.4c-1.76 0-3.177.886-4.019 2.57l.357.18zm3.662-2.349c1.824 0 2.95 1 2.95 2.26h.4c0-1.56-1.395-2.66-3.35-2.66v.4zm2.95 2.26v1.14h.4v-1.14h-.4zm.162.944c-3.2.616-5.58 1.356-7.163 2.391-.795.52-1.394 1.117-1.794 1.815-.401.698-.595 1.487-.595 2.38h.4c0-.832.18-1.55.542-2.182.362-.631.912-1.185 1.666-1.678 1.514-.99 3.829-1.72 7.019-2.334l-.075-.392zm-9.552 6.586c0 1.322.459 2.455 1.262 3.258.802.802 1.935 1.262 3.258 1.262v-.4c-1.228 0-2.255-.425-2.975-1.145-.72-.72-1.145-1.748-1.145-2.975h-.4zm4.52 4.52c1.955 0 3.656-.841 5.126-2.434l-.293-.272c-1.41 1.527-3.009 2.306-4.833 2.306v.4zm4.937-4.7c-1.792 1.583-3.244 2.35-4.547 2.35v.4c1.456 0 3.004-.853 4.812-2.45l-.265-.3zm-4.547 2.35c-.757 0-1.342-.22-1.735-.588-.393-.365-.615-.894-.615-1.552h-.4c0 .752.257 1.393.742 1.845.484.45 1.174.695 2.008.695v-.4zm-2.35-2.14c0-1.018.526-1.808 1.681-2.478 1.166-.677 2.946-1.212 5.388-1.706l-.079-.392c-2.448.495-4.283 1.04-5.51 1.752-1.237.717-1.88 1.622-1.88 2.824h.4zm6.83-4.38v4.32h.4v-4.32h-.4zm6.706 14.13h-.2v.2h.2v-.2zm2.16 0v.2h.2v-.2h-.2zm0-7.38l.16-.12-.36-.48v.6h.2zm-.12-12.09l-.197.037.082.433.272-.346-.157-.124zm-.36-1.92l.197-.037-.031-.163h-.166v.2zm-1.68 0v-.2h-.2v.2h.2zm2.16 11.76h-.2v.064l.037.052.163-.116zm0-7.83l-.169-.107-.031.049v.058h.2zm-2.16 17.66h2.16v-.4h-2.16v.4zm2.36-.2v-7.38h-.4v7.38h.4zm-.36-7.26c1.03 1.374 2.381 2.03 4.21 2.03v-.4c-1.711 0-2.94-.604-3.89-1.87l-.32.24zm4.21 2.03c2.148 0 3.845-.723 5-2.136 1.15-1.406 1.74-3.468 1.74-6.104h-.4c0 2.584-.58 4.542-1.65 5.85-1.065 1.303-2.638 1.99-4.69 1.99v.4zm6.74-8.24c0-2.667-.606-4.765-1.758-6.2-1.157-1.442-2.846-2.19-4.952-2.19v.4c2.004 0 3.57.707 4.64 2.04 1.076 1.34 1.67 3.337 1.67 5.95h.4zm-6.71-8.39c-.974 0-1.781.201-2.489.591-.706.388-1.303.957-1.868 1.675l.314.248c.545-.692 1.103-1.218 1.747-1.572.642-.354 1.38-.542 2.296-.542v-.4zm-4.003 2.353l-.36-1.92-.394.074.36 1.92.394-.074zm-.557-2.083h-1.68v.4h1.68v-.4zm-1.88.2V39.7h.4V18.31h-.4zm2.56 11.76v-7.83h-.4v7.83h.4zm-.031-7.723c.958-1.509 2.277-2.247 3.791-2.247v-.4c-1.666 0-3.107.822-4.129 2.433l.338.214zm3.791-2.247c1.399 0 2.428.508 3.117 1.507.697 1.013 1.063 2.555 1.063 4.653h.4c0-2.132-.369-3.77-1.134-4.88-.774-1.123-1.935-1.68-3.446-1.68v.4zm4.18 6.16c0 2.005-.379 3.512-1.057 4.512-.67.989-1.642 1.498-2.883 1.498v.4c1.369 0 2.467-.571 3.214-1.674.74-1.093 1.126-2.69 1.126-4.736h-.4zm-3.94 6.01c-.839 0-1.562-.18-2.214-.555-.654-.375-1.249-.952-1.823-1.76l-.326.23c.596.842 1.231 1.465 1.95 1.877.72.413 1.512.608 2.413.608v-.4zm9.57 1.73h-.2v.2h.2V34zm2.22 0v.2h.2V34h-.2zm0-15.69h.2v-.2h-.2v.2zm-2.22 0v-.2h-.2v.2h.2zm-.18-3.36h-.2v.2h.2v-.2zm2.58 0v.2h.2v-.2h-.2zm0-2.64h.2v-.2h-.2v.2zm-2.58 0v-.2h-.2v.2h.2zm.18 21.89h2.22v-.4h-2.22v.4zm2.42-.2V18.31h-.4V34h.4zm-.2-15.89h-2.22v.4h2.22v-.4zm-2.42.2V34h.4V18.31h-.4zm.02-3.16h2.58v-.4h-2.58v.4zm2.78-.2v-2.64h-.4v2.64h.4zm-.2-2.84h-2.58v.4h2.58v-.4zm-2.78.2v2.64h.4v-2.64h-.4zm13.432 19.8h.2v-.256l-.249.062.049.194zm-3.6-11.94v-.2h-.2v.2h.2zm3.57 0v.2h.2v-.2h-.2zm0-1.86h.2v-.2h-.2v.2zm-3.57 0h-.2v.2h.2v-.2zm0-5.07h.2v-.2h-.2v.2zm-2.28 0v-.2h-.2v.2h.2zm0 5.07v.2h.2v-.2h-.2zm-2.34 0v-.2h-.2v.2h.2zm0 1.86h-.2v.2h.2v-.2zm2.34 0h.2v-.2h-.2v.2zm5.88 13.77l.066.189.134-.047v-.142h-.2zm-.049-2.024c-.482.12-.909.234-1.481.234v.4c.628 0 1.101-.127 1.578-.246l-.097-.388zm-1.481.234c-.914 0-1.345-.14-1.57-.4-.113-.13-.19-.31-.237-.563-.048-.255-.063-.572-.063-.967h-.4c0 .4.015.747.069 1.04.055.295.153.55.328.752.353.408.957.538 1.873.538v-.4zm-1.87-1.93V20.17h-.4v10.05h.4zm-.2-9.85h3.57v-.4h-3.57v.4zm3.77-.2v-1.86h-.4v1.86h.4zm-.2-2.06h-3.57v.4h3.57v-.4zm-3.37.2v-5.07h-.4v5.07h.4zm-.2-5.27h-2.28v.4h2.28v-.4zm-2.48.2v5.07h.4v-5.07h-.4zm.2 4.87h-2.34v.4h2.34v-.4zm-2.54.2v1.86h.4v-1.86h-.4zm.2 2.06h2.34v-.4h-2.34v.4zm2.14-.2v11.04h.4V20.17h-.4zm0 11.04c0 1.06.313 1.889.966 2.447.647.553 1.595.813 2.804.813v-.4c-1.161 0-1.998-.25-2.544-.717-.539-.462-.826-1.163-.826-2.143h-.4zm3.77 3.26c.883 0 1.657-.091 2.376-.341l-.132-.378c-.662.23-1.387.319-2.244.319v.4zm2.51-.53v-1.83h-.4v1.83h.4zm10.41-2.07l.199-.022-.049-.435-.297.321.147.136zm.24 2.13l-.199.022.02.178h.179V34zm2.4 0v.2h.2V34h-.2zm0-.24h.2v-.03l-.009-.028-.191.058zm-11.43-12.39l-.177-.093-.092.175.174.094.095-.176zm1.89 1.02l-.095.176.181.098.093-.185-.179-.089zm6.99 1.14l.038.196.162-.03v-.166h-.2zm0 6.36l.132.15.068-.06v-.09h-.2zm0-4.32h.2v-.244l-.24.048.04.196zm-.289 6.322l.24 2.13.398-.044-.24-2.13-.398.044zm.439 2.308h2.4v-.4h-2.4v.4zm2.6-.2v-.24h-.4V34h.4zm-.009-.298a7.755 7.755 0 01-.321-2.252h-.4c0 .859.122 1.659.338 2.368l.383-.116zm-.321-2.252v-8.76h-.4v8.76h.4zm0-8.76c0-1.531-.505-2.753-1.456-3.589-.947-.833-2.312-1.261-3.994-1.261v.4c1.618 0 2.878.412 3.73 1.162.849.746 1.32 1.849 1.32 3.288h.4zm-5.45-4.85c-2.766 0-4.819 1.144-6.027 3.437l.354.186c1.131-2.147 3.038-3.223 5.673-3.223v-.4zm-5.945 3.706l1.89 1.02.19-.352-1.89-1.02-.19.352zm2.164.933c.778-1.555 2.061-2.349 3.661-2.349v-.4c-1.76 0-3.177.886-4.019 2.57l.358.18zm3.661-2.349c1.824 0 2.95 1 2.95 2.26h.4c0-1.56-1.395-2.66-3.35-2.66v.4zm2.95 2.26v1.14h.4v-1.14h-.4zm.162.944c-3.199.616-5.58 1.356-7.163 2.391-.795.52-1.394 1.117-1.794 1.815-.401.698-.595 1.487-.595 2.38h.4c0-.832.18-1.55.542-2.182.362-.631.912-1.185 1.666-1.678 1.514-.99 3.829-1.72 7.02-2.334l-.076-.392zm-9.552 6.586c0 1.322.46 2.455 1.262 3.258.803.802 1.935 1.262 3.258 1.262v-.4c-1.228 0-2.255-.425-2.975-1.145-.72-.72-1.145-1.748-1.145-2.975h-.4zm4.52 4.52c1.955 0 3.656-.841 5.127-2.434l-.294-.272c-1.409 1.527-3.009 2.306-4.833 2.306v.4zm4.937-4.7c-1.792 1.583-3.244 2.35-4.547 2.35v.4c1.457 0 3.005-.853 4.812-2.45l-.265-.3zm-4.547 2.35c-.757 0-1.341-.22-1.735-.588-.393-.365-.615-.894-.615-1.552h-.4c0 .752.257 1.393.742 1.845.484.45 1.174.695 2.008.695v-.4zm-2.35-2.14c0-1.018.526-1.808 1.681-2.478 1.166-.677 2.946-1.212 5.388-1.706l-.079-.392c-2.448.495-4.283 1.04-5.509 1.752-1.238.717-1.881 1.622-1.881 2.824h.4zm6.83-4.38v4.32h.4v-4.32h-.4zm6.856 8.43h-.2v.2h.2V34zm2.19 0v.2h.2V34h-.2zm0-21.69h.2v-.2h-.2v.2zm-2.19 0v-.2h-.2v.2h.2zm0 21.89h2.19v-.4h-2.19v.4zm2.39-.2V12.31h-.4V34h.4zm-.2-21.89h-2.19v.4h2.19v-.4zm-2.39.2V34h.4V12.31h-.4z" fill="#fff"/></svg>