<svg width="227" height="63" viewBox="0 0 227 63" fill="none" xmlns="http://www.w3.org/2000/svg">
<path fill-rule="evenodd" clip-rule="evenodd" d="M0 0H227V63H0V0Z" fill="#981A1D"/>
<path fill-rule="evenodd" clip-rule="evenodd" d="M16.4409 5.24951H68.2443V57.7507H16.4409V5.24951ZM20.5154 9.37761H64.1698V53.6583H20.5154V9.37761Z" fill="white"/>
<path fill-rule="evenodd" clip-rule="evenodd" d="M25.1191 14.084H59.5737V22.7473H25.1191V14.084Z" fill="white"/>
<path fill-rule="evenodd" clip-rule="evenodd" d="M25.1191 27.1685H46.6425V35.8318H25.1191V27.1685Z" fill="white"/>
<path fill-rule="evenodd" clip-rule="evenodd" d="M25.1191 40.2524H33.7542V48.9157H25.1191V40.2524Z" fill="white"/>
<path d="M81.3188 27.5899H84.8787V9.65625H81.3188V27.5899Z" fill="white"/>
<path d="M88.2524 9.65625V27.5899H95.4007C100.748 27.5899 102.813 24.7331 102.813 18.5338C102.813 12.106 100.869 9.65625 95.4293 9.65625H88.2524ZM94.5786 12.7345C98.7175 12.7345 99.225 13.6844 99.225 18.5624C99.225 23.1333 98.4316 24.5117 94.9361 24.5117H91.7837V12.7345H94.5786Z" fill="white"/>
<path d="M105.63 27.5899H109.19V20.0122H116.681V16.934H109.19V12.7345H117.76V9.65625H105.63V27.5899Z" fill="white"/>
<path d="M130.813 21.6835C130.52 24.0618 129.383 24.8403 127.01 24.8403C123.686 24.8403 122.721 22.762 122.721 19.0338C122.721 14.2344 124.022 12.4131 126.96 12.4131C129.898 12.4131 130.406 13.6344 130.813 15.2342H134.387C133.808 11.1347 131.213 9.25635 126.974 9.25635C121.606 9.25635 119.111 12.2632 119.111 18.7124C119.111 25.3117 121.735 27.9971 126.974 27.9971C132.293 27.9971 134.166 25.1974 134.409 21.6907L130.813 21.6835Z" fill="white"/>
<path d="M143.93 27.5899H147.49V20.0122H154.974V16.934H147.49V12.7345H156.061V9.65625H143.93V27.5899Z" fill="white"/>
<path d="M158.398 27.5899H161.958V9.65625H158.398V27.5899Z" fill="white"/>
<path d="M165.325 27.5899H168.899V20.5336H172.101L176.333 27.5899H180.672L176.169 20.3122C178.142 19.8337 179.535 18.5338 179.535 15.0342C179.535 9.75624 176.404 9.65625 172.823 9.65625H165.325V27.5899ZM172.309 12.7345C175.318 12.7345 175.883 13.113 175.883 14.9128C175.883 17.1625 174.918 17.4625 172.058 17.4625H168.856V12.7345H172.309Z" fill="white"/>
<path d="M181.623 21.9618C181.845 25.69 183.382 27.9897 189.014 27.9897C191.588 27.9897 195.755 27.5112 195.755 22.4617C195.755 18.8907 193.682 17.8837 191.23 17.2123L187.377 16.1339C186.369 15.8625 185.619 15.484 185.619 14.1841C185.619 12.7557 186.534 12.4129 188.342 12.4129C191.423 12.4129 191.495 13.4128 191.659 14.9126H195.233C195.148 11.713 193.568 9.28467 188.485 9.28467C183.138 9.28467 182.009 11.9915 182.009 14.5626C182.009 17.8408 183.86 18.8907 185.955 19.4621L190.144 20.612C191.659 21.0333 192.145 21.6333 192.145 22.7546C192.145 24.5829 190.823 24.8972 189.014 24.8972C185.597 24.8972 185.333 23.8902 185.19 22.0404L181.623 21.9618Z" fill="white"/>
<path d="M201.824 27.5899H205.384V12.813H210.559V9.65625H196.62V12.813H201.824V27.5899Z" fill="white"/>
<path d="M81.1973 35.4888V53.4153H89.525C94.3215 53.4153 95.6296 51.1941 95.6296 48.2445C95.6296 46.3661 95.1006 44.6734 92.9633 43.8164C93.6781 43.4879 94.9505 42.9165 94.9505 40.1382C94.9505 36.7386 93.0848 35.4888 89.6751 35.4888H81.1973ZM88.1239 38.567C91.1476 38.567 91.4908 38.917 91.4908 40.4168C91.4908 42.2666 90.9546 42.5594 88.803 42.5594H84.7785V38.567H88.1239ZM88.7029 45.6162C91.3192 45.6162 91.9983 45.8876 91.9983 48.0445C91.9983 50.2014 91.2835 50.3442 88.0024 50.3442H84.7785V45.6162H88.7029Z" fill="white"/>
<path d="M101.198 44.2379C101.369 43.1166 101.712 42.7167 103.378 42.7167C105.043 42.7167 105.522 43.0666 105.522 44.2879V45.0878L101.312 45.7663C99.4463 46.0663 97.6021 47.1947 97.6021 50.0944C97.6021 52.3442 98.6957 53.744 101.748 53.744C103.778 53.744 105.015 53.1155 105.672 52.4156V53.4155H108.889V43.7666C108.889 40.9097 107.023 39.917 103.492 39.917C99.961 39.917 98.1596 40.8383 97.9952 44.2022L101.198 44.2379ZM105.558 48.3946C105.558 50.0158 105.051 51.1657 102.992 51.1657C101.491 51.1657 101.005 50.6158 101.005 49.6159C101.005 48.1875 101.927 47.9447 103.213 47.7447L105.558 47.3447V48.3946Z" fill="white"/>
<path d="M120.141 53.4155H123.508V45.3664C123.508 41.3668 122.657 39.917 119.39 39.917C117.039 39.917 116.045 40.6312 115.101 41.9382V40.2384H111.899V53.4155H115.266V47.1376C115.266 44.038 115.537 42.7381 117.932 42.7381C120.077 42.7381 120.077 43.788 120.077 45.8092V53.4155H120.141Z" fill="white"/>
<path d="M126.774 53.4153H130.141V49.2444L131.599 47.6945L134.695 53.4153H138.598L133.973 45.2377L138.426 40.2382H134.287L130.141 45.1163V35.4888H126.774V53.4153Z" fill="white"/>
</svg>
