<svg width="227" height="68" fill="none" xmlns="http://www.w3.org/2000/svg"><path fill-rule="evenodd" clip-rule="evenodd" d="M0 0h227v68H0V0z" fill="#981A1D"/><path fill-rule="evenodd" clip-rule="evenodd" d="M16 8h51.803v52.501H16V8zm4.075 4.128h43.654v44.28H20.075v-44.28z" fill="#fff"/><path fill-rule="evenodd" clip-rule="evenodd" d="M24.678 16.834h34.455v8.664H24.678v-8.664zM24.678 29.919h21.524v8.663H24.678V29.92zM24.678 43.003h8.635v8.663h-8.635v-8.663z" fill="#fff"/><path d="M80.877 30.34h3.56V12.407h-3.56V30.34zM87.811 12.407V30.34h7.149c5.347 0 7.413-2.856 7.413-9.056 0-6.427-1.945-8.877-7.385-8.877h-7.177zm6.327 3.078c4.139 0 4.646.95 4.646 5.828 0 4.57-.793 5.95-4.289 5.95h-3.152V15.484h2.795zM105.189 30.34h3.56v-7.577h7.491v-3.079h-7.491v-4.199h8.571v-3.078h-12.131V30.34zM130.372 24.433c-.293 2.379-1.43 3.157-3.803 3.157-3.324 0-4.289-2.078-4.289-5.806 0-4.8 1.301-6.62 4.239-6.62 2.938 0 3.446 1.22 3.853 2.82h3.574c-.579-4.1-3.174-5.978-7.413-5.978-5.368 0-7.863 3.007-7.863 9.456 0 6.6 2.624 9.285 7.863 9.285 5.319 0 7.192-2.8 7.435-6.306l-3.596-.008zM143.489 30.34h3.56v-7.577h7.484v-3.079h-7.484v-4.199h8.571v-3.078h-12.131V30.34zM157.958 30.34h3.559V12.407h-3.559V30.34zM164.884 30.34h3.574v-7.056h3.203l4.232 7.056h4.339l-4.504-7.277c1.973-.479 3.367-1.779 3.367-5.278 0-5.278-3.131-5.378-6.712-5.378h-7.499V30.34zm6.984-14.855c3.01 0 3.574.379 3.574 2.178 0 2.25-.965 2.55-3.824 2.55h-3.202v-4.728h3.452zM181.182 24.712c.222 3.728 1.759 6.028 7.391 6.028 2.574 0 6.741-.478 6.741-5.528 0-3.57-2.073-4.578-4.525-5.25l-3.853-1.078c-1.007-.271-1.758-.65-1.758-1.95 0-1.428.915-1.77 2.723-1.77 3.081 0 3.153 1 3.317 2.5h3.574c-.085-3.2-1.665-5.629-6.748-5.629-5.346 0-6.476 2.707-6.476 5.278 0 3.278 1.852 4.328 3.946 4.9l4.189 1.15c1.515.42 2.001 1.02 2.001 2.142 0 1.828-1.322 2.143-3.131 2.143-3.416 0-3.681-1.007-3.824-2.857l-3.567-.079zM201.383 30.34h3.56V15.563h5.175v-3.156h-13.939v3.156h5.204V30.34zM80.756 38.24v17.926h8.328c4.797 0 6.105-2.221 6.105-5.171 0-1.878-.53-3.571-2.667-4.428.715-.329 1.988-.9 1.988-3.678 0-3.4-1.866-4.65-5.276-4.65h-8.478zm6.927 3.078c3.024 0 3.367.35 3.367 1.85 0 1.85-.536 2.142-2.688 2.142h-4.024v-3.992h3.345zm.579 7.049c2.616 0 3.295.271 3.295 2.428s-.715 2.3-3.996 2.3h-3.223v-4.728h3.924zM100.757 46.988c.172-1.12.515-1.52 2.18-1.52 1.666 0 2.145.35 2.145 1.57v.8l-4.21.679c-1.866.3-3.71 1.428-3.71 4.328 0 2.25 1.093 3.65 4.146 3.65 2.03 0 3.266-.629 3.924-1.329v1h3.217v-9.649c0-2.857-1.866-3.85-5.397-3.85-3.532 0-5.333.922-5.497 4.286l3.202.035zm4.361 4.157c0 1.621-.508 2.771-2.567 2.771-1.501 0-1.987-.55-1.987-1.55 0-1.428.922-1.67 2.209-1.87l2.345-.4v1.05zM119.7 56.166h3.367v-8.05c0-3.999-.851-5.449-4.118-5.449-2.351 0-3.345.715-4.289 2.022v-1.7h-3.202v13.177h3.367v-6.278c0-3.1.271-4.4 2.666-4.4 2.145 0 2.145 1.05 2.145 3.072v7.606h.064zM126.333 56.166h3.367v-4.171l1.459-1.55 3.095 5.72h3.903l-4.625-8.177 4.453-5h-4.139l-4.146 4.879v-9.628h-3.367v17.927z" fill="#fff"/></svg>