<svg width="303" height="126" viewBox="0 0 303 126" fill="none" xmlns="http://www.w3.org/2000/svg">
<path fill-rule="evenodd" clip-rule="evenodd" d="M62.2852 0.867188C96.4702 0.867188 124.03 28.6005 124.03 63.0005C124.03 97.4005 96.4702 125.134 62.2852 125.134C28.1002 125.134 0.805176 97.4005 0.805176 63.0005C0.805176 28.6005 28.3652 0.867188 62.2852 0.867188Z" fill="#F26F21"/>
<path fill-rule="evenodd" clip-rule="evenodd" d="M54.0704 65.4L56.4554 59.5333H49.8304L54.0704 65.4ZM53.0104 53.4L56.7204 59.5333L59.3704 53.4H53.0104ZM53.0104 53.4L56.7204 45.9333H48.7704L53.0104 53.4ZM32.8704 45.9333L40.8204 61.4L48.7704 45.9333H32.8704ZM40.8204 61.4L32.6054 77.6667H49.3004L45.0604 69.6667L40.8204 61.4ZM44.7954 53.4L48.7704 61.9333L49.8304 59.5333L52.7454 53.4H44.7954ZM48.7704 61.9333L45.0604 69.6667H52.2154L48.7704 61.9333ZM54.0704 65.4L52.2154 69.6667H56.9854L54.0704 65.4ZM49.0354 77.4H55.9254L52.2154 69.6667L49.0354 77.4ZM56.4554 92.0667L49.0354 77.6667L42.9404 92.0667H56.4554ZM62.2854 77.4L61.2254 75.8L56.9854 69.6667H60.4304H60.9604H62.5504H64.1404H67.8504L62.2854 77.4ZM41.8804 33.9333L53.0104 19.2667H33.4004L41.8804 33.9333ZM54.8654 33.9333H41.8804L48.7704 45.6667L54.8654 33.9333ZM32.8704 45.9333L41.8804 34.2H26.7754L32.8704 45.9333ZM32.8704 45.9333H9.55037L20.9454 61.6667L32.8704 45.9333ZM32.3404 77.4L24.9204 91.8H42.9404L32.3404 77.4ZM8.75537 77.4H32.3404L20.6804 61.4L8.75537 77.4ZM37.9054 103.8H51.4204L42.9404 92.0667L37.9054 103.8ZM70.7654 65.4L68.3804 59.5333H75.0054L70.7654 65.4ZM71.8254 53.4L68.1154 59.5333L65.4654 53.4H71.8254ZM71.8254 53.4L68.1154 45.9333H76.0654L71.8254 53.4ZM91.9654 45.9333L84.0154 61.4L76.0654 45.9333H91.9654ZM84.0154 61.4L92.2304 77.6667H75.8004L79.7754 69.9333L84.0154 61.4ZM80.0404 53.4L76.0654 61.9333L75.0054 59.5333L72.0904 53.4H80.0404ZM76.0654 61.9333L79.7754 69.6667H72.6204L76.0654 61.9333ZM70.7654 65.4L72.6204 69.6667H67.8504L70.7654 65.4ZM75.8004 77.4H68.9104L72.3554 69.6667L75.8004 77.4ZM68.3804 92.0667L75.8004 77.6667L81.8954 92.0667H68.3804ZM62.2854 53.4H62.8154H63.6104H65.4654L62.2854 45.9333L59.1054 53.4H61.2254H61.7554H62.2854ZM62.2854 69.6667L63.0804 68.3333L68.1154 59.5333H63.0804H62.2854H61.4904H56.4554L62.2854 69.6667ZM62.2854 92.0667L68.9104 77.6667H64.6704H64.4054H62.5504H60.6954H60.1654H55.9254L60.9604 88.8667L62.2854 92.0667ZM82.9554 33.9333L71.8254 19.2667H91.4354L82.9554 33.9333ZM69.9704 33.9333H82.9554L76.0654 45.6667L69.9704 33.9333ZM91.9654 45.9333L82.9554 34.2H98.0604L91.9654 45.9333ZM91.9654 45.9333H115.285L103.89 61.6667L91.9654 45.9333ZM92.4954 77.4L99.9154 91.8H81.8954L92.4954 77.4ZM116.08 77.4H92.4954L104.155 61.4L116.08 77.4ZM86.9304 103.8H73.4154L81.8954 92.0667L86.9304 103.8ZM62.2854 19.2667H64.9354H67.0554H71.8254L62.5504 7L53.2754 19.2667H58.8404H59.9004H62.2854ZM62.2854 33.9333H63.3454H63.8754H69.9704L62.2854 19.2667L54.6004 33.9333H60.6954H60.9604H62.2854ZM62.2854 45.9333H63.6104H67.8504L64.4054 38.7333L62.0204 33.9333L56.1904 45.6667H60.6954H62.2854V45.9333ZM62.2854 103.8L63.8754 100.867L68.3804 92.0667H64.4054H64.1404H62.2854H60.6954H60.1654H56.1904L62.2854 103.8ZM62.2854 119L73.4154 103.8H65.9954H63.8754H62.5504H61.7554H59.1054H51.6854L62.2854 119Z" fill="white"/>
<path fill-rule="evenodd" clip-rule="evenodd" d="M179.415 15.7998H169.345C166.165 15.7998 163.515 18.4665 163.515 21.6665V77.9331H173.585C176.765 77.9331 179.415 75.2665 179.415 72.0665V15.7998ZM196.11 15.7998H204.855H206.445H230.295V26.1998C230.295 29.3998 227.91 31.7998 224.73 31.7998H206.445V39.7998H226.32V50.1998C226.32 53.3998 223.935 55.7998 220.755 55.7998H206.445V72.3331C206.445 75.5331 203.795 77.9331 200.88 77.9331H190.545V21.3998C190.545 18.1998 193.195 15.7998 196.11 15.7998ZM152.385 15.7998H142.315C139.135 15.7998 136.485 18.4665 136.485 21.6665V77.9331H146.555C149.735 77.9331 152.385 75.2665 152.385 72.0665V15.7998ZM254.94 15.7998H244.605C241.425 15.7998 239.04 18.4665 239.04 21.3998V77.9331C248.845 77.9331 258.915 77.9331 268.72 77.9331C271.9 77.9331 274.285 75.5331 274.285 72.3331V61.9331H254.94V15.7998Z" fill="#242056"/>
<path fill-rule="evenodd" clip-rule="evenodd" d="M161.13 87.7998H168.55H169.875C170.405 87.7998 170.935 88.3331 170.935 88.8665V91.2665C170.935 91.7998 170.405 92.3331 169.875 92.3331H169.08H162.19C161.395 92.3331 160.865 92.8665 160.865 93.6665V97.9331H169.08H169.875C170.405 97.9331 170.935 98.4665 170.935 98.9998V101.4C170.935 101.933 170.405 102.466 169.875 102.466H169.08H160.865V106.733C160.865 107.533 161.395 108.066 162.19 108.066H169.08H169.875C170.405 108.066 170.935 108.6 170.935 109.133V111.533C170.935 112.066 170.405 112.6 169.875 112.6H168.55H161.395H161.13C158.48 112.6 156.36 110.466 156.36 107.8V92.3331C156.36 89.9331 158.48 87.7998 161.13 87.7998Z" fill="#242056"/>
<path fill-rule="evenodd" clip-rule="evenodd" d="M272.96 87.7998H280.38H281.705C282.235 87.7998 282.765 88.3331 282.765 88.8665V91.2665C282.765 91.7998 282.235 92.3331 281.705 92.3331H280.91H274.02C273.225 92.3331 272.695 92.8665 272.695 93.6665V97.9331H280.91H281.705C282.235 97.9331 282.765 98.4665 282.765 98.9998V101.4C282.765 101.933 282.235 102.466 281.705 102.466H280.91H272.695V106.733C272.695 107.533 273.225 108.066 274.02 108.066H280.91H281.705C282.235 108.066 282.765 108.6 282.765 109.133V111.533C282.765 112.066 282.235 112.6 281.705 112.6H280.38H273.225H272.96C270.31 112.6 268.19 110.466 268.19 107.8V92.3331C268.19 89.9331 270.31 87.7998 272.96 87.7998Z" fill="#242056"/>
<path fill-rule="evenodd" clip-rule="evenodd" d="M232.68 89.1331V111.8C232.68 112.333 233.21 112.866 233.74 112.866H236.125C236.655 112.866 237.185 112.333 237.185 111.8V89.1331C237.185 88.5998 236.655 88.0664 236.125 88.0664H233.74C233.21 87.7998 232.68 88.3331 232.68 89.1331Z" fill="#242056"/>
<path fill-rule="evenodd" clip-rule="evenodd" d="M213.07 89.1331V111.8C213.07 112.333 213.6 112.866 214.13 112.866H216.515C217.045 112.866 217.575 112.333 217.575 111.8V103H219.96L225.26 112.066C225.525 112.6 226.32 112.866 226.85 112.866H229.5C230.56 112.866 230.56 112.066 230.295 111.266L224.995 102.2C227.645 101.133 229.235 98.4664 229.235 95.5331C229.235 91.5331 225.79 88.0664 221.815 88.0664H216.25H214.395H214.13C213.6 87.7998 213.07 88.3331 213.07 89.1331ZM217.84 98.1998V92.3331H222.08C223.67 92.3331 224.995 93.6664 224.995 95.2664C224.995 96.8664 223.67 98.1998 222.08 98.1998H217.84Z" fill="#242056"/>
<path fill-rule="evenodd" clip-rule="evenodd" d="M192.4 89.1331V103.8V104.066C192.4 108.866 196.375 112.866 201.145 112.866C205.915 112.866 209.89 108.866 209.89 104.066V103.8V89.1331C209.89 88.5998 209.36 88.0664 208.83 88.0664H206.445C205.915 88.0664 205.385 88.5998 205.385 89.1331V103.8V104.066C205.385 106.2 203.53 108.066 201.41 108.066C199.29 108.066 197.435 106.2 197.435 104.066V103.8V89.1331C197.435 88.5998 196.905 88.0664 196.375 88.0664H193.99C192.93 87.7998 192.4 88.3331 192.4 89.1331Z" fill="#242056"/>
<path fill-rule="evenodd" clip-rule="evenodd" d="M256.265 87.7998C251.23 87.7998 246.195 87.7998 240.895 87.7998C240.365 87.7998 239.835 88.3331 239.835 88.8665V91.2665C239.835 91.7998 240.365 92.3331 240.895 92.3331H246.195V111.533C246.195 112.066 246.725 112.6 247.255 112.6H249.64C250.17 112.6 250.7 112.066 250.7 111.533V92.3331H256C256.53 92.3331 257.06 91.7998 257.06 91.2665V88.8665C257.59 88.3331 257.06 87.7998 256.265 87.7998Z" fill="#242056"/>
<path fill-rule="evenodd" clip-rule="evenodd" d="M260.24 89.1331V111.8C260.24 112.333 260.77 112.866 261.3 112.866H263.685C264.215 112.866 264.745 112.333 264.745 111.8V89.1331C264.745 88.5998 264.215 88.0664 263.685 88.0664H261.3C260.77 87.7998 260.24 88.3331 260.24 89.1331Z" fill="#242056"/>
<path fill-rule="evenodd" clip-rule="evenodd" d="M187.895 87.7998H183.125H182.86C182.065 87.7998 181.27 87.7998 180.475 88.0665C179.68 88.3331 178.885 88.5998 178.09 88.8665C177.295 89.3998 176.765 89.9331 175.97 90.7331C175.44 91.5331 174.91 92.5998 174.645 93.6665C174.115 94.9998 174.115 96.3331 174.115 97.9331V102.733C174.115 104.066 174.38 105.666 174.645 107C174.91 108.066 175.44 109.133 175.97 109.933C176.5 110.733 177.295 111.266 178.09 111.8C178.885 112.333 179.68 112.6 180.475 112.866C181.27 113.133 182.065 113.133 182.86 113.133H183.125H187.895C188.425 113.133 188.955 112.6 188.955 112.066V109.666C188.955 109.133 188.425 108.6 187.895 108.6H183.39H183.125C182.33 108.6 181.8 108.6 181.005 108.066C180.475 107.8 179.945 107 179.68 106.466C179.15 105.133 179.15 103.8 179.15 102.733V97.9331C179.15 97.1331 179.15 96.0665 179.415 95.2665C179.945 93.3998 181.005 92.5998 182.86 92.5998H183.125H187.63C188.16 92.5998 188.69 92.0665 188.69 91.5331V89.1331C188.955 88.3331 188.425 87.7998 187.895 87.7998Z" fill="#242056"/>
<path fill-rule="evenodd" clip-rule="evenodd" d="M151.06 87.7998H144.965C141.785 87.7998 138.605 88.8665 137.015 92.0665C135.69 94.9998 136.485 98.7331 138.87 100.6C139.665 101.133 140.46 101.666 141.52 101.933C142.58 102.2 143.375 102.466 144.435 102.733C144.965 102.733 145.495 103 146.025 103.266C146.29 103.266 146.82 103.533 147.085 103.8C148.41 104.6 148.145 107 147.085 107.8C146.29 108.333 145.23 108.333 144.435 108.333H137.81C137.28 108.333 136.75 108.866 136.75 109.666V112.066C136.75 112.6 137.28 113.4 137.81 113.4H144.435C145.495 113.4 146.555 113.133 147.615 113.133C148.675 112.866 149.735 112.6 150.53 111.8C151.325 111.266 152.12 110.466 152.385 109.4C152.915 108.333 153.18 107 153.18 105.933C153.18 104.866 152.915 103.533 152.385 102.466C151.855 101.666 151.325 100.866 150.53 100.333C149.735 99.7998 148.94 99.2665 147.88 98.9998C146.82 98.7331 143.375 97.9331 142.315 97.3998C141.255 96.5998 141.255 94.4665 142.315 93.6665C142.845 93.1331 143.905 93.1331 144.435 93.1331H150.53C151.06 93.1331 151.59 92.5998 151.59 91.7998V89.3998C152.12 88.3331 151.59 87.7998 151.06 87.7998Z" fill="#242056"/>
<path fill-rule="evenodd" clip-rule="evenodd" d="M299.99 87.7998H293.895C290.715 87.7998 287.535 88.8665 285.945 92.0665C284.62 94.9998 285.415 98.7331 287.8 100.6C288.595 101.133 289.39 101.666 290.45 101.933C291.51 102.2 292.305 102.466 293.365 102.733C293.895 102.733 294.425 103 294.955 103.266C295.22 103.266 295.75 103.533 296.015 103.8C297.34 104.6 297.075 107 296.015 107.8C295.22 108.333 294.16 108.333 293.365 108.333H286.74C286.21 108.333 285.68 108.866 285.68 109.666V112.066C285.68 112.6 286.21 113.4 286.74 113.4H293.365C294.425 113.4 295.485 113.133 296.545 113.133C297.605 112.866 298.665 112.6 299.46 111.8C300.255 111.266 301.05 110.466 301.315 109.4C301.845 108.333 302.11 107 302.11 105.933C302.11 104.866 301.845 103.533 301.315 102.466C300.785 101.666 300.255 100.866 299.46 100.333C298.665 99.7998 297.87 99.2665 296.81 98.9998C295.75 98.7331 292.305 97.9331 291.245 97.3998C290.185 96.5998 290.185 94.4665 291.245 93.6665C291.775 93.1331 292.835 93.1331 293.365 93.1331H299.46C299.99 93.1331 300.52 92.5998 300.52 91.7998V89.3998C301.05 88.3331 300.52 87.7998 299.99 87.7998Z" fill="#242056"/>
</svg>
