<svg width="237" height="69" viewBox="0 0 237 69" fill="none" xmlns="http://www.w3.org/2000/svg">
<path fill-rule="evenodd" clip-rule="evenodd" d="M122.575 32.8179C118.813 32.8179 117.271 29.6969 117.271 26.2138C117.271 22.6866 118.813 19.5646 122.575 19.5646C126.34 19.5646 127.88 22.6866 127.88 26.2138C127.88 29.6969 126.34 32.8179 122.575 32.8179ZM122.575 38.5144C130.374 38.5144 136.311 33.9903 136.311 26.2138C136.311 18.3922 130.374 13.8691 122.575 13.8691C114.776 13.8691 108.836 18.3922 108.836 26.2138C108.836 33.9903 114.776 38.5144 122.575 38.5144Z" fill="#ED3338"/>
<path fill-rule="evenodd" clip-rule="evenodd" d="M135.566 20.1088H140.235V29.6968C140.235 35.3051 142.006 38.5143 149.304 38.5143C151.345 38.5143 152.888 38.2418 154.428 38.0628L154.159 32.7714C153.338 32.9082 152.477 33.0872 151.663 33.0872C149.08 33.0872 148.399 31.6387 148.399 28.7905V20.1088H154.114V14.4112H148.399L148.395 6.2627L140.374 9.11981V14.4112H135.566L135.566 20.1088Z" fill="#ED3338"/>
<path fill-rule="evenodd" clip-rule="evenodd" d="M182.673 37.9723H190.835V26.3032H190.926L197.455 37.9723H207.34L198.453 25.2202L206.658 14.4111H197.727L190.926 24.3138H190.835V6.29248L182.673 9.11206L182.673 37.9723Z" fill="#ED3338"/>
<path fill-rule="evenodd" clip-rule="evenodd" d="M87.1055 37.9723H95.2691V26.3032H95.3554L101.887 37.9723H111.771L102.887 25.2202L111.092 14.4111H102.16L95.3554 24.3138H95.2691V6.29248L87.1055 8.97626L87.1055 37.9723Z" fill="#ED3338"/>
<path fill-rule="evenodd" clip-rule="evenodd" d="M163.116 30.5303C163.116 28.244 165.321 27.374 168.119 27.374C169.358 27.374 170.552 27.4667 171.607 27.512C171.607 30.3051 169.635 33.1412 166.513 33.1412C164.588 33.1412 163.116 32.1808 163.116 30.5303ZM179.776 38.0838C179.409 36.2081 179.316 34.3291 179.316 32.4534V23.5752C179.316 16.2967 174.037 13.688 167.937 13.688C164.402 13.688 161.325 14.1925 158.39 15.3826L158.526 20.9655C160.824 19.6848 163.484 19.1825 166.144 19.1825C169.13 19.1825 171.561 20.0491 171.607 23.2992C170.552 23.1171 169.084 22.9791 167.752 22.9791C163.346 22.9791 155.407 23.8512 155.407 31.1264C155.407 36.2997 159.631 38.6324 164.356 38.6324C167.752 38.6324 170.047 37.3055 171.928 34.3291H172.022C172.022 35.5678 172.155 36.802 172.204 38.0838H179.776Z" fill="#ED3338"/>
<path fill-rule="evenodd" clip-rule="evenodd" d="M0 34.1703C0 15.2978 17.8349 0 39.8386 0C61.8433 0 79.6782 15.2978 79.6782 34.1703C79.6782 53.0451 61.8433 68.344 39.8386 68.344C17.8349 68.344 0 53.0451 0 34.1703" fill="#1F4578"/>
<path fill-rule="evenodd" clip-rule="evenodd" d="M35.0023 10.9712L44.2563 7.9209L44.3018 57.8252L34.9692 60.9439L35.0023 10.9712Z" fill="#ED3338"/>
<path fill-rule="evenodd" clip-rule="evenodd" d="M40.4963 42.0948C36.4737 46.928 32.5861 51.8694 25.3036 51.8694C15.0158 51.8694 10.1431 41.9513 10.1431 33.6593C10.1431 25.693 13.9542 16.2617 23.9709 16.2617C28.3178 16.2617 32.5064 18.9134 34.9959 21.7164L34.9896 28.4805C32.9086 27.0807 28.2407 25.7074 25.1933 25.6588C18.8395 25.5517 13.2351 28.2973 13.3358 34.5535C13.4011 38.8602 17.6772 41.7901 21.9345 41.7901C28.4554 41.7901 32.4027 35.8496 35.7058 31.3399C36.6257 30.163 39.2248 26.6987 39.6288 26.1445C43.296 21.0364 47.54 16.3688 54.8214 16.3688C63.3968 16.3688 68.2109 23.2664 69.5747 30.3661H65.7071C64.1507 28.0643 61.1553 26.6557 58.2009 26.6557C51.4619 26.6557 47.436 32.8379 44.0676 37.3896C44.0676 37.3896 41.4453 40.9555 40.4966 42.0948H40.4963ZM69.799 37.6149C68.9301 44.7543 64.9175 51.9621 56.1494 51.9776C51.0343 51.987 47.0338 48.4912 44.2632 44.2155V39.2642C47.7301 40.9809 50.9678 42.8179 54.8975 42.8775C59.737 42.9492 64.1127 41.0913 65.9226 37.6149H69.799Z" fill="white"/>
<path d="M87.4722 57V46.292H88.7173V57H87.4722ZM96.9717 57V51.8071C96.9717 51.1528 96.8228 50.6646 96.5249 50.3423C96.2271 50.02 95.7607 49.8589 95.126 49.8589C94.2861 49.8589 93.6709 50.0859 93.2803 50.54C92.8896 50.9941 92.6943 51.7437 92.6943 52.7886V57H91.4785V48.9727H92.4673L92.665 50.0713H92.7236C92.9727 49.6758 93.3218 49.3706 93.771 49.1558C94.2202 48.936 94.7207 48.8262 95.2725 48.8262C96.2393 48.8262 96.9668 49.0605 97.4551 49.5293C97.9434 49.9932 98.1875 50.7378 98.1875 51.7632V57H96.9717ZM102.45 57L99.4033 48.9727H100.707L102.436 53.7334C102.826 54.8467 103.056 55.5693 103.124 55.9014H103.183C103.236 55.6426 103.405 55.1079 103.688 54.2974C103.976 53.4819 104.618 51.707 105.614 48.9727H106.918L103.871 57H102.45ZM111.598 57.1465C110.412 57.1465 109.474 56.7852 108.786 56.0625C108.102 55.3398 107.76 54.3364 107.76 53.0522C107.76 51.7583 108.078 50.7305 108.712 49.9688C109.352 49.207 110.209 48.8262 111.283 48.8262C112.289 48.8262 113.085 49.1582 113.671 49.8223C114.257 50.4814 114.55 51.353 114.55 52.437V53.2061H109.02C109.044 54.1484 109.281 54.8638 109.73 55.3521C110.185 55.8403 110.822 56.0845 111.642 56.0845C112.506 56.0845 113.361 55.9038 114.206 55.5425V56.6265C113.776 56.812 113.368 56.9438 112.982 57.022C112.602 57.105 112.14 57.1465 111.598 57.1465ZM111.269 49.8442C110.624 49.8442 110.109 50.0542 109.723 50.4741C109.342 50.894 109.118 51.4751 109.049 52.2173H113.246C113.246 51.4507 113.075 50.8647 112.733 50.4595C112.392 50.0493 111.903 49.8442 111.269 49.8442ZM121.808 54.8101C121.808 55.5571 121.53 56.1333 120.973 56.5386C120.417 56.9438 119.635 57.1465 118.629 57.1465C117.565 57.1465 116.735 56.978 116.139 56.6411V55.5132C116.525 55.7085 116.938 55.8623 117.377 55.9746C117.821 56.0869 118.249 56.1431 118.659 56.1431C119.293 56.1431 119.782 56.043 120.124 55.8428C120.465 55.6377 120.636 55.3276 120.636 54.9126C120.636 54.6001 120.5 54.334 120.226 54.1143C119.958 53.8896 119.43 53.626 118.644 53.3232C117.897 53.0449 117.365 52.8032 117.047 52.5981C116.735 52.3882 116.5 52.1514 116.344 51.8877C116.193 51.624 116.117 51.3091 116.117 50.9429C116.117 50.2886 116.383 49.7734 116.916 49.3975C117.448 49.0166 118.178 48.8262 119.105 48.8262C119.97 48.8262 120.814 49.002 121.64 49.3535L121.208 50.3423C120.402 50.0103 119.672 49.8442 119.018 49.8442C118.441 49.8442 118.007 49.9346 117.714 50.1152C117.421 50.2959 117.274 50.5449 117.274 50.8623C117.274 51.0771 117.328 51.2603 117.436 51.4116C117.548 51.563 117.726 51.707 117.97 51.8438C118.214 51.9805 118.683 52.1782 119.376 52.437C120.329 52.7837 120.971 53.1328 121.303 53.4844C121.64 53.8359 121.808 54.2778 121.808 54.8101ZM126.386 56.1431C126.601 56.1431 126.808 56.1284 127.008 56.0991C127.208 56.0649 127.367 56.0308 127.484 55.9966V56.9268C127.353 56.9902 127.157 57.0415 126.898 57.0806C126.645 57.1245 126.415 57.1465 126.21 57.1465C124.657 57.1465 123.881 56.3286 123.881 54.6929V49.9175H122.731V49.3315L123.881 48.8262L124.394 47.1123H125.097V48.9727H127.426V49.9175H125.097V54.6416C125.097 55.125 125.211 55.4961 125.441 55.7549C125.67 56.0137 125.985 56.1431 126.386 56.1431ZM139.328 57V51.7778C139.328 51.1382 139.191 50.6597 138.917 50.3423C138.644 50.02 138.219 49.8589 137.643 49.8589C136.886 49.8589 136.327 50.0762 135.966 50.5107C135.604 50.9453 135.424 51.6143 135.424 52.5176V57H134.208V51.7778C134.208 51.1382 134.071 50.6597 133.798 50.3423C133.524 50.02 133.097 49.8589 132.516 49.8589C131.754 49.8589 131.195 50.0884 130.839 50.5474C130.487 51.0015 130.312 51.7485 130.312 52.7886V57H129.096V48.9727H130.084L130.282 50.0713H130.341C130.57 49.6807 130.893 49.3755 131.308 49.1558C131.728 48.936 132.196 48.8262 132.714 48.8262C133.969 48.8262 134.789 49.2803 135.175 50.1885H135.233C135.473 49.7686 135.819 49.4365 136.273 49.1924C136.728 48.9482 137.245 48.8262 137.826 48.8262C138.734 48.8262 139.413 49.0605 139.862 49.5293C140.316 49.9932 140.543 50.7378 140.543 51.7632V57H139.328ZM146.447 57.1465C145.26 57.1465 144.323 56.7852 143.634 56.0625C142.951 55.3398 142.609 54.3364 142.609 53.0522C142.609 51.7583 142.926 50.7305 143.561 49.9688C144.201 49.207 145.058 48.8262 146.132 48.8262C147.138 48.8262 147.934 49.1582 148.52 49.8223C149.105 50.4814 149.398 51.353 149.398 52.437V53.2061H143.869C143.893 54.1484 144.13 54.8638 144.579 55.3521C145.033 55.8403 145.67 56.0845 146.491 56.0845C147.355 56.0845 148.209 55.9038 149.054 55.5425V56.6265C148.625 56.812 148.217 56.9438 147.831 57.022C147.45 57.105 146.989 57.1465 146.447 57.1465ZM146.117 49.8442C145.473 49.8442 144.958 50.0542 144.572 50.4741C144.191 50.894 143.966 51.4751 143.898 52.2173H148.095C148.095 51.4507 147.924 50.8647 147.582 50.4595C147.24 50.0493 146.752 49.8442 146.117 49.8442ZM156.972 57V51.8071C156.972 51.1528 156.823 50.6646 156.525 50.3423C156.227 50.02 155.761 49.8589 155.126 49.8589C154.286 49.8589 153.671 50.0859 153.28 50.54C152.89 50.9941 152.694 51.7437 152.694 52.7886V57H151.479V48.9727H152.467L152.665 50.0713H152.724C152.973 49.6758 153.322 49.3706 153.771 49.1558C154.22 48.936 154.721 48.8262 155.272 48.8262C156.239 48.8262 156.967 49.0605 157.455 49.5293C157.943 49.9932 158.188 50.7378 158.188 51.7632V57H156.972ZM163.285 56.1431C163.5 56.1431 163.708 56.1284 163.908 56.0991C164.108 56.0649 164.267 56.0308 164.384 55.9966V56.9268C164.252 56.9902 164.057 57.0415 163.798 57.0806C163.544 57.1245 163.314 57.1465 163.109 57.1465C161.557 57.1465 160.78 56.3286 160.78 54.6929V49.9175H159.63V49.3315L160.78 48.8262L161.293 47.1123H161.996V48.9727H164.325V49.9175H161.996V54.6416C161.996 55.125 162.111 55.4961 162.34 55.7549C162.57 56.0137 162.885 56.1431 163.285 56.1431ZM176.806 57L175.473 53.5942H171.181L169.862 57H168.603L172.836 46.248H173.883L178.095 57H176.806ZM175.084 52.4736L173.839 49.1558C173.678 48.7358 173.512 48.2207 173.341 47.6104C173.234 48.0791 173.08 48.5942 172.88 49.1558L171.62 52.4736H175.084ZM184.848 55.9233H184.782C184.22 56.7388 183.38 57.1465 182.262 57.1465C181.212 57.1465 180.395 56.7876 179.809 56.0698C179.228 55.3521 178.937 54.3315 178.937 53.0083C178.937 51.6851 179.23 50.6572 179.816 49.9248C180.402 49.1924 181.217 48.8262 182.262 48.8262C183.351 48.8262 184.186 49.2217 184.767 50.0127H184.862L184.811 49.4341L184.782 48.8701V45.6035H185.998V57H185.009L184.848 55.9233ZM182.416 56.1284C183.246 56.1284 183.847 55.9038 184.218 55.4546C184.594 55.0005 184.782 54.2705 184.782 53.2646V53.0083C184.782 51.8706 184.591 51.0601 184.21 50.5767C183.834 50.0884 183.231 49.8442 182.401 49.8442C181.688 49.8442 181.142 50.1226 180.761 50.6792C180.385 51.231 180.197 52.0122 180.197 53.0229C180.197 54.0483 180.385 54.8223 180.761 55.3447C181.137 55.8672 181.688 56.1284 182.416 56.1284ZM190.341 57L187.294 48.9727H188.598L190.326 53.7334C190.717 54.8467 190.946 55.5693 191.015 55.9014H191.073C191.127 55.6426 191.295 55.1079 191.579 54.2974C191.867 53.4819 192.509 51.707 193.505 48.9727H194.809L191.762 57H190.341ZM197.313 57H196.098V48.9727H197.313V57ZM195.995 46.7974C195.995 46.519 196.063 46.3164 196.2 46.1895C196.337 46.0576 196.508 45.9917 196.713 45.9917C196.908 45.9917 197.077 46.0576 197.218 46.1895C197.36 46.3213 197.431 46.5239 197.431 46.7974C197.431 47.0708 197.36 47.2759 197.218 47.4126C197.077 47.5444 196.908 47.6104 196.713 47.6104C196.508 47.6104 196.337 47.5444 196.2 47.4126C196.063 47.2759 195.995 47.0708 195.995 46.7974ZM205.07 54.8101C205.07 55.5571 204.792 56.1333 204.235 56.5386C203.678 56.9438 202.897 57.1465 201.891 57.1465C200.827 57.1465 199.997 56.978 199.401 56.6411V55.5132C199.787 55.7085 200.199 55.8623 200.639 55.9746C201.083 56.0869 201.51 56.1431 201.92 56.1431C202.555 56.1431 203.043 56.043 203.385 55.8428C203.727 55.6377 203.898 55.3276 203.898 54.9126C203.898 54.6001 203.761 54.334 203.488 54.1143C203.219 53.8896 202.692 53.626 201.906 53.3232C201.159 53.0449 200.626 52.8032 200.309 52.5981C199.997 52.3882 199.762 52.1514 199.606 51.8877C199.455 51.624 199.379 51.3091 199.379 50.9429C199.379 50.2886 199.645 49.7734 200.177 49.3975C200.709 49.0166 201.439 48.8262 202.367 48.8262C203.231 48.8262 204.076 49.002 204.901 49.3535L204.469 50.3423C203.664 50.0103 202.934 49.8442 202.279 49.8442C201.703 49.8442 201.269 49.9346 200.976 50.1152C200.683 50.2959 200.536 50.5449 200.536 50.8623C200.536 51.0771 200.59 51.2603 200.697 51.4116C200.81 51.563 200.988 51.707 201.232 51.8438C201.476 51.9805 201.945 52.1782 202.638 52.437C203.59 52.7837 204.232 53.1328 204.564 53.4844C204.901 53.8359 205.07 54.2778 205.07 54.8101ZM213.983 52.979C213.983 54.2876 213.654 55.3105 212.995 56.0479C212.335 56.7803 211.425 57.1465 210.263 57.1465C209.545 57.1465 208.908 56.978 208.351 56.6411C207.794 56.3042 207.365 55.8208 207.062 55.1909C206.759 54.561 206.608 53.8237 206.608 52.979C206.608 51.6704 206.935 50.6523 207.589 49.9248C208.244 49.1924 209.152 48.8262 210.314 48.8262C211.437 48.8262 212.328 49.1997 212.987 49.9468C213.651 50.6938 213.983 51.7046 213.983 52.979ZM207.868 52.979C207.868 54.0044 208.073 54.7856 208.483 55.3228C208.893 55.8599 209.496 56.1284 210.292 56.1284C211.088 56.1284 211.691 55.8623 212.101 55.3301C212.516 54.793 212.724 54.0093 212.724 52.979C212.724 51.9585 212.516 51.1846 212.101 50.6572C211.691 50.125 211.083 49.8589 210.277 49.8589C209.481 49.8589 208.881 50.1201 208.476 50.6426C208.07 51.165 207.868 51.9438 207.868 52.979ZM219.784 48.8262C220.141 48.8262 220.46 48.8555 220.744 48.9141L220.575 50.042C220.243 49.9688 219.95 49.9321 219.696 49.9321C219.047 49.9321 218.49 50.1958 218.026 50.7231C217.567 51.2505 217.338 51.9072 217.338 52.6934V57H216.122V48.9727H217.125L217.265 50.4595H217.323C217.621 49.937 217.98 49.5342 218.4 49.251C218.82 48.9678 219.281 48.8262 219.784 48.8262ZM227.423 54.8101C227.423 55.5571 227.145 56.1333 226.588 56.5386C226.032 56.9438 225.25 57.1465 224.245 57.1465C223.18 57.1465 222.35 56.978 221.754 56.6411V55.5132C222.14 55.7085 222.553 55.8623 222.992 55.9746C223.437 56.0869 223.864 56.1431 224.274 56.1431C224.909 56.1431 225.397 56.043 225.739 55.8428C226.081 55.6377 226.251 55.3276 226.251 54.9126C226.251 54.6001 226.115 54.334 225.841 54.1143C225.573 53.8896 225.045 53.626 224.259 53.3232C223.512 53.0449 222.98 52.8032 222.663 52.5981C222.35 52.3882 222.116 52.1514 221.959 51.8877C221.808 51.624 221.732 51.3091 221.732 50.9429C221.732 50.2886 221.999 49.7734 222.531 49.3975C223.063 49.0166 223.793 48.8262 224.721 48.8262C225.585 48.8262 226.43 49.002 227.255 49.3535L226.823 50.3423C226.017 50.0103 225.287 49.8442 224.633 49.8442C224.057 49.8442 223.622 49.9346 223.329 50.1152C223.036 50.2959 222.89 50.5449 222.89 50.8623C222.89 51.0771 222.943 51.2603 223.051 51.4116C223.163 51.563 223.341 51.707 223.585 51.8438C223.83 51.9805 224.298 52.1782 224.992 52.437C225.944 52.7837 226.586 53.1328 226.918 53.4844C227.255 53.8359 227.423 54.2778 227.423 54.8101Z" fill="#003975"/>
</svg>
