<svg width="213" height="69" fill="none" xmlns="http://www.w3.org/2000/svg"><path fill-rule="evenodd" clip-rule="evenodd" d="M121.47 36.555c-3.763 0-5.305-3.12-5.305-6.604 0-3.527 1.542-6.65 5.305-6.65 3.764 0 5.304 3.123 5.304 6.65 0 3.483-1.54 6.604-5.304 6.604zm0 5.697c7.798 0 13.736-4.524 13.736-12.3 0-7.823-5.938-12.346-13.736-12.346-7.8 0-13.74 4.523-13.74 12.345 0 7.777 5.94 12.3 13.74 12.3z" fill="#ED3338"/><path fill-rule="evenodd" clip-rule="evenodd" d="M134.461 23.846h4.669v9.588c0 5.608 1.771 8.818 9.069 8.818 2.041 0 3.584-.273 5.124-.452l-.269-5.291c-.821.136-1.682.316-2.496.316-2.583 0-3.264-1.449-3.264-4.297v-8.682h5.715v-5.698h-5.715L147.291 10l-8.022 2.857v5.291h-4.808v5.698zM181.567 41.71h8.163V30.041h.091l6.528 11.67h9.885l-8.886-12.753 8.204-10.81h-8.93l-6.801 9.904h-.091V10.03l-8.163 2.82v28.86zM86 41.71h8.164V30.041h.086l6.532 11.67h9.884l-8.884-12.753 8.204-10.81h-8.932l-6.804 9.904h-.086V10.03L86 12.714V41.71zM162.011 34.268c0-2.286 2.205-3.156 5.002-3.156 1.24 0 2.433.093 3.488.138 0 2.793-1.971 5.629-5.094 5.629-1.925 0-3.396-.96-3.396-2.61zm16.659 7.554c-.366-1.876-.459-3.755-.459-5.63v-8.879c0-7.278-5.279-9.887-11.379-9.887-3.536 0-6.612.504-9.548 1.694l.137 5.583c2.298-1.28 4.958-1.783 7.617-1.783 2.987 0 5.418.867 5.463 4.117a24.365 24.365 0 00-3.854-.32c-4.407 0-12.346.872-12.346 8.147 0 5.174 4.224 7.506 8.95 7.506 3.396 0 5.691-1.327 7.571-4.303h.094c0 1.239.133 2.473.183 3.755h7.571z" fill="#ED3338"/><path fill-rule="evenodd" clip-rule="evenodd" d="M0 34.17C0 15.298 17.835 0 39.839 0c22.004 0 39.84 15.298 39.84 34.17 0 18.875-17.836 34.174-39.84 34.174C17.835 68.344 0 53.045 0 34.17" fill="#1F4578"/><path fill-rule="evenodd" clip-rule="evenodd" d="M35.002 10.971l9.254-3.05.046 49.904-9.333 3.119.033-49.973z" fill="#ED3338"/><path fill-rule="evenodd" clip-rule="evenodd" d="M40.496 42.095c-4.023 4.833-7.91 9.774-15.193 9.774-10.288 0-15.16-9.918-15.16-18.21 0-7.966 3.81-17.397 13.827-17.397 4.347 0 8.536 2.651 11.025 5.454l-.006 6.764c-2.08-1.4-6.749-2.773-9.796-2.821-6.354-.107-11.958 2.638-11.858 8.895.066 4.306 4.342 7.236 8.599 7.236 6.52 0 10.468-5.94 13.771-10.45.92-1.177 3.52-4.641 3.923-5.195 3.668-5.109 7.911-9.776 15.193-9.776 8.575 0 13.39 6.897 14.753 13.997h-3.867c-1.557-2.302-4.552-3.71-7.507-3.71-6.739 0-10.765 6.182-14.133 10.734 0 0-2.622 3.566-3.57 4.705h-.001zm29.303-4.48c-.87 7.14-4.882 14.347-13.65 14.363-5.115.009-9.116-3.487-11.886-7.763v-4.95c3.467 1.716 6.704 3.553 10.634 3.612 4.84.072 9.215-1.786 11.025-5.262H69.8z" fill="#fff"/><path d="M93.515 56.15c0 .943-.342 1.678-1.026 2.206-.683.527-1.611.79-2.783.79-1.27 0-2.246-.163-2.93-.49v-1.201c.44.185.918.332 1.436.439.517.108 1.03.161 1.538.161.83 0 1.455-.156 1.875-.469.42-.317.63-.756.63-1.318 0-.371-.076-.674-.227-.908-.147-.24-.396-.46-.747-.66-.347-.2-.877-.427-1.59-.68-.996-.357-1.709-.78-2.138-1.268-.425-.488-.638-1.125-.638-1.911 0-.825.31-1.482.93-1.97.62-.489 1.441-.733 2.462-.733 1.064 0 2.043.196 2.937.586l-.388 1.084c-.884-.371-1.744-.556-2.579-.556-.659 0-1.174.141-1.545.424-.371.283-.557.676-.557 1.18 0 .37.069.676.205.915.137.234.367.452.689.652.327.195.825.412 1.494.652 1.123.4 1.894.83 2.314 1.289.425.459.638 1.055.638 1.787zm5.398 2.997c-1.187 0-2.124-.362-2.813-1.084-.683-.723-1.025-1.727-1.025-3.01 0-1.295.317-2.322.952-3.084.64-.762 1.496-1.143 2.57-1.143 1.007 0 1.802.332 2.388.996.586.66.879 1.531.879 2.615v.77h-5.53c.025.941.262 1.657.71 2.145.455.488 1.092.733 1.913.733.864 0 1.718-.181 2.563-.543v1.084c-.43.186-.837.318-1.223.396a6.607 6.607 0 01-1.384.125zm-.33-7.303c-.644 0-1.16.21-1.545.63-.381.42-.606 1.001-.674 1.743h4.197c0-.766-.171-1.352-.513-1.758-.342-.41-.83-.615-1.465-.615zm8.569 7.303c-1.162 0-2.063-.357-2.702-1.07-.635-.718-.952-1.73-.952-3.04 0-1.342.322-2.38.966-3.112.65-.733 1.573-1.099 2.769-1.099.386 0 .771.042 1.157.125.386.083.689.18.908.293l-.373 1.032a5.483 5.483 0 00-.879-.263 3.799 3.799 0 00-.842-.11c-1.631 0-2.447 1.04-2.447 3.12 0 .986.198 1.743.594 2.27.4.528.991.791 1.772.791.669 0 1.355-.144 2.058-.432v1.077c-.537.278-1.213.418-2.029.418zm5.083-8.174v5.207c0 .654.149 1.143.447 1.465.298.322.764.483 1.399.483.84 0 1.453-.23 1.838-.688.391-.459.586-1.209.586-2.249v-4.218h1.216V59h-1.003l-.176-1.077h-.066a2.42 2.42 0 01-1.04.908c-.439.21-.942.316-1.509.316-.976 0-1.709-.232-2.197-.696-.483-.464-.725-1.206-.725-2.227v-5.251h1.23zm11.734-.147c.356 0 .676.03.959.088l-.168 1.128a4.144 4.144 0 00-.879-.11c-.65 0-1.206.264-1.67.791-.459.528-.689 1.184-.689 1.97V59h-1.215v-8.027h1.003l.139 1.486h.059c.298-.522.657-.925 1.076-1.208.42-.283.882-.425 1.385-.425zM127.646 59h-1.216v-8.027h1.216V59zm-1.319-10.203c0-.278.069-.48.205-.607a.71.71 0 01.513-.198c.195 0 .364.066.505.198.142.131.213.334.213.607 0 .274-.071.479-.213.616a.715.715 0 01-.505.197.71.71 0 01-.513-.197c-.136-.137-.205-.342-.205-.616zm6.489 9.346c.215 0 .423-.015.623-.044.2-.034.359-.068.476-.102v.93a2.16 2.16 0 01-.586.154 4.074 4.074 0 01-.688.066c-1.553 0-2.329-.818-2.329-2.454v-4.776h-1.15v-.586l1.15-.505.512-1.714h.703v1.86h2.329v.945h-2.329v4.725c0 .483.115.854.345 1.113.229.259.544.388.944.388zm3.926.857h-1.216v-8.027h1.216V59zm-1.318-10.203c0-.278.068-.48.205-.607a.71.71 0 01.513-.198c.195 0 .363.066.505.198.142.131.212.334.212.607 0 .274-.07.479-.212.616a.717.717 0 01-.505.197.71.71 0 01-.513-.197c-.137-.137-.205-.342-.205-.616zm7.287 10.35c-1.186 0-2.124-.362-2.812-1.084-.684-.723-1.025-1.727-1.025-3.01 0-1.295.317-2.322.952-3.084.639-.762 1.496-1.143 2.57-1.143 1.006 0 1.802.332 2.388.996.586.66.879 1.531.879 2.615v.77h-5.53c.025.941.262 1.657.711 2.145.454.488 1.091.733 1.911.733.865 0 1.719-.181 2.564-.543v1.084c-.43.186-.838.318-1.223.396a6.613 6.613 0 01-1.385.125zm-.329-7.303c-.645 0-1.16.21-1.546.63-.38.42-.605 1.001-.673 1.743h4.196c0-.766-.171-1.352-.512-1.758-.342-.41-.83-.615-1.465-.615zm10.539 4.966c0 .747-.278 1.323-.835 1.729-.556.405-1.337.608-2.343.608-1.065 0-1.895-.169-2.491-.506v-1.128c.386.196.799.35 1.238.462.445.112.872.168 1.282.168.635 0 1.123-.1 1.465-.3.342-.205.513-.515.513-.93 0-.313-.137-.579-.411-.799-.268-.224-.796-.488-1.582-.79-.747-.28-1.279-.52-1.596-.726a2.25 2.25 0 01-.703-.71c-.152-.264-.228-.579-.228-.945 0-.654.267-1.17.799-1.545.532-.381 1.262-.572 2.19-.572.864 0 1.709.176 2.534.527l-.432.99c-.806-.333-1.536-.499-2.19-.499-.576 0-1.011.09-1.304.271-.293.18-.439.43-.439.747a.92.92 0 00.161.55c.112.151.29.295.534.432.245.136.713.334 1.407.593.952.347 1.594.696 1.926 1.047.337.352.505.794.505 1.326z" fill="#003975"/></svg>