<svg width="191" height="71" fill="none" xmlns="http://www.w3.org/2000/svg"><g clip-path="url(#clip0)"><path fill-rule="evenodd" clip-rule="evenodd" d="M1.322 27.058c.001-7.13 2.888-13.59 7.557-18.264a25.717 25.717 0 0118.251-7.57v-.001h.006v.002c7.127 0 13.58 2.894 18.251 7.57a25.77 25.77 0 017.559 18.26v.035a26.016 26.016 0 01-.622 5.628 25.69 25.69 0 01-1.76 5.2c-3.917 8.458-12.271 14.438-22.075 14.946l-.4.02V32.146l.295-.068h.006a4.979 4.979 0 001.71-.76 5.018 5.018 0 002.166-4.135 4.997 4.997 0 00-1.472-3.549 5.013 5.013 0 00-3.548-1.469h-.007c-1.386 0-2.64.562-3.548 1.47a5.002 5.002 0 00-1.469 3.545h.001v.01a5.008 5.008 0 00.46 2.093 5.053 5.053 0 003.11 2.711l.271.083V52.88l-.403-.024h-.031a25.66 25.66 0 01-10.562-2.947C6.888 45.574 1.32 36.971 1.32 27.058" fill="#00A1E3"/><path fill-rule="evenodd" clip-rule="evenodd" d="M78.02 2.222h.557l-1.531 7.186h-.709c-.135-4.061-1.697-7.186-5.716-7.186-2.48 0-4.51 1.728-4.51 4.269 0 5.736 9.88 8.024 9.88 15.756 0 4.776-3.788 7.85-8.395 7.85-2.747 0-5.88-1.138-7.822-3.123l-1.357 1.732h-.541l1.398-7.857h.843c.333 4.44 1.814 8.325 6.92 8.325 3.003 0 5.166-2.365 5.166-5.332 0-6.454-9.681-8.481-9.681-15.745 0-4.315 3.589-6.81 7.602-6.81 2.535 0 4.652.85 6.635 2.455l1.26-1.52zM87.492 15.064h2.106c3.464.088 6.668.674 6.668 5.19 0 5.198-3.154 8.452-8.182 8.452-1.566 0-3.464-.205-3.464-2.196 0-.884.54-2.787.749-3.682l2.123-7.764zM75.83 29.634c1.988-.033 3.93-.122 5.918-.162 2.574.04 5.106.13 7.68.163 4.985.09 11.065-1.988 11.065-8.098 0-4.532-3.327-6.088-7.185-6.814v-.083c3.818-.504 8.549-2.067 8.549-6.716 0-4.98-4.866-6.17-8.921-6.253-1.48.135-2.911.135-4.388.172-1.913-.036-3.773-.132-5.675-.172l-.247.928c1.02.045 3.722-.209 3.722 1.475 0 .722-.593 2.54-.811 3.264l-4.556 17.06c-.89 3.125-1.182 4.477-4.899 4.306l-.252.93zM90.025 5.513c.158-.583.452-1.813.8-2.281.327-.497 1.227-.632 1.774-.632 2.871 0 5.236.975 5.236 4.439 0 4.859-2.787 6.97-7.388 7.098h-2.704l2.282-8.624zM109.319 24.06c-.169.682-.794 2.58-.794 3.256 0 1.604 2.202 1.35 3.672 1.39l-.293.929c-1.988-.034-3.976-.123-5.951-.163-1.944.04-3.84.13-5.795.163l.26-.93c3.705.171 4.003-1.181 4.899-4.306l4.893-17.06c.168-.682.721-2.506.721-3.174 0-1.728-2.235-1.52-3.761-1.566l.246-.927c1.831.04 3.638.135 5.467.172 2.192-.037 4.348-.132 6.544-.172l-.258.927c-1.188.046-2.828 0-3.587 1.06-.626.805-1.486 3.88-1.785 4.896l-4.478 15.505zM151.115 29.635c-5.991-.034-12.034-.123-18.031-.163-1.852.04-3.757.129-5.616.163l.249-.93c3.716.17 4.015-1.181 4.893-4.306l4.606-17.06c.22-.725.818-2.543.818-3.264 0-1.684-2.714-1.475-3.722-1.475l.246-.928c1.864.04 3.683.135 5.536.172 2.146-.036 4.275-.132 6.415-.172l-.237.928c-1.194 0-2.833.045-3.604 1.1-.626.804-1.476 3.877-1.774 4.901l-3.919 14.573c-.265.932-.643 2.407-.643 3.336 0 2.704 4.184 2.196 5.744 2.196 5.419 0 7.823-.798 10.012-6.166h.942l-1.915 7.095zM157.883 18.518c.373-1.013 1.566-4.048 1.566-5.061 0-.422-.27-.834-.738-.834-1.295 0-3.36 3.452-3.959 4.595l-.844-.462c1.222-2.072 2.963-5.405 5.659-5.405 1.61 0 2.619 1.387 2.619 2.871 0 2.021-1.217 4.562-1.989 6.46l-1.351 3.423c-.247.722-1.266 3.249-1.266 4.015 0 .33.253.716.642.716 1.604 0 3.874-3.762 4.517-5.07l.844.422c-1.058 2.199-3.261 5.909-6.003 5.909-1.729 0-2.737-1.391-2.737-3.034 0-1.773 1.182-4.055 1.857-5.705l1.183-2.84zm2.315-14.696c0-1.087.811-1.989 1.898-1.989 1.143 0 1.942.9 1.942 1.989 0 1.01-.867 1.864-1.942 1.864-.997 0-1.898-.8-1.898-1.864z" fill="#292929"/><path fill-rule="evenodd" clip-rule="evenodd" d="M170.351 26.64c-1.149 4.6-3.059 14.322-9.551 14.322-1.487 0-3.599-.69-3.599-2.456 0-.63.463-1.187 1.143-1.187 1.853 0 .756 2.706 2.783 2.706 1.902 0 3.002-3.035 3.548-4.427l5.828-22.73h-3.462l.297-.926h3.436c1.249-4.184 3.024-10.52 8.396-10.52 1.431 0 3.593.801 3.593 2.53 0 .631-.378 1.222-1.053 1.222-.974 0-1.273-.753-1.481-1.514-.18-.761-.382-1.315-1.273-1.315-3.243 0-4.391 7.356-5.023 9.598h3.678l-.293.926h-3.6l-3.367 13.77zM180.105 21.738c.664-2.543 3.209-9.464 6.284-9.464.851 0 1.313.551 1.313 1.397 0 3.756-4.602 6.762-7.597 8.067zm7.393 2.367c-1.531 2.022-3.553 5.069-6.386 5.069-1.441 0-2.06-1.098-2.06-2.416 0-1.349.315-2.652.709-3.879l.675-.305c3.374-1.385 9.591-3.877 9.591-8.315 0-1.77-1.313-2.907-3.034-2.907-5.92 0-10.994 8.61-10.994 13.938 0 2.91 1.78 4.808 4.737 4.808 3.379 0 5.783-2.868 7.517-5.447l-.755-.546zM58.288 52.177c.722-.11.918-.319 1.098-.972l1.464-5.436a1.85 1.85 0 00.08-.524c0-.38-.294-.445-1.014-.484l.117-.47c.777.024 1.482.037 2.079.037.37 0 .963-.013 1.774-.038l-.13.47c-.626.069-.924.306-1.093.97l-1.447 5.428a1.592 1.592 0 00-.083.535c0 .395.28.451 1.002.484l-.118.472c-.907-.02-1.588-.038-2.057-.038-.326 0-.917.016-1.79.038l.118-.472zM70.16 52.177c.692-.068 1.024-.313 1.199-.972l1.458-5.436c.067-.247.102-.405.102-.507 0-.39-.322-.484-1.037-.502l.134-.47c.547.025.959.037 1.252.037.326 0 .709-.012 1.148-.036l2.924 6.016 1.041-4.302c.067-.264.084-.455.084-.54 0-.508-.254-.62-1.03-.705l.096-.47c.54.025 1.013.037 1.418.037.293 0 .715-.012 1.273-.036v.47c-.805.123-1.009.54-1.227 1.37L77.23 52.82h-.523l-3.38-6.966-1.293 5.361a.885.885 0 00-.035.276c0 .453.23.598.986.687l-.067.472c-.649-.021-1.077-.038-1.318-.038-.34 0-.828.017-1.442.038v-.473zM87.824 50.018h.473c.1 1.391.851 2.196 1.953 2.196.851 0 1.391-.515 1.391-1.355 0-.624-.45-1.091-1.17-1.761-.957-.84-1.758-1.47-1.758-2.656 0-1.343 1.002-2.329 2.506-2.329.63 0 1.246.245 1.797.716l.265-.538h.484l-.416 2.306h-.474c0-1.201-.562-1.87-1.498-1.87-.697 0-1.239.508-1.239 1.11 0 .434.282.817.8 1.295 1.284 1.2 2.236 1.904 2.236 3.223 0 1.316-1.081 2.466-2.653 2.466-.838 0-1.464-.191-2.23-.823l-.342.653h-.468l.343-2.633zM103.21 44.291c.811.024 1.486.036 2.032.036.598 0 1.29-.012 2.072-.036l-.106.47c-.935.04-1.172.306-1.437 1.279l-.698 2.597c-.191.703-.377 1.303-.377 1.846 0 .963.716 1.514 1.801 1.514 1.054 0 1.718-.624 2.225-1.92.339-.853.659-1.911.929-3.177.175-.81.264-1.297.264-1.48 0-.462-.27-.607-.951-.66l.096-.47c.551.025 1.046.038 1.464.038.327 0 .732-.013 1.216-.038l-.016.47c-.424.069-.688.178-.879.452-.31.438-.518 1.661-1.059 3.56-.771 2.739-1.672 4.048-3.801 4.048-1.882 0-2.997-.913-2.997-2.484 0-.383.069-.894.209-1.474l.833-3.093c.069-.218.073-.382.073-.524 0-.38-.28-.444-1.013-.484l.12-.47zM121.793 48.136l.686-2.548c.158-.574.204-.717.822-.717.784 0 1.2.374 1.2 1.05 0 1.377-.833 2.216-2.122 2.216h-.586zm-3.768 4.514c.833-.038 1.464-.073 1.88-.073.418 0 1.048.035 1.888.073l.129-.472c-.738-.034-1.025-.089-1.025-.484 0-.142.029-.32.089-.535l.655-2.443h.083c1.025 0 1.414.28 1.414 1.124 0 .342-.056.76-.056 1.258 0 1.146.567 1.721 1.724 1.721.771 0 1.362-.326 1.869-1.024l-.405-.343c-.316.376-.62.544-.907.544-.451 0-.384-.528-.417-1.378-.034-1.233-.281-1.813-1.52-2.073v-.031c1.931-.205 2.923-1.051 2.923-2.382 0-1.372-1.144-1.841-3.435-1.841-.502 0-1.015.014-1.555.014-.298 0-.783 0-1.453-.014l-.136.47c.738.04 1.015.105 1.015.484 0 .142-.023.306-.073.524l-1.453 5.437c-.192.634-.491.882-1.132.971l-.102.473zM136.507 49.41l2.1-3.067.073 3.066h-2.173zm-3.306 3.24c.655-.02 1.127-.038 1.459-.038.238 0 .676.017 1.307.038l.108-.472c-.655-.046-.936-.146-.936-.484 0-.142.074-.338.181-.518l.804-1.186h2.556l.063 1.541v.011c0 .451-.327.591-1.126.636l-.084.472c.827-.02 1.474-.038 1.915-.038.32 0 .9.017 1.762.038l.074-.472c-.642-.046-.833-.197-.867-.817l-.389-7.247h-.608l-4.629 6.806c-.501.729-.827 1.19-1.497 1.259l-.093.471zM149.16 52.177c.693-.068 1.025-.313 1.206-.972l1.458-5.436c.062-.247.095-.405.095-.507 0-.39-.326-.484-1.029-.502l.129-.47c.54.025.946.037 1.244.037.322 0 .711-.012 1.156-.036l2.922 6.016 1.048-4.302c.056-.264.083-.455.083-.54 0-.508-.252-.62-1.036-.705l.085-.47c.551.025 1.025.037 1.424.037.294 0 .722-.012 1.267-.036v.47c-.794.123-.99.54-1.227 1.37l-1.751 6.689h-.524l-3.379-6.966-1.302 5.361a.78.78 0 00-.04.276c0 .453.238.598.998.687l-.068.472c-.654-.021-1.082-.038-1.307-.038-.349 0-.821.017-1.453.038v-.473h.001zM172.046 52.053c-.687.536-1.396.767-2.282.767-1.942 0-3.264-1.33-3.264-3.334 0-1.696.838-3.408 2.219-4.42.827-.624 1.784-.953 2.724-.953.79 0 1.391.244 1.966.794l.394-.617h.462l-.484 2.572h-.485c-.033-1.384-.709-2.175-1.655-2.175-.755 0-1.491.473-2.09 1.376-.732 1.132-1.187 2.684-1.187 3.91 0 1.398.675 2.18 1.773 2.18 1.11 0 2.067-.76 2.647-2.224h.462l-.682 2.72h-.462l-.056-.596zM181.128 52.177c.632-.11.93-.35 1.111-.972l1.464-5.436c.049-.219.073-.383.073-.524 0-.38-.298-.445-1.013-.484l.118-.47h6.2l.146 2.142h-.467c-.271-1.172-.88-1.562-2.252-1.562-.118 0-.412.024-.867.067l-.784 2.923h.682c.857 0 1.227-.276 1.593-1.194h.457l-.823 3.272h-.456c.034-.25.056-.42.056-.53 0-.571-.372-.915-1.031-.915h-.653l-.641 2.4a2.032 2.032 0 00-.079.441c0 .492.382.752 1.153.752 1.561 0 2.343-.26 3.093-1.85h.462l-.66 2.412h-7.005l.123-.472zM74.444 62.002l1.356 5.83 1.628-5.83h1.036l1.622 5.836 1.364-5.836h1.047l-1.876 7.154h-1.006l-1.668-5.93-1.656 5.93h-1.025L73.397 62h1.047zM83.77 63.958h.883v5.198h-.884v-5.199zm0-1.97h.883v1.006h-.884v-1.007zM86.653 62.5h.884v1.437h.845v.731h-.845v3.384c0 .18.069.3.192.366a.82.82 0 00.343.056c.046 0 .095-.01.135-.01.056-.011.124-.012.175-.029v.716c-.106.023-.191.049-.31.07-.1 0-.23.01-.36.01-.404 0-.686-.102-.84-.316-.145-.196-.218-.478-.218-.805v-3.445h-.704v-.732h.704v-1.438.005zM89.762 61.987h.873v2.651c.212-.253.4-.436.558-.543.291-.188.64-.277 1.069-.277.755 0 1.256.264 1.537.798.147.29.21.692.21 1.2v3.34h-.896v-3.29c0-.376-.046-.664-.141-.838-.157-.29-.462-.428-.907-.428-.354 0-.68.118-.98.372-.293.242-.45.726-.45 1.418v2.766h-.872v-7.169h-.001zM100.269 62.002v4.403c0 .526.089.96.287 1.31.293.512.766.768 1.453.768.827 0 1.391-.28 1.678-.842.158-.305.237-.71.237-1.236v-4.404h.996v4.019c0 .878-.118 1.547-.366 2.032-.433.857-1.256 1.289-2.467 1.289-1.206 0-2.021-.433-2.461-1.29-.225-.484-.354-1.153-.354-2.031v-4.018h.997zM107.303 67.52c.034.29.107.512.231.664.225.274.614.415 1.16.415.321 0 .614-.06.867-.204a.708.708 0 00.377-.653c0-.232-.107-.39-.31-.506-.135-.075-.376-.158-.755-.26l-.703-.168c-.457-.109-.784-.231-.997-.373-.371-.242-.562-.569-.562-.986 0-.495.178-.89.538-1.2.349-.304.829-.455 1.426-.455.805 0 1.391.231 1.729.682.22.307.326.617.32.956h-.838a1.018 1.018 0 00-.208-.543c-.198-.222-.564-.346-1.054-.346-.331 0-.597.073-.759.194a.57.57 0 00-.267.504c0 .22.114.403.34.54.141.084.332.159.58.218l.597.143c.631.141 1.064.304 1.273.438.343.226.517.58.517 1.054 0 .478-.174.877-.534 1.207-.356.336-.89.507-1.622.507-.784 0-1.335-.172-1.668-.52-.327-.347-.495-.79-.524-1.31h.846v.002zM112.444 70.191c.231-.044.395-.206.485-.478a1.36 1.36 0 00.073-.428v-.05-.056l-.558-.023V68.09h1.042v.998c0 .377-.073.726-.237 1.013-.157.293-.416.474-.805.538v-.45.001zM118.177 62.002h1.15l2.06 3.438 2.067-3.438h1.142l-2.713 4.276v2.878h-.986v-2.878L118.177 62zM126.933 68.585c-.518 0-.906-.184-1.137-.553-.242-.373-.367-.83-.367-1.388 0-.58.125-1.079.367-1.48.231-.412.619-.62 1.153-.62.598 0 1.025.24 1.262.726.158.308.237.7.237 1.188 0 .538-.108 1.03-.332 1.474-.203.441-.59.653-1.183.653zm.034-4.79c-.743 0-1.334.258-1.774.778-.462.514-.657 1.22-.657 2.094 0 .81.179 1.457.607 1.954.422.484.996.72 1.706.72.856 0 1.492-.277 1.897-.827.401-.537.609-1.238.609-2.078 0-.87-.231-1.526-.693-1.97a2.374 2.374 0 00-1.695-.671zM131.793 63.936v3.459c0 .274.051.493.141.656.152.322.439.478.84.478.597 0 1.014-.28 1.227-.822.113-.297.175-.692.175-1.21v-2.562h.878v5.22h-.839l.011-.766c-.106.192-.242.36-.409.502-.333.274-.732.41-1.2.41-.728 0-1.233-.247-1.493-.743-.135-.264-.208-.627-.208-1.07v-3.552h.877zM137.713 61.987l-.158 2.866h-.564l-.168-2.866h.89zM139.401 63.936h.844v.889c.069-.174.243-.383.507-.636a1.3 1.3 0 01.913-.371s.049 0 .089.01c.034 0 .096 0 .198.02v.913c-.057-.02-.102-.02-.142-.026h-.152c-.451 0-.782.138-1.019.414a1.556 1.556 0 00-.349.996v3.013h-.89v-5.22h.001v-.002zM143.849 66.123c.029-.45.164-.819.435-1.105a1.3 1.3 0 011.009-.445c.557 0 .962.21 1.187.63.135.238.214.544.253.921h-2.884zm1.506-2.305c-.738 0-1.325.264-1.78.782-.451.524-.676 1.206-.676 2.044 0 .851.225 1.513.676 1.988.438.474.99.71 1.638.71.276 0 .507-.025.709-.079.395-.085.727-.27.992-.526a2.37 2.37 0 00.428-.58c.129-.226.196-.443.225-.637h-.867a1.377 1.377 0 01-.322.614c-.271.3-.636.451-1.092.451-.478 0-.844-.155-1.075-.484-.231-.313-.362-.748-.378-1.281h3.813c0-.536-.029-.918-.079-1.15a2.424 2.424 0 00-.35-.918 1.852 1.852 0 00-.788-.67 2.25 2.25 0 00-1.074-.264M153.271 66.847c.022.41.108.732.282.986.314.478.855.72 1.643.72.349 0 .671-.056.952-.158.569-.21.844-.57.844-1.081 0-.394-.123-.675-.366-.845-.231-.159-.603-.297-1.12-.419l-.946-.217c-.602-.135-1.042-.297-1.307-.465-.438-.3-.659-.751-.659-1.342 0-.649.22-1.187.659-1.596.445-.415 1.054-.623 1.842-.623.737 0 1.356.18 1.858.543.524.37.777.937.777 1.745h-.906c-.046-.394-.158-.68-.304-.885-.287-.373-.767-.566-1.447-.566-.553 0-.94.118-1.2.364a1.18 1.18 0 00-.349.836c0 .358.135.608.416.777.193.106.609.231 1.262.395l.98.225c.484.106.839.258 1.097.456.445.332.66.817.66 1.459 0 .788-.281 1.356-.838 1.695-.58.35-1.222.52-1.971.52-.867 0-1.555-.23-2.038-.689-.497-.451-.733-1.056-.721-1.836h.9zM160.559 63.936v3.459c0 .274.039.493.116.656.154.322.452.478.867.478.58 0 .986-.28 1.206-.822.118-.297.175-.692.175-1.21v-2.562h.884v5.22h-.833l.016-.766c-.123.192-.264.36-.416.502-.333.274-.726.41-1.205.41-.733 0-1.222-.247-1.498-.743-.136-.264-.214-.627-.214-1.07v-3.552h.902zM165.745 63.936h.844v.889c.073-.174.242-.383.512-.636.259-.247.563-.371.906-.371.023 0 .052 0 .085.01.046 0 .118 0 .203.02v.913c-.057-.02-.097-.02-.147-.026h-.141c-.445 0-.788.138-1.023.414-.231.304-.356.625-.356.996v3.013h-.883V63.936zM170.215 66.123c.012-.45.152-.819.429-1.105.265-.3.603-.445.996-.445.564 0 .958.21 1.194.63.13.238.22.544.243.921h-2.862zm1.487-2.305c-.731 0-1.335.264-1.773.782-.451.524-.682 1.206-.682 2.044 0 .851.231 1.513.682 1.988.438.474.991.71 1.644.71.254 0 .485-.025.716-.079a2.05 2.05 0 00.967-.526 2.06 2.06 0 00.428-.58c.135-.226.214-.443.226-.637h-.846a1.76 1.76 0 01-.337.614c-.271.3-.631.451-1.093.451-.489 0-.845-.155-1.076-.484-.237-.313-.343-.748-.372-1.281h3.797c0-.536-.023-.918-.073-1.15a2.609 2.609 0 00-.339-.918c-.186-.281-.451-.502-.805-.67a2.22 2.22 0 00-1.064-.264z" fill="#292929"/><path d="M57.566 56.84h131.29v.88H57.566v-.88z" fill="#292929"/></g><defs><clipPath id="clip0"><path fill="#fff" d="M0 0h190.09v70.36H0z"/></clipPath></defs></svg>