<svg width="52" height="52" viewBox="0 0 52 52" fill="none" xmlns="http://www.w3.org/2000/svg">
<path d="M26 52C40.3594 52 52 40.3594 52 26C52 11.6406 40.3594 0 26 0C11.6406 0 0 11.6406 0 26C0 40.3594 11.6406 52 26 52Z" fill="#FFD271"/>
<path d="M20.9398 20.5858L14.0205 14.9861C13.325 14.4238 12.298 14.5343 11.7358 15.2298C11.1703 15.9253 11.2808 16.9491 11.9795 17.5146L15.34 20.2348C13.9425 21.0896 13 22.6203 13 24.3753C13 27.0631 15.1873 29.2503 17.875 29.2503C20.5628 29.2503 22.75 27.0631 22.75 24.3753C22.75 22.8966 22.0903 21.5153 20.9398 20.5858Z" fill="#333333"/>
<path d="M40.2643 15.2293C39.702 14.5305 38.6783 14.4233 37.9795 14.9888L31.0603 20.582C29.9098 21.5115 29.25 22.8928 29.25 24.3748C29.25 27.0625 31.4373 29.2498 34.125 29.2498C36.8128 29.2498 39 27.0625 39 24.3748C39 22.6198 38.0575 21.089 36.66 20.231L40.0205 17.514C40.7193 16.9485 40.8265 15.9248 40.2643 15.2293Z" fill="#333333"/>
<path d="M34.125 42.25C33.722 42.25 33.319 42.1005 33.0038 41.8015C29.0778 38.064 22.9223 38.0672 18.993 41.8015C18.3463 42.4157 17.316 42.3995 16.6953 41.743C16.0778 41.093 16.1005 40.0627 16.7538 39.4452C21.9343 34.515 30.0593 34.5085 35.243 39.4452C35.893 40.0627 35.919 41.093 35.3015 41.743C34.983 42.081 34.554 42.25 34.125 42.25Z" fill="#333333"/>
</svg>
