<svg width="40" height="40" viewBox="0 0 40 40" fill="none" xmlns="http://www.w3.org/2000/svg">
<path d="M20 40C31.0457 40 40 31.0457 40 20C40 8.9543 31.0457 0 20 0C8.9543 0 0 8.9543 0 20C0 31.0457 8.9543 40 20 40Z" fill="#EEECED"/>
<path d="M28 30V28C28 26.9391 27.5786 25.9217 26.8284 25.1716C26.0783 24.4214 25.0609 24 24 24H16C14.9391 24 13.9217 24.4214 13.1716 25.1716C12.4214 25.9217 12 26.9391 12 28V30" stroke="url(#paint0_linear)" stroke-width="2" stroke-linecap="round" stroke-linejoin="round"/>
<path d="M20 20C22.2091 20 24 18.2091 24 16C24 13.7909 22.2091 12 20 12C17.7909 12 16 13.7909 16 16C16 18.2091 17.7909 20 20 20Z" stroke="url(#paint1_linear)" stroke-width="2" stroke-linecap="round" stroke-linejoin="round"/>
<defs>
<linearGradient id="paint0_linear" x1="20" y1="24" x2="20" y2="30" gradientUnits="userSpaceOnUse">
<stop stop-color="#333BB4"/>
<stop offset="1" stop-color="#2B47AA"/>
</linearGradient>
<linearGradient id="paint1_linear" x1="20" y1="12" x2="20" y2="20" gradientUnits="userSpaceOnUse">
<stop stop-color="#2B47AA"/>
<stop offset="1" stop-color="#333BB4"/>
</linearGradient>
</defs>
</svg>
