<svg width="32" height="32" viewBox="0 0 32 32" fill="none" xmlns="http://www.w3.org/2000/svg">
                        <circle cx="16" cy="16" r="16" fill="#0F248C"></circle>
                        <mask id="path-2-outside-1" maskUnits="userSpaceOnUse" x="7.36206" y="15.6338" width="17" height="12" fill="black">
                        <rect fill="white" x="7.36206" y="15.6338" width="17" height="12"></rect>
                        <path d="M23.2103 16.7332C23.4473 17.8552 23.4398 19.0175 23.1882 20.1361C22.9367 21.2547 22.4474 22.3016 21.7558 23.2012C21.0642 24.1008 20.1875 24.8305 19.1892 25.3377C18.1908 25.8448 17.0957 26.1167 15.9831 26.1336C14.8705 26.1506 13.7681 25.9121 12.7557 25.4356C11.7433 24.9591 10.8461 24.2563 10.1291 23.3782C9.41206 22.5 8.8931 21.4684 8.6097 20.358C8.32631 19.2475 8.28557 18.0859 8.49044 16.9572L15.8723 18.3841L23.2103 16.7332Z"></path>
                        </mask>
                        <path d="M23.2103 16.7332C23.4473 17.8552 23.4398 19.0175 23.1882 20.1361C22.9367 21.2547 22.4474 22.3016 21.7558 23.2012C21.0642 24.1008 20.1875 24.8305 19.1892 25.3377C18.1908 25.8448 17.0957 26.1167 15.9831 26.1336C14.8705 26.1506 13.7681 25.9121 12.7557 25.4356C11.7433 24.9591 10.8461 24.2563 10.1291 23.3782C9.41206 22.5 8.8931 21.4684 8.6097 20.358C8.32631 19.2475 8.28557 18.0859 8.49044 16.9572L15.8723 18.3841L23.2103 16.7332Z" fill="white"></path>
                        <path d="M23.2103 16.7332C23.4473 17.8552 23.4398 19.0175 23.1882 20.1361C22.9367 21.2547 22.4474 22.3016 21.7558 23.2012C21.0642 24.1008 20.1875 24.8305 19.1892 25.3377C18.1908 25.8448 17.0957 26.1167 15.9831 26.1336C14.8705 26.1506 13.7681 25.9121 12.7557 25.4356C11.7433 24.9591 10.8461 24.2563 10.1291 23.3782C9.41206 22.5 8.8931 21.4684 8.6097 20.358C8.32631 19.2475 8.28557 18.0859 8.49044 16.9572L15.8723 18.3841L23.2103 16.7332Z" stroke="#0F248C" stroke-width="1.44033" mask="url(#path-2-outside-1)"></path>
                        <path d="M11.5689 24.5982L11.3415 24.8774L11.9289 24.5899V24.5899C11.9289 24.5898 11.9289 24.5896 11.9289 24.5895C11.9289 24.5892 11.9289 24.589 11.9289 24.5886L11.9291 24.5736C11.9294 24.5586 11.9304 24.5342 11.933 24.5016C11.9382 24.4363 11.9499 24.3393 11.9763 24.2211C12.0291 23.9844 12.1392 23.6681 12.3683 23.352C12.8133 22.7375 13.7675 22.0433 15.8723 22.0433C17.9795 22.0433 18.9577 22.725 19.4226 23.3309C19.661 23.6417 19.7798 23.9518 19.8389 24.183C19.8685 24.2984 19.8828 24.3931 19.8898 24.4566C19.8933 24.4883 19.8949 24.512 19.8956 24.5265L19.8962 24.5409C19.8962 24.5413 19.8962 24.5416 19.8962 24.5419V25.315L20.4885 24.8154L20.2563 24.5402L20.4885 24.8154L20.4886 24.8153L20.4888 24.8151L20.4895 24.8145L20.492 24.8124L20.5015 24.8044L20.5371 24.774C20.5679 24.7477 20.612 24.7096 20.6663 24.6624C20.7748 24.5679 20.924 24.4359 21.0873 24.2862C21.4076 23.9923 21.8029 23.6106 22.0397 23.3071C22.764 22.3785 23.2761 21.2984 23.5393 20.1447C23.7945 19.0263 23.8097 17.8655 23.5844 16.7414C23.5329 16.4845 23.2808 16.3262 23.0312 16.3816L15.8668 17.9702L8.65951 16.5971C8.40851 16.5493 8.16139 16.7148 8.11741 16.9729C7.92479 18.1034 7.97361 19.2632 8.26112 20.3735C8.55767 21.5188 9.10086 22.5833 9.85179 23.4897C10.0828 23.7685 10.4624 24.1197 10.7691 24.3902C10.9254 24.528 11.0681 24.6495 11.1717 24.7365C11.2236 24.78 11.2658 24.815 11.2951 24.8393L11.3291 24.8673L11.3382 24.8747L11.3406 24.8766L11.3412 24.8772L11.3414 24.8773L11.3415 24.8774L11.5689 24.5982Z" fill="#E7EAF4" stroke="#0F248C" stroke-width="0.720165"></path>
                        <circle cx="15.9068" cy="5.62697" r="1.3203" fill="white" stroke="#0F248C" stroke-width="0.720165"></circle>
                        <line x1="16.061" y1="6.99878" x2="16.061" y2="7.82182" stroke="#0F248C" stroke-width="0.720165"></line>
                        <mask id="path-6-inside-2" fill="white">
                        <path d="M9.45945 12.074C9.16938 12.074 8.88238 12.1419 8.6161 12.2737C8.34983 12.4055 8.10991 12.5982 7.91111 12.8401C7.71231 13.082 7.55884 13.3679 7.46014 13.6803C7.36143 13.9926 7.31958 14.3248 7.33716 14.6564C7.35474 14.988 7.43138 15.3119 7.56236 15.6083C7.69334 15.9047 7.8759 16.1672 8.09879 16.3798C8.32169 16.5924 8.58021 16.7505 8.85845 16.8444C9.13669 16.9383 9.42877 16.966 9.71671 16.9258L9.45945 14.5088L9.45945 12.074Z"></path>
                        </mask>
                        <path d="M9.45945 12.074C9.16938 12.074 8.88238 12.1419 8.6161 12.2737C8.34983 12.4055 8.10991 12.5982 7.91111 12.8401C7.71231 13.082 7.55884 13.3679 7.46014 13.6803C7.36143 13.9926 7.31958 14.3248 7.33716 14.6564C7.35474 14.988 7.43138 15.3119 7.56236 15.6083C7.69334 15.9047 7.8759 16.1672 8.09879 16.3798C8.32169 16.5924 8.58021 16.7505 8.85845 16.8444C9.13669 16.9383 9.42877 16.966 9.71671 16.9258L9.45945 14.5088L9.45945 12.074Z" stroke="#0F248C" stroke-width="0.205761" mask="url(#path-6-inside-2)"></path>
                        <mask id="path-7-outside-3" maskUnits="userSpaceOnUse" x="6.81323" y="11.554" width="4" height="6" fill="black">
                        <rect fill="white" x="6.81323" y="11.554" width="4" height="6"></rect>
                        <path d="M9.45932 12.554C9.23475 12.554 9.01256 12.6095 8.80641 12.7171C8.60026 12.8247 8.41452 12.9822 8.26061 13.1798C8.1067 13.3774 7.98788 13.611 7.91146 13.8662C7.83505 14.1213 7.80265 14.3927 7.81626 14.6635C7.82987 14.9344 7.8892 15.199 7.99061 15.4411C8.09201 15.6832 8.23335 15.8977 8.40591 16.0714C8.57847 16.245 8.77862 16.3742 8.99403 16.4509C9.20944 16.5276 9.43557 16.5502 9.65849 16.5174L9.45932 14.543L9.45932 12.554Z"></path>
                        </mask>
                        <path d="M9.45932 12.554C9.23475 12.554 9.01256 12.6095 8.80641 12.7171C8.60026 12.8247 8.41452 12.9822 8.26061 13.1798C8.1067 13.3774 7.98788 13.611 7.91146 13.8662C7.83505 14.1213 7.80265 14.3927 7.81626 14.6635C7.82987 14.9344 7.8892 15.199 7.99061 15.4411C8.09201 15.6832 8.23335 15.8977 8.40591 16.0714C8.57847 16.245 8.77862 16.3742 8.99403 16.4509C9.20944 16.5276 9.43557 16.5502 9.65849 16.5174L9.45932 14.543L9.45932 12.554Z" fill="white"></path>
                        <path d="M9.45932 12.554C9.23475 12.554 9.01256 12.6095 8.80641 12.7171C8.60026 12.8247 8.41452 12.9822 8.26061 13.1798C8.1067 13.3774 7.98788 13.611 7.91146 13.8662C7.83505 14.1213 7.80265 14.3927 7.81626 14.6635C7.82987 14.9344 7.8892 15.199 7.99061 15.4411C8.09201 15.6832 8.23335 15.8977 8.40591 16.0714C8.57847 16.245 8.77862 16.3742 8.99403 16.4509C9.20944 16.5276 9.43557 16.5502 9.65849 16.5174L9.45932 14.543L9.45932 12.554Z" stroke="#0F248C" stroke-width="1.44033" mask="url(#path-7-outside-3)"></path>
                        <mask id="path-8-outside-4" maskUnits="userSpaceOnUse" x="21" y="11.554" width="4" height="6" fill="black">
                        <rect fill="white" x="21" y="11.554" width="4" height="6"></rect>
                        <path d="M22.3539 12.554C22.5785 12.554 22.8007 12.6095 23.0068 12.7171C23.213 12.8247 23.3987 12.9822 23.5526 13.1798C23.7065 13.3774 23.8254 13.611 23.9018 13.8662C23.9782 14.1213 24.0106 14.3927 23.997 14.6635C23.9834 14.9344 23.924 15.199 23.8226 15.4411C23.7212 15.6832 23.5799 15.8977 23.4073 16.0714C23.2348 16.245 23.0346 16.3742 22.8192 16.4509C22.6038 16.5276 22.3777 16.5502 22.1547 16.5174L22.3539 14.543L22.3539 12.554Z"></path>
                        </mask>
                        <path d="M22.3539 12.554C22.5785 12.554 22.8007 12.6095 23.0068 12.7171C23.213 12.8247 23.3987 12.9822 23.5526 13.1798C23.7065 13.3774 23.8254 13.611 23.9018 13.8662C23.9782 14.1213 24.0106 14.3927 23.997 14.6635C23.9834 14.9344 23.924 15.199 23.8226 15.4411C23.7212 15.6832 23.5799 15.8977 23.4073 16.0714C23.2348 16.245 23.0346 16.3742 22.8192 16.4509C22.6038 16.5276 22.3777 16.5502 22.1547 16.5174L22.3539 14.543L22.3539 12.554Z" fill="white"></path>
                        <path d="M22.3539 12.554C22.5785 12.554 22.8007 12.6095 23.0068 12.7171C23.213 12.8247 23.3987 12.9822 23.5526 13.1798C23.7065 13.3774 23.8254 13.611 23.9018 13.8662C23.9782 14.1213 24.0106 14.3927 23.997 14.6635C23.9834 14.9344 23.924 15.199 23.8226 15.4411C23.7212 15.6832 23.5799 15.8977 23.4073 16.0714C23.2348 16.245 23.0346 16.3742 22.8192 16.4509C22.6038 16.5276 22.3777 16.5502 22.1547 16.5174L22.3539 14.543L22.3539 12.554Z" stroke="#0F248C" stroke-width="1.44033" mask="url(#path-8-outside-4)"></path>
                        <rect x="9.09929" y="7.87297" width="13.4774" height="11.7627" rx="5.88134" stroke="#0F248C" stroke-width="0.102881"></rect>
                        <rect x="9.16799" y="7.94143" width="13.3402" height="11.6255" rx="5.81276" fill="white" stroke="#0F248C" stroke-width="0.720165"></rect>
                        <rect x="10.6083" y="10.2045" width="10.3909" height="7.64746" rx="3.82373" stroke="#0F248C" stroke-width="0.102881"></rect>
                        <rect x="10.677" y="10.2732" width="10.2538" height="7.51029" rx="3.75514" fill="#E7EAF4" stroke="#0F248C" stroke-width="0.720165"></rect>
                        <circle cx="13.3349" cy="13.4118" r="0.805898" fill="#0F248C" stroke="#0F248C" stroke-width="0.102881"></circle>
                        <circle cx="18.2043" cy="13.411" r="0.805898" fill="#0F248C" stroke="#0F248C" stroke-width="0.102881"></circle>
                        <mask id="path-15-inside-5" fill="white">
                        <path d="M17.21 14.6457C17.3236 14.6457 17.4167 14.738 17.4059 14.8511C17.3653 15.2758 17.1997 15.6744 16.9336 15.9794C16.6249 16.3331 16.2062 16.5318 15.7696 16.5318C15.3331 16.5318 14.9144 16.3331 14.6057 15.9794C14.3395 15.6744 14.1739 15.2758 14.1333 14.8511C14.1225 14.738 14.2157 14.6457 14.3293 14.6457L15.7696 14.6457H17.21Z"></path>
                        </mask>
                        <path d="M17.21 14.6457C17.3236 14.6457 17.4167 14.738 17.4059 14.8511C17.3653 15.2758 17.1997 15.6744 16.9336 15.9794C16.6249 16.3331 16.2062 16.5318 15.7696 16.5318C15.3331 16.5318 14.9144 16.3331 14.6057 15.9794C14.3395 15.6744 14.1739 15.2758 14.1333 14.8511C14.1225 14.738 14.2157 14.6457 14.3293 14.6457L15.7696 14.6457H17.21Z" fill="#0F248C" stroke="#0F248C" stroke-width="0.205761" mask="url(#path-15-inside-5)"></path>
                        <path d="M16.6098 15.7432C16.6098 15.7784 16.5938 15.8159 16.5568 15.8544C16.5195 15.8932 16.4631 15.9304 16.3894 15.9629C16.2422 16.0276 16.0352 16.069 15.8039 16.069C15.5725 16.069 15.3656 16.0276 15.2184 15.9629C15.1447 15.9304 15.0883 15.8932 15.051 15.8544C15.014 15.8159 14.998 15.7784 14.998 15.7432C14.998 15.708 15.014 15.6705 15.051 15.632C15.0883 15.5932 15.1447 15.556 15.2184 15.5235C15.3656 15.4588 15.5725 15.4174 15.8039 15.4174C16.0352 15.4174 16.2422 15.4588 16.3894 15.5235C16.4631 15.556 16.5195 15.5932 16.5568 15.632C16.5938 15.6705 16.6098 15.708 16.6098 15.7432Z" fill="white" stroke="#0F248C" stroke-width="0.102881"></path>
                        </svg>