<svg width="719" height="490" viewBox="0 0 719 490" fill="none" xmlns="http://www.w3.org/2000/svg">
<path d="M60.8641 453.58C74.6509 453.58 86.7565 449.702 97.0126 442.115C107.269 434.527 114.498 423.905 118.365 410.078H91.6323C88.9422 416.317 84.907 421.038 79.3587 424.242C73.8103 427.445 67.5894 429.131 60.8641 429.131C50.7761 429.131 42.3695 425.591 35.8123 418.678C29.2551 411.765 25.8924 402.828 25.8924 392.206C25.8924 381.583 29.2551 372.815 35.8123 365.734C42.3695 358.821 50.7761 355.28 60.8641 355.28C67.7575 355.28 73.9784 356.966 79.5268 360.338C85.0752 363.71 89.1104 368.432 91.6323 374.502H118.365C114.498 360.676 107.269 349.884 97.0126 342.297C86.7565 334.709 74.6509 331 60.8641 331C43.042 331 28.4144 336.901 17.1495 348.536C5.71651 360.17 0 374.839 0 392.206C0 409.741 5.71651 424.41 17.1495 436.045C28.4144 447.679 43.042 453.58 60.8641 453.58Z" fill="white"/>
<path d="M170.705 453.411C184.323 453.411 195.588 449.028 204.499 440.091C213.41 431.155 217.782 420.195 217.782 406.875C217.782 393.555 213.41 382.426 204.499 373.49C195.588 364.554 184.323 360.17 170.705 360.17C157.086 360.17 145.821 364.554 136.91 373.49C127.999 382.426 123.459 393.555 123.459 406.875C123.459 420.195 127.831 431.155 136.742 440.091C145.653 449.028 156.918 453.411 170.705 453.411ZM154.732 423.399C150.529 419.015 148.343 413.451 148.343 406.875C148.343 400.13 150.529 394.566 154.732 390.182C158.935 385.799 164.147 383.607 170.705 383.607C177.262 383.607 182.474 385.799 186.677 390.182C190.881 394.566 192.898 400.13 192.898 406.875C192.898 413.451 190.881 419.015 186.677 423.399C182.474 427.783 177.262 429.975 170.705 429.975C164.147 429.975 158.935 427.783 154.732 423.399Z" fill="white"/>
<path d="M284.843 490C294.09 490 301.488 487.808 306.7 483.256C311.912 478.703 314.435 471.79 314.435 462.516V362.362H290.055V371.467H288.206C286.188 369.275 284.339 367.589 282.657 366.071C280.808 364.722 278.286 363.373 274.755 362.024C271.224 360.844 267.357 360.17 262.986 360.17C251.553 360.17 241.969 364.722 234.403 373.659C226.669 382.595 222.802 393.723 222.802 406.706C222.802 420.027 226.837 430.986 234.908 439.923C242.81 448.859 252.562 453.411 264.163 453.411C274.419 453.411 282.321 449.871 288.038 442.958H289.887V461.336C289.887 465.383 288.038 467.406 284.339 467.406H244.828V490H284.843ZM269.039 430.143C263.154 430.143 258.11 427.951 254.075 423.567C249.872 419.183 247.854 413.619 247.854 406.706C247.854 399.962 249.872 394.398 254.075 390.014C258.11 385.799 263.154 383.607 269.039 383.607C275.091 383.607 280.135 385.63 284.171 389.845C288.206 394.06 290.223 399.793 290.223 406.706C290.223 413.282 288.206 418.846 284.339 423.399C280.304 427.951 275.26 430.143 269.039 430.143Z" fill="white"/>
<path d="M350.731 451.22V399.625C350.731 395.072 352.245 391.363 355.103 388.328C357.961 385.461 361.492 383.944 365.863 383.944C370.067 383.944 373.598 385.461 376.456 388.328C379.146 391.194 380.491 394.903 380.491 399.456V451.22H405.038V391.531C405.038 382.595 402.18 375.176 396.464 369.106C390.579 363.205 383.181 360.17 373.934 360.17C364.35 360.17 357.289 363.542 352.413 370.455H350.731V362.362H326.184V451.22H350.731Z" fill="white"/>
<path d="M459.867 453.411C473.485 453.411 484.75 449.028 493.661 440.091C502.572 431.155 506.944 420.195 506.944 406.875C506.944 393.555 502.572 382.426 493.661 373.49C484.75 364.554 473.485 360.17 459.867 360.17C446.248 360.17 434.983 364.554 426.072 373.49C417.161 382.426 412.621 393.555 412.621 406.875C412.621 420.195 416.993 431.155 425.904 440.091C434.815 449.028 446.08 453.411 459.867 453.411ZM443.894 423.399C439.691 419.015 437.505 413.451 437.505 406.875C437.505 400.13 439.691 394.566 443.894 390.182C448.097 385.799 453.31 383.607 459.867 383.607C466.424 383.607 471.636 385.799 475.839 390.182C480.043 394.566 482.06 400.13 482.06 406.875C482.06 413.451 480.043 419.015 475.839 423.399C471.636 427.783 466.424 429.975 459.867 429.975C453.31 429.975 448.097 427.783 443.894 423.399Z" fill="white"/>
<path d="M656.895 451.22L617.383 333.192H582.076L542.228 451.22H569.129L576.695 427.614H622.932L630.498 451.22H656.895ZM598.721 358.484H600.57L615.534 404.683H583.925L598.721 358.484Z" fill="white"/>
<path d="M719 451.22V428.288H702.859V356.123H719V333.192H662.003V356.123H677.807V428.288H662.003V451.22H719Z" fill="white"/>
<circle cx="359.5" cy="144.5" r="144.5" fill="white"/>
<path d="M403.152 226.809C414.742 215.806 420.537 200.918 420.537 182.795C420.537 165.318 414.742 150.431 403.152 138.133C390.918 126.482 376.108 120.656 358.723 120.656C340.693 120.656 325.883 126.482 314.293 138.133C302.703 150.431 296.908 165.318 296.908 182.795C296.908 200.918 302.703 215.806 314.293 226.809C325.883 238.46 340.693 244.286 358.723 244.286C376.752 244.286 391.562 238.46 403.152 226.809Z" fill="url(#paint0_linear)" fill-opacity="0.6"/>
<path d="M403.152 61.7003C414.742 72.704 420.537 87.5913 420.537 105.715C420.537 123.191 414.742 138.079 403.152 150.377C390.918 162.028 376.108 167.853 358.723 167.853C340.693 167.853 325.883 162.028 314.293 150.377C302.703 138.079 296.908 123.191 296.908 105.715C296.908 87.5913 302.703 72.704 314.293 61.7003C325.883 50.0494 340.693 44.2239 358.723 44.2239C376.752 44.2239 391.562 50.0494 403.152 61.7003Z" fill="url(#paint1_linear)"/>
<path d="M283.72 99.5739C294.724 87.9836 309.611 82.1885 327.735 82.1885C345.211 82.1885 360.099 87.9836 372.397 99.5739C384.048 111.808 389.873 126.618 389.873 144.003C389.873 162.033 384.048 176.842 372.397 188.433C360.099 200.023 345.211 205.818 327.735 205.818C309.611 205.818 294.724 200.023 283.72 188.433C272.069 176.842 266.244 162.033 266.244 144.003C266.244 125.974 272.069 111.164 283.72 99.5739Z" fill="url(#paint2_linear)" fill-opacity="0.6"/>
<path d="M434.211 99.5739C423.208 87.9836 408.32 82.1885 390.197 82.1885C372.72 82.1885 357.833 87.9836 345.535 99.5739C333.884 111.808 328.058 126.618 328.058 144.003C328.058 162.033 333.884 176.842 345.535 188.433C357.833 200.023 372.72 205.818 390.197 205.818C408.32 205.818 423.208 200.023 434.211 188.433C445.862 176.842 451.688 162.033 451.688 144.003C451.688 125.974 445.862 111.164 434.211 99.5739Z" fill="url(#paint3_linear)" fill-opacity="0.6"/>
<defs>
<linearGradient id="paint0_linear" x1="358.723" y1="120.656" x2="358.723" y2="244.286" gradientUnits="userSpaceOnUse">
<stop stop-color="#373DCB"/>
<stop offset="1" stop-color="#2146C8" stop-opacity="0.47"/>
</linearGradient>
<linearGradient id="paint1_linear" x1="358.723" y1="167.853" x2="358.723" y2="44.2239" gradientUnits="userSpaceOnUse">
<stop stop-color="#005DCA"/>
<stop offset="1" stop-color="#37D4F7"/>
</linearGradient>
<linearGradient id="paint2_linear" x1="389.873" y1="144.003" x2="266.244" y2="144.003" gradientUnits="userSpaceOnUse">
<stop stop-color="#373DCB"/>
<stop offset="1" stop-color="#2163E2" stop-opacity="0.63"/>
</linearGradient>
<linearGradient id="paint3_linear" x1="328.058" y1="144.003" x2="451.688" y2="144.003" gradientUnits="userSpaceOnUse">
<stop stop-color="#373DCB"/>
<stop offset="1" stop-color="#2163E2" stop-opacity="0.63"/>
</linearGradient>
</defs>
</svg>
