<svg width="28" height="28" viewBox="0 0 28 28" fill="none" xmlns="http://www.w3.org/2000/svg">
<rect width="28" height="28" rx="14" fill="#F0F1F5"/>
<rect width="28" height="28" rx="14" fill="#F0F1F5"/>
<path d="M15.8891 13.9806L20.1845 9.72491C20.4232 9.48628 20.4232 9.04878 20.1845 8.81014L19.1902 7.81582C18.9516 7.57719 18.5141 7.57719 18.2754 7.81582L14.0198 12.1113L9.7243 7.81582C9.48566 7.57719 9.04816 7.57719 8.80953 7.81582L7.81521 8.81014C7.57657 9.04878 7.57657 9.48628 7.81521 9.72491L12.1107 13.9806L7.81521 18.276C7.57657 18.5147 7.57657 18.9522 7.81521 19.1908L8.80953 20.1851C9.04816 20.4238 9.48566 20.4238 9.7243 20.1851L14.0198 15.8897L18.2754 20.1851C18.5141 20.4238 18.9516 20.4238 19.1902 20.1851L20.1845 19.1908C20.4232 18.9522 20.4232 18.5147 20.1845 18.276L15.8891 13.9806Z" fill="#757575"/>
</svg>
