<svg width="13" height="12" viewBox="0 0 13 12" fill="none" xmlns="http://www.w3.org/2000/svg">
<path d="M9.34383 2.85498C9.25042 2.76135 9.12359 2.70874 8.99133 2.70874C8.85907 2.70874 8.73225 2.76135 8.63883 2.85498L6.19383 5.29498L3.74883 2.84998C3.65542 2.75635 3.52859 2.70374 3.39633 2.70374C3.26407 2.70374 3.13725 2.75635 3.04383 2.84998C2.84883 3.04498 2.84883 3.35998 3.04383 3.55498L5.48883 5.99998L3.04383 8.44498C2.84883 8.63998 2.84883 8.95498 3.04383 9.14998C3.23883 9.34498 3.55383 9.34498 3.74883 9.14998L6.19383 6.70498L8.63883 9.14998C8.83383 9.34498 9.14883 9.34498 9.34383 9.14998C9.53883 8.95498 9.53883 8.63998 9.34383 8.44498L6.89883 5.99998L9.34383 3.55498C9.53383 3.36498 9.53383 3.04498 9.34383 2.85498Z" fill="black" fill-opacity="0.54"/>
</svg>
