<svg width="14" height="22" viewBox="0 0 14 22" fill="none" xmlns="http://www.w3.org/2000/svg">
<path d="M5.6 19.25C5.6 20.7625 4.34 22 2.8 22C1.26 22 0 20.7625 0 19.25C0 17.7375 1.26 16.5 2.8 16.5C4.34 16.5 5.6 17.7375 5.6 19.25ZM2.8 8.25C1.26 8.25 0 9.4875 0 11C0 12.5125 1.26 13.75 2.8 13.75C4.34 13.75 5.6 12.5125 5.6 11C5.6 9.4875 4.34 8.25 2.8 8.25ZM2.8 0C1.26 0 0 1.2375 0 2.75C0 4.2625 1.26 5.5 2.8 5.5C4.34 5.5 5.6 4.2625 5.6 2.75C5.6 1.2375 4.34 0 2.8 0ZM11.2 5.5C12.74 5.5 14 4.2625 14 2.75C14 1.2375 12.74 0 11.2 0C9.66 0 8.4 1.2375 8.4 2.75C8.4 4.2625 9.66 5.5 11.2 5.5ZM11.2 8.25C9.66 8.25 8.4 9.4875 8.4 11C8.4 12.5125 9.66 13.75 11.2 13.75C12.74 13.75 14 12.5125 14 11C14 9.4875 12.74 8.25 11.2 8.25ZM11.2 16.5C9.66 16.5 8.4 17.7375 8.4 19.25C8.4 20.7625 9.66 22 11.2 22C12.74 22 14 20.7625 14 19.25C14 17.7375 12.74 16.5 11.2 16.5Z" fill="black" fill-opacity="0.42"/>
</svg>
