<svg width="22" height="22" viewBox="0 0 22 22" fill="none" xmlns="http://www.w3.org/2000/svg">
<path d="M17.4167 18.3333H4.58332C4.34021 18.3333 4.10705 18.4299 3.93514 18.6018C3.76323 18.7737 3.66666 19.0069 3.66666 19.25C3.66666 19.4931 3.76323 19.7263 3.93514 19.8982C4.10705 20.0701 4.34021 20.1667 4.58332 20.1667H17.4167C17.6598 20.1667 17.8929 20.0701 18.0648 19.8982C18.2367 19.7263 18.3333 19.4931 18.3333 19.25C18.3333 19.0069 18.2367 18.7737 18.0648 18.6018C17.8929 18.4299 17.6598 18.3333 17.4167 18.3333Z" fill="#757575"/>
<path d="M4.58333 16.5H4.66583L8.48833 16.1517C8.90706 16.11 9.2987 15.9255 9.5975 15.6292L17.8475 7.37917C18.1677 7.04089 18.3408 6.58947 18.3287 6.12382C18.3167 5.65818 18.1206 5.2163 17.7833 4.895L15.2717 2.38333C14.9439 2.07542 14.5143 1.89875 14.0647 1.88691C13.6151 1.87508 13.1769 2.02892 12.8333 2.31917L4.58333 10.5692C4.28703 10.868 4.10254 11.2596 4.06083 11.6783L3.66666 15.5008C3.65432 15.6351 3.67174 15.7704 3.71769 15.8972C3.76364 16.0239 3.83698 16.139 3.9325 16.2342C4.01815 16.3191 4.11973 16.3863 4.23142 16.432C4.3431 16.4776 4.46269 16.5007 4.58333 16.5ZM13.9975 3.66667L16.5 6.16917L14.6667 7.95667L12.21 5.5L13.9975 3.66667ZM5.83916 11.8342L11 6.71L13.475 9.185L8.34166 14.3183L5.59166 14.575L5.83916 11.8342Z" fill="#757575"/>
</svg>
