<svg width="75" height="75" viewBox="0 0 75 75" fill="none" xmlns="http://www.w3.org/2000/svg">
<path d="M0 13.34C0 5.973 5.973 0 13.34 0H61.66C69.027 0 75 5.973 75 13.34V61.66C75 69.027 69.027 75 61.66 75H13.34C5.973 75 0 69.027 0 61.66V13.34Z" fill="url(#paint0_linear)"/>
<path d="M57 37.5C57 26.7303 48.2697 18 37.5 18C26.7303 18 18 26.7303 18 37.5C18 48.2697 26.7303 57 37.5 57H48.68C53.2752 57 57 53.2752 57 48.68V37.5Z" fill="url(#paint1_linear)"/>
<path d="M54.54 40.1C54.54 38.6643 53.3758 37.5 51.94 37.5H30.1C28.6643 37.5 27.5 38.6643 27.5 40.1C27.5 41.5357 28.6643 42.7 30.1 42.7H51.94C53.3758 42.7 54.54 41.5357 54.54 40.1Z" fill="#3360FF"/>
<path d="M54.1801 48.1C54.1801 46.6643 53.0158 45.5 51.5801 45.5H39.1001C37.6643 45.5 36.5001 46.6643 36.5001 48.1C36.5001 49.5357 37.6643 50.7 39.1001 50.7H51.5801C53.0158 50.7 54.1801 49.5357 54.1801 48.1Z" fill="#3360FF"/>
<defs>
<linearGradient id="paint0_linear" x1="-12" y1="4.97056" x2="41.033" y2="58.0036" gradientUnits="userSpaceOnUse">
<stop stop-color="#55FFE0"/>
<stop offset="1" stop-color="#3360FF"/>
</linearGradient>
<linearGradient id="paint1_linear" x1="62.7782" y1="20.5726" x2="33.7955" y2="46.6687" gradientUnits="userSpaceOnUse">
<stop stop-color="white"/>
<stop offset="1" stop-color="white"/>
</linearGradient>
</defs>
</svg>
