<svg width="366" height="225" viewBox="0 0 366 225" fill="none" xmlns="http://www.w3.org/2000/svg">
<path d="M0 16C0 7.16344 7.16344 0 16 0H350C358.837 0 366 7.16344 366 16V225H0V16Z" fill="white"/>
<path fill-rule="evenodd" clip-rule="evenodd" d="M121.725 47.6915C117.875 49.2489 118 47.5542 118 97.847V144.201L131.077 131.154L144.153 118.107H178.035H211.916L213.622 116.262L215.326 114.418V82.7465V51.0754L213.294 49.0377L211.262 47L167.238 47.0439C143.025 47.0683 122.544 47.3597 121.725 47.6915ZM202.648 82.7277L202.465 105.907H166.663H130.861L130.679 82.7277L130.495 59.5483H166.663H202.832L202.648 82.7277ZM228.535 102.77V132.049H186.476H144.417V139.749C144.417 146.995 144.518 147.551 146.124 149.16L147.83 150.872H184.874H221.917L234.958 163.936L248 177V127.639C248 91.4494 247.784 77.8729 247.191 76.7561C245.669 73.8895 244.487 73.5361 236.356 73.5131L228.535 73.4908V102.77Z" fill="#3B78E7"/>
</svg>
