<svg width="52" height="52" viewBox="0 0 52 52" fill="none" xmlns="http://www.w3.org/2000/svg">
<g clip-path="url(#clip0)">
<path d="M26 52C40.3594 52 52 40.3594 52 26C52 11.6406 40.3594 0 26 0C11.6406 0 0 11.6406 0 26C0 40.3594 11.6406 52 26 52Z" fill="#FFD271"/>
<path d="M26 43.1195C19.0158 43.1195 12.8781 38.6443 10.7283 31.9834C10.5219 31.3431 10.8729 30.6558 11.5131 30.4494C12.1566 30.2414 12.8408 30.594 13.0471 31.2343C14.872 36.8844 20.0769 40.682 26 40.682C31.9231 40.682 37.128 36.886 38.9529 31.2343C39.1593 30.594 39.8434 30.2414 40.4869 30.4494C41.1271 30.6558 41.4781 31.3431 41.2718 31.9834C39.1219 38.6443 32.9843 43.1195 26 43.1195Z" fill="#3E4347"/>
<path d="M52 25.9996C52 40.3646 40.3569 51.9996 26 51.9996C17.8263 51.9996 10.53 48.2296 5.76065 42.3227C10.2213 45.9302 15.9006 48.0834 22.0838 48.0834C36.4406 48.0834 48.0838 36.4484 48.0838 22.0834C48.0838 15.9002 45.9306 10.2209 42.3231 5.76025C48.2219 10.5296 52 17.8259 52 25.9996Z" fill="#F4C534"/>
<path d="M21.6775 21.7522C20.4555 20.085 18.252 18.9767 15.7397 18.9767C13.2161 18.9881 11.0126 20.0963 9.79062 21.7636C9.84749 18.5315 12.4865 15.9282 15.7397 15.9282C18.9702 15.9282 21.6206 18.5201 21.6775 21.7522Z" fill="#3E4347"/>
<path d="M42.211 21.7522C40.989 20.085 38.7855 18.9767 36.2732 18.9767C33.7496 18.9881 31.5461 20.0963 30.3241 21.7636C30.381 18.5315 33.02 15.9282 36.2732 15.9282C39.5053 15.9282 42.1541 18.5201 42.211 21.7522Z" fill="#3E4347"/>
</g>
<defs>
<clipPath id="clip0">
<rect width="52" height="52" fill="white"/>
</clipPath>
</defs>
</svg>
