<svg width="52" height="52" viewBox="0 0 52 52" fill="none" xmlns="http://www.w3.org/2000/svg">
<path d="M26 52C40.3594 52 52 40.3594 52 26C52 11.6406 40.3594 0 26 0C11.6406 0 0 11.6406 0 26C0 40.3594 11.6406 52 26 52Z" fill="#FFD271"/>
<path d="M52 25.9996C52 40.3646 40.3569 51.9996 26 51.9996C17.8263 51.9996 10.53 48.2296 5.76065 42.3227C10.2213 45.9302 15.9006 48.0834 22.0838 48.0834C36.4406 48.0834 48.0838 36.4484 48.0838 22.0834C48.0838 15.9002 45.9306 10.2209 42.3231 5.76025C48.2219 10.5296 52 17.8259 52 25.9996Z" fill="#FFD93B"/>
<g opacity="0.3">
<path opacity="0.3" d="M5.19352 21.5785C4.70277 21.4485 4.41027 20.9431 4.54027 20.4523C6.5179 13.0277 12.311 7.01522 19.6593 4.76297C20.1451 4.61509 20.6603 4.88647 20.8098 5.37397C20.9593 5.85984 20.6863 6.37497 20.1988 6.52447C13.455 8.58984 8.1364 14.11 6.32127 20.9252C6.18965 21.4192 5.68427 21.7085 5.19352 21.5785Z" fill="white"/>
</g>
<path d="M17.4655 29.3978C17.2721 29.6107 16.9731 29.6676 16.7131 29.5522C14.9094 28.7039 7.91861 25.2411 7.25399 21.9439C6.79086 19.6494 8.26636 17.4313 10.5511 16.9682C12.3159 16.6107 14.0514 17.4118 14.9484 18.8581C15.2181 17.181 16.51 15.7624 18.2747 15.4065C20.5497 14.9532 22.7776 16.4287 23.2407 18.7134C23.9054 22.0219 18.8045 27.9142 17.4655 29.3978Z" fill="#E24B4B"/>
<path d="M18.5445 28.1449C18.1008 28.6844 17.7157 29.1086 17.4638 29.3897C17.2705 29.6009 16.9715 29.6692 16.7115 29.5538C14.9077 28.7056 7.91697 25.2427 7.25234 21.9456C7.11746 21.2988 7.15647 20.6732 7.31084 20.0752C7.37909 20.4993 8.35247 25.4361 18.5445 28.1449Z" fill="#D03F3F"/>
<g opacity="0.15">
<path opacity="0.15" d="M21.5735 18.0033C21.4175 18.3576 20.735 18.4063 20.0362 18.0943C19.3359 17.7921 18.8874 17.2607 19.045 16.8967C19.1912 16.5408 19.8819 16.5034 20.5822 16.8057C21.2826 17.1079 21.7197 17.6474 21.5735 18.0033Z" fill="white"/>
</g>
<path d="M34.5345 29.3978C34.7278 29.6107 35.0268 29.6676 35.2868 29.5522C37.0906 28.7039 44.0813 25.2411 44.746 21.9439C45.2091 19.6494 43.7336 17.4313 41.4488 16.9682C39.6841 16.6107 37.9486 17.4118 37.0516 18.8581C36.7818 17.181 35.49 15.7624 33.7252 15.4065C31.4502 14.9532 29.2224 16.4287 28.7592 18.7134C28.0946 22.0219 33.1955 27.9142 34.5345 29.3978Z" fill="#E24B4B"/>
<path d="M33.4555 28.1449C33.8992 28.6844 34.2843 29.1086 34.5362 29.3897C34.7295 29.6009 35.0285 29.6692 35.2885 29.5538C37.0923 28.7056 44.083 25.2427 44.7477 21.9456C44.8825 21.2988 44.8435 20.6732 44.6892 20.0752C44.6209 20.4993 43.6475 25.4361 33.4555 28.1449Z" fill="#D03F3F"/>
<g opacity="0.15">
<path opacity="0.15" d="M30.4265 18.0033C30.5825 18.3576 31.2634 18.4063 31.9638 18.0943C32.6641 17.7921 33.111 17.2607 32.955 16.8967C32.8088 16.5408 32.1181 16.5034 31.4178 16.8057C30.7174 17.1079 30.2803 17.6474 30.4265 18.0033Z" fill="white"/>
</g>
<path d="M39.4875 34.2811C38.2362 33.5596 33.7772 37.341 26 37.1655C18.2244 37.3394 13.7621 33.5596 12.5125 34.2811C11.011 34.8677 13.9555 42.7457 26 42.7327C38.0445 42.7522 40.989 34.8677 39.4875 34.2811Z" fill="#3E4347"/>
</svg>
