<svg width="298" height="225" viewBox="0 0 298 225" fill="none" xmlns="http://www.w3.org/2000/svg">
<path d="M0 16C0 7.16344 7.16344 0 16 0H282C290.837 0 298 7.16344 298 16V225H0V16Z" fill="white"/>
<path d="M218.977 144.398C216.336 152.862 212.172 161.326 206.484 169.789C197.75 183.06 189.05 189.695 180.383 189.695C177.065 189.695 172.326 188.612 166.164 186.445C160.341 184.279 155.229 183.195 150.828 183.195C146.698 183.195 141.891 184.313 136.406 186.547C130.922 188.849 126.453 190 123 190C112.708 190 102.518 181.232 92.4297 163.695C82.4766 146.023 77.5 128.995 77.5 112.609C77.5 97.1719 81.3255 84.5104 88.9766 74.625C96.5599 64.875 106.174 60 117.82 60C122.695 60 128.688 61.0156 135.797 63.0469C142.839 65.0781 147.51 66.0938 149.813 66.0938C152.859 66.0938 157.701 64.9427 164.336 62.6406C171.242 60.3385 177.099 59.1875 181.906 59.1875C189.964 59.1875 197.175 61.388 203.539 65.7891C207.06 68.2266 210.581 71.612 214.102 75.9453C208.753 80.4818 204.893 84.4766 202.523 87.9297C198.122 94.2943 195.922 101.302 195.922 108.953C195.922 117.349 198.258 124.898 202.93 131.602C207.602 138.305 212.951 142.57 218.977 144.398ZM180.789 25.2656C180.789 29.3958 179.807 34 177.844 39.0781C175.813 44.1563 172.664 48.8281 168.398 53.0938C164.742 56.75 161.086 59.1875 157.43 60.4063C154.924 61.151 151.404 61.7266 146.867 62.1328C147.07 52.0443 149.711 43.3438 154.789 36.0313C159.799 28.7865 168.263 23.776 180.18 21C180.247 21.2031 180.332 21.5755 180.434 22.1172C180.535 22.6589 180.62 23.0313 180.688 23.2344C180.688 23.5052 180.704 23.8438 180.738 24.25C180.772 24.6563 180.789 24.9948 180.789 25.2656Z" fill="black"/>
</svg>
