<svg width="172" height="172" viewBox="0 0 172 172" fill="none" xmlns="http://www.w3.org/2000/svg">
<circle cx="86.5" cy="97" r="66.5" fill="url(#paint0_linear)"/>
<path d="M110.138 104.603C115.342 104.603 119.562 108.822 119.562 114.027V117.818C119.562 122.399 117.562 126.751 114.086 129.735C107.529 135.364 98.1459 138.116 86.0413 138.116C73.9387 138.116 64.5615 135.365 58.0154 129.737C54.5448 126.754 52.5483 122.404 52.5483 117.827V114.027C52.5483 108.822 56.7676 104.603 61.9724 104.603H110.138ZM85.6164 54.3724L86.0426 54.3438C87.633 54.3438 88.9473 55.5255 89.1553 57.0588L89.184 57.4851L89.1807 60.6223L103.842 60.6244C109.047 60.6244 113.266 64.8437 113.266 70.0484V88.9158C113.266 94.1206 109.047 98.3399 103.842 98.3399H68.2403C63.0355 98.3399 58.8162 94.1206 58.8162 88.9158V70.0484C58.8162 64.8437 63.0355 60.6244 68.2403 60.6244L82.898 60.6223L82.9013 57.4851C82.9013 55.8948 84.0831 54.5804 85.6164 54.3724L86.0426 54.3438L85.6164 54.3724ZM76.6142 73.1898C73.7243 73.1898 71.3816 75.5325 71.3816 78.4224C71.3816 81.3123 73.7243 83.655 76.6142 83.655C79.5041 83.655 81.8468 81.3123 81.8468 78.4224C81.8468 75.5325 79.5041 73.1898 76.6142 73.1898ZM95.4319 73.1898C92.542 73.1898 90.1993 75.5325 90.1993 78.4224C90.1993 81.3123 92.542 83.655 95.4319 83.655C98.3218 83.655 100.665 81.3123 100.665 78.4224C100.665 75.5325 98.3218 73.1898 95.4319 73.1898Z" fill="white"/>
<path d="M86.0412 93.5807C88.9632 93.5807 91.3319 91.212 91.3319 88.29H80.7505C80.7505 91.212 83.1192 93.5807 86.0412 93.5807Z" fill="url(#paint1_linear)"/>
<defs>
<linearGradient id="paint0_linear" x1="86.5" y1="30.5" x2="86.5" y2="163.5" gradientUnits="userSpaceOnUse">
<stop stop-color="#3871F0"/>
<stop offset="1" stop-color="#2350B5"/>
<stop offset="1" stop-color="#0F3A9A"/>
</linearGradient>
<linearGradient id="paint1_linear" x1="86.0412" y1="88.29" x2="86.0412" y2="93.5807" gradientUnits="userSpaceOnUse">
<stop stop-color="#3871F0"/>
<stop offset="1" stop-color="#2350B5"/>
<stop offset="1" stop-color="#0F3A9A"/>
</linearGradient>
</defs>
</svg>
