<svg width="52" height="52" viewBox="0 0 52 52" fill="none" xmlns="http://www.w3.org/2000/svg">
<g clip-path="url(#clip0)">
<path d="M26 52C40.3594 52 52 40.3594 52 26C52 11.6406 40.3594 0 26 0C11.6406 0 0 11.6406 0 26C0 40.3594 11.6406 52 26 52Z" fill="#FFD271"/>
<path d="M52 25.9996C52 40.3646 40.3569 51.9996 26 51.9996C17.8263 51.9996 10.53 48.2296 5.76065 42.3227C10.2213 45.9302 15.9006 48.0834 22.0838 48.0834C36.4406 48.0834 48.0838 36.4484 48.0838 22.0834C48.0838 15.9002 45.9306 10.2209 42.3231 5.76025C48.2219 10.5296 52 17.8259 52 25.9996Z" fill="#F4C534"/>
<path d="M22.4478 25.2442C22.4478 28.0181 19.8202 30.2606 16.5848 30.2606C13.3494 30.2606 10.7218 28.0181 10.7218 25.2442C10.7218 24.6917 10.8209 24.1603 11.0305 23.6631C11.7975 25.8081 13.9978 26.541 16.5848 26.541C19.1734 26.541 21.3737 25.8081 22.139 23.6631C22.347 24.162 22.4478 24.6917 22.4478 25.2442Z" fill="#3E4347"/>
<path d="M29.5523 25.2442C29.5523 28.0181 32.1799 30.2606 35.4153 30.2606C38.6507 30.2606 41.2783 28.0181 41.2783 25.2442C41.2783 24.6917 41.1792 24.1603 40.9695 23.6631C40.2025 25.8081 38.0023 26.541 35.4153 26.541C32.8267 26.541 30.6264 25.8081 29.861 23.6631C29.653 24.162 29.5523 24.6917 29.5523 25.2442Z" fill="#3E4347"/>
<path d="M37.9194 22.1148C33.7951 21.2666 31.3755 19.5295 30.3046 16.6451C30.0966 16.0845 30.3826 15.4605 30.9433 15.2525C31.5039 15.0445 32.1279 15.3305 32.3359 15.8911C32.8705 17.3341 34.0389 19.1037 38.3549 19.991C38.9415 20.1112 39.3185 20.6848 39.1983 21.2698C39.0764 21.8678 38.493 22.2351 37.9194 22.1148Z" fill="#E9B02C"/>
<path d="M12.7872 21.1857C12.7157 20.5909 13.1382 20.0514 13.7313 19.9799C16.7132 19.6175 18.8192 18.1664 19.6625 15.8947C19.8705 15.334 20.4945 15.0464 21.0552 15.256C21.6158 15.464 21.9034 16.088 21.6938 16.6487C20.5709 19.6744 17.7645 21.6732 13.9945 22.1314C13.3917 22.2013 12.8603 21.7739 12.7872 21.1857Z" fill="#E9B02C"/>
<path d="M34.4874 41.2103C28.7105 38.989 23.3041 38.989 17.5256 41.2103C16.6449 41.5305 15.9299 40.3312 16.536 39.548C19.2189 36.0315 22.5891 34.0327 26 34.0327C29.4109 34.0327 32.7957 36.0315 35.464 39.548C36.0685 40.3312 35.3535 41.5288 34.4874 41.2103Z" fill="#3E4347"/>
</g>
<defs>
<clipPath id="clip0">
<rect width="52" height="52" fill="white"/>
</clipPath>
</defs>
</svg>
