<svg width="24" height="24" viewBox="0 0 24 24" fill="none" xmlns="http://www.w3.org/2000/svg">
<path d="M18.2155 19L14.0255 14.81C12.8167 15.8169 11.2663 16.319 9.69671 16.2118C8.12716 16.1047 6.65934 15.3966 5.59859 14.2348C4.53784 13.073 3.96584 11.5469 4.00158 9.97415C4.03732 8.40136 4.67804 6.90288 5.79046 5.79046C6.90288 4.67804 8.40136 4.03732 9.97415 4.00158C11.5469 3.96584 13.073 4.53784 14.2348 5.59859C15.3966 6.65934 16.1047 8.12716 16.2118 9.69671C16.319 11.2663 15.8169 12.8167 14.81 14.0255L19 18.2155L18.2155 19ZM10.1229 5.12948C9.13527 5.12948 8.16985 5.42234 7.34869 5.97102C6.52753 6.5197 5.88752 7.29956 5.50958 8.21198C5.13164 9.1244 5.03276 10.1284 5.22543 11.097C5.4181 12.0657 5.89367 12.9554 6.59201 13.6537C7.29035 14.3521 8.18008 14.8276 9.14871 15.0203C10.1173 15.213 11.1213 15.1141 12.0338 14.7362C12.9462 14.3582 13.726 13.7182 14.2747 12.897C14.8234 12.0759 15.1163 11.1105 15.1163 10.1229C15.1148 8.79899 14.5882 7.52976 13.6521 6.59363C12.716 5.65751 11.4467 5.13095 10.1229 5.12948Z" fill="#7B7A7B"/>
</svg>
