<svg width="14" height="15" viewBox="0 0 14 15" fill="none" xmlns="http://www.w3.org/2000/svg">
<path d="M12.6004 12.5141L9.47185 9.38559C10.2237 8.48304 10.5986 7.32538 10.5186 6.15345C10.4386 4.98152 9.90984 3.88554 9.04236 3.09352C8.17488 2.30149 7.03545 1.8744 5.86109 1.90108C4.68674 1.92776 3.56788 2.40617 2.73727 3.23678C1.90666 4.06739 1.42825 5.18625 1.40157 6.3606C1.37489 7.53496 1.80198 8.67439 2.59401 9.54187C3.38603 10.4093 4.482 10.9381 5.65394 11.0181C6.82587 11.0981 7.98352 10.7232 8.88608 9.97136L12.0146 13.0999L12.6004 12.5141ZM2.24374 6.47164C2.24374 5.73424 2.4624 5.01339 2.87208 4.40026C3.28177 3.78713 3.86406 3.30925 4.54534 3.02706C5.22661 2.74486 5.97627 2.67103 6.69951 2.81489C7.42274 2.95875 8.08708 3.31385 8.60851 3.83527C9.12993 4.3567 9.48503 5.02103 9.62889 5.74427C9.77275 6.46751 9.69891 7.21716 9.41672 7.89844C9.13453 8.57971 8.65665 9.16201 8.04352 9.57169C7.43039 9.98137 6.70954 10.2 5.97213 10.2C4.98364 10.1989 4.03594 9.80578 3.33697 9.10681C2.638 8.40783 2.24483 7.46014 2.24374 6.47164Z" fill="#4D4D4D"/>
</svg>

