<svg width="257" height="401" viewBox="0 0 257 401" fill="none" xmlns="http://www.w3.org/2000/svg">
<g clip-path="url(#clip0_658_32623)">
<rect width="257" height="400" transform="translate(0 0.0141602)" fill="white"/>
<path d="M226.506 27.9604C226.22 27.9607 225.948 27.8332 225.76 27.6103L221.526 22.6057C221.248 22.2608 221.285 21.7479 221.61 21.4506C221.936 21.1532 222.429 21.1801 222.723 21.5112L226.425 25.8875C226.445 25.9118 226.475 25.9258 226.506 25.9258C226.537 25.9258 226.567 25.9118 226.587 25.8875L230.289 21.5112C230.475 21.2808 230.766 21.1732 231.05 21.23C231.334 21.2868 231.566 21.4991 231.656 21.7848C231.747 22.0704 231.681 22.3846 231.485 22.6057L227.253 27.6085C227.064 27.8319 226.792 27.9601 226.506 27.9604Z" fill="white"/>
<g clip-path="url(#clip1_658_32623)">
<path d="M201.594 25.437L200.361 24.2193L200.376 24.2047C201.22 23.2635 201.822 22.1817 202.176 21.0367H203.597V20.0665H200.201V19.0962H199.231V20.0665H195.835V21.0319H201.254C200.929 21.9682 200.415 22.856 199.716 23.6322C199.265 23.1325 198.891 22.5843 198.595 22.007H197.625C197.979 22.7978 198.464 23.5449 199.071 24.2193L196.601 26.6547L197.29 27.3435L199.716 24.9179L201.225 26.4266L201.594 25.437ZM204.325 22.9773H203.355L201.171 28.799H202.142L202.685 27.3435H204.99L205.538 28.799H206.508L204.325 22.9773ZM203.054 26.3733L203.84 24.2726L204.626 26.3733H203.054Z" fill="white"/>
</g>
<rect width="257.272" height="19.4055" transform="translate(0 380.964)" fill="#EFF6FF"/>
<path d="M94.7831 392.667H95.307V390.875H96.4067C97.2023 390.875 97.7909 390.312 97.7909 389.497C97.7909 388.675 97.2282 388.139 96.4067 388.139H94.7831V392.667ZM95.307 390.409V388.604H96.3614C96.9048 388.604 97.2541 388.979 97.2541 389.497C97.2541 390.021 96.9048 390.409 96.3614 390.409H95.307ZM100.003 392.751C101.012 392.751 101.762 391.994 101.762 390.985C101.762 389.976 101.025 389.219 100.009 389.219C99.0066 389.219 98.2498 389.969 98.2498 390.985C98.2498 392.007 98.9937 392.751 100.003 392.751ZM100.003 392.285C99.2848 392.285 98.7738 391.742 98.7738 390.985C98.7738 390.247 99.2783 389.685 100.003 389.685C100.727 389.685 101.238 390.241 101.238 390.985C101.238 391.735 100.727 392.285 100.003 392.285ZM103.23 392.667H103.89L104.757 389.937H104.795L105.656 392.667H106.316L107.37 389.303H106.814L105.992 392.084H105.953L105.067 389.303H104.485L103.592 392.084H103.554L102.738 389.303H102.182L103.23 392.667ZM109.445 392.751C110.234 392.751 110.823 392.304 111.01 391.677H110.48C110.325 392.071 109.898 392.285 109.451 392.285C108.759 392.285 108.326 391.839 108.3 391.166H111.043V390.939C111.043 389.969 110.435 389.219 109.413 389.219C108.494 389.219 107.763 389.911 107.763 390.985C107.763 391.994 108.416 392.751 109.445 392.751ZM108.313 390.713C108.365 390.092 108.85 389.685 109.413 389.685C109.982 389.685 110.454 390.04 110.499 390.713H108.313ZM111.951 392.667H112.462V390.933C112.462 390.293 112.805 389.814 113.419 389.814H113.697V389.303H113.413C112.921 389.303 112.591 389.646 112.494 389.93H112.455V389.303H111.951V392.667ZM115.838 392.751C116.627 392.751 117.215 392.304 117.403 391.677H116.873C116.717 392.071 116.29 392.285 115.844 392.285C115.152 392.285 114.719 391.839 114.693 391.166H117.435V390.939C117.435 389.969 116.827 389.219 115.805 389.219C114.887 389.219 114.156 389.911 114.156 390.985C114.156 391.994 114.809 392.751 115.838 392.751ZM114.706 390.713C114.757 390.092 115.242 389.685 115.805 389.685C116.374 389.685 116.847 390.04 116.892 390.713H114.706ZM119.76 392.751C120.491 392.751 120.84 392.259 120.925 392.136H120.963V392.667H121.455V387.815H120.944V389.846H120.905C120.802 389.672 120.426 389.219 119.721 389.219C118.771 389.219 118.085 389.956 118.085 390.991C118.085 392.02 118.771 392.751 119.76 392.751ZM119.793 392.291C119.088 392.291 118.609 391.78 118.609 390.991C118.609 390.228 119.088 389.685 119.78 389.685C120.446 389.685 120.963 390.163 120.963 390.991C120.963 391.696 120.524 392.291 119.793 392.291ZM124.435 392.667H126.026C126.789 392.667 127.423 392.194 127.423 391.379C127.423 390.739 126.996 390.415 126.692 390.312V390.273C127.054 390.079 127.268 389.743 127.268 389.296C127.268 388.637 126.757 388.139 125.897 388.139H124.435V392.667ZM124.952 390.099V388.604H125.897C126.382 388.604 126.731 388.889 126.731 389.335C126.731 389.794 126.388 390.099 125.877 390.099H124.952ZM124.952 392.207V390.538H125.877C126.401 390.538 126.88 390.771 126.88 391.366C126.88 391.948 126.472 392.207 125.935 392.207H124.952ZM128.272 394.154H128.622C129.172 394.154 129.437 393.896 129.611 393.436L131.216 389.303H130.64L129.592 392.149H129.553L128.512 389.303H127.943L129.307 392.848L129.152 393.255C129.042 393.546 128.855 393.689 128.525 393.689H128.272V394.154Z" fill="#7B7A7B"/>
<path d="M135.871 392.751C136.912 392.751 137.721 392.155 138.005 391.218H137.423C137.197 391.91 136.576 392.259 135.877 392.259C134.875 392.259 134.092 391.476 134.092 390.403C134.092 389.342 134.875 388.546 135.877 388.546C136.576 388.546 137.203 388.902 137.443 389.587H138.005C137.708 388.669 136.919 388.054 135.877 388.054C134.538 388.054 133.549 389.07 133.549 390.403C133.549 391.748 134.532 392.751 135.871 392.751ZM140.406 392.751C141.415 392.751 142.165 391.994 142.165 390.985C142.165 389.976 141.428 389.219 140.412 389.219C139.41 389.219 138.653 389.969 138.653 390.985C138.653 392.007 139.397 392.751 140.406 392.751ZM140.406 392.285C139.688 392.285 139.177 391.742 139.177 390.985C139.177 390.247 139.681 389.685 140.406 389.685C141.13 389.685 141.641 390.241 141.641 390.985C141.641 391.735 141.13 392.285 140.406 392.285ZM144.543 394.238C145.552 394.238 146.179 393.656 146.179 392.667V389.303H145.668V389.846H145.63C145.526 389.672 145.151 389.219 144.446 389.219C143.495 389.219 142.809 389.956 142.809 390.991C142.809 392.02 143.495 392.751 144.485 392.751C145.216 392.751 145.565 392.259 145.649 392.136H145.688V392.667C145.688 393.352 145.332 393.792 144.543 393.792C144.045 393.792 143.657 393.585 143.566 393.19H143.081C143.191 393.792 143.721 394.238 144.543 394.238ZM144.517 392.291C143.812 392.291 143.333 391.78 143.333 390.991C143.333 390.228 143.812 389.685 144.504 389.685C145.17 389.685 145.688 390.163 145.688 390.991C145.688 391.696 145.248 392.291 144.517 392.291ZM147.281 392.667H147.792V390.661C147.792 390.105 148.206 389.697 148.737 389.697C149.209 389.697 149.604 390.047 149.604 390.584V392.667H150.115V390.551C150.115 389.807 149.642 389.219 148.86 389.219C148.336 389.219 147.974 389.49 147.831 389.794H147.792V389.303H147.281V392.667ZM152.711 392.751C153.72 392.751 154.47 391.994 154.47 390.985C154.47 389.976 153.733 389.219 152.718 389.219C151.715 389.219 150.958 389.969 150.958 390.985C150.958 392.007 151.702 392.751 152.711 392.751ZM152.711 392.285C151.993 392.285 151.482 391.742 151.482 390.985C151.482 390.247 151.987 389.685 152.711 389.685C153.436 389.685 153.947 390.241 153.947 390.985C153.947 391.735 153.436 392.285 152.711 392.285ZM156.734 392.667H157.283L157.691 391.593H159.877L160.285 392.667H160.835L159.095 388.139H158.48L156.734 392.667ZM157.872 391.114L158.765 388.747H158.803L159.696 391.114H157.872ZM161.684 388.695C161.904 388.695 162.059 388.533 162.059 388.32C162.059 388.113 161.904 387.951 161.684 387.951C161.47 387.951 161.315 388.113 161.315 388.32C161.315 388.533 161.47 388.695 161.684 388.695ZM161.419 392.667H161.93V389.303H161.419V392.667Z" fill="#0243AC"/>
<path d="M0.000976562 0.0141602H257.273V25.8882C257.273 34.4621 250.323 41.4127 241.749 41.4127H15.5254C6.95151 41.4127 0.000976562 34.4621 0.000976562 25.8882V0.0141602Z" fill="#3884FD"/>
<path d="M10.4775 20.5063C10.4772 20.2322 10.5949 19.9712 10.8006 19.79L15.4203 15.7259C15.7387 15.4587 16.2121 15.4946 16.4866 15.8067C16.7611 16.1188 16.7362 16.5929 16.4306 16.8746L12.3909 20.4284C12.3685 20.448 12.3556 20.4764 12.3556 20.5063C12.3556 20.5361 12.3685 20.5645 12.3909 20.5841L16.4306 24.1379C16.6433 24.3164 16.7426 24.596 16.6902 24.8686C16.6377 25.1412 16.4418 25.364 16.1781 25.4508C15.9144 25.5376 15.6244 25.4748 15.4203 25.2866L10.8023 21.2237C10.5961 21.0423 10.4778 20.7809 10.4775 20.5063Z" fill="white"/>
<path d="M25.7031 20.945C25.7031 20.4194 25.7974 19.9259 25.9861 19.4643C26.1747 18.9994 26.4341 18.6001 26.7643 18.2666C27.0945 17.9331 27.492 17.6703 27.9569 17.4783C28.4252 17.2862 28.9272 17.1902 29.4629 17.1902C30.3287 17.1902 31.0699 17.426 31.6864 17.8977C32.3063 18.3694 32.7241 18.9926 32.9397 19.7675H31.737C31.5786 19.2925 31.2939 18.9202 30.8829 18.6507C30.4719 18.3812 29.9986 18.2464 29.4629 18.2464C28.9777 18.2464 28.5364 18.3643 28.1389 18.6001C27.7413 18.8326 27.4297 19.156 27.204 19.5704C26.9782 19.9814 26.8654 20.4396 26.8654 20.945C26.8654 21.7232 27.113 22.3684 27.6082 22.8805C28.1035 23.3926 28.7217 23.6486 29.4629 23.6486C29.9986 23.6486 30.4702 23.5155 30.8779 23.2494C31.2855 22.9832 31.5719 22.6126 31.737 22.1376H32.9599C32.7544 22.9125 32.3367 23.5341 31.7066 24.0024C31.08 24.4707 30.3321 24.7048 29.4629 24.7048C28.9272 24.7048 28.4252 24.6105 27.9569 24.4218C27.4886 24.2298 27.0894 23.9687 26.7592 23.6385C26.4325 23.305 26.1747 22.9057 25.9861 22.4408C25.7974 21.9759 25.7031 21.4773 25.7031 20.945ZM34.2941 24.5684V16.8061H35.3705V19.8787H35.4412C35.5659 19.6361 35.768 19.4323 36.0476 19.2672C36.3273 19.1021 36.6574 19.0196 37.0381 19.0196C37.6412 19.0196 38.1246 19.2167 38.4885 19.6108C38.8523 20.0017 39.0343 20.4952 39.0343 21.0915V24.5684H37.9478V21.2987C37.9478 20.9281 37.8282 20.6249 37.589 20.3891C37.3531 20.1533 37.0617 20.0353 36.7147 20.0353C36.3441 20.0353 36.0291 20.1617 35.7697 20.4144C35.5103 20.6637 35.3806 20.9787 35.3806 21.3594V24.5684H34.2941ZM40.9445 23.9215C40.4594 23.3993 40.2168 22.7188 40.2168 21.8799C40.2168 21.041 40.4577 20.3554 40.9394 19.8231C41.4212 19.2874 42.0394 19.0196 42.7941 19.0196C43.0367 19.0196 43.2641 19.0533 43.4763 19.1207C43.6886 19.188 43.8654 19.2756 44.0069 19.3834C44.1518 19.4912 44.2663 19.5906 44.3506 19.6816C44.4348 19.7692 44.5055 19.8568 44.5628 19.9444H44.6386V19.156H45.7251V24.5684H44.6588V23.8002H44.5931C44.1653 24.4033 43.5824 24.7048 42.8446 24.7048C42.0664 24.7048 41.433 24.4437 40.9445 23.9215ZM41.3235 21.8647C41.3235 22.424 41.4768 22.8737 41.7834 23.214C42.0933 23.5509 42.4993 23.7194 43.0013 23.7194C43.5066 23.7194 43.9109 23.5425 44.2141 23.1887C44.5173 22.835 44.6689 22.3937 44.6689 21.8647C44.6689 21.2954 44.5106 20.8456 44.1939 20.5154C43.8806 20.1819 43.4797 20.0151 42.9912 20.0151C42.4993 20.0151 42.0984 20.1886 41.7884 20.5356C41.4785 20.8793 41.3235 21.3223 41.3235 21.8647ZM46.847 20.0455V19.1661H47.5596C47.6539 19.1661 47.7314 19.1341 47.792 19.0701C47.8527 19.0061 47.883 18.9202 47.883 18.8124V17.6248H48.9038V19.156H50.4805V20.0455H48.9038V22.8198C48.9038 23.3724 49.1666 23.6486 49.6922 23.6486H50.4249V24.5684H49.5254C48.9863 24.5684 48.5669 24.4218 48.2671 24.1287C47.9672 23.8322 47.8173 23.406 47.8173 22.8502V20.0455H46.847ZM54.0281 19.156H55.1803L56.287 23.2848H56.3578L57.6515 19.156H58.7986L60.0822 23.2848H60.158L61.2647 19.156H62.422L60.82 24.5684H59.5162L58.2528 20.5508H58.1922L56.9187 24.5684H55.625L54.0281 19.156ZM63.3973 17.6147C63.3973 17.4159 63.4647 17.2525 63.5995 17.1245C63.7342 16.9965 63.9044 16.9325 64.1099 16.9325C64.3221 16.9325 64.4956 16.9965 64.6304 17.1245C64.7685 17.2525 64.8376 17.4159 64.8376 17.6147C64.8376 17.8202 64.7685 17.987 64.6304 18.115C64.4956 18.243 64.3221 18.307 64.1099 18.307C63.901 18.307 63.7292 18.243 63.5944 18.115C63.463 17.987 63.3973 17.8202 63.3973 17.6147ZM63.5641 24.5684V19.156H64.6506V24.5684H63.5641ZM65.7674 20.0455V19.1661H66.48C66.5743 19.1661 66.6518 19.1341 66.7124 19.0701C66.7731 19.0061 66.8034 18.9202 66.8034 18.8124V17.6248H67.8242V19.156H69.4009V20.0455H67.8242V22.8198C67.8242 23.3724 68.087 23.6486 68.6126 23.6486H69.3453V24.5684H68.4458C67.9067 24.5684 67.4873 24.4218 67.1875 24.1287C66.8876 23.8322 66.7377 23.406 66.7377 22.8502V20.0455H65.7674ZM70.6896 24.5684V16.8061H71.766V19.8787H71.8367C71.9614 19.6361 72.1635 19.4323 72.4431 19.2672C72.7228 19.1021 73.0529 19.0196 73.4336 19.0196C74.0367 19.0196 74.5201 19.2167 74.884 19.6108C75.2478 20.0017 75.4298 20.4952 75.4298 21.0915V24.5684H74.3433V21.2987C74.3433 20.9281 74.2237 20.6249 73.9845 20.3891C73.7486 20.1533 73.4572 20.0353 73.1102 20.0353C72.7396 20.0353 72.4246 20.1617 72.1652 20.4144C71.9058 20.6637 71.7761 20.9787 71.7761 21.3594V24.5684H70.6896ZM79.887 24.5684V17.3216H84.1825V18.307H81.0038V20.4093H83.7277V21.3796H81.0038V23.593H84.2886V24.5684H79.887ZM85.0264 19.156H86.1786L87.634 23.2544H87.7098L89.1551 19.156H90.3276L88.2657 24.5684H87.0883L85.0264 19.156ZM91.5404 23.9215C91.0553 23.3993 90.8127 22.7188 90.8127 21.8799C90.8127 21.041 91.0536 20.3554 91.5354 19.8231C92.0171 19.2874 92.6353 19.0196 93.39 19.0196C93.6326 19.0196 93.86 19.0533 94.0722 19.1207C94.2845 19.188 94.4613 19.2756 94.6028 19.3834C94.7477 19.4912 94.8623 19.5906 94.9465 19.6816C95.0307 19.7692 95.1015 19.8568 95.1587 19.9444H95.2345V19.156H96.321V24.5684H95.2548V23.8002H95.1891C94.7612 24.4033 94.1784 24.7048 93.4405 24.7048C92.6623 24.7048 92.0289 24.4437 91.5404 23.9215ZM91.9194 21.8647C91.9194 22.424 92.0727 22.8737 92.3793 23.214C92.6892 23.5509 93.0952 23.7194 93.5972 23.7194C94.1025 23.7194 94.5068 23.5425 94.81 23.1887C95.1133 22.835 95.2649 22.3937 95.2649 21.8647C95.2649 21.2954 95.1065 20.8456 94.7898 20.5154C94.4765 20.1819 94.0756 20.0151 93.5871 20.0151C93.0952 20.0151 92.6943 20.1886 92.3843 20.5356C92.0744 20.8793 91.9194 21.3223 91.9194 21.8647Z" fill="white"/>
<g clip-path="url(#clip2_658_32623)">
<path d="M179.241 22.381L178.009 21.1633L178.023 21.1488C178.867 20.2076 179.469 19.1258 179.823 17.9808H181.245V17.0106H177.849V16.0403H176.878V17.0106H173.482V17.976H178.901C178.576 18.9123 178.062 19.8001 177.364 20.5763C176.912 20.0766 176.539 19.5284 176.243 18.9511H175.273C175.627 19.7419 176.112 20.489 176.718 21.1633L174.249 23.5987L174.938 24.2876L177.364 21.8619L178.872 23.3707L179.241 22.381ZM181.972 19.9214H181.002L178.819 25.7431H179.789L180.333 24.2876H182.637L183.185 25.7431H184.155L181.972 19.9214ZM180.701 23.3174L181.487 21.2167L182.273 23.3174H180.701Z" fill="white"/>
</g>
<path d="M191.885 23.8918H195.068V23.3252H192.514V21.4079H194.641V20.8413H192.514V19.0327H194.982V18.4583H191.885V23.8918ZM196.151 23.8918H196.764V21.4856C196.764 20.818 197.261 20.329 197.897 20.329C198.464 20.329 198.938 20.7481 198.938 21.3924V23.8918H199.551V21.3536C199.551 20.4609 198.984 19.7546 198.045 19.7546C197.416 19.7546 196.982 20.0806 196.811 20.4454H196.764V19.8555H196.151V23.8918ZM202.643 25.7781C203.854 25.7781 204.607 25.0795 204.607 23.8918V19.8555H203.994V20.5075H203.947C203.823 20.2979 203.373 19.7546 202.527 19.7546C201.386 19.7546 200.563 20.6395 200.563 21.8814C200.563 23.1156 201.386 23.9928 202.573 23.9928C203.451 23.9928 203.87 23.4028 203.971 23.2553H204.017V23.8918C204.017 24.7146 203.59 25.2425 202.643 25.2425C202.046 25.2425 201.58 24.9941 201.471 24.5206H200.889C201.021 25.2425 201.657 25.7781 202.643 25.7781ZM202.612 23.4416C201.766 23.4416 201.192 22.8284 201.192 21.8814C201.192 20.9655 201.766 20.3135 202.597 20.3135C203.396 20.3135 204.017 20.8879 204.017 21.8814C204.017 22.7275 203.489 23.4416 202.612 23.4416ZM206.729 23.8918H207.024V23.3485H206.838C206.644 23.3485 206.543 23.2321 206.543 23.0302V18.0702H205.93V23.0302C205.93 23.5814 206.225 23.8918 206.729 23.8918ZM208.355 19.1258C208.619 19.1258 208.805 18.9318 208.805 18.6756C208.805 18.4272 208.619 18.2332 208.355 18.2332C208.099 18.2332 207.913 18.4272 207.913 18.6756C207.913 18.9318 208.099 19.1258 208.355 19.1258ZM208.037 23.8918H208.65V19.8555H208.037V23.8918ZM211.305 23.9928C212.244 23.9928 212.873 23.4804 212.873 22.7198C212.873 21.0509 210.451 21.9047 210.451 20.8801C210.451 20.5308 210.777 20.2824 211.282 20.2824C211.817 20.2824 212.104 20.5386 212.159 20.9189H212.749C212.687 20.1893 212.066 19.7546 211.32 19.7546C210.474 19.7546 209.861 20.197 209.861 20.8801C209.861 22.4791 212.275 21.6175 212.275 22.7508C212.275 23.1622 211.941 23.4572 211.336 23.4572C210.746 23.4572 210.405 23.201 210.335 22.7198H209.737C209.807 23.4727 210.35 23.9928 211.305 23.9928ZM214.078 23.8918H214.692V21.439C214.692 20.787 215.219 20.329 215.84 20.329C216.407 20.329 216.896 20.7481 216.896 21.3924V23.8918H217.509V21.3536C217.509 20.4609 216.927 19.7546 215.988 19.7546C215.359 19.7546 214.909 20.0806 214.738 20.4454H214.692V18.0702H214.078V23.8918Z" fill="white"/>
<rect x="169.439" y="13.2746" width="53.2272" height="15.2343" rx="2.26398" stroke="white" stroke-width="0.646851"/>
<path d="M236.916 18.3738L241.581 23.2252" stroke="white" stroke-width="0.842271" stroke-linecap="round" stroke-linejoin="round"/>
<path d="M241.582 18.3738L236.916 23.2252" stroke="white" stroke-width="0.842271" stroke-linecap="round" stroke-linejoin="round"/>
<rect x="231.722" y="13.2746" width="14.8776" height="14.8776" rx="2.26398" stroke="white" stroke-width="0.646851"/>
<rect x="10.673" y="57.2604" width="14.8775" height="14.8775" rx="7.43874" fill="#0254D7" stroke="#0254D7" stroke-width="0.646851"/>
<path d="M17.8406 68.3445C19.2805 68.3445 19.9054 67.3212 19.9054 66.2707V61.8877H16.7268V62.5578H19.1718V66.2888C19.1718 66.9771 18.7824 67.6653 17.8678 67.6653C17.1252 67.6653 16.5819 67.2307 16.5637 66.5333H15.8302C15.8483 67.7559 16.8535 68.3445 17.8406 68.3445Z" fill="white"/>
<g filter="url(#filter0_dd_658_32623)">
<path d="M31.0488 56.937H216.695C220.982 56.937 224.457 60.4123 224.457 64.6992V101.112C224.457 105.399 220.982 108.874 216.695 108.874H38.811C34.5241 108.874 31.0488 105.399 31.0488 101.112V56.937Z" fill="white"/>
<path d="M38.5525 73.4055H39.3909V70.104H43.2409V73.4055H44.0792V66.1608H43.2409V69.3381H39.3909V66.1608H38.5525V73.4055ZM46.4739 67.0508C46.8258 67.0508 47.0742 66.7921 47.0742 66.4506C47.0742 66.1194 46.8258 65.8606 46.4739 65.8606C46.1323 65.8606 45.884 66.1194 45.884 66.4506C45.884 66.7921 46.1323 67.0508 46.4739 67.0508ZM46.0495 73.4055H46.8672V68.0237H46.0495V73.4055ZM48.5854 74.7613H49.1857L49.6618 72.443H48.7614L48.5854 74.7613ZM54.3802 73.4055H55.2185V66.1608H54.3802V73.4055ZM62.3548 73.5401C63.5243 73.5401 64.0832 72.7535 64.2177 72.5568H64.2798V73.4055H65.0664V68.0237H64.2488V68.8931H64.1867C64.0211 68.6136 63.4208 67.8892 62.2927 67.8892C60.7713 67.8892 59.6743 69.069 59.6743 70.725C59.6743 72.3706 60.7713 73.5401 62.3548 73.5401ZM62.4066 72.8052C61.2785 72.8052 60.5126 71.9876 60.5126 70.725C60.5126 69.5037 61.2785 68.6343 62.3859 68.6343C63.4519 68.6343 64.2798 69.4002 64.2798 70.725C64.2798 71.8531 63.5761 72.8052 62.4066 72.8052ZM66.8297 73.4055H67.6473V70.1661C67.6473 69.2553 68.289 68.655 69.0445 68.655C69.8 68.655 70.3796 69.1725 70.3796 70.0315V73.4055H71.1972V70.1971C71.1972 69.1932 71.8596 68.655 72.6151 68.655C73.412 68.655 73.9191 69.1725 73.9191 70.1868V73.4055H74.7368V69.9177C74.7368 68.7378 73.9605 67.8892 72.76 67.8892C72.0045 67.8892 71.4145 68.179 71.0523 68.8724H70.9799C70.6797 68.2825 70.0898 67.8892 69.2825 67.8892C68.4856 67.8892 67.9681 68.3032 67.7094 68.7999H67.6473V68.0237H66.8297V73.4055ZM79.4962 73.4055H83.7396V72.65H80.3345V70.0936H83.1703V69.3381H80.3345V66.9267H83.6257V66.1608H79.4962V73.4055ZM86.6744 73.4055H87.5231L89.6448 68.0237H88.7443L87.1298 72.4016H87.0677L85.4428 68.0237H84.5631L86.6744 73.4055ZM92.9489 73.5401C94.1184 73.5401 94.6773 72.7535 94.8118 72.5568H94.8739V73.4055H95.6605V68.0237H94.8429V68.8931H94.7808C94.6152 68.6136 94.0149 67.8892 92.8868 67.8892C91.3654 67.8892 90.2683 69.069 90.2683 70.725C90.2683 72.3706 91.3654 73.5401 92.9489 73.5401ZM93.0006 72.8052C91.8725 72.8052 91.1066 71.9876 91.1066 70.725C91.1066 69.5037 91.8725 68.6343 92.9799 68.6343C94.0459 68.6343 94.8739 69.4002 94.8739 70.725C94.8739 71.8531 94.1701 72.8052 93.0006 72.8052ZM97.3823 74.7613H97.9826L98.4587 72.443H97.5583L97.3823 74.7613ZM105.34 73.5401C106.51 73.5401 107.069 72.7535 107.203 72.5568H107.265V73.4055H108.052V68.0237H107.234V68.8931H107.172C107.006 68.6136 106.406 67.8892 105.278 67.8892C103.757 67.8892 102.66 69.069 102.66 70.725C102.66 72.3706 103.757 73.5401 105.34 73.5401ZM105.392 72.8052C104.264 72.8052 103.498 71.9876 103.498 70.725C103.498 69.5037 104.264 68.6343 105.371 68.6343C106.437 68.6343 107.265 69.4002 107.265 70.725C107.265 71.8531 106.561 72.8052 105.392 72.8052ZM114.672 73.4055H115.655L118.398 66.1608H117.456L115.179 72.4844H115.117L112.892 66.1608H111.991L114.672 73.4055ZM119.962 67.0508C120.314 67.0508 120.563 66.7921 120.563 66.4506C120.563 66.1194 120.314 65.8606 119.962 65.8606C119.621 65.8606 119.372 66.1194 119.372 66.4506C119.372 66.7921 119.621 67.0508 119.962 67.0508ZM119.538 73.4055H120.356V68.0237H119.538V73.4055ZM122.115 73.4055H122.933V70.6318C122.933 69.6072 123.481 68.8413 124.465 68.8413H124.91V68.0237H124.454C123.668 68.0237 123.14 68.5722 122.985 69.0276H122.923V68.0237H122.115V73.4055ZM128.36 73.4055H129.157V72.6914H128.412C127.791 72.6914 127.574 72.3499 127.574 71.7703V68.7171H129.229V68.0237H127.574V66.4609H126.808V67.7546C126.808 67.9306 126.694 68.0237 126.549 68.0237H125.742V68.7171H126.756V71.7806C126.756 72.8673 127.367 73.4055 128.36 73.4055ZM132.58 73.5401C133.419 73.5401 133.998 73.1054 134.226 72.6189H134.288V73.4055H135.106V68.0237H134.288V71.2528C134.288 72.1429 133.626 72.7949 132.777 72.7949C132.021 72.7949 131.39 72.236 131.39 71.377V68.0237H130.572V71.408C130.572 72.5982 131.328 73.5401 132.58 73.5401ZM139.128 73.5401C140.298 73.5401 140.856 72.7535 140.991 72.5568H141.053V73.4055H141.84V68.0237H141.022V68.8931H140.96C140.794 68.6136 140.194 67.8892 139.066 67.8892C137.545 67.8892 136.447 69.069 136.447 70.725C136.447 72.3706 137.545 73.5401 139.128 73.5401ZM139.18 72.8052C138.052 72.8052 137.286 71.9876 137.286 70.725C137.286 69.5037 138.052 68.6343 139.159 68.6343C140.225 68.6343 141.053 69.4002 141.053 70.725C141.053 71.8531 140.349 72.8052 139.18 72.8052ZM144.669 73.4055H145.062V72.681H144.814C144.555 72.681 144.42 72.5258 144.42 72.2567V65.6433H143.603V72.2567C143.603 72.9915 143.996 73.4055 144.669 73.4055ZM148.791 73.4055H149.671L150.323 71.6875H153.821L154.473 73.4055H155.353L152.569 66.1608H151.585L148.791 73.4055ZM150.613 70.9216L152.041 67.1336H152.103L153.531 70.9216H150.613ZM158.269 73.5401C159.522 73.5401 160.36 72.857 160.36 71.8427C160.36 69.6176 157.131 70.756 157.131 69.3899C157.131 68.9241 157.566 68.5929 158.238 68.5929C158.953 68.5929 159.335 68.9345 159.408 69.4416H160.195C160.112 68.4687 159.284 67.8892 158.29 67.8892C157.162 67.8892 156.344 68.4791 156.344 69.3899C156.344 71.5219 159.563 70.3731 159.563 71.8841C159.563 72.4327 159.118 72.8259 158.311 72.8259C157.524 72.8259 157.069 72.4844 156.976 71.8427H156.179C156.272 72.8466 156.996 73.5401 158.269 73.5401ZM163.747 73.5401C165 73.5401 165.838 72.857 165.838 71.8427C165.838 69.6176 162.609 70.756 162.609 69.3899C162.609 68.9241 163.044 68.5929 163.716 68.5929C164.431 68.5929 164.814 68.9345 164.886 69.4416H165.673C165.59 68.4687 164.762 67.8892 163.768 67.8892C162.64 67.8892 161.822 68.4791 161.822 69.3899C161.822 71.5219 165.041 70.3731 165.041 71.8841C165.041 72.4327 164.596 72.8259 163.789 72.8259C163.002 72.8259 162.547 72.4844 162.454 71.8427H161.657C161.75 72.8466 162.474 73.5401 163.747 73.5401ZM167.87 67.0508C168.222 67.0508 168.47 66.7921 168.47 66.4506C168.47 66.1194 168.222 65.8606 167.87 65.8606C167.528 65.8606 167.28 66.1194 167.28 66.4506C167.28 66.7921 167.528 67.0508 167.87 67.0508ZM167.445 73.4055H168.263V68.0237H167.445V73.4055ZM171.803 73.5401C173.055 73.5401 173.893 72.857 173.893 71.8427C173.893 69.6176 170.664 70.756 170.664 69.3899C170.664 68.9241 171.099 68.5929 171.772 68.5929C172.486 68.5929 172.869 68.9345 172.941 69.4416H173.728C173.645 68.4687 172.817 67.8892 171.824 67.8892C170.695 67.8892 169.878 68.4791 169.878 69.3899C169.878 71.5219 173.097 70.3731 173.097 71.8841C173.097 72.4327 172.651 72.8259 171.844 72.8259C171.058 72.8259 170.602 72.4844 170.509 71.8427H169.712C169.805 72.8466 170.53 73.5401 171.803 73.5401ZM177.602 73.4055H178.399V72.6914H177.653C177.032 72.6914 176.815 72.3499 176.815 71.7703V68.7171H178.471V68.0237H176.815V66.4609H176.049V67.7546C176.049 67.9306 175.935 68.0237 175.791 68.0237H174.983V68.7171H175.997V71.7806C175.997 72.8673 176.608 73.4055 177.602 73.4055ZM182.184 73.5401C183.354 73.5401 183.912 72.7535 184.047 72.5568H184.109V73.4055H184.896V68.0237H184.078V68.8931H184.016C183.85 68.6136 183.25 67.8892 182.122 67.8892C180.601 67.8892 179.504 69.069 179.504 70.725C179.504 72.3706 180.601 73.5401 182.184 73.5401ZM182.236 72.8052C181.108 72.8052 180.342 71.9876 180.342 70.725C180.342 69.5037 181.108 68.6343 182.215 68.6343C183.281 68.6343 184.109 69.4002 184.109 70.725C184.109 71.8531 183.405 72.8052 182.236 72.8052ZM186.659 73.4055H187.477V70.1971C187.477 69.3071 188.139 68.655 188.988 68.655C189.743 68.655 190.374 69.2139 190.374 70.0729V73.4055H191.192V70.0212C191.192 68.831 190.437 67.8892 189.184 67.8892C188.346 67.8892 187.766 68.3239 187.539 68.8103H187.477V68.0237H186.659V73.4055ZM195.057 73.4055H195.853V72.6914H195.108C194.487 72.6914 194.27 72.3499 194.27 71.7703V68.7171H195.926V68.0237H194.27V66.4609H193.504V67.7546C193.504 67.9306 193.39 68.0237 193.245 68.0237H192.438V68.7171H193.452V71.7806C193.452 72.8673 194.063 73.4055 195.057 73.4055ZM197.657 73.5401C197.977 73.5401 198.236 73.2813 198.236 72.9605C198.236 72.6396 197.977 72.3809 197.657 72.3809C197.336 72.3809 197.067 72.6396 197.067 72.9605C197.067 73.2813 197.336 73.5401 197.657 73.5401ZM203.004 73.4055H203.843V66.1608H203.004V73.4055ZM40.7156 86.5401C41.8851 86.5401 42.444 85.7535 42.5785 85.5568H42.6406V86.4055H43.4272V81.0237H42.6096V81.8931H42.5475C42.3819 81.6136 41.7816 80.8892 40.6535 80.8892C39.1321 80.8892 38.0351 82.069 38.0351 83.725C38.0351 85.3706 39.1321 86.5401 40.7156 86.5401ZM40.7674 85.8052C39.6393 85.8052 38.8734 84.9876 38.8734 83.725C38.8734 82.5037 39.6393 81.6343 40.7467 81.6343C41.8127 81.6343 42.6406 82.4002 42.6406 83.725C42.6406 84.8531 41.9369 85.8052 40.7674 85.8052ZM45.1904 86.4055H46.0081V83.1661C46.0081 82.2553 46.6497 81.655 47.4053 81.655C48.1608 81.655 48.7404 82.1725 48.7404 83.0315V86.4055H49.558V83.1971C49.558 82.1932 50.2204 81.655 50.9759 81.655C51.7728 81.655 52.2799 82.1725 52.2799 83.1868V86.4055H53.0976V82.9177C53.0976 81.7378 52.3213 80.8892 51.1208 80.8892C50.3653 80.8892 49.7753 81.179 49.4131 81.8724H49.3406C49.0405 81.2825 48.4506 80.8892 47.6433 80.8892C46.8464 80.8892 46.3289 81.3032 46.0702 81.7999H46.0081V81.0237H45.1904V86.4055ZM57.7535 86.4055H58.5711V83.135C58.5711 82.2657 59.2749 81.655 60.1029 81.655C60.8584 81.655 61.5104 82.2139 61.5104 83.0729V86.4055H62.3281V83.0212C62.3281 81.831 61.5518 80.8892 60.2995 80.8892C59.4612 80.8892 58.8609 81.3239 58.6332 81.8103H58.5711V78.6433H57.7535V86.4055ZM66.3676 86.5401C67.6302 86.5401 68.572 85.8259 68.8722 84.822H68.0235C67.7751 85.4534 67.092 85.7949 66.3779 85.7949C65.2705 85.7949 64.5771 85.0808 64.5357 84.0044H68.9239V83.6422C68.9239 82.0897 67.9511 80.8892 66.3158 80.8892C64.8462 80.8892 63.6767 81.9966 63.6767 83.7146C63.6767 85.3292 64.722 86.5401 66.3676 86.5401ZM64.5564 83.2799C64.6392 82.2864 65.4154 81.6343 66.3158 81.6343C67.2266 81.6343 67.9821 82.2036 68.0545 83.2799H64.5564ZM70.3772 86.4055H71.1948V83.6318C71.1948 82.6072 71.7434 81.8413 72.7266 81.8413H73.1716V81.0237H72.7162C71.9297 81.0237 71.4018 81.5722 71.2466 82.0276H71.1845V81.0237H70.3772V86.4055ZM76.5959 86.5401C77.8585 86.5401 78.8004 85.8259 79.1005 84.822H78.2518C78.0034 85.4534 77.3204 85.7949 76.6062 85.7949C75.4988 85.7949 74.8054 85.0808 74.764 84.0044H79.1523V83.6422C79.1523 82.0897 78.1794 80.8892 76.5441 80.8892C75.0745 80.8892 73.905 81.9966 73.905 83.7146C73.905 85.3292 74.9503 86.5401 76.5959 86.5401ZM74.7847 83.2799C74.8675 82.2864 75.6437 81.6343 76.5441 81.6343C77.4549 81.6343 78.2104 82.2036 78.2829 83.2799H74.7847ZM85.6073 86.4055H86.4042V85.6914H85.659C85.038 85.6914 84.8207 85.3499 84.8207 84.7703V81.7171H86.4766V81.0237H84.8207V79.4609H84.0548V80.7546C84.0548 80.9306 83.941 81.0237 83.7961 81.0237H82.9888V81.7171H84.0031V84.7806C84.0031 85.8673 84.6137 86.4055 85.6073 86.4055ZM90.3138 86.5401C91.9284 86.5401 93.1289 85.3292 93.1289 83.7146C93.1289 82.1001 91.9491 80.8892 90.3242 80.8892C88.72 80.8892 87.5091 82.0897 87.5091 83.7146C87.5091 85.3499 88.6993 86.5401 90.3138 86.5401ZM90.3138 85.7949C89.165 85.7949 88.3474 84.9255 88.3474 83.7146C88.3474 82.5348 89.1547 81.6343 90.3138 81.6343C91.473 81.6343 92.2906 82.5244 92.2906 83.7146C92.2906 84.9152 91.473 85.7949 90.3138 85.7949ZM97.4742 86.4055H98.2919V83.135C98.2919 82.2657 98.9956 81.655 99.8236 81.655C100.579 81.655 101.231 82.2139 101.231 83.0729V86.4055H102.049V83.0212C102.049 81.831 101.273 80.8892 100.02 80.8892C99.1819 80.8892 98.5817 81.3239 98.354 81.8103H98.2919V78.6433H97.4742V86.4055ZM106.088 86.5401C107.351 86.5401 108.293 85.8259 108.593 84.822H107.744C107.496 85.4534 106.813 85.7949 106.099 85.7949C104.991 85.7949 104.298 85.0808 104.256 84.0044H108.645V83.6422C108.645 82.0897 107.672 80.8892 106.037 80.8892C104.567 80.8892 103.397 81.9966 103.397 83.7146C103.397 85.3292 104.443 86.5401 106.088 86.5401ZM104.277 83.2799C104.36 82.2864 105.136 81.6343 106.037 81.6343C106.947 81.6343 107.703 82.2036 107.775 83.2799H104.277ZM110.851 86.4055H111.244V85.681H110.996C110.737 85.681 110.602 85.5258 110.602 85.2567V78.6433H109.785V85.2567C109.785 85.9915 110.178 86.4055 110.851 86.4055ZM112.797 88.7859H113.614V85.5361H113.676C113.842 85.8156 114.442 86.5401 115.57 86.5401C117.092 86.5401 118.189 85.3602 118.189 83.7043C118.189 82.0587 117.092 80.8892 115.508 80.8892C114.339 80.8892 113.78 81.6757 113.645 81.8724H113.583V81.0237H112.797V88.7859ZM115.477 85.7949C114.411 85.7949 113.583 85.029 113.583 83.7043C113.583 82.5762 114.287 81.624 115.456 81.624C116.584 81.624 117.35 82.4416 117.35 83.7043C117.35 84.9255 116.584 85.7949 115.477 85.7949ZM122.447 88.7859H123.005C123.885 88.7859 124.31 88.3719 124.589 87.6371L127.156 81.0237H126.235L124.558 85.5775H124.496L122.83 81.0237H121.919L124.103 86.6953L123.854 87.3473C123.678 87.8131 123.378 88.0408 122.85 88.0408H122.447V88.7859ZM130.59 86.5401C132.205 86.5401 133.406 85.3292 133.406 83.7146C133.406 82.1001 132.226 80.8892 130.601 80.8892C128.997 80.8892 127.786 82.0897 127.786 83.7146C127.786 85.3499 128.976 86.5401 130.59 86.5401ZM130.59 85.7949C129.442 85.7949 128.624 84.9255 128.624 83.7146C128.624 82.5348 129.431 81.6343 130.59 81.6343C131.75 81.6343 132.567 82.5244 132.567 83.7146C132.567 84.9152 131.75 85.7949 130.59 85.7949ZM136.754 86.5401C137.593 86.5401 138.172 86.1054 138.4 85.6189H138.462V86.4055H139.28V81.0237H138.462V84.2528C138.462 85.1429 137.8 85.7949 136.951 85.7949C136.196 85.7949 135.564 85.236 135.564 84.377V81.0237H134.747V84.408C134.747 85.5982 135.502 86.5401 136.754 86.5401ZM144.992 86.4055H146.048L147.435 82.038H147.497L148.873 86.4055H149.929L151.616 81.0237H150.726L149.411 85.4741H149.349L147.931 81.0237H147L145.572 85.4741H145.51L144.205 81.0237H143.315L144.992 86.4055ZM153.285 80.0508C153.637 80.0508 153.886 79.7921 153.886 79.4506C153.886 79.1194 153.637 78.8606 153.285 78.8606C152.944 78.8606 152.695 79.1194 152.695 79.4506C152.695 79.7921 152.944 80.0508 153.285 80.0508ZM152.861 86.4055H153.679V81.0237H152.861V86.4055ZM157.539 86.4055H158.336V85.6914H157.591C156.97 85.6914 156.753 85.3499 156.753 84.7703V81.7171H158.409V81.0237H156.753V79.4609H155.987V80.7546C155.987 80.9306 155.873 81.0237 155.728 81.0237H154.921V81.7171H155.935V84.7806C155.935 85.8673 156.546 86.4055 157.539 86.4055ZM159.855 86.4055H160.673V83.135C160.673 82.2657 161.376 81.655 162.204 81.655C162.96 81.655 163.612 82.2139 163.612 83.0729V86.4055H164.43V83.0212C164.43 81.831 163.653 80.8892 162.401 80.8892C161.563 80.8892 160.962 81.3239 160.735 81.8103H160.673V78.6433H159.855V86.4055ZM169 88.7859H169.559C170.438 88.7859 170.863 88.3719 171.142 87.6371L173.709 81.0237H172.788L171.111 85.5775H171.049L169.383 81.0237H168.472L170.656 86.6953L170.407 87.3473C170.231 87.8131 169.931 88.0408 169.403 88.0408H169V88.7859ZM177.144 86.5401C178.758 86.5401 179.959 85.3292 179.959 83.7146C179.959 82.1001 178.779 80.8892 177.154 80.8892C175.55 80.8892 174.339 82.0897 174.339 83.7146C174.339 85.3499 175.529 86.5401 177.144 86.5401ZM177.144 85.7949C175.995 85.7949 175.177 84.9255 175.177 83.7146C175.177 82.5348 175.984 81.6343 177.144 81.6343C178.303 81.6343 179.12 82.5244 179.12 83.7146C179.12 84.9152 178.303 85.7949 177.144 85.7949ZM183.308 86.5401C184.146 86.5401 184.725 86.1054 184.953 85.6189H185.015V86.4055H185.833V81.0237H185.015V84.2528C185.015 85.1429 184.353 85.7949 183.504 85.7949C182.749 85.7949 182.117 85.236 182.117 84.377V81.0237H181.3V84.408C181.3 85.5982 182.055 86.5401 183.308 86.5401ZM187.589 86.4055H188.406V83.6318C188.406 82.6072 188.955 81.8413 189.938 81.8413H190.383V81.0237H189.928C189.141 81.0237 188.613 81.5722 188.458 82.0276H188.396V81.0237H187.589V86.4055ZM38.449 99.4055H39.2667V96.1661C39.2667 95.2553 39.9083 94.655 40.6639 94.655C41.4194 94.655 41.999 95.1725 41.999 96.0315V99.4055H42.8166V96.1971C42.8166 95.1932 43.479 94.655 44.2345 94.655C45.0314 94.655 45.5385 95.1725 45.5385 96.1868V99.4055H46.3562V95.9177C46.3562 94.7378 45.5799 93.8892 44.3794 93.8892C43.6239 93.8892 43.0339 94.179 42.6717 94.8724H42.5992C42.2991 94.2825 41.7092 93.8892 40.9019 93.8892C40.105 93.8892 39.5875 94.3032 39.3288 94.7999H39.2667V94.0237H38.449V99.4055ZM50.5022 99.5401C52.1167 99.5401 53.3172 98.3292 53.3172 96.7146C53.3172 95.1001 52.1374 93.8892 50.5125 93.8892C48.9083 93.8892 47.6974 95.0897 47.6974 96.7146C47.6974 98.3499 48.8876 99.5401 50.5022 99.5401ZM50.5022 98.7949C49.3533 98.7949 48.5357 97.9255 48.5357 96.7146C48.5357 95.5348 49.343 94.6343 50.5022 94.6343C51.6613 94.6343 52.4789 95.5244 52.4789 96.7146C52.4789 97.9152 51.6613 98.7949 50.5022 98.7949ZM56.542 99.5401C57.7943 99.5401 58.6326 98.857 58.6326 97.8427C58.6326 95.6176 55.4035 96.756 55.4035 95.3899C55.4035 94.9241 55.8382 94.5929 56.5109 94.5929C57.225 94.5929 57.608 94.9345 57.6804 95.4416H58.467C58.3842 94.4687 57.5562 93.8892 56.5627 93.8892C55.4346 93.8892 54.6169 94.4791 54.6169 95.3899C54.6169 97.5219 57.8357 96.3731 57.8357 97.8841C57.8357 98.4327 57.3906 98.8259 56.5834 98.8259C55.7968 98.8259 55.3414 98.4844 55.2483 97.8427H54.4513C54.5445 98.8466 55.269 99.5401 56.542 99.5401ZM62.3408 99.4055H63.1377V98.6914H62.3926C61.7716 98.6914 61.5543 98.3499 61.5543 97.7703V94.7171H63.2102V94.0237H61.5543V92.4609H60.7884V93.7546C60.7884 93.9306 60.6745 94.0237 60.5296 94.0237H59.7224V94.7171H60.7366V97.7806C60.7366 98.8673 61.3473 99.4055 62.3408 99.4055ZM69.9067 99.5401C71.0762 99.5401 72.1733 98.8363 72.4527 97.6357H71.6144C71.4074 98.3395 70.714 98.7949 69.9378 98.7949C68.8097 98.7949 67.992 97.9255 67.992 96.7146C67.992 95.5451 68.7683 94.6343 69.9171 94.6343C70.6933 94.6343 71.3764 95.0897 71.5937 95.7935H72.4424C72.1526 94.5929 71.0659 93.8892 69.8964 93.8892C68.3129 93.8892 67.1434 95.1208 67.1434 96.7146C67.1434 98.3085 68.2818 99.5401 69.9067 99.5401ZM76.2954 99.5401C77.9099 99.5401 79.1105 98.3292 79.1105 96.7146C79.1105 95.1001 77.9306 93.8892 76.3057 93.8892C74.7015 93.8892 73.4906 95.0897 73.4906 96.7146C73.4906 98.3499 74.6808 99.5401 76.2954 99.5401ZM76.2954 98.7949C75.1465 98.7949 74.3289 97.9255 74.3289 96.7146C74.3289 95.5348 75.1362 94.6343 76.2954 94.6343C77.4545 94.6343 78.2721 95.5244 78.2721 96.7146C78.2721 97.9152 77.4545 98.7949 76.2954 98.7949ZM80.555 99.4055H81.3727V96.1661C81.3727 95.2553 82.0143 94.655 82.7699 94.655C83.5254 94.655 84.105 95.1725 84.105 96.0315V99.4055H84.9226V96.1971C84.9226 95.1932 85.5849 94.655 86.3405 94.655C87.1374 94.655 87.6445 95.1725 87.6445 96.1868V99.4055H88.4621V95.9177C88.4621 94.7378 87.6859 93.8892 86.4854 93.8892C85.7298 93.8892 85.1399 94.179 84.7777 94.8724H84.7052C84.4051 94.2825 83.8152 93.8892 83.0079 93.8892C82.211 93.8892 81.6935 94.3032 81.4347 94.7999H81.3727V94.0237H80.555V99.4055ZM90.2174 99.4055H91.035V96.1661C91.035 95.2553 91.6767 94.655 92.4322 94.655C93.1877 94.655 93.7673 95.1725 93.7673 96.0315V99.4055H94.5849V96.1971C94.5849 95.1932 95.2473 94.655 96.0028 94.655C96.7997 94.655 97.3069 95.1725 97.3069 96.1868V99.4055H98.1245V95.9177C98.1245 94.7378 97.3483 93.8892 96.1477 93.8892C95.3922 93.8892 94.8023 94.179 94.44 94.8724H94.3676C94.0674 94.2825 93.4775 93.8892 92.6702 93.8892C91.8733 93.8892 91.3558 94.3032 91.0971 94.7999H91.035V94.0237H90.2174V99.4055ZM102.27 99.5401C103.885 99.5401 105.086 98.3292 105.086 96.7146C105.086 95.1001 103.906 93.8892 102.281 93.8892C100.677 93.8892 99.4657 95.0897 99.4657 96.7146C99.4657 98.3499 100.656 99.5401 102.27 99.5401ZM102.27 98.7949C101.122 98.7949 100.304 97.9255 100.304 96.7146C100.304 95.5348 101.111 94.6343 102.27 94.6343C103.43 94.6343 104.247 95.5244 104.247 96.7146C104.247 97.9152 103.43 98.7949 102.27 98.7949ZM106.53 99.4055H107.348V96.1971C107.348 95.3071 108.01 94.655 108.859 94.655C109.614 94.655 110.246 95.2139 110.246 96.0729V99.4055H111.063V96.0212C111.063 94.831 110.308 93.8892 109.055 93.8892C108.217 93.8892 107.638 94.3239 107.41 94.8103H107.348V94.0237H106.53V99.4055ZM119.888 101.786H120.706V94.0237H119.919V94.8724H119.857C119.723 94.6757 119.164 93.8892 117.994 93.8892C116.411 93.8892 115.314 95.0587 115.314 96.7043C115.314 98.3602 116.411 99.5401 117.932 99.5401C119.06 99.5401 119.66 98.8156 119.826 98.5361H119.888V101.786ZM118.025 98.7949C116.918 98.7949 116.152 97.9255 116.152 96.7043C116.152 95.4416 116.918 94.624 118.046 94.624C119.215 94.624 119.919 95.5762 119.919 96.7043C119.919 98.029 119.091 98.7949 118.025 98.7949ZM124.373 99.5401C125.212 99.5401 125.791 99.1054 126.019 98.6189H126.081V99.4055H126.899V94.0237H126.081V97.2528C126.081 98.1429 125.419 98.7949 124.57 98.7949C123.814 98.7949 123.183 98.236 123.183 97.377V94.0237H122.365V97.408C122.365 98.5982 123.121 99.5401 124.373 99.5401ZM130.931 99.5401C132.194 99.5401 133.136 98.8259 133.436 97.822H132.587C132.339 98.4534 131.656 98.7949 130.942 98.7949C129.834 98.7949 129.141 98.0808 129.1 97.0044H133.488V96.6422C133.488 95.0897 132.515 93.8892 130.88 93.8892C129.41 93.8892 128.241 94.9966 128.241 96.7146C128.241 98.3292 129.286 99.5401 130.931 99.5401ZM129.12 96.2799C129.203 95.2864 129.979 94.6343 130.88 94.6343C131.79 94.6343 132.546 95.2036 132.618 96.2799H129.12ZM134.941 99.4055H135.759V96.6318C135.759 95.6072 136.307 94.8413 137.29 94.8413H137.735V94.0237H137.28C136.494 94.0237 135.966 94.5722 135.81 95.0276H135.748V94.0237H134.941V99.4055ZM139.509 93.0508C139.861 93.0508 140.11 92.7921 140.11 92.4506C140.11 92.1194 139.861 91.8606 139.509 91.8606C139.168 91.8606 138.919 92.1194 138.919 92.4506C138.919 92.7921 139.168 93.0508 139.509 93.0508ZM139.085 99.4055H139.903V94.0237H139.085V99.4055ZM143.939 99.5401C145.202 99.5401 146.144 98.8259 146.444 97.822H145.595C145.347 98.4534 144.664 98.7949 143.95 98.7949C142.842 98.7949 142.149 98.0808 142.107 97.0044H146.496V96.6422C146.496 95.0897 145.523 93.8892 143.887 93.8892C142.418 93.8892 141.248 94.9966 141.248 96.7146C141.248 98.3292 142.294 99.5401 143.939 99.5401ZM142.128 96.2799C142.211 95.2864 142.987 94.6343 143.887 94.6343C144.798 94.6343 145.554 95.2036 145.626 96.2799H142.128ZM149.729 99.5401C150.981 99.5401 151.82 98.857 151.82 97.8427C151.82 95.6176 148.591 96.756 148.591 95.3899C148.591 94.9241 149.025 94.5929 149.698 94.5929C150.412 94.5929 150.795 94.9345 150.867 95.4416H151.654C151.571 94.4687 150.743 93.8892 149.75 93.8892C148.622 93.8892 147.804 94.4791 147.804 95.3899C147.804 97.5219 151.023 96.3731 151.023 97.8841C151.023 98.4327 150.578 98.8259 149.77 98.8259C148.984 98.8259 148.528 98.4844 148.435 97.8427H147.638C147.732 98.8466 148.456 99.5401 149.729 99.5401ZM153.711 99.5401C154.032 99.5401 154.291 99.2813 154.291 98.9605C154.291 98.6396 154.032 98.3809 153.711 98.3809C153.39 98.3809 153.121 98.6396 153.121 98.9605C153.121 99.2813 153.39 99.5401 153.711 99.5401Z" fill="#2D2D2D"/>
</g>
<g filter="url(#filter1_d_658_32623)">
<rect x="10.3496" y="336.978" width="195.349" height="31.0489" rx="6.46851" fill="white"/>
<path d="M30.9689 352.736C30.9058 352.737 30.8451 352.713 30.7994 352.67L30.5897 352.46L29.7617 351.634V352.804V357.597C29.7617 357.661 29.7362 357.722 29.6906 357.768C29.645 357.813 29.5829 357.839 29.518 357.839H28.0604C27.9955 357.839 27.9335 357.813 27.8878 357.768C27.8422 357.722 27.8167 357.661 27.8167 357.597V356.141C27.8167 355.819 27.6886 355.511 27.4609 355.283C27.2332 355.056 26.9245 354.928 26.6027 354.928H25.1451C24.8234 354.928 24.5147 355.056 24.2869 355.283C24.0592 355.511 23.9311 355.819 23.9311 356.141V357.597C23.9311 357.661 23.9056 357.722 23.86 357.768C23.8144 357.813 23.7523 357.839 23.6874 357.839H22.2298C22.1649 357.839 22.1028 357.813 22.0572 357.768C22.0116 357.722 21.9861 357.661 21.9861 357.597V352.804V351.634L21.1582 352.46L20.9484 352.67C20.9027 352.713 20.842 352.737 20.7789 352.736C20.7148 352.736 20.6536 352.71 20.6085 352.665C20.5634 352.62 20.5379 352.559 20.5374 352.496C20.5369 352.433 20.5604 352.373 20.6034 352.328L25.7014 347.237C25.7014 347.237 25.7014 347.237 25.7014 347.237C25.747 347.192 25.8091 347.166 25.8739 347.166C25.9387 347.166 26.0008 347.192 26.0464 347.237C26.0464 347.237 26.0464 347.237 26.0465 347.237L31.1444 352.328C31.1874 352.373 31.211 352.433 31.2104 352.496C31.2099 352.559 31.1844 352.62 31.1393 352.665C31.0942 352.71 31.033 352.736 30.9689 352.736Z" stroke="#3884FD" stroke-width="0.970277"/>
<line x1="41.7219" y1="342.153" x2="41.7219" y2="362.852" stroke="#EBEBEB" stroke-width="0.646851"/>
<path d="M49.4323 355.502L51.7688 349.163H52.5747L54.9021 355.502H54.0961L53.5165 353.872H50.8179L50.2292 355.502H49.4323ZM51.0443 353.257H53.2901L52.1672 350.123L51.0443 353.257ZM57.5198 355.611C56.9825 355.611 56.5357 355.475 56.1796 355.204C55.8234 354.932 55.6151 354.564 55.5547 354.099H56.3335C56.3818 354.334 56.5056 354.539 56.7048 354.715C56.9101 354.884 57.1848 354.968 57.5289 354.968C57.8489 354.968 58.0843 354.902 58.2352 354.769C58.3862 354.63 58.4616 354.467 58.4616 354.28C58.4616 354.008 58.362 353.827 58.1628 353.737C57.9696 353.646 57.6949 353.564 57.3387 353.492C57.0972 353.444 56.8557 353.374 56.6142 353.284C56.3727 353.193 56.1705 353.066 56.0075 352.903C55.8445 352.734 55.763 352.514 55.763 352.242C55.763 351.85 55.9079 351.53 56.1977 351.282C56.4935 351.029 56.8919 350.902 57.393 350.902C57.87 350.902 58.2594 351.023 58.5613 351.264C58.8692 351.5 59.0473 351.838 59.0956 352.279H58.3439C58.3137 352.049 58.2141 351.871 58.0451 351.744C57.8821 351.611 57.6617 351.545 57.384 351.545C57.1123 351.545 56.901 351.602 56.7501 351.717C56.6052 351.832 56.5327 351.983 56.5327 352.17C56.5327 352.351 56.6263 352.493 56.8135 352.595C57.0067 352.698 57.2663 352.786 57.5923 352.858C57.87 352.918 58.1326 352.994 58.3801 353.085C58.6337 353.169 58.839 353.299 58.9959 353.474C59.1589 353.643 59.2405 353.89 59.2405 354.217C59.2465 354.621 59.0925 354.956 58.7786 355.222C58.4707 355.481 58.0511 355.611 57.5198 355.611ZM60.3272 355.502V348.982H61.0879V352.903L62.9262 351.011H63.859L61.8667 353.039L64.1125 355.502H63.1436L61.0879 353.175V355.502H60.3272ZM69.0078 355.611C68.4704 355.611 68.0237 355.475 67.6675 355.204C67.3113 354.932 67.103 354.564 67.0426 354.099H67.8214C67.8697 354.334 67.9935 354.539 68.1927 354.715C68.398 354.884 68.6727 354.968 69.0168 354.968C69.3368 354.968 69.5722 354.902 69.7232 354.769C69.8741 354.63 69.9496 354.467 69.9496 354.28C69.9496 354.008 69.85 353.827 69.6507 353.737C69.4575 353.646 69.1828 353.564 68.8266 353.492C68.5851 353.444 68.3437 353.374 68.1022 353.284C67.8607 353.193 67.6584 353.066 67.4954 352.903C67.3324 352.734 67.2509 352.514 67.2509 352.242C67.2509 351.85 67.3958 351.53 67.6856 351.282C67.9814 351.029 68.3799 350.902 68.881 350.902C69.3579 350.902 69.7473 351.023 70.0492 351.264C70.3571 351.5 70.5352 351.838 70.5835 352.279H69.8318C69.8017 352.049 69.702 351.871 69.533 351.744C69.37 351.611 69.1496 351.545 68.8719 351.545C68.6002 351.545 68.3889 351.602 68.238 351.717C68.0931 351.832 68.0207 351.983 68.0207 352.17C68.0207 352.351 68.1142 352.493 68.3014 352.595C68.4946 352.698 68.7542 352.786 69.0802 352.858C69.3579 352.918 69.6205 352.994 69.8681 353.085C70.1216 353.169 70.3269 353.299 70.4839 353.474C70.6469 353.643 70.7284 353.89 70.7284 354.217C70.7344 354.621 70.5805 354.956 70.2665 355.222C69.9586 355.481 69.539 355.611 69.0078 355.611ZM73.8617 355.611C73.4391 355.611 73.0588 355.515 72.7207 355.321C72.3826 355.128 72.1139 354.856 71.9147 354.506C71.7215 354.15 71.6249 353.734 71.6249 353.257C71.6249 352.78 71.7245 352.366 71.9238 352.016C72.123 351.66 72.3917 351.385 72.7297 351.192C73.0739 350.999 73.4572 350.902 73.8798 350.902C74.3025 350.902 74.6828 350.999 75.0209 351.192C75.359 351.385 75.6246 351.66 75.8178 352.016C76.017 352.366 76.1167 352.78 76.1167 353.257C76.1167 353.734 76.017 354.15 75.8178 354.506C75.6186 354.856 75.3469 355.128 75.0028 355.321C74.6647 355.515 74.2843 355.611 73.8617 355.611ZM73.8617 354.959C74.1213 354.959 74.3628 354.896 74.5862 354.769C74.8096 354.642 74.9907 354.452 75.1296 354.198C75.2684 353.945 75.3378 353.631 75.3378 353.257C75.3378 352.882 75.2684 352.568 75.1296 352.315C74.9967 352.061 74.8186 351.871 74.5953 351.744C74.3719 351.617 74.1334 351.554 73.8798 351.554C73.6202 351.554 73.3787 351.617 73.1554 351.744C72.932 351.871 72.7509 352.061 72.612 352.315C72.4732 352.568 72.4037 352.882 72.4037 353.257C72.4037 353.631 72.4732 353.945 72.612 354.198C72.7509 354.452 72.929 354.642 73.1463 354.769C73.3697 354.896 73.6082 354.959 73.8617 354.959ZM77.1744 355.502V351.011H77.8626L77.9169 351.663C78.0618 351.421 78.255 351.234 78.4965 351.101C78.738 350.968 79.0097 350.902 79.3116 350.902C79.6678 350.902 79.9726 350.974 80.2262 351.119C80.4858 351.264 80.685 351.485 80.8239 351.78C80.9809 351.509 81.1952 351.294 81.4669 351.137C81.7446 350.981 82.0434 350.902 82.3634 350.902C82.9007 350.902 83.3294 351.065 83.6493 351.391C83.9693 351.711 84.1293 352.206 84.1293 352.876V355.502H83.3777V352.958C83.3777 352.493 83.2841 352.143 83.0969 351.907C82.9098 351.672 82.6411 351.554 82.291 351.554C81.9287 351.554 81.6269 351.696 81.3854 351.98C81.1499 352.257 81.0322 352.656 81.0322 353.175V355.502H80.2715V352.958C80.2715 352.493 80.1779 352.143 79.9908 351.907C79.8036 351.672 79.5349 351.554 79.1848 351.554C78.8286 351.554 78.5297 351.696 78.2882 351.98C78.0528 352.257 77.9351 352.656 77.9351 353.175V355.502H77.1744ZM87.2946 355.611C86.866 355.611 86.4856 355.515 86.1536 355.321C85.8215 355.122 85.5589 354.847 85.3657 354.497C85.1786 354.147 85.085 353.734 85.085 353.257C85.085 352.786 85.1786 352.375 85.3657 352.025C85.5529 351.669 85.8125 351.394 86.1445 351.201C86.4826 351.002 86.872 350.902 87.3127 350.902C87.7474 350.902 88.1217 351.002 88.4357 351.201C88.7557 351.394 89.0002 351.651 89.1692 351.971C89.3383 352.291 89.4228 352.635 89.4228 353.003C89.4228 353.069 89.4198 353.136 89.4137 353.202C89.4137 353.269 89.4137 353.344 89.4137 353.429H85.8366C85.8547 353.773 85.9332 354.06 86.0721 354.289C86.217 354.512 86.3951 354.681 86.6064 354.796C86.8237 354.911 87.0531 354.968 87.2946 354.968C87.6086 354.968 87.8712 354.896 88.0825 354.751C88.2938 354.606 88.4478 354.41 88.5444 354.162H89.296C89.1752 354.579 88.9428 354.926 88.5987 355.204C88.2606 355.475 87.8259 355.611 87.2946 355.611ZM87.2946 351.545C86.9324 351.545 86.6094 351.657 86.3257 351.88C86.0479 352.097 85.8879 352.417 85.8457 352.84H88.6711C88.653 352.436 88.5142 352.119 88.2546 351.889C87.995 351.66 87.675 351.545 87.2946 351.545ZM92.0556 355.502C91.6451 355.502 91.3221 355.403 91.0867 355.204C90.8512 355.004 90.7335 354.645 90.7335 354.126V351.654H89.9547V351.011H90.7335L90.8331 349.933H91.4942V351.011H92.8163V351.654H91.4942V354.126C91.4942 354.41 91.5515 354.603 91.6662 354.706C91.7809 354.802 91.9832 354.85 92.273 354.85H92.7439V355.502H92.0556ZM93.7828 355.502V348.982H94.5435V351.78C94.6944 351.503 94.9087 351.288 95.1864 351.137C95.4642 350.981 95.766 350.902 96.092 350.902C96.6112 350.902 97.0278 351.065 97.3418 351.391C97.6557 351.711 97.8127 352.206 97.8127 352.876V355.502H97.061V352.958C97.061 352.022 96.6837 351.554 95.929 351.554C95.5366 351.554 95.2076 351.696 94.9419 351.98C94.6763 352.257 94.5435 352.656 94.5435 353.175V355.502H93.7828ZM99.427 350.015C99.2761 350.015 99.1493 349.966 99.0467 349.87C98.9501 349.767 98.9018 349.64 98.9018 349.489C98.9018 349.344 98.9501 349.224 99.0467 349.127C99.1493 349.03 99.2761 348.982 99.427 348.982C99.5719 348.982 99.6957 349.03 99.7983 349.127C99.901 349.224 99.9523 349.344 99.9523 349.489C99.9523 349.64 99.901 349.767 99.7983 349.87C99.6957 349.966 99.5719 350.015 99.427 350.015ZM99.0467 355.502V351.011H99.8074V355.502H99.0467ZM101.132 355.502V351.011H101.82L101.865 351.817C102.01 351.533 102.219 351.31 102.49 351.147C102.762 350.984 103.07 350.902 103.414 350.902C103.945 350.902 104.368 351.065 104.682 351.391C105.002 351.711 105.162 352.206 105.162 352.876V355.502H104.401V352.958C104.401 352.022 104.015 351.554 103.242 351.554C102.856 351.554 102.533 351.696 102.273 351.98C102.019 352.257 101.893 352.656 101.893 353.175V355.502H101.132ZM108.089 354.09C107.836 354.09 107.603 354.057 107.392 353.99L106.939 354.416C107.006 354.464 107.087 354.506 107.184 354.543C107.286 354.573 107.431 354.603 107.618 354.633C107.805 354.657 108.068 354.684 108.406 354.715C109.01 354.757 109.442 354.896 109.701 355.131C109.961 355.367 110.091 355.675 110.091 356.055C110.091 356.314 110.018 356.562 109.873 356.797C109.734 357.033 109.517 357.226 109.221 357.377C108.931 357.528 108.557 357.603 108.098 357.603C107.694 357.603 107.335 357.549 107.021 357.44C106.707 357.338 106.462 357.178 106.287 356.96C106.112 356.749 106.024 356.48 106.024 356.154C106.024 355.985 106.07 355.801 106.16 355.602C106.251 355.409 106.42 355.225 106.667 355.05C106.535 354.995 106.42 354.938 106.323 354.878C106.233 354.811 106.148 354.739 106.07 354.66V354.452L106.84 353.691C106.483 353.389 106.305 352.991 106.305 352.496C106.305 352.2 106.375 351.931 106.513 351.69C106.652 351.448 106.855 351.258 107.12 351.119C107.386 350.974 107.709 350.902 108.089 350.902C108.349 350.902 108.584 350.938 108.796 351.011H110.453V351.581L109.611 351.617C109.786 351.871 109.873 352.164 109.873 352.496C109.873 352.792 109.801 353.06 109.656 353.302C109.517 353.543 109.315 353.737 109.049 353.881C108.79 354.02 108.47 354.09 108.089 354.09ZM108.089 353.465C108.409 353.465 108.663 353.383 108.85 353.22C109.043 353.051 109.14 352.81 109.14 352.496C109.14 352.188 109.043 351.953 108.85 351.79C108.663 351.62 108.409 351.536 108.089 351.536C107.763 351.536 107.504 351.62 107.31 351.79C107.123 351.953 107.03 352.188 107.03 352.496C107.03 352.81 107.123 353.051 107.31 353.22C107.504 353.383 107.763 353.465 108.089 353.465ZM106.767 356.082C106.767 356.384 106.894 356.607 107.147 356.752C107.401 356.903 107.718 356.979 108.098 356.979C108.473 356.979 108.771 356.897 108.995 356.734C109.224 356.571 109.339 356.354 109.339 356.082C109.339 355.889 109.26 355.72 109.103 355.575C108.947 355.436 108.657 355.355 108.234 355.33C107.902 355.306 107.615 355.276 107.374 355.24C107.126 355.373 106.963 355.515 106.885 355.665C106.806 355.822 106.767 355.961 106.767 356.082Z" fill="#CBCACA"/>
<g clip-path="url(#clip3_658_32623)">
<path d="M194.056 346.988C193.67 346.988 193.299 347.141 193.026 347.414C192.753 347.687 192.6 348.057 192.6 348.443V352.324C192.6 352.71 192.753 353.08 193.026 353.353C193.299 353.626 193.67 353.779 194.056 353.779C194.442 353.779 194.812 353.626 195.085 353.353C195.358 353.08 195.511 352.71 195.511 352.324V348.443C195.511 348.057 195.358 347.687 195.085 347.414C194.812 347.141 194.442 346.988 194.056 346.988V346.988Z" stroke="#64748B" stroke-width="0.646851" stroke-linecap="round" stroke-linejoin="round"/>
<path d="M197.452 351.354V352.324C197.452 353.225 197.094 354.089 196.457 354.726C195.82 355.362 194.956 355.72 194.056 355.72C193.155 355.72 192.291 355.362 191.654 354.726C191.017 354.089 190.66 353.225 190.66 352.324V351.354" stroke="#64748B" stroke-width="0.646851" stroke-linecap="round" stroke-linejoin="round"/>
<path d="M194.055 355.72V357.661" stroke="#64748B" stroke-width="0.646851" stroke-linecap="round" stroke-linejoin="round"/>
<path d="M192.115 357.661H195.996" stroke="#64748B" stroke-width="0.646851" stroke-linecap="round" stroke-linejoin="round"/>
</g>
</g>
<g filter="url(#filter2_d_658_32623)">
<rect x="210.874" y="336.978" width="31.0489" height="31.0489" rx="6.46851" fill="white"/>
<path d="M226.402 353.257C225.985 353.259 225.646 352.922 225.644 352.505C225.642 352.089 225.979 351.749 226.396 351.748C226.813 351.746 227.152 352.083 227.153 352.5C227.155 352.916 226.818 353.255 226.402 353.257Z" stroke="#3884FD" stroke-width="0.646851"/>
<circle cx="226.383" cy="348.729" r="0.75466" transform="rotate(89.7769 226.383 348.729)" stroke="#3884FD" stroke-width="0.646851"/>
<path d="M226.416 357.03C226 357.032 225.66 356.695 225.659 356.279C225.657 355.862 225.994 355.523 226.41 355.521C226.827 355.519 227.166 355.856 227.168 356.273C227.17 356.689 226.833 357.029 226.416 357.03Z" stroke="#3884FD" stroke-width="0.646851"/>
</g>
</g>
<defs>
<filter id="filter0_dd_658_32623" x="25.874" y="53.0559" width="203.758" height="62.2866" filterUnits="userSpaceOnUse" color-interpolation-filters="sRGB">
<feFlood flood-opacity="0" result="BackgroundImageFix"/>
<feColorMatrix in="SourceAlpha" type="matrix" values="0 0 0 0 0 0 0 0 0 0 0 0 0 0 0 0 0 0 127 0" result="hardAlpha"/>
<feOffset dy="1.2937"/>
<feGaussianBlur stdDeviation="2.58741"/>
<feColorMatrix type="matrix" values="0 0 0 0 0 0 0 0 0 0.12549 0 0 0 0 0.2 0 0 0 0.16 0"/>
<feBlend mode="normal" in2="BackgroundImageFix" result="effect1_dropShadow_658_32623"/>
<feColorMatrix in="SourceAlpha" type="matrix" values="0 0 0 0 0 0 0 0 0 0 0 0 0 0 0 0 0 0 127 0" result="hardAlpha"/>
<feOffset dy="1.2937"/>
<feGaussianBlur stdDeviation="0.646851"/>
<feColorMatrix type="matrix" values="0 0 0 0 0 0 0 0 0 0.12549 0 0 0 0 0.2 0 0 0 0.02 0"/>
<feBlend mode="normal" in2="effect1_dropShadow_658_32623" result="effect2_dropShadow_658_32623"/>
<feBlend mode="normal" in="SourceGraphic" in2="effect2_dropShadow_658_32623" result="shape"/>
</filter>
<filter id="filter1_d_658_32623" x="7.11535" y="334.391" width="201.818" height="37.5173" filterUnits="userSpaceOnUse" color-interpolation-filters="sRGB">
<feFlood flood-opacity="0" result="BackgroundImageFix"/>
<feColorMatrix in="SourceAlpha" type="matrix" values="0 0 0 0 0 0 0 0 0 0 0 0 0 0 0 0 0 0 127 0" result="hardAlpha"/>
<feOffset dy="0.646851"/>
<feGaussianBlur stdDeviation="1.61713"/>
<feComposite in2="hardAlpha" operator="out"/>
<feColorMatrix type="matrix" values="0 0 0 0 0 0 0 0 0 0 0 0 0 0 0 0 0 0 0.25 0"/>
<feBlend mode="normal" in2="BackgroundImageFix" result="effect1_dropShadow_658_32623"/>
<feBlend mode="normal" in="SourceGraphic" in2="effect1_dropShadow_658_32623" result="shape"/>
</filter>
<filter id="filter2_d_658_32623" x="207.639" y="334.391" width="37.5173" height="37.5173" filterUnits="userSpaceOnUse" color-interpolation-filters="sRGB">
<feFlood flood-opacity="0" result="BackgroundImageFix"/>
<feColorMatrix in="SourceAlpha" type="matrix" values="0 0 0 0 0 0 0 0 0 0 0 0 0 0 0 0 0 0 127 0" result="hardAlpha"/>
<feOffset dy="0.646851"/>
<feGaussianBlur stdDeviation="1.61713"/>
<feComposite in2="hardAlpha" operator="out"/>
<feColorMatrix type="matrix" values="0 0 0 0 0 0 0 0 0 0 0 0 0 0 0 0 0 0 0.25 0"/>
<feBlend mode="normal" in2="BackgroundImageFix" result="effect1_dropShadow_658_32623"/>
<feBlend mode="normal" in="SourceGraphic" in2="effect1_dropShadow_658_32623" result="shape"/>
</filter>
<clipPath id="clip0_658_32623">
<rect width="257" height="400" fill="white" transform="translate(0 0.0141602)"/>
</clipPath>
<clipPath id="clip1_658_32623">
<rect width="11.6433" height="11.6433" fill="white" transform="translate(195.35 18.126)"/>
</clipPath>
<clipPath id="clip2_658_32623">
<rect width="11.6433" height="11.6433" fill="white" transform="translate(172.997 15.0701)"/>
</clipPath>
<clipPath id="clip3_658_32623">
<rect width="11.6433" height="11.6433" fill="white" transform="translate(188.234 346.502)"/>
</clipPath>
</defs>
</svg>
