<svg width="48" height="48" viewBox="0 0 48 48" fill="none" xmlns="http://www.w3.org/2000/svg">
<circle cx="24" cy="24" r="24" fill="#FFD271"/>
<path fill-rule="evenodd" clip-rule="evenodd" d="M14.2769 13.5682C13.7443 13.7019 13.2642 13.9756 12.8593 14.3765C11.7136 15.5106 11.7136 17.4248 12.8593 18.5704C14.0051 19.7162 15.911 19.7162 17.0568 18.5704C18.2027 17.4246 18.2027 15.5186 17.0568 14.3728C16.3754 13.6914 15.1727 13.3432 14.2769 13.5682ZM32.2769 13.5682C31.7443 13.7019 31.2642 13.9756 30.8593 14.3765C29.7136 15.5106 29.7136 17.4248 30.8593 18.5704C32.0051 19.7162 33.911 19.7162 35.0568 18.5704C36.2027 17.4246 36.2027 15.5186 35.0568 14.3728C34.3754 13.6914 33.1727 13.3432 32.2769 13.5682ZM15.7983 31.6826C15.348 31.9096 14.9581 32.5078 14.9581 32.9716C14.9581 33.4354 15.348 34.0336 15.7983 34.2607L16.2166 34.4716H23.9581H31.6996L32.1179 34.2607C32.5682 34.0336 32.9581 33.4354 32.9581 32.9716C32.9581 32.5078 32.5682 31.9096 32.1179 31.6826L31.6996 31.4716H23.9581H16.2166L15.7983 31.6826Z" fill="#6D4C41"/>
</svg>
