<svg width="93" height="93" viewBox="0 0 93 93" fill="none" xmlns="http://www.w3.org/2000/svg">
<path d="M25.3527 60.2395H22.3809V54.7221C22.3827 53.1716 22.9922 51.6852 24.0757 50.5889C25.1593 49.4926 26.6283 48.876 28.1606 48.8744H41.7066C42.4511 48.8735 43.1648 48.5738 43.6912 48.0411C44.2176 47.5083 44.5137 46.7861 44.5145 46.0327V42.5449H47.4863V46.0327C47.4846 47.5834 46.8751 49.07 45.7916 50.1665C44.7081 51.2631 43.239 51.88 41.7066 51.882H28.1606C27.4163 51.8828 26.7027 52.1822 26.1764 52.7147C25.65 53.2471 25.3538 53.9691 25.3527 54.7222V60.2395Z" fill="#88CFFD"/>
<path d="M69.6185 60.2394H66.6466V54.7221C66.6457 53.9692 66.3497 53.2474 65.8236 52.715C65.2975 52.1825 64.5843 51.8829 63.8402 51.8818H50.2927C48.7604 51.8798 47.2915 51.2628 46.2083 50.1663C45.125 49.0697 44.5158 47.5831 44.5144 46.0326V42.5448H47.4863V46.0326C47.4869 46.7857 47.7828 47.5079 48.3089 48.0406C48.835 48.5733 49.5484 48.8731 50.2927 48.8743H63.8401C65.3722 48.876 66.8411 49.4927 67.9244 50.589C69.0077 51.6854 69.6169 53.1718 69.6184 54.7221L69.6185 60.2394Z" fill="#88CFFD"/>
<path d="M47.4863 40.5168H44.5144V60.2394H47.4863V40.5168Z" fill="#88CFFD"/>
<path d="M25.3527 59.6902H22.3809V79.4128H25.3527V59.6902Z" fill="#88CFFD"/>
<path d="M69.6183 59.6902H66.6465V79.4128H69.6183V59.6902Z" fill="#88CFFD"/>
<path d="M47.4863 12.657H44.5144V38.8104H47.4863V12.657Z" fill="#88CFFD"/>
<path d="M15.9812 41.9631C14.263 41.9579 12.6169 41.2632 11.4042 40.0315C10.1914 38.7997 9.51101 37.1315 9.51222 35.3928L9.4861 33.1459C9.48054 29.157 10.6407 25.2555 12.8206 21.932C15.0006 18.6085 18.103 16.0115 21.7378 14.4675C29.4172 11.1915 37.6669 9.50378 46.0008 9.50378C54.3348 9.50378 62.5845 11.1915 70.2639 14.4675C73.8959 16.0098 76.9964 18.6039 79.1759 21.9238C81.3554 25.2436 82.5168 29.1412 82.5141 33.1269L82.4952 35.4031C82.4856 37.1372 81.7998 38.7972 80.5871 40.0224C79.3743 41.2475 77.7326 41.9387 76.0189 41.9455H76.0117C75.5052 41.9492 75 41.895 74.5055 41.784L63.2812 38.9159C61.7614 38.5261 60.4137 37.6339 59.4521 36.3808C58.4904 35.1277 57.9699 33.5855 57.9731 31.999L57.9789 28.7418C57.9752 28.6505 57.9447 28.5624 57.8911 28.4889C57.8376 28.4154 57.7636 28.3597 57.6785 28.3291C50.1701 25.3489 41.8283 25.3368 34.3115 28.2953C34.2253 28.3307 34.1515 28.3915 34.0998 28.4698C34.0481 28.5481 34.0207 28.6403 34.0213 28.7344L34.0402 31.9784C34.0448 33.5658 33.5251 35.1092 32.5637 36.3635C31.6022 37.6177 30.2541 38.5109 28.7335 38.9011L17.5354 41.7752C17.0274 41.8993 16.5067 41.9624 15.9841 41.9631L15.9812 41.9631Z" fill="#0098FF"/>
<g filter="url(#filter0_d_926_1220)">
<path d="M46.0001 11.0076C54.1362 11.0075 62.1899 12.6555 69.6866 15.8546C73.0464 17.286 75.9144 19.6883 77.9318 22.7608C79.9492 25.8333 81.0263 29.4396 81.0284 33.1284L81.0088 35.3892C81.006 36.7284 80.479 38.0119 79.5433 38.9589C78.6077 39.9059 77.3394 40.4393 76.016 40.4425L75.9514 40.4432C75.5741 40.4429 75.1981 40.4003 74.8301 40.3162L63.6454 37.4585C62.4472 37.1494 61.385 36.445 60.6268 35.4567C59.8685 34.4684 59.4574 33.2525 59.4585 32.0013L59.465 28.7448C59.4608 28.3472 59.3377 27.9603 59.112 27.6349C58.8862 27.3094 58.5684 27.0608 58.2004 26.9216C50.3503 23.8096 41.6304 23.8002 33.7737 26.8952C33.4064 27.0402 33.0913 27.2947 32.8701 27.625C32.6489 27.9553 32.5322 28.3458 32.5352 28.7448L32.555 31.9873C32.5561 33.2386 32.1451 34.4546 31.3868 35.443C30.6285 36.4315 29.5663 37.136 28.3681 37.4452L17.1702 40.3162C16.785 40.4108 16.3899 40.4587 15.9935 40.4586H15.9845C15.3285 40.4575 14.6792 40.3257 14.0736 40.0707C13.468 39.8157 12.918 39.4424 12.4549 38.9723C11.9919 38.5022 11.6249 37.9444 11.3749 37.3307C11.1249 36.717 10.9968 36.0596 10.998 35.3958L10.9719 33.1284C10.974 29.4395 12.0511 25.8333 14.0685 22.7608C16.0858 19.6883 18.9539 17.286 22.3136 15.8545C29.8103 12.6555 37.8641 11.0075 46.0001 11.0076V11.0076ZM46.0001 8.00004C37.4666 7.99074 29.0185 9.71953 21.1591 13.0834C17.2576 14.7397 13.9269 17.526 11.5856 21.0921C9.24429 24.6581 7.99684 28.8448 8.00001 33.1262L8.02631 35.431C8.03298 37.5623 8.87348 39.6041 10.364 41.1099C11.8545 42.6157 13.8736 43.4629 15.9798 43.4662C16.6172 43.4671 17.2525 43.3907 17.872 43.2386L29.0979 40.361C30.938 39.888 32.5696 38.8073 33.7342 37.29C34.8987 35.7727 35.5296 33.9055 35.5269 31.9844L35.5114 29.4467C42.2906 26.9567 49.721 26.9692 56.492 29.482L56.4868 31.9954C56.4833 33.9161 57.1133 35.7832 58.277 37.3007C59.4408 38.8182 61.0717 39.8993 62.9113 40.3727L74.1026 43.232L74.1392 43.2415L74.176 43.2503C74.7587 43.3832 75.3541 43.4505 75.9515 43.4507H75.9709L76.0549 43.45C78.1578 43.4338 80.1696 42.579 81.6535 41.0711C83.1374 39.5631 83.9737 37.5238 83.9807 35.3958L84.0002 33.1547C84.0076 28.8686 82.7621 24.676 80.4204 21.1044C78.0787 17.5328 74.7453 14.7418 70.8398 13.0826C62.9808 9.71917 54.5331 7.99066 46.0001 8.00004V8.00004Z" fill="white"/>
</g>
<path d="M41.4181 35.1755H50.5822C51.1077 35.1755 51.6118 35.3868 51.9834 35.7628C52.355 36.1389 52.5638 36.6489 52.5638 37.1807V43.8536C52.5638 44.3854 52.355 44.8954 51.9834 45.2714C51.6117 45.6475 51.1077 45.8587 50.5822 45.8587H41.4181C40.8926 45.8587 40.3885 45.6475 40.0169 45.2714C39.6453 44.8954 39.4365 44.3854 39.4365 43.8536V37.1807C39.4365 36.6489 39.6453 36.1389 40.0169 35.7628C40.3886 35.3868 40.8926 35.1755 41.4181 35.1755Z" fill="#AFDEFD"/>
<path d="M19.2863 54.8972H28.4488C28.709 54.8972 28.9667 54.9491 29.2071 55.0499C29.4475 55.1506 29.666 55.2983 29.85 55.4845C30.034 55.6707 30.1799 55.8918 30.2795 56.135C30.3791 56.3783 30.4304 56.6391 30.4304 56.9024V63.5752C30.4304 64.107 30.2216 64.6171 29.85 64.9931C29.4783 65.3692 28.9743 65.5804 28.4488 65.5804H19.2863C18.7607 65.5804 18.2567 65.3692 17.8851 64.9931C17.5135 64.6171 17.3047 64.107 17.3047 63.5752V56.9024C17.3047 56.3706 17.5135 55.8606 17.8851 55.4845C18.2567 55.1085 18.7607 54.8972 19.2863 54.8972V54.8972Z" fill="#AFDEFD"/>
<path d="M19.2863 73.3168H28.4488C28.709 73.3168 28.9667 73.3686 29.2071 73.4694C29.4475 73.5702 29.666 73.7179 29.85 73.9041C30.034 74.0903 30.1799 74.3113 30.2795 74.5546C30.3791 74.7979 30.4304 75.0586 30.4304 75.3219V81.9948C30.4304 82.5266 30.2216 83.0366 29.85 83.4127C29.4783 83.7887 28.9743 84 28.4488 84H19.2863C18.7607 84 18.2567 83.7887 17.8851 83.4127C17.5135 83.0366 17.3047 82.5266 17.3047 81.9948V75.322C17.3047 74.7901 17.5135 74.2801 17.8851 73.9041C18.2567 73.528 18.7607 73.3168 19.2863 73.3168V73.3168Z" fill="#AFDEFD"/>
<path d="M50.5821 54.8972H41.4181C40.3237 54.8972 39.4365 55.795 39.4365 56.9024V63.5752C39.4365 64.6827 40.3237 65.5804 41.4181 65.5804H50.5821C51.6766 65.5804 52.5638 64.6827 52.5638 63.5752V56.9024C52.5638 55.795 51.6766 54.8972 50.5821 54.8972Z" fill="#AFDEFD"/>
<path d="M63.9555 54.8972H73.1179C73.6435 54.8972 74.1475 55.1085 74.5192 55.4845C74.8908 55.8606 75.0996 56.3706 75.0996 56.9024V63.5752C75.0996 64.1071 74.8908 64.6171 74.5192 64.9931C74.1475 65.3692 73.6435 65.5804 73.118 65.5804H63.9555C63.4299 65.5804 62.9259 65.3692 62.5543 64.9931C62.1827 64.6171 61.9739 64.1071 61.9739 63.5752V56.9024C61.9739 56.6391 62.0251 56.3783 62.1247 56.1351C62.2243 55.8918 62.3703 55.6707 62.5543 55.4845C62.7383 55.2983 62.9567 55.1506 63.1972 55.0499C63.4376 54.9491 63.6953 54.8972 63.9555 54.8972V54.8972Z" fill="#AFDEFD"/>
<path d="M63.9555 73.3168H73.1179C73.6435 73.3168 74.1475 73.528 74.5192 73.9041C74.8908 74.2801 75.0996 74.7901 75.0996 75.322V81.9948C75.0996 82.5266 74.8908 83.0366 74.5192 83.4127C74.1475 83.7887 73.6435 84 73.1179 84H63.9555C63.4299 84 62.9259 83.7887 62.5543 83.4127C62.1827 83.0366 61.9739 82.5266 61.9739 81.9948V75.322C61.9739 75.0586 62.0251 74.7979 62.1247 74.5546C62.2243 74.3113 62.3703 74.0903 62.5543 73.9041C62.7383 73.7179 62.9567 73.5702 63.1972 73.4694C63.4376 73.3686 63.6953 73.3168 63.9555 73.3168V73.3168Z" fill="#AFDEFD"/>
<defs>
<filter id="filter0_d_926_1220" x="4" y="5" width="84.0002" height="43.4662" filterUnits="userSpaceOnUse" color-interpolation-filters="sRGB">
<feFlood flood-opacity="0" result="BackgroundImageFix"/>
<feColorMatrix in="SourceAlpha" type="matrix" values="0 0 0 0 0 0 0 0 0 0 0 0 0 0 0 0 0 0 127 0" result="hardAlpha"/>
<feOffset dy="1"/>
<feGaussianBlur stdDeviation="2"/>
<feComposite in2="hardAlpha" operator="out"/>
<feColorMatrix type="matrix" values="0 0 0 0 0 0 0 0 0 0 0 0 0 0 0 0 0 0 0.25 0"/>
<feBlend mode="normal" in2="BackgroundImageFix" result="effect1_dropShadow_926_1220"/>
<feBlend mode="normal" in="SourceGraphic" in2="effect1_dropShadow_926_1220" result="shape"/>
</filter>
</defs>
</svg>
