<svg width="25" height="25" viewBox="0 0 25 25" fill="none" xmlns="http://www.w3.org/2000/svg">
<path fill-rule="evenodd" clip-rule="evenodd" d="M6.84842 6.84333C9.97183 3.71894 15.0364 3.71737 18.1618 6.8398C21.2825 9.96804 21.2825 15.032 18.1618 18.1602C15.0364 21.2826 9.97183 21.2811 6.84842 18.1567C3.72501 15.0323 3.72501 9.96771 6.84842 6.84333ZM15.6172 15.6037C15.8669 15.3529 15.8773 14.9507 15.6409 14.6874L13.5662 12.6134C13.5014 12.5483 13.5014 12.443 13.5662 12.3779L15.6409 10.3033C15.9015 10.0428 15.9017 9.62037 15.6412 9.35971C15.3807 9.09905 14.9583 9.0989 14.6976 9.35938L12.623 11.434C12.5917 11.4654 12.5492 11.483 12.5049 11.483C12.4606 11.483 12.4181 11.4654 12.3868 11.434L10.3129 9.35938C10.0489 9.12102 9.64433 9.13169 9.39328 9.38363C9.14223 9.63557 9.133 10.0402 9.37228 10.3033L11.4469 12.3779C11.4782 12.4091 11.4959 12.4515 11.4959 12.4957C11.4959 12.5399 11.4782 12.5822 11.4469 12.6134L9.37228 14.6874C9.24702 14.8125 9.17664 14.9823 9.17664 15.1593C9.17664 15.3364 9.24702 15.5062 9.37228 15.6313C9.63563 15.8854 10.0529 15.8854 10.3162 15.6313L12.3902 13.5567C12.4556 13.4921 12.5609 13.4921 12.6263 13.5567L14.7009 15.6313C14.9653 15.8666 15.3674 15.8545 15.6172 15.6037Z" fill="#7B7A7B"/>
<mask id="mask0" style="mask-type:alpha" maskUnits="userSpaceOnUse" x="4" y="4" width="17" height="17">
<path fill-rule="evenodd" clip-rule="evenodd" d="M6.84842 6.84333C9.97183 3.71894 15.0364 3.71737 18.1618 6.8398C21.2825 9.96804 21.2825 15.032 18.1618 18.1602C15.0364 21.2826 9.97183 21.2811 6.84842 18.1567C3.72501 15.0323 3.72501 9.96771 6.84842 6.84333ZM15.6172 15.6037C15.8669 15.3529 15.8773 14.9507 15.6409 14.6874L13.5662 12.6134C13.5014 12.5483 13.5014 12.443 13.5662 12.3779L15.6409 10.3033C15.9015 10.0428 15.9017 9.62037 15.6412 9.35971C15.3807 9.09905 14.9583 9.0989 14.6976 9.35938L12.623 11.434C12.5917 11.4654 12.5492 11.483 12.5049 11.483C12.4606 11.483 12.4181 11.4654 12.3868 11.434L10.3129 9.35938C10.0489 9.12102 9.64433 9.13169 9.39328 9.38363C9.14223 9.63557 9.133 10.0402 9.37228 10.3033L11.4469 12.3779C11.4782 12.4091 11.4959 12.4515 11.4959 12.4957C11.4959 12.5399 11.4782 12.5822 11.4469 12.6134L9.37228 14.6874C9.24702 14.8125 9.17664 14.9823 9.17664 15.1593C9.17664 15.3364 9.24702 15.5062 9.37228 15.6313C9.63563 15.8854 10.0529 15.8854 10.3162 15.6313L12.3902 13.5567C12.4556 13.4921 12.5609 13.4921 12.6263 13.5567L14.7009 15.6313C14.9653 15.8666 15.3674 15.8545 15.6172 15.6037Z" fill="white"/>
</mask>
<g mask="url(#mask0)">
</g>
</svg>
