<svg width="25" height="25" viewBox="0 0 25 25" fill="none" xmlns="http://www.w3.org/2000/svg">
<path d="M4.4111 14.4226C5.23124 10.4923 8.65344 7.7 12.5002 7.7C16.347 7.7 19.7691 10.4923 20.5893 14.4226C20.657 14.747 20.9749 14.955 21.2992 14.8873C21.6236 14.8197 21.8317 14.5018 21.764 14.1774C20.8312 9.70774 16.9323 6.5 12.5002 6.5C8.06811 6.5 4.1691 9.70773 3.23641 14.1774C3.16872 14.5018 3.37681 14.8197 3.70119 14.8873C4.02558 14.955 4.34341 14.7469 4.4111 14.4226Z" fill="#7B7A7B"/>
<path d="M12.4876 10.1C14.8072 10.1 16.6876 11.9804 16.6876 14.3C16.6876 16.6196 14.8072 18.5 12.4876 18.5C10.168 18.5 8.28763 16.6196 8.28763 14.3C8.28763 11.9804 10.168 10.1 12.4876 10.1Z" fill="#7B7A7B"/>
</svg>
