<svg width="25" height="25" viewBox="0 0 25 25" fill="none" xmlns="http://www.w3.org/2000/svg">
<path fill-rule="evenodd" clip-rule="evenodd" d="M5 17V14.3107C5 14.1117 5.07902 13.921 5.21967 13.7803L15.7197 3.28032C16.0126 2.98743 16.4874 2.98743 16.7803 3.28032L19.4697 5.96966C19.7626 6.26256 19.7626 6.73743 19.4697 7.03032L8.96967 17.5303C8.82902 17.671 8.63825 17.75 8.43934 17.75H5.75C5.33579 17.75 5 17.4142 5 17ZM5 20.375C4.37868 20.375 3.875 20.8787 3.875 21.5C3.875 22.1213 4.37868 22.625 5 22.625H20C20.6213 22.625 21.125 22.1213 21.125 21.5C21.125 20.8787 20.6213 20.375 20 20.375H5Z" fill="#7B7A7B"/>
</svg>
